G04 #@! TF.GenerationSoftware,KiCad,Pcbnew,(5.0.1)-3*
G04 #@! TF.CreationDate,2019-12-21T11:02:08-05:00*
G04 #@! TF.ProjectId,BMS Module,424D53204D6F64756C652E6B69636164,rev?*
G04 #@! TF.SameCoordinates,Original*
G04 #@! TF.FileFunction,Copper,L2,Bot,Signal*
G04 #@! TF.FilePolarity,Positive*
%FSLAX46Y46*%
G04 Gerber Fmt 4.6, Leading zero omitted, Abs format (unit mm)*
G04 Created by KiCad (PCBNEW (5.0.1)-3) date 12/21/2019 11:02:08 AM*
%MOMM*%
%LPD*%
G01*
G04 APERTURE LIST*
G04 #@! TA.AperFunction,NonConductor*
%ADD10C,0.250000*%
G04 #@! TD*
G04 #@! TA.AperFunction,ComponentPad*
%ADD11O,1.700000X1.700000*%
G04 #@! TD*
G04 #@! TA.AperFunction,ComponentPad*
%ADD12R,1.700000X1.700000*%
G04 #@! TD*
G04 #@! TA.AperFunction,SMDPad,CuDef*
%ADD13R,5.000000X5.000000*%
G04 #@! TD*
G04 #@! TA.AperFunction,ViaPad*
%ADD14C,0.800000*%
G04 #@! TD*
G04 #@! TA.AperFunction,Conductor*
%ADD15C,0.250000*%
G04 #@! TD*
G04 #@! TA.AperFunction,Conductor*
%ADD16C,1.500000*%
G04 #@! TD*
G04 #@! TA.AperFunction,Conductor*
%ADD17C,2.000000*%
G04 #@! TD*
G04 #@! TA.AperFunction,Conductor*
%ADD18C,0.254000*%
G04 #@! TD*
G04 APERTURE END LIST*
D10*
X141254952Y-71810571D02*
X141112095Y-71858190D01*
X141064476Y-71905809D01*
X141016857Y-72001047D01*
X141016857Y-72143904D01*
X141064476Y-72239142D01*
X141112095Y-72286761D01*
X141207333Y-72334380D01*
X141588285Y-72334380D01*
X141588285Y-71334380D01*
X141254952Y-71334380D01*
X141159714Y-71382000D01*
X141112095Y-71429619D01*
X141064476Y-71524857D01*
X141064476Y-71620095D01*
X141112095Y-71715333D01*
X141159714Y-71762952D01*
X141254952Y-71810571D01*
X141588285Y-71810571D01*
X140588285Y-72334380D02*
X140588285Y-71334380D01*
X140254952Y-72048666D01*
X139921619Y-71334380D01*
X139921619Y-72334380D01*
X139493047Y-72286761D02*
X139350190Y-72334380D01*
X139112095Y-72334380D01*
X139016857Y-72286761D01*
X138969238Y-72239142D01*
X138921619Y-72143904D01*
X138921619Y-72048666D01*
X138969238Y-71953428D01*
X139016857Y-71905809D01*
X139112095Y-71858190D01*
X139302571Y-71810571D01*
X139397809Y-71762952D01*
X139445428Y-71715333D01*
X139493047Y-71620095D01*
X139493047Y-71524857D01*
X139445428Y-71429619D01*
X139397809Y-71382000D01*
X139302571Y-71334380D01*
X139064476Y-71334380D01*
X138921619Y-71382000D01*
X137731142Y-72334380D02*
X137731142Y-71334380D01*
X137397809Y-72048666D01*
X137064476Y-71334380D01*
X137064476Y-72334380D01*
X136445428Y-72334380D02*
X136540666Y-72286761D01*
X136588285Y-72239142D01*
X136635904Y-72143904D01*
X136635904Y-71858190D01*
X136588285Y-71762952D01*
X136540666Y-71715333D01*
X136445428Y-71667714D01*
X136302571Y-71667714D01*
X136207333Y-71715333D01*
X136159714Y-71762952D01*
X136112095Y-71858190D01*
X136112095Y-72143904D01*
X136159714Y-72239142D01*
X136207333Y-72286761D01*
X136302571Y-72334380D01*
X136445428Y-72334380D01*
X135254952Y-72334380D02*
X135254952Y-71334380D01*
X135254952Y-72286761D02*
X135350190Y-72334380D01*
X135540666Y-72334380D01*
X135635904Y-72286761D01*
X135683523Y-72239142D01*
X135731142Y-72143904D01*
X135731142Y-71858190D01*
X135683523Y-71762952D01*
X135635904Y-71715333D01*
X135540666Y-71667714D01*
X135350190Y-71667714D01*
X135254952Y-71715333D01*
X134350190Y-71667714D02*
X134350190Y-72334380D01*
X134778761Y-71667714D02*
X134778761Y-72191523D01*
X134731142Y-72286761D01*
X134635904Y-72334380D01*
X134493047Y-72334380D01*
X134397809Y-72286761D01*
X134350190Y-72239142D01*
X133731142Y-72334380D02*
X133826380Y-72286761D01*
X133874000Y-72191523D01*
X133874000Y-71334380D01*
X132969238Y-72286761D02*
X133064476Y-72334380D01*
X133254952Y-72334380D01*
X133350190Y-72286761D01*
X133397809Y-72191523D01*
X133397809Y-71810571D01*
X133350190Y-71715333D01*
X133254952Y-71667714D01*
X133064476Y-71667714D01*
X132969238Y-71715333D01*
X132921619Y-71810571D01*
X132921619Y-71905809D01*
X133397809Y-72001047D01*
X131159714Y-72334380D02*
X131493047Y-71858190D01*
X131731142Y-72334380D02*
X131731142Y-71334380D01*
X131350190Y-71334380D01*
X131254952Y-71382000D01*
X131207333Y-71429619D01*
X131159714Y-71524857D01*
X131159714Y-71667714D01*
X131207333Y-71762952D01*
X131254952Y-71810571D01*
X131350190Y-71858190D01*
X131731142Y-71858190D01*
X130350190Y-72286761D02*
X130445428Y-72334380D01*
X130635904Y-72334380D01*
X130731142Y-72286761D01*
X130778761Y-72191523D01*
X130778761Y-71810571D01*
X130731142Y-71715333D01*
X130635904Y-71667714D01*
X130445428Y-71667714D01*
X130350190Y-71715333D01*
X130302571Y-71810571D01*
X130302571Y-71905809D01*
X130778761Y-72001047D01*
X129969238Y-71667714D02*
X129731142Y-72334380D01*
X129493047Y-71667714D01*
X129112095Y-72239142D02*
X129064476Y-72286761D01*
X129112095Y-72334380D01*
X129159714Y-72286761D01*
X129112095Y-72239142D01*
X129112095Y-72334380D01*
X128731142Y-71334380D02*
X128112095Y-71334380D01*
X128445428Y-71715333D01*
X128302571Y-71715333D01*
X128207333Y-71762952D01*
X128159714Y-71810571D01*
X128112095Y-71905809D01*
X128112095Y-72143904D01*
X128159714Y-72239142D01*
X128207333Y-72286761D01*
X128302571Y-72334380D01*
X128588285Y-72334380D01*
X128683523Y-72286761D01*
X128731142Y-72239142D01*
D11*
G04 #@! TO.P,J7,6*
G04 #@! TO.N,OUT-*
X146050000Y-90170000D03*
G04 #@! TO.P,J7,5*
X146050000Y-87630000D03*
G04 #@! TO.P,J7,4*
X146050000Y-85090000D03*
G04 #@! TO.P,J7,3*
G04 #@! TO.N,+5V*
X146050000Y-82550000D03*
G04 #@! TO.P,J7,2*
X146050000Y-80010000D03*
D12*
G04 #@! TO.P,J7,1*
X146050000Y-77470000D03*
G04 #@! TD*
G04 #@! TO.P,J2,1*
G04 #@! TO.N,BAT+*
X99060000Y-77470000D03*
D11*
G04 #@! TO.P,J2,2*
X99060000Y-80010000D03*
G04 #@! TO.P,J2,3*
X99060000Y-82550000D03*
G04 #@! TO.P,J2,4*
G04 #@! TO.N,GND*
X99060000Y-85090000D03*
G04 #@! TO.P,J2,5*
X99060000Y-87630000D03*
G04 #@! TO.P,J2,6*
X99060000Y-90170000D03*
G04 #@! TD*
D12*
G04 #@! TO.P,J5,1*
G04 #@! TO.N,/MISO*
X104775000Y-90170000D03*
D11*
G04 #@! TO.P,J5,2*
G04 #@! TO.N,VUSB*
X107315000Y-90170000D03*
G04 #@! TO.P,J5,3*
G04 #@! TO.N,/SCK*
X104775000Y-92710000D03*
G04 #@! TO.P,J5,4*
G04 #@! TO.N,/ACTIVE_INDICATOR*
X107315000Y-92710000D03*
G04 #@! TO.P,J5,5*
G04 #@! TO.N,/RST*
X104775000Y-95250000D03*
G04 #@! TO.P,J5,6*
G04 #@! TO.N,GND*
X107315000Y-95250000D03*
G04 #@! TD*
D13*
G04 #@! TO.P,J6,1*
G04 #@! TO.N,+5V*
X146050000Y-73660000D03*
G04 #@! TD*
G04 #@! TO.P,J3,1*
G04 #@! TO.N,GND*
X99060000Y-93980000D03*
G04 #@! TD*
G04 #@! TO.P,J1,1*
G04 #@! TO.N,BAT+*
X99060000Y-73660000D03*
G04 #@! TD*
G04 #@! TO.P,J8,1*
G04 #@! TO.N,OUT-*
X146050000Y-93980000D03*
G04 #@! TD*
D14*
G04 #@! TO.N,GND*
X122682000Y-94996000D03*
X113538000Y-94996000D03*
X114935000Y-83185000D03*
X104648000Y-74676000D03*
X109093000Y-76073000D03*
X105410000Y-86487000D03*
X108966000Y-86487000D03*
X112903000Y-75210002D03*
X130937000Y-95504000D03*
X136010000Y-95645000D03*
X137033000Y-95631000D03*
X138049000Y-95631000D03*
X140970000Y-90297000D03*
X131953000Y-85725000D03*
X131953000Y-86741000D03*
X131953000Y-87757000D03*
X136779000Y-74168000D03*
X121285000Y-71755000D03*
X122301000Y-71755000D03*
X126873000Y-75927000D03*
X126873000Y-86995000D03*
G04 #@! TO.N,VUSB*
X110363000Y-81407000D03*
X110236000Y-77984990D03*
X107315000Y-86868000D03*
G04 #@! TO.N,BAT+*
X111635158Y-83860148D03*
X111506000Y-81026000D03*
G04 #@! TO.N,BoostConv_IN*
X113030000Y-85598000D03*
X117221000Y-80264000D03*
G04 #@! TO.N,/SCK*
X119126000Y-82550000D03*
X119126000Y-88646000D03*
X116205000Y-88911237D03*
X116840000Y-87376000D03*
G04 #@! TO.N,+5V*
X116840000Y-85598000D03*
X118237000Y-81534000D03*
X111595010Y-86106000D03*
X111252000Y-93853000D03*
X128016000Y-92075000D03*
X132461000Y-89281000D03*
G04 #@! TO.N,Net-(R2-Pad2)*
X128629847Y-77956847D03*
X129159000Y-73787000D03*
G04 #@! TO.N,/MISO*
X118114653Y-84069347D03*
X117978347Y-85983653D03*
G04 #@! TO.N,OUT-*
X135763000Y-93345000D03*
X136779000Y-93345000D03*
X137795000Y-93345000D03*
G04 #@! TO.N,/ACTIVE_INDICATOR*
X120396000Y-91567000D03*
X120110382Y-85686258D03*
G04 #@! TD*
D15*
G04 #@! TO.N,VUSB*
X110363000Y-81407000D02*
X110363000Y-78111990D01*
X110363000Y-78111990D02*
X110236000Y-77984990D01*
X107315000Y-87433685D02*
X107315000Y-90170000D01*
X107315000Y-86868000D02*
X107315000Y-87433685D01*
D16*
G04 #@! TO.N,BAT+*
X99060000Y-82550000D02*
X99060000Y-73660000D01*
D15*
X111635158Y-83860148D02*
X111635158Y-81155158D01*
X111635158Y-81155158D02*
X111506000Y-81026000D01*
G04 #@! TO.N,BoostConv_IN*
X117221000Y-81972685D02*
X117221000Y-80264000D01*
X113030000Y-85598000D02*
X113595685Y-85598000D01*
X113595685Y-85598000D02*
X117221000Y-81972685D01*
G04 #@! TO.N,/SCK*
X119126000Y-82550000D02*
X119126000Y-88646000D01*
X116205000Y-88911237D02*
X116205000Y-88011000D01*
X116205000Y-88011000D02*
X116840000Y-87376000D01*
D17*
G04 #@! TO.N,+5V*
X146050000Y-82550000D02*
X146050000Y-73660000D01*
D15*
X118237000Y-82873998D02*
X118237000Y-81534000D01*
X116840000Y-85598000D02*
X116840000Y-84270998D01*
X116840000Y-84270998D02*
X118237000Y-82873998D01*
X111595010Y-86106000D02*
X111595010Y-93509990D01*
X111595010Y-93509990D02*
X111252000Y-93853000D01*
X128016000Y-92075000D02*
X130810000Y-89281000D01*
X130810000Y-89281000D02*
X132461000Y-89281000D01*
G04 #@! TO.N,Net-(R2-Pad2)*
X128629847Y-77956847D02*
X129159000Y-77427694D01*
X129159000Y-77427694D02*
X129159000Y-73787000D01*
G04 #@! TO.N,/MISO*
X118114653Y-84069347D02*
X118114653Y-85847347D01*
X118114653Y-85847347D02*
X117978347Y-85983653D01*
D17*
G04 #@! TO.N,OUT-*
X146050000Y-85090000D02*
X146050000Y-93980000D01*
X143129000Y-93980000D02*
X142494000Y-93345000D01*
X146050000Y-93980000D02*
X143129000Y-93980000D01*
X142494000Y-93345000D02*
X135763000Y-93345000D01*
D15*
G04 #@! TO.N,/ACTIVE_INDICATOR*
X120396000Y-91567000D02*
X120396000Y-85971876D01*
X120396000Y-85971876D02*
X120110382Y-85686258D01*
G04 #@! TD*
D18*
G04 #@! TO.N,GND*
G36*
X127161619Y-73484500D02*
X128164024Y-73484500D01*
X128124000Y-73581126D01*
X128124000Y-73992874D01*
X128281569Y-74373280D01*
X128399001Y-74490712D01*
X128399000Y-76932191D01*
X128043567Y-77079416D01*
X127752416Y-77370567D01*
X127594847Y-77750973D01*
X127594847Y-78162721D01*
X127752416Y-78543127D01*
X128043567Y-78834278D01*
X128423973Y-78991847D01*
X128835721Y-78991847D01*
X129216127Y-78834278D01*
X129507278Y-78543127D01*
X129664847Y-78162721D01*
X129664847Y-78003741D01*
X129706929Y-77975623D01*
X129749327Y-77912170D01*
X129749329Y-77912168D01*
X129838231Y-77779116D01*
X129874904Y-77724231D01*
X129919000Y-77502546D01*
X129919000Y-77502542D01*
X129933888Y-77427695D01*
X129919000Y-77352848D01*
X129919000Y-74490711D01*
X130036431Y-74373280D01*
X130194000Y-73992874D01*
X130194000Y-73581126D01*
X130153976Y-73484500D01*
X142586381Y-73484500D01*
X142586381Y-71247000D01*
X142902560Y-71247000D01*
X142902560Y-76160000D01*
X142951843Y-76407765D01*
X143092191Y-76617809D01*
X143302235Y-76758157D01*
X143550000Y-76807440D01*
X144415001Y-76807440D01*
X144415000Y-82711030D01*
X144509864Y-83187944D01*
X144871231Y-83728769D01*
X145007768Y-83820000D01*
X144871231Y-83911231D01*
X144509864Y-84452056D01*
X144415000Y-84928970D01*
X144415001Y-90832560D01*
X143550000Y-90832560D01*
X143302235Y-90881843D01*
X143092191Y-91022191D01*
X142951843Y-91232235D01*
X142902560Y-91480000D01*
X142902560Y-91759237D01*
X142655031Y-91710000D01*
X142655030Y-91710000D01*
X142494000Y-91677969D01*
X142332970Y-91710000D01*
X135601969Y-91710000D01*
X135125055Y-91804864D01*
X134584231Y-92166231D01*
X134222864Y-92707055D01*
X134095969Y-93345000D01*
X134222864Y-93982945D01*
X134584231Y-94523769D01*
X135125055Y-94885136D01*
X135601969Y-94980000D01*
X141816762Y-94980000D01*
X141859012Y-95022250D01*
X141950231Y-95158769D01*
X142491055Y-95520136D01*
X142902560Y-95601989D01*
X142902560Y-96393000D01*
X108243914Y-96393000D01*
X108586645Y-96016924D01*
X108756476Y-95606890D01*
X108635155Y-95377000D01*
X107442000Y-95377000D01*
X107442000Y-95397000D01*
X107188000Y-95397000D01*
X107188000Y-95377000D01*
X107168000Y-95377000D01*
X107168000Y-95123000D01*
X107188000Y-95123000D01*
X107188000Y-95103000D01*
X107442000Y-95103000D01*
X107442000Y-95123000D01*
X108635155Y-95123000D01*
X108756476Y-94893110D01*
X108586645Y-94483076D01*
X108196358Y-94054817D01*
X108066522Y-93993843D01*
X108385625Y-93780625D01*
X108474826Y-93647126D01*
X110217000Y-93647126D01*
X110217000Y-94058874D01*
X110374569Y-94439280D01*
X110665720Y-94730431D01*
X111046126Y-94888000D01*
X111457874Y-94888000D01*
X111838280Y-94730431D01*
X112129431Y-94439280D01*
X112287000Y-94058874D01*
X112287000Y-93842317D01*
X112310914Y-93806527D01*
X112355010Y-93584842D01*
X112355010Y-93584838D01*
X112369898Y-93509991D01*
X112355010Y-93435144D01*
X112355010Y-86809711D01*
X112472441Y-86692280D01*
X112544903Y-86517342D01*
X112824126Y-86633000D01*
X113235874Y-86633000D01*
X113616280Y-86475431D01*
X113749397Y-86342314D01*
X113892222Y-86313904D01*
X114143614Y-86145929D01*
X114186016Y-86082470D01*
X116081903Y-84186583D01*
X116065112Y-84270998D01*
X116080001Y-84345849D01*
X116080001Y-84894288D01*
X115962569Y-85011720D01*
X115805000Y-85392126D01*
X115805000Y-85803874D01*
X115962569Y-86184280D01*
X116253720Y-86475431D01*
X116281650Y-86487000D01*
X116253720Y-86498569D01*
X115962569Y-86789720D01*
X115805000Y-87170126D01*
X115805000Y-87336199D01*
X115720528Y-87420671D01*
X115657072Y-87463071D01*
X115614672Y-87526527D01*
X115614671Y-87526528D01*
X115489097Y-87714463D01*
X115430112Y-88011000D01*
X115445001Y-88085851D01*
X115445001Y-88207525D01*
X115327569Y-88324957D01*
X115170000Y-88705363D01*
X115170000Y-89117111D01*
X115327569Y-89497517D01*
X115618720Y-89788668D01*
X115999126Y-89946237D01*
X116410874Y-89946237D01*
X116791280Y-89788668D01*
X117082431Y-89497517D01*
X117240000Y-89117111D01*
X117240000Y-88705363D01*
X117107498Y-88385475D01*
X117426280Y-88253431D01*
X117717431Y-87962280D01*
X117875000Y-87581874D01*
X117875000Y-87170126D01*
X117812258Y-87018653D01*
X118184221Y-87018653D01*
X118366001Y-86943358D01*
X118366001Y-87942288D01*
X118248569Y-88059720D01*
X118091000Y-88440126D01*
X118091000Y-88851874D01*
X118248569Y-89232280D01*
X118539720Y-89523431D01*
X118920126Y-89681000D01*
X119331874Y-89681000D01*
X119636000Y-89555027D01*
X119636000Y-90863289D01*
X119518569Y-90980720D01*
X119361000Y-91361126D01*
X119361000Y-91772874D01*
X119518569Y-92153280D01*
X119809720Y-92444431D01*
X120190126Y-92602000D01*
X120601874Y-92602000D01*
X120982280Y-92444431D01*
X121273431Y-92153280D01*
X121391131Y-91869126D01*
X126981000Y-91869126D01*
X126981000Y-92280874D01*
X127138569Y-92661280D01*
X127429720Y-92952431D01*
X127810126Y-93110000D01*
X128221874Y-93110000D01*
X128602280Y-92952431D01*
X128893431Y-92661280D01*
X129051000Y-92280874D01*
X129051000Y-92114801D01*
X131124802Y-90041000D01*
X131757289Y-90041000D01*
X131874720Y-90158431D01*
X132255126Y-90316000D01*
X132666874Y-90316000D01*
X133047280Y-90158431D01*
X133338431Y-89867280D01*
X133496000Y-89486874D01*
X133496000Y-89075126D01*
X133338431Y-88694720D01*
X133047280Y-88403569D01*
X132666874Y-88246000D01*
X132255126Y-88246000D01*
X131874720Y-88403569D01*
X131757289Y-88521000D01*
X130884848Y-88521000D01*
X130810000Y-88506112D01*
X130735152Y-88521000D01*
X130735148Y-88521000D01*
X130561605Y-88555520D01*
X130513462Y-88565096D01*
X130352632Y-88672560D01*
X130262071Y-88733071D01*
X130219671Y-88796527D01*
X127976199Y-91040000D01*
X127810126Y-91040000D01*
X127429720Y-91197569D01*
X127138569Y-91488720D01*
X126981000Y-91869126D01*
X121391131Y-91869126D01*
X121431000Y-91772874D01*
X121431000Y-91361126D01*
X121273431Y-90980720D01*
X121156000Y-90863289D01*
X121156000Y-86046724D01*
X121170888Y-85971876D01*
X121156000Y-85897028D01*
X121156000Y-85897024D01*
X121145382Y-85843644D01*
X121145382Y-85480384D01*
X120987813Y-85099978D01*
X120696662Y-84808827D01*
X120316256Y-84651258D01*
X119904508Y-84651258D01*
X119886000Y-84658924D01*
X119886000Y-83253711D01*
X120003431Y-83136280D01*
X120161000Y-82755874D01*
X120161000Y-82344126D01*
X120003431Y-81963720D01*
X119712280Y-81672569D01*
X119331874Y-81515000D01*
X119272000Y-81515000D01*
X119272000Y-81328126D01*
X119114431Y-80947720D01*
X118823280Y-80656569D01*
X118442874Y-80499000D01*
X118243936Y-80499000D01*
X118256000Y-80469874D01*
X118256000Y-80058126D01*
X118098431Y-79677720D01*
X117807280Y-79386569D01*
X117426874Y-79229000D01*
X117015126Y-79229000D01*
X116634720Y-79386569D01*
X116343569Y-79677720D01*
X116186000Y-80058126D01*
X116186000Y-80469874D01*
X116343569Y-80850280D01*
X116461001Y-80967712D01*
X116461000Y-81657883D01*
X113462155Y-84656729D01*
X113235874Y-84563000D01*
X112824126Y-84563000D01*
X112443720Y-84720569D01*
X112152569Y-85011720D01*
X112080107Y-85186658D01*
X111800884Y-85071000D01*
X111389136Y-85071000D01*
X111008730Y-85228569D01*
X110717579Y-85519720D01*
X110560010Y-85900126D01*
X110560010Y-86311874D01*
X110717579Y-86692280D01*
X110835010Y-86809711D01*
X110835011Y-92905447D01*
X110665720Y-92975569D01*
X110374569Y-93266720D01*
X110217000Y-93647126D01*
X108474826Y-93647126D01*
X108713839Y-93289418D01*
X108829092Y-92710000D01*
X108713839Y-92130582D01*
X108385625Y-91639375D01*
X108087239Y-91440000D01*
X108385625Y-91240625D01*
X108713839Y-90749418D01*
X108829092Y-90170000D01*
X108713839Y-89590582D01*
X108385625Y-89099375D01*
X108075000Y-88891822D01*
X108075000Y-87571711D01*
X108192431Y-87454280D01*
X108350000Y-87073874D01*
X108350000Y-86662126D01*
X108192431Y-86281720D01*
X107901280Y-85990569D01*
X107520874Y-85833000D01*
X107109126Y-85833000D01*
X106728720Y-85990569D01*
X106437569Y-86281720D01*
X106280000Y-86662126D01*
X106280000Y-87073874D01*
X106437569Y-87454280D01*
X106555000Y-87571711D01*
X106555001Y-88891822D01*
X106244375Y-89099375D01*
X106232184Y-89117619D01*
X106223157Y-89072235D01*
X106082809Y-88862191D01*
X105872765Y-88721843D01*
X105625000Y-88672560D01*
X103925000Y-88672560D01*
X103677235Y-88721843D01*
X103467191Y-88862191D01*
X103326843Y-89072235D01*
X103277560Y-89320000D01*
X103277560Y-91020000D01*
X103326843Y-91267765D01*
X103467191Y-91477809D01*
X103677235Y-91618157D01*
X103722619Y-91627184D01*
X103704375Y-91639375D01*
X103376161Y-92130582D01*
X103260908Y-92710000D01*
X103376161Y-93289418D01*
X103704375Y-93780625D01*
X104002761Y-93980000D01*
X103704375Y-94179375D01*
X103376161Y-94670582D01*
X103260908Y-95250000D01*
X103376161Y-95829418D01*
X103704375Y-96320625D01*
X103812692Y-96393000D01*
X102195000Y-96393000D01*
X102195000Y-94265750D01*
X102036250Y-94107000D01*
X99187000Y-94107000D01*
X99187000Y-94127000D01*
X98933000Y-94127000D01*
X98933000Y-94107000D01*
X98913000Y-94107000D01*
X98913000Y-93853000D01*
X98933000Y-93853000D01*
X98933000Y-90297000D01*
X99187000Y-90297000D01*
X99187000Y-93853000D01*
X102036250Y-93853000D01*
X102195000Y-93694250D01*
X102195000Y-91353690D01*
X102098327Y-91120301D01*
X101919698Y-90941673D01*
X101686309Y-90845000D01*
X100369719Y-90845000D01*
X100501476Y-90526890D01*
X100380155Y-90297000D01*
X99187000Y-90297000D01*
X98933000Y-90297000D01*
X97739845Y-90297000D01*
X97618524Y-90526890D01*
X97750281Y-90845000D01*
X96647000Y-90845000D01*
X96647000Y-87986890D01*
X97618524Y-87986890D01*
X97788355Y-88396924D01*
X98178642Y-88825183D01*
X98337954Y-88900000D01*
X98178642Y-88974817D01*
X97788355Y-89403076D01*
X97618524Y-89813110D01*
X97739845Y-90043000D01*
X98933000Y-90043000D01*
X98933000Y-87757000D01*
X99187000Y-87757000D01*
X99187000Y-90043000D01*
X100380155Y-90043000D01*
X100501476Y-89813110D01*
X100331645Y-89403076D01*
X99941358Y-88974817D01*
X99782046Y-88900000D01*
X99941358Y-88825183D01*
X100331645Y-88396924D01*
X100501476Y-87986890D01*
X100380155Y-87757000D01*
X99187000Y-87757000D01*
X98933000Y-87757000D01*
X97739845Y-87757000D01*
X97618524Y-87986890D01*
X96647000Y-87986890D01*
X96647000Y-85446890D01*
X97618524Y-85446890D01*
X97788355Y-85856924D01*
X98178642Y-86285183D01*
X98337954Y-86360000D01*
X98178642Y-86434817D01*
X97788355Y-86863076D01*
X97618524Y-87273110D01*
X97739845Y-87503000D01*
X98933000Y-87503000D01*
X98933000Y-85217000D01*
X99187000Y-85217000D01*
X99187000Y-87503000D01*
X100380155Y-87503000D01*
X100501476Y-87273110D01*
X100331645Y-86863076D01*
X99941358Y-86434817D01*
X99782046Y-86360000D01*
X99941358Y-86285183D01*
X100331645Y-85856924D01*
X100501476Y-85446890D01*
X100380155Y-85217000D01*
X99187000Y-85217000D01*
X98933000Y-85217000D01*
X97739845Y-85217000D01*
X97618524Y-85446890D01*
X96647000Y-85446890D01*
X96647000Y-76807440D01*
X97562560Y-76807440D01*
X97562560Y-78320000D01*
X97611843Y-78567765D01*
X97675000Y-78662286D01*
X97675000Y-79409870D01*
X97661161Y-79430582D01*
X97545908Y-80010000D01*
X97661161Y-80589418D01*
X97675000Y-80610130D01*
X97675000Y-81949870D01*
X97661161Y-81970582D01*
X97545908Y-82550000D01*
X97661161Y-83129418D01*
X97989375Y-83620625D01*
X98308478Y-83833843D01*
X98178642Y-83894817D01*
X97788355Y-84323076D01*
X97618524Y-84733110D01*
X97739845Y-84963000D01*
X98933000Y-84963000D01*
X98933000Y-84943000D01*
X99187000Y-84943000D01*
X99187000Y-84963000D01*
X100380155Y-84963000D01*
X100501476Y-84733110D01*
X100331645Y-84323076D01*
X99941358Y-83894817D01*
X99811522Y-83833843D01*
X100130625Y-83620625D01*
X100458839Y-83129418D01*
X100574092Y-82550000D01*
X100458839Y-81970582D01*
X100445000Y-81949870D01*
X100445000Y-80610130D01*
X100458839Y-80589418D01*
X100574092Y-80010000D01*
X100458839Y-79430582D01*
X100445000Y-79409870D01*
X100445000Y-78662285D01*
X100508157Y-78567765D01*
X100557440Y-78320000D01*
X100557440Y-77779116D01*
X109201000Y-77779116D01*
X109201000Y-78190864D01*
X109358569Y-78571270D01*
X109603001Y-78815702D01*
X109603000Y-80703289D01*
X109485569Y-80820720D01*
X109328000Y-81201126D01*
X109328000Y-81612874D01*
X109485569Y-81993280D01*
X109776720Y-82284431D01*
X110157126Y-82442000D01*
X110568874Y-82442000D01*
X110875159Y-82315133D01*
X110875158Y-83156437D01*
X110757727Y-83273868D01*
X110600158Y-83654274D01*
X110600158Y-84066022D01*
X110757727Y-84446428D01*
X111048878Y-84737579D01*
X111429284Y-84895148D01*
X111841032Y-84895148D01*
X112221438Y-84737579D01*
X112512589Y-84446428D01*
X112670158Y-84066022D01*
X112670158Y-83654274D01*
X112512589Y-83273868D01*
X112395158Y-83156437D01*
X112395158Y-81583968D01*
X112541000Y-81231874D01*
X112541000Y-80820126D01*
X112383431Y-80439720D01*
X112092280Y-80148569D01*
X111711874Y-79991000D01*
X111300126Y-79991000D01*
X111123000Y-80064368D01*
X111123000Y-78548168D01*
X111271000Y-78190864D01*
X111271000Y-77779116D01*
X111113431Y-77398710D01*
X110822280Y-77107559D01*
X110441874Y-76949990D01*
X110030126Y-76949990D01*
X109649720Y-77107559D01*
X109358569Y-77398710D01*
X109201000Y-77779116D01*
X100557440Y-77779116D01*
X100557440Y-76807440D01*
X101560000Y-76807440D01*
X101807765Y-76758157D01*
X102017809Y-76617809D01*
X102158157Y-76407765D01*
X102207440Y-76160000D01*
X102207440Y-71247000D01*
X127161619Y-71247000D01*
X127161619Y-73484500D01*
X127161619Y-73484500D01*
G37*
X127161619Y-73484500D02*
X128164024Y-73484500D01*
X128124000Y-73581126D01*
X128124000Y-73992874D01*
X128281569Y-74373280D01*
X128399001Y-74490712D01*
X128399000Y-76932191D01*
X128043567Y-77079416D01*
X127752416Y-77370567D01*
X127594847Y-77750973D01*
X127594847Y-78162721D01*
X127752416Y-78543127D01*
X128043567Y-78834278D01*
X128423973Y-78991847D01*
X128835721Y-78991847D01*
X129216127Y-78834278D01*
X129507278Y-78543127D01*
X129664847Y-78162721D01*
X129664847Y-78003741D01*
X129706929Y-77975623D01*
X129749327Y-77912170D01*
X129749329Y-77912168D01*
X129838231Y-77779116D01*
X129874904Y-77724231D01*
X129919000Y-77502546D01*
X129919000Y-77502542D01*
X129933888Y-77427695D01*
X129919000Y-77352848D01*
X129919000Y-74490711D01*
X130036431Y-74373280D01*
X130194000Y-73992874D01*
X130194000Y-73581126D01*
X130153976Y-73484500D01*
X142586381Y-73484500D01*
X142586381Y-71247000D01*
X142902560Y-71247000D01*
X142902560Y-76160000D01*
X142951843Y-76407765D01*
X143092191Y-76617809D01*
X143302235Y-76758157D01*
X143550000Y-76807440D01*
X144415001Y-76807440D01*
X144415000Y-82711030D01*
X144509864Y-83187944D01*
X144871231Y-83728769D01*
X145007768Y-83820000D01*
X144871231Y-83911231D01*
X144509864Y-84452056D01*
X144415000Y-84928970D01*
X144415001Y-90832560D01*
X143550000Y-90832560D01*
X143302235Y-90881843D01*
X143092191Y-91022191D01*
X142951843Y-91232235D01*
X142902560Y-91480000D01*
X142902560Y-91759237D01*
X142655031Y-91710000D01*
X142655030Y-91710000D01*
X142494000Y-91677969D01*
X142332970Y-91710000D01*
X135601969Y-91710000D01*
X135125055Y-91804864D01*
X134584231Y-92166231D01*
X134222864Y-92707055D01*
X134095969Y-93345000D01*
X134222864Y-93982945D01*
X134584231Y-94523769D01*
X135125055Y-94885136D01*
X135601969Y-94980000D01*
X141816762Y-94980000D01*
X141859012Y-95022250D01*
X141950231Y-95158769D01*
X142491055Y-95520136D01*
X142902560Y-95601989D01*
X142902560Y-96393000D01*
X108243914Y-96393000D01*
X108586645Y-96016924D01*
X108756476Y-95606890D01*
X108635155Y-95377000D01*
X107442000Y-95377000D01*
X107442000Y-95397000D01*
X107188000Y-95397000D01*
X107188000Y-95377000D01*
X107168000Y-95377000D01*
X107168000Y-95123000D01*
X107188000Y-95123000D01*
X107188000Y-95103000D01*
X107442000Y-95103000D01*
X107442000Y-95123000D01*
X108635155Y-95123000D01*
X108756476Y-94893110D01*
X108586645Y-94483076D01*
X108196358Y-94054817D01*
X108066522Y-93993843D01*
X108385625Y-93780625D01*
X108474826Y-93647126D01*
X110217000Y-93647126D01*
X110217000Y-94058874D01*
X110374569Y-94439280D01*
X110665720Y-94730431D01*
X111046126Y-94888000D01*
X111457874Y-94888000D01*
X111838280Y-94730431D01*
X112129431Y-94439280D01*
X112287000Y-94058874D01*
X112287000Y-93842317D01*
X112310914Y-93806527D01*
X112355010Y-93584842D01*
X112355010Y-93584838D01*
X112369898Y-93509991D01*
X112355010Y-93435144D01*
X112355010Y-86809711D01*
X112472441Y-86692280D01*
X112544903Y-86517342D01*
X112824126Y-86633000D01*
X113235874Y-86633000D01*
X113616280Y-86475431D01*
X113749397Y-86342314D01*
X113892222Y-86313904D01*
X114143614Y-86145929D01*
X114186016Y-86082470D01*
X116081903Y-84186583D01*
X116065112Y-84270998D01*
X116080001Y-84345849D01*
X116080001Y-84894288D01*
X115962569Y-85011720D01*
X115805000Y-85392126D01*
X115805000Y-85803874D01*
X115962569Y-86184280D01*
X116253720Y-86475431D01*
X116281650Y-86487000D01*
X116253720Y-86498569D01*
X115962569Y-86789720D01*
X115805000Y-87170126D01*
X115805000Y-87336199D01*
X115720528Y-87420671D01*
X115657072Y-87463071D01*
X115614672Y-87526527D01*
X115614671Y-87526528D01*
X115489097Y-87714463D01*
X115430112Y-88011000D01*
X115445001Y-88085851D01*
X115445001Y-88207525D01*
X115327569Y-88324957D01*
X115170000Y-88705363D01*
X115170000Y-89117111D01*
X115327569Y-89497517D01*
X115618720Y-89788668D01*
X115999126Y-89946237D01*
X116410874Y-89946237D01*
X116791280Y-89788668D01*
X117082431Y-89497517D01*
X117240000Y-89117111D01*
X117240000Y-88705363D01*
X117107498Y-88385475D01*
X117426280Y-88253431D01*
X117717431Y-87962280D01*
X117875000Y-87581874D01*
X117875000Y-87170126D01*
X117812258Y-87018653D01*
X118184221Y-87018653D01*
X118366001Y-86943358D01*
X118366001Y-87942288D01*
X118248569Y-88059720D01*
X118091000Y-88440126D01*
X118091000Y-88851874D01*
X118248569Y-89232280D01*
X118539720Y-89523431D01*
X118920126Y-89681000D01*
X119331874Y-89681000D01*
X119636000Y-89555027D01*
X119636000Y-90863289D01*
X119518569Y-90980720D01*
X119361000Y-91361126D01*
X119361000Y-91772874D01*
X119518569Y-92153280D01*
X119809720Y-92444431D01*
X120190126Y-92602000D01*
X120601874Y-92602000D01*
X120982280Y-92444431D01*
X121273431Y-92153280D01*
X121391131Y-91869126D01*
X126981000Y-91869126D01*
X126981000Y-92280874D01*
X127138569Y-92661280D01*
X127429720Y-92952431D01*
X127810126Y-93110000D01*
X128221874Y-93110000D01*
X128602280Y-92952431D01*
X128893431Y-92661280D01*
X129051000Y-92280874D01*
X129051000Y-92114801D01*
X131124802Y-90041000D01*
X131757289Y-90041000D01*
X131874720Y-90158431D01*
X132255126Y-90316000D01*
X132666874Y-90316000D01*
X133047280Y-90158431D01*
X133338431Y-89867280D01*
X133496000Y-89486874D01*
X133496000Y-89075126D01*
X133338431Y-88694720D01*
X133047280Y-88403569D01*
X132666874Y-88246000D01*
X132255126Y-88246000D01*
X131874720Y-88403569D01*
X131757289Y-88521000D01*
X130884848Y-88521000D01*
X130810000Y-88506112D01*
X130735152Y-88521000D01*
X130735148Y-88521000D01*
X130561605Y-88555520D01*
X130513462Y-88565096D01*
X130352632Y-88672560D01*
X130262071Y-88733071D01*
X130219671Y-88796527D01*
X127976199Y-91040000D01*
X127810126Y-91040000D01*
X127429720Y-91197569D01*
X127138569Y-91488720D01*
X126981000Y-91869126D01*
X121391131Y-91869126D01*
X121431000Y-91772874D01*
X121431000Y-91361126D01*
X121273431Y-90980720D01*
X121156000Y-90863289D01*
X121156000Y-86046724D01*
X121170888Y-85971876D01*
X121156000Y-85897028D01*
X121156000Y-85897024D01*
X121145382Y-85843644D01*
X121145382Y-85480384D01*
X120987813Y-85099978D01*
X120696662Y-84808827D01*
X120316256Y-84651258D01*
X119904508Y-84651258D01*
X119886000Y-84658924D01*
X119886000Y-83253711D01*
X120003431Y-83136280D01*
X120161000Y-82755874D01*
X120161000Y-82344126D01*
X120003431Y-81963720D01*
X119712280Y-81672569D01*
X119331874Y-81515000D01*
X119272000Y-81515000D01*
X119272000Y-81328126D01*
X119114431Y-80947720D01*
X118823280Y-80656569D01*
X118442874Y-80499000D01*
X118243936Y-80499000D01*
X118256000Y-80469874D01*
X118256000Y-80058126D01*
X118098431Y-79677720D01*
X117807280Y-79386569D01*
X117426874Y-79229000D01*
X117015126Y-79229000D01*
X116634720Y-79386569D01*
X116343569Y-79677720D01*
X116186000Y-80058126D01*
X116186000Y-80469874D01*
X116343569Y-80850280D01*
X116461001Y-80967712D01*
X116461000Y-81657883D01*
X113462155Y-84656729D01*
X113235874Y-84563000D01*
X112824126Y-84563000D01*
X112443720Y-84720569D01*
X112152569Y-85011720D01*
X112080107Y-85186658D01*
X111800884Y-85071000D01*
X111389136Y-85071000D01*
X111008730Y-85228569D01*
X110717579Y-85519720D01*
X110560010Y-85900126D01*
X110560010Y-86311874D01*
X110717579Y-86692280D01*
X110835010Y-86809711D01*
X110835011Y-92905447D01*
X110665720Y-92975569D01*
X110374569Y-93266720D01*
X110217000Y-93647126D01*
X108474826Y-93647126D01*
X108713839Y-93289418D01*
X108829092Y-92710000D01*
X108713839Y-92130582D01*
X108385625Y-91639375D01*
X108087239Y-91440000D01*
X108385625Y-91240625D01*
X108713839Y-90749418D01*
X108829092Y-90170000D01*
X108713839Y-89590582D01*
X108385625Y-89099375D01*
X108075000Y-88891822D01*
X108075000Y-87571711D01*
X108192431Y-87454280D01*
X108350000Y-87073874D01*
X108350000Y-86662126D01*
X108192431Y-86281720D01*
X107901280Y-85990569D01*
X107520874Y-85833000D01*
X107109126Y-85833000D01*
X106728720Y-85990569D01*
X106437569Y-86281720D01*
X106280000Y-86662126D01*
X106280000Y-87073874D01*
X106437569Y-87454280D01*
X106555000Y-87571711D01*
X106555001Y-88891822D01*
X106244375Y-89099375D01*
X106232184Y-89117619D01*
X106223157Y-89072235D01*
X106082809Y-88862191D01*
X105872765Y-88721843D01*
X105625000Y-88672560D01*
X103925000Y-88672560D01*
X103677235Y-88721843D01*
X103467191Y-88862191D01*
X103326843Y-89072235D01*
X103277560Y-89320000D01*
X103277560Y-91020000D01*
X103326843Y-91267765D01*
X103467191Y-91477809D01*
X103677235Y-91618157D01*
X103722619Y-91627184D01*
X103704375Y-91639375D01*
X103376161Y-92130582D01*
X103260908Y-92710000D01*
X103376161Y-93289418D01*
X103704375Y-93780625D01*
X104002761Y-93980000D01*
X103704375Y-94179375D01*
X103376161Y-94670582D01*
X103260908Y-95250000D01*
X103376161Y-95829418D01*
X103704375Y-96320625D01*
X103812692Y-96393000D01*
X102195000Y-96393000D01*
X102195000Y-94265750D01*
X102036250Y-94107000D01*
X99187000Y-94107000D01*
X99187000Y-94127000D01*
X98933000Y-94127000D01*
X98933000Y-94107000D01*
X98913000Y-94107000D01*
X98913000Y-93853000D01*
X98933000Y-93853000D01*
X98933000Y-90297000D01*
X99187000Y-90297000D01*
X99187000Y-93853000D01*
X102036250Y-93853000D01*
X102195000Y-93694250D01*
X102195000Y-91353690D01*
X102098327Y-91120301D01*
X101919698Y-90941673D01*
X101686309Y-90845000D01*
X100369719Y-90845000D01*
X100501476Y-90526890D01*
X100380155Y-90297000D01*
X99187000Y-90297000D01*
X98933000Y-90297000D01*
X97739845Y-90297000D01*
X97618524Y-90526890D01*
X97750281Y-90845000D01*
X96647000Y-90845000D01*
X96647000Y-87986890D01*
X97618524Y-87986890D01*
X97788355Y-88396924D01*
X98178642Y-88825183D01*
X98337954Y-88900000D01*
X98178642Y-88974817D01*
X97788355Y-89403076D01*
X97618524Y-89813110D01*
X97739845Y-90043000D01*
X98933000Y-90043000D01*
X98933000Y-87757000D01*
X99187000Y-87757000D01*
X99187000Y-90043000D01*
X100380155Y-90043000D01*
X100501476Y-89813110D01*
X100331645Y-89403076D01*
X99941358Y-88974817D01*
X99782046Y-88900000D01*
X99941358Y-88825183D01*
X100331645Y-88396924D01*
X100501476Y-87986890D01*
X100380155Y-87757000D01*
X99187000Y-87757000D01*
X98933000Y-87757000D01*
X97739845Y-87757000D01*
X97618524Y-87986890D01*
X96647000Y-87986890D01*
X96647000Y-85446890D01*
X97618524Y-85446890D01*
X97788355Y-85856924D01*
X98178642Y-86285183D01*
X98337954Y-86360000D01*
X98178642Y-86434817D01*
X97788355Y-86863076D01*
X97618524Y-87273110D01*
X97739845Y-87503000D01*
X98933000Y-87503000D01*
X98933000Y-85217000D01*
X99187000Y-85217000D01*
X99187000Y-87503000D01*
X100380155Y-87503000D01*
X100501476Y-87273110D01*
X100331645Y-86863076D01*
X99941358Y-86434817D01*
X99782046Y-86360000D01*
X99941358Y-86285183D01*
X100331645Y-85856924D01*
X100501476Y-85446890D01*
X100380155Y-85217000D01*
X99187000Y-85217000D01*
X98933000Y-85217000D01*
X97739845Y-85217000D01*
X97618524Y-85446890D01*
X96647000Y-85446890D01*
X96647000Y-76807440D01*
X97562560Y-76807440D01*
X97562560Y-78320000D01*
X97611843Y-78567765D01*
X97675000Y-78662286D01*
X97675000Y-79409870D01*
X97661161Y-79430582D01*
X97545908Y-80010000D01*
X97661161Y-80589418D01*
X97675000Y-80610130D01*
X97675000Y-81949870D01*
X97661161Y-81970582D01*
X97545908Y-82550000D01*
X97661161Y-83129418D01*
X97989375Y-83620625D01*
X98308478Y-83833843D01*
X98178642Y-83894817D01*
X97788355Y-84323076D01*
X97618524Y-84733110D01*
X97739845Y-84963000D01*
X98933000Y-84963000D01*
X98933000Y-84943000D01*
X99187000Y-84943000D01*
X99187000Y-84963000D01*
X100380155Y-84963000D01*
X100501476Y-84733110D01*
X100331645Y-84323076D01*
X99941358Y-83894817D01*
X99811522Y-83833843D01*
X100130625Y-83620625D01*
X100458839Y-83129418D01*
X100574092Y-82550000D01*
X100458839Y-81970582D01*
X100445000Y-81949870D01*
X100445000Y-80610130D01*
X100458839Y-80589418D01*
X100574092Y-80010000D01*
X100458839Y-79430582D01*
X100445000Y-79409870D01*
X100445000Y-78662285D01*
X100508157Y-78567765D01*
X100557440Y-78320000D01*
X100557440Y-77779116D01*
X109201000Y-77779116D01*
X109201000Y-78190864D01*
X109358569Y-78571270D01*
X109603001Y-78815702D01*
X109603000Y-80703289D01*
X109485569Y-80820720D01*
X109328000Y-81201126D01*
X109328000Y-81612874D01*
X109485569Y-81993280D01*
X109776720Y-82284431D01*
X110157126Y-82442000D01*
X110568874Y-82442000D01*
X110875159Y-82315133D01*
X110875158Y-83156437D01*
X110757727Y-83273868D01*
X110600158Y-83654274D01*
X110600158Y-84066022D01*
X110757727Y-84446428D01*
X111048878Y-84737579D01*
X111429284Y-84895148D01*
X111841032Y-84895148D01*
X112221438Y-84737579D01*
X112512589Y-84446428D01*
X112670158Y-84066022D01*
X112670158Y-83654274D01*
X112512589Y-83273868D01*
X112395158Y-83156437D01*
X112395158Y-81583968D01*
X112541000Y-81231874D01*
X112541000Y-80820126D01*
X112383431Y-80439720D01*
X112092280Y-80148569D01*
X111711874Y-79991000D01*
X111300126Y-79991000D01*
X111123000Y-80064368D01*
X111123000Y-78548168D01*
X111271000Y-78190864D01*
X111271000Y-77779116D01*
X111113431Y-77398710D01*
X110822280Y-77107559D01*
X110441874Y-76949990D01*
X110030126Y-76949990D01*
X109649720Y-77107559D01*
X109358569Y-77398710D01*
X109201000Y-77779116D01*
X100557440Y-77779116D01*
X100557440Y-76807440D01*
X101560000Y-76807440D01*
X101807765Y-76758157D01*
X102017809Y-76617809D01*
X102158157Y-76407765D01*
X102207440Y-76160000D01*
X102207440Y-71247000D01*
X127161619Y-71247000D01*
X127161619Y-73484500D01*
G04 #@! TD*
M02*
