M48
;DRILL file {KiCad (5.0.1)-3} date 12/21/2019 11:02:10 AM
;FORMAT={-:-/ absolute / inch / decimal}
FMAT,2
INCH,TZ
T1C0.0157
T2C0.0394
%
G90
G05
M72
T1
X4.12Y-2.94
X4.15Y-3.405
X4.225Y-3.42
X4.29Y-3.405
X4.295Y-2.995
X4.34Y-3.0703
X4.345Y-3.205
X4.38Y-3.695
X4.39Y-3.19
X4.3935Y-3.39
X4.3951Y-3.3016
X4.445Y-2.961
X4.45Y-3.37
X4.47Y-3.74
X4.525Y-3.275
X4.575Y-3.5004
X4.6Y-3.37
X4.6Y-3.44
X4.615Y-3.16
X4.6448Y-3.3852
X4.6502Y-3.3098
X4.655Y-3.21
X4.69Y-3.25
X4.69Y-3.49
X4.7288Y-3.3735
X4.74Y-3.605
X4.775Y-2.825
X4.815Y-2.825
X4.83Y-3.74
X4.995Y-2.9893
X4.995Y-3.425
X5.04Y-3.625
X5.0642Y-3.0692
X5.085Y-2.905
X5.155Y-3.76
X5.195Y-3.375
X5.195Y-3.415
X5.195Y-3.455
X5.215Y-3.515
X5.345Y-3.675
X5.3547Y-3.7656
X5.385Y-2.92
X5.385Y-3.675
X5.395Y-3.765
X5.425Y-3.675
X5.435Y-3.765
X5.55Y-3.555
T2
X4.125Y-3.55
X4.125Y-3.65
X4.125Y-3.75
X4.225Y-3.55
X4.225Y-3.65
X4.225Y-3.75
X5.75Y-3.05
X5.75Y-3.15
X5.75Y-3.25
X5.75Y-3.35
X5.75Y-3.45
X5.75Y-3.55
X3.9Y-3.05
X3.9Y-3.15
X3.9Y-3.25
X3.9Y-3.35
X3.9Y-3.45
X3.9Y-3.55
T0
M30
