G04 #@! TF.GenerationSoftware,KiCad,Pcbnew,(5.0.1)-3*
G04 #@! TF.CreationDate,2019-12-21T11:02:08-05:00*
G04 #@! TF.ProjectId,BMS Module,424D53204D6F64756C652E6B69636164,rev?*
G04 #@! TF.SameCoordinates,Original*
G04 #@! TF.FileFunction,Copper,L1,Top,Signal*
G04 #@! TF.FilePolarity,Positive*
%FSLAX46Y46*%
G04 Gerber Fmt 4.6, Leading zero omitted, Abs format (unit mm)*
G04 Created by KiCad (PCBNEW (5.0.1)-3) date 12/21/2019 11:02:08 AM*
%MOMM*%
%LPD*%
G01*
G04 APERTURE LIST*
G04 #@! TA.AperFunction,NonConductor*
%ADD10C,0.187500*%
G04 #@! TD*
G04 #@! TA.AperFunction,Conductor*
%ADD11C,0.100000*%
G04 #@! TD*
G04 #@! TA.AperFunction,SMDPad,CuDef*
%ADD12C,1.250000*%
G04 #@! TD*
G04 #@! TA.AperFunction,ComponentPad*
%ADD13O,1.700000X1.700000*%
G04 #@! TD*
G04 #@! TA.AperFunction,ComponentPad*
%ADD14R,1.700000X1.700000*%
G04 #@! TD*
G04 #@! TA.AperFunction,SMDPad,CuDef*
%ADD15R,1.600000X3.000000*%
G04 #@! TD*
G04 #@! TA.AperFunction,SMDPad,CuDef*
%ADD16R,0.900000X1.200000*%
G04 #@! TD*
G04 #@! TA.AperFunction,SMDPad,CuDef*
%ADD17C,1.300000*%
G04 #@! TD*
G04 #@! TA.AperFunction,SMDPad,CuDef*
%ADD18O,0.800000X0.300000*%
G04 #@! TD*
G04 #@! TA.AperFunction,SMDPad,CuDef*
%ADD19O,0.300000X0.800000*%
G04 #@! TD*
G04 #@! TA.AperFunction,SMDPad,CuDef*
%ADD20R,2.250000X2.250000*%
G04 #@! TD*
G04 #@! TA.AperFunction,SMDPad,CuDef*
%ADD21R,1.450000X0.450000*%
G04 #@! TD*
G04 #@! TA.AperFunction,SMDPad,CuDef*
%ADD22R,2.000000X1.500000*%
G04 #@! TD*
G04 #@! TA.AperFunction,SMDPad,CuDef*
%ADD23R,2.000000X3.800000*%
G04 #@! TD*
G04 #@! TA.AperFunction,SMDPad,CuDef*
%ADD24C,0.975000*%
G04 #@! TD*
G04 #@! TA.AperFunction,SMDPad,CuDef*
%ADD25C,1.350000*%
G04 #@! TD*
G04 #@! TA.AperFunction,SMDPad,CuDef*
%ADD26R,1.050000X0.600000*%
G04 #@! TD*
G04 #@! TA.AperFunction,SMDPad,CuDef*
%ADD27R,2.100000X1.400000*%
G04 #@! TD*
G04 #@! TA.AperFunction,SMDPad,CuDef*
%ADD28R,0.400000X1.350000*%
G04 #@! TD*
G04 #@! TA.AperFunction,SMDPad,CuDef*
%ADD29R,2.100000X1.600000*%
G04 #@! TD*
G04 #@! TA.AperFunction,SMDPad,CuDef*
%ADD30R,1.900000X1.900000*%
G04 #@! TD*
G04 #@! TA.AperFunction,SMDPad,CuDef*
%ADD31R,1.800000X1.900000*%
G04 #@! TD*
G04 #@! TA.AperFunction,ViaPad*
%ADD32C,0.800000*%
G04 #@! TD*
G04 #@! TA.AperFunction,Conductor*
%ADD33C,0.250000*%
G04 #@! TD*
G04 #@! TA.AperFunction,Conductor*
%ADD34C,1.000000*%
G04 #@! TD*
G04 #@! TA.AperFunction,Conductor*
%ADD35C,2.000000*%
G04 #@! TD*
G04 #@! TA.AperFunction,Conductor*
%ADD36C,1.500000*%
G04 #@! TD*
G04 #@! TA.AperFunction,Conductor*
%ADD37C,0.127000*%
G04 #@! TD*
G04 #@! TA.AperFunction,NonConductor*
%ADD38C,0.254000*%
G04 #@! TD*
G04 APERTURE END LIST*
D10*
X128528857Y-72221285D02*
X128528857Y-71471285D01*
X128778857Y-72007000D01*
X129028857Y-71471285D01*
X129028857Y-72221285D01*
X129707428Y-72221285D02*
X129707428Y-71828428D01*
X129671714Y-71757000D01*
X129600285Y-71721285D01*
X129457428Y-71721285D01*
X129386000Y-71757000D01*
X129707428Y-72185571D02*
X129636000Y-72221285D01*
X129457428Y-72221285D01*
X129386000Y-72185571D01*
X129350285Y-72114142D01*
X129350285Y-72042714D01*
X129386000Y-71971285D01*
X129457428Y-71935571D01*
X129636000Y-71935571D01*
X129707428Y-71899857D01*
X129957428Y-71721285D02*
X130243142Y-71721285D01*
X130064571Y-71471285D02*
X130064571Y-72114142D01*
X130100285Y-72185571D01*
X130171714Y-72221285D01*
X130243142Y-72221285D01*
X130386000Y-71721285D02*
X130671714Y-71721285D01*
X130493142Y-71471285D02*
X130493142Y-72114142D01*
X130528857Y-72185571D01*
X130600285Y-72221285D01*
X130671714Y-72221285D01*
X130921714Y-72221285D02*
X130921714Y-71471285D01*
X131243142Y-72221285D02*
X131243142Y-71828428D01*
X131207428Y-71757000D01*
X131136000Y-71721285D01*
X131028857Y-71721285D01*
X130957428Y-71757000D01*
X130921714Y-71792714D01*
X131886000Y-72185571D02*
X131814571Y-72221285D01*
X131671714Y-72221285D01*
X131600285Y-72185571D01*
X131564571Y-72114142D01*
X131564571Y-71828428D01*
X131600285Y-71757000D01*
X131671714Y-71721285D01*
X131814571Y-71721285D01*
X131886000Y-71757000D01*
X131921714Y-71828428D01*
X131921714Y-71899857D01*
X131564571Y-71971285D01*
X132171714Y-71721285D02*
X132314571Y-72221285D01*
X132457428Y-71864142D01*
X132600285Y-72221285D01*
X132743142Y-71721285D01*
X133814571Y-71471285D02*
X133814571Y-72007000D01*
X133778857Y-72114142D01*
X133707428Y-72185571D01*
X133600285Y-72221285D01*
X133528857Y-72221285D01*
X134493142Y-72221285D02*
X134493142Y-71828428D01*
X134457428Y-71757000D01*
X134386000Y-71721285D01*
X134243142Y-71721285D01*
X134171714Y-71757000D01*
X134493142Y-72185571D02*
X134421714Y-72221285D01*
X134243142Y-72221285D01*
X134171714Y-72185571D01*
X134136000Y-72114142D01*
X134136000Y-72042714D01*
X134171714Y-71971285D01*
X134243142Y-71935571D01*
X134421714Y-71935571D01*
X134493142Y-71899857D01*
X134850285Y-72221285D02*
X134850285Y-71721285D01*
X134850285Y-71792714D02*
X134886000Y-71757000D01*
X134957428Y-71721285D01*
X135064571Y-71721285D01*
X135136000Y-71757000D01*
X135171714Y-71828428D01*
X135171714Y-72221285D01*
X135171714Y-71828428D02*
X135207428Y-71757000D01*
X135278857Y-71721285D01*
X135386000Y-71721285D01*
X135457428Y-71757000D01*
X135493142Y-71828428D01*
X135493142Y-72221285D01*
X136136000Y-72185571D02*
X136064571Y-72221285D01*
X135921714Y-72221285D01*
X135850285Y-72185571D01*
X135814571Y-72114142D01*
X135814571Y-71828428D01*
X135850285Y-71757000D01*
X135921714Y-71721285D01*
X136064571Y-71721285D01*
X136136000Y-71757000D01*
X136171714Y-71828428D01*
X136171714Y-71899857D01*
X135814571Y-71971285D01*
X136457428Y-72185571D02*
X136528857Y-72221285D01*
X136671714Y-72221285D01*
X136743142Y-72185571D01*
X136778857Y-72114142D01*
X136778857Y-72078428D01*
X136743142Y-72007000D01*
X136671714Y-71971285D01*
X136564571Y-71971285D01*
X136493142Y-71935571D01*
X136457428Y-71864142D01*
X136457428Y-71828428D01*
X136493142Y-71757000D01*
X136564571Y-71721285D01*
X136671714Y-71721285D01*
X136743142Y-71757000D01*
X137921714Y-71828428D02*
X138028857Y-71864142D01*
X138064571Y-71899857D01*
X138100285Y-71971285D01*
X138100285Y-72078428D01*
X138064571Y-72149857D01*
X138028857Y-72185571D01*
X137957428Y-72221285D01*
X137671714Y-72221285D01*
X137671714Y-71471285D01*
X137921714Y-71471285D01*
X137993142Y-71507000D01*
X138028857Y-71542714D01*
X138064571Y-71614142D01*
X138064571Y-71685571D01*
X138028857Y-71757000D01*
X137993142Y-71792714D01*
X137921714Y-71828428D01*
X137671714Y-71828428D01*
X138707428Y-72185571D02*
X138636000Y-72221285D01*
X138493142Y-72221285D01*
X138421714Y-72185571D01*
X138386000Y-72114142D01*
X138386000Y-71828428D01*
X138421714Y-71757000D01*
X138493142Y-71721285D01*
X138636000Y-71721285D01*
X138707428Y-71757000D01*
X138743142Y-71828428D01*
X138743142Y-71899857D01*
X138386000Y-71971285D01*
X139171714Y-72221285D02*
X139100285Y-72185571D01*
X139064571Y-72114142D01*
X139064571Y-71471285D01*
X139564571Y-72221285D02*
X139493142Y-72185571D01*
X139457428Y-72114142D01*
X139457428Y-71471285D01*
X140171714Y-72221285D02*
X140171714Y-71828428D01*
X140136000Y-71757000D01*
X140064571Y-71721285D01*
X139921714Y-71721285D01*
X139850285Y-71757000D01*
X140171714Y-72185571D02*
X140100285Y-72221285D01*
X139921714Y-72221285D01*
X139850285Y-72185571D01*
X139814571Y-72114142D01*
X139814571Y-72042714D01*
X139850285Y-71971285D01*
X139921714Y-71935571D01*
X140100285Y-71935571D01*
X140171714Y-71899857D01*
X140421714Y-71721285D02*
X140707428Y-71721285D01*
X140528857Y-72221285D02*
X140528857Y-71578428D01*
X140564571Y-71507000D01*
X140636000Y-71471285D01*
X140707428Y-71471285D01*
X141278857Y-72221285D02*
X141278857Y-71828428D01*
X141243142Y-71757000D01*
X141171714Y-71721285D01*
X141028857Y-71721285D01*
X140957428Y-71757000D01*
X141278857Y-72185571D02*
X141207428Y-72221285D01*
X141028857Y-72221285D01*
X140957428Y-72185571D01*
X140921714Y-72114142D01*
X140921714Y-72042714D01*
X140957428Y-71971285D01*
X141028857Y-71935571D01*
X141207428Y-71935571D01*
X141278857Y-71899857D01*
X141636000Y-72221285D02*
X141636000Y-71721285D01*
X141636000Y-71471285D02*
X141600285Y-71507000D01*
X141636000Y-71542714D01*
X141671714Y-71507000D01*
X141636000Y-71471285D01*
X141636000Y-71542714D01*
X141993142Y-72221285D02*
X141993142Y-71721285D01*
X141993142Y-71864142D02*
X142028857Y-71792714D01*
X142064571Y-71757000D01*
X142136000Y-71721285D01*
X142207428Y-71721285D01*
X142743142Y-72185571D02*
X142671714Y-72221285D01*
X142528857Y-72221285D01*
X142457428Y-72185571D01*
X142421714Y-72114142D01*
X142421714Y-71828428D01*
X142457428Y-71757000D01*
X142528857Y-71721285D01*
X142671714Y-71721285D01*
X142743142Y-71757000D01*
X142778857Y-71828428D01*
X142778857Y-71899857D01*
X142421714Y-71971285D01*
D11*
G04 #@! TO.N,GND*
G04 #@! TO.C,C1*
G36*
X110319504Y-84726204D02*
X110343773Y-84729804D01*
X110367571Y-84735765D01*
X110390671Y-84744030D01*
X110412849Y-84754520D01*
X110433893Y-84767133D01*
X110453598Y-84781747D01*
X110471777Y-84798223D01*
X110488253Y-84816402D01*
X110502867Y-84836107D01*
X110515480Y-84857151D01*
X110525970Y-84879329D01*
X110534235Y-84902429D01*
X110540196Y-84926227D01*
X110543796Y-84950496D01*
X110545000Y-84975000D01*
X110545000Y-85725000D01*
X110543796Y-85749504D01*
X110540196Y-85773773D01*
X110534235Y-85797571D01*
X110525970Y-85820671D01*
X110515480Y-85842849D01*
X110502867Y-85863893D01*
X110488253Y-85883598D01*
X110471777Y-85901777D01*
X110453598Y-85918253D01*
X110433893Y-85932867D01*
X110412849Y-85945480D01*
X110390671Y-85955970D01*
X110367571Y-85964235D01*
X110343773Y-85970196D01*
X110319504Y-85973796D01*
X110295000Y-85975000D01*
X108145000Y-85975000D01*
X108120496Y-85973796D01*
X108096227Y-85970196D01*
X108072429Y-85964235D01*
X108049329Y-85955970D01*
X108027151Y-85945480D01*
X108006107Y-85932867D01*
X107986402Y-85918253D01*
X107968223Y-85901777D01*
X107951747Y-85883598D01*
X107937133Y-85863893D01*
X107924520Y-85842849D01*
X107914030Y-85820671D01*
X107905765Y-85797571D01*
X107899804Y-85773773D01*
X107896204Y-85749504D01*
X107895000Y-85725000D01*
X107895000Y-84975000D01*
X107896204Y-84950496D01*
X107899804Y-84926227D01*
X107905765Y-84902429D01*
X107914030Y-84879329D01*
X107924520Y-84857151D01*
X107937133Y-84836107D01*
X107951747Y-84816402D01*
X107968223Y-84798223D01*
X107986402Y-84781747D01*
X108006107Y-84767133D01*
X108027151Y-84754520D01*
X108049329Y-84744030D01*
X108072429Y-84735765D01*
X108096227Y-84729804D01*
X108120496Y-84726204D01*
X108145000Y-84725000D01*
X110295000Y-84725000D01*
X110319504Y-84726204D01*
X110319504Y-84726204D01*
G37*
D12*
G04 #@! TD*
G04 #@! TO.P,C1,2*
G04 #@! TO.N,GND*
X109220000Y-85350000D03*
D11*
G04 #@! TO.N,VUSB*
G04 #@! TO.C,C1*
G36*
X110319504Y-81926204D02*
X110343773Y-81929804D01*
X110367571Y-81935765D01*
X110390671Y-81944030D01*
X110412849Y-81954520D01*
X110433893Y-81967133D01*
X110453598Y-81981747D01*
X110471777Y-81998223D01*
X110488253Y-82016402D01*
X110502867Y-82036107D01*
X110515480Y-82057151D01*
X110525970Y-82079329D01*
X110534235Y-82102429D01*
X110540196Y-82126227D01*
X110543796Y-82150496D01*
X110545000Y-82175000D01*
X110545000Y-82925000D01*
X110543796Y-82949504D01*
X110540196Y-82973773D01*
X110534235Y-82997571D01*
X110525970Y-83020671D01*
X110515480Y-83042849D01*
X110502867Y-83063893D01*
X110488253Y-83083598D01*
X110471777Y-83101777D01*
X110453598Y-83118253D01*
X110433893Y-83132867D01*
X110412849Y-83145480D01*
X110390671Y-83155970D01*
X110367571Y-83164235D01*
X110343773Y-83170196D01*
X110319504Y-83173796D01*
X110295000Y-83175000D01*
X108145000Y-83175000D01*
X108120496Y-83173796D01*
X108096227Y-83170196D01*
X108072429Y-83164235D01*
X108049329Y-83155970D01*
X108027151Y-83145480D01*
X108006107Y-83132867D01*
X107986402Y-83118253D01*
X107968223Y-83101777D01*
X107951747Y-83083598D01*
X107937133Y-83063893D01*
X107924520Y-83042849D01*
X107914030Y-83020671D01*
X107905765Y-82997571D01*
X107899804Y-82973773D01*
X107896204Y-82949504D01*
X107895000Y-82925000D01*
X107895000Y-82175000D01*
X107896204Y-82150496D01*
X107899804Y-82126227D01*
X107905765Y-82102429D01*
X107914030Y-82079329D01*
X107924520Y-82057151D01*
X107937133Y-82036107D01*
X107951747Y-82016402D01*
X107968223Y-81998223D01*
X107986402Y-81981747D01*
X108006107Y-81967133D01*
X108027151Y-81954520D01*
X108049329Y-81944030D01*
X108072429Y-81935765D01*
X108096227Y-81929804D01*
X108120496Y-81926204D01*
X108145000Y-81925000D01*
X110295000Y-81925000D01*
X110319504Y-81926204D01*
X110319504Y-81926204D01*
G37*
D12*
G04 #@! TD*
G04 #@! TO.P,C1,1*
G04 #@! TO.N,VUSB*
X109220000Y-82550000D03*
D11*
G04 #@! TO.N,Net-(C2-Pad1)*
G04 #@! TO.C,C2*
G36*
X123019504Y-75071204D02*
X123043773Y-75074804D01*
X123067571Y-75080765D01*
X123090671Y-75089030D01*
X123112849Y-75099520D01*
X123133893Y-75112133D01*
X123153598Y-75126747D01*
X123171777Y-75143223D01*
X123188253Y-75161402D01*
X123202867Y-75181107D01*
X123215480Y-75202151D01*
X123225970Y-75224329D01*
X123234235Y-75247429D01*
X123240196Y-75271227D01*
X123243796Y-75295496D01*
X123245000Y-75320000D01*
X123245000Y-76070000D01*
X123243796Y-76094504D01*
X123240196Y-76118773D01*
X123234235Y-76142571D01*
X123225970Y-76165671D01*
X123215480Y-76187849D01*
X123202867Y-76208893D01*
X123188253Y-76228598D01*
X123171777Y-76246777D01*
X123153598Y-76263253D01*
X123133893Y-76277867D01*
X123112849Y-76290480D01*
X123090671Y-76300970D01*
X123067571Y-76309235D01*
X123043773Y-76315196D01*
X123019504Y-76318796D01*
X122995000Y-76320000D01*
X120845000Y-76320000D01*
X120820496Y-76318796D01*
X120796227Y-76315196D01*
X120772429Y-76309235D01*
X120749329Y-76300970D01*
X120727151Y-76290480D01*
X120706107Y-76277867D01*
X120686402Y-76263253D01*
X120668223Y-76246777D01*
X120651747Y-76228598D01*
X120637133Y-76208893D01*
X120624520Y-76187849D01*
X120614030Y-76165671D01*
X120605765Y-76142571D01*
X120599804Y-76118773D01*
X120596204Y-76094504D01*
X120595000Y-76070000D01*
X120595000Y-75320000D01*
X120596204Y-75295496D01*
X120599804Y-75271227D01*
X120605765Y-75247429D01*
X120614030Y-75224329D01*
X120624520Y-75202151D01*
X120637133Y-75181107D01*
X120651747Y-75161402D01*
X120668223Y-75143223D01*
X120686402Y-75126747D01*
X120706107Y-75112133D01*
X120727151Y-75099520D01*
X120749329Y-75089030D01*
X120772429Y-75080765D01*
X120796227Y-75074804D01*
X120820496Y-75071204D01*
X120845000Y-75070000D01*
X122995000Y-75070000D01*
X123019504Y-75071204D01*
X123019504Y-75071204D01*
G37*
D12*
G04 #@! TD*
G04 #@! TO.P,C2,1*
G04 #@! TO.N,Net-(C2-Pad1)*
X121920000Y-75695000D03*
D11*
G04 #@! TO.N,GND*
G04 #@! TO.C,C2*
G36*
X123019504Y-72271204D02*
X123043773Y-72274804D01*
X123067571Y-72280765D01*
X123090671Y-72289030D01*
X123112849Y-72299520D01*
X123133893Y-72312133D01*
X123153598Y-72326747D01*
X123171777Y-72343223D01*
X123188253Y-72361402D01*
X123202867Y-72381107D01*
X123215480Y-72402151D01*
X123225970Y-72424329D01*
X123234235Y-72447429D01*
X123240196Y-72471227D01*
X123243796Y-72495496D01*
X123245000Y-72520000D01*
X123245000Y-73270000D01*
X123243796Y-73294504D01*
X123240196Y-73318773D01*
X123234235Y-73342571D01*
X123225970Y-73365671D01*
X123215480Y-73387849D01*
X123202867Y-73408893D01*
X123188253Y-73428598D01*
X123171777Y-73446777D01*
X123153598Y-73463253D01*
X123133893Y-73477867D01*
X123112849Y-73490480D01*
X123090671Y-73500970D01*
X123067571Y-73509235D01*
X123043773Y-73515196D01*
X123019504Y-73518796D01*
X122995000Y-73520000D01*
X120845000Y-73520000D01*
X120820496Y-73518796D01*
X120796227Y-73515196D01*
X120772429Y-73509235D01*
X120749329Y-73500970D01*
X120727151Y-73490480D01*
X120706107Y-73477867D01*
X120686402Y-73463253D01*
X120668223Y-73446777D01*
X120651747Y-73428598D01*
X120637133Y-73408893D01*
X120624520Y-73387849D01*
X120614030Y-73365671D01*
X120605765Y-73342571D01*
X120599804Y-73318773D01*
X120596204Y-73294504D01*
X120595000Y-73270000D01*
X120595000Y-72520000D01*
X120596204Y-72495496D01*
X120599804Y-72471227D01*
X120605765Y-72447429D01*
X120614030Y-72424329D01*
X120624520Y-72402151D01*
X120637133Y-72381107D01*
X120651747Y-72361402D01*
X120668223Y-72343223D01*
X120686402Y-72326747D01*
X120706107Y-72312133D01*
X120727151Y-72299520D01*
X120749329Y-72289030D01*
X120772429Y-72280765D01*
X120796227Y-72274804D01*
X120820496Y-72271204D01*
X120845000Y-72270000D01*
X122995000Y-72270000D01*
X123019504Y-72271204D01*
X123019504Y-72271204D01*
G37*
D12*
G04 #@! TD*
G04 #@! TO.P,C2,2*
G04 #@! TO.N,GND*
X121920000Y-72895000D03*
D11*
G04 #@! TO.N,GND*
G04 #@! TO.C,C3*
G36*
X106509504Y-84726204D02*
X106533773Y-84729804D01*
X106557571Y-84735765D01*
X106580671Y-84744030D01*
X106602849Y-84754520D01*
X106623893Y-84767133D01*
X106643598Y-84781747D01*
X106661777Y-84798223D01*
X106678253Y-84816402D01*
X106692867Y-84836107D01*
X106705480Y-84857151D01*
X106715970Y-84879329D01*
X106724235Y-84902429D01*
X106730196Y-84926227D01*
X106733796Y-84950496D01*
X106735000Y-84975000D01*
X106735000Y-85725000D01*
X106733796Y-85749504D01*
X106730196Y-85773773D01*
X106724235Y-85797571D01*
X106715970Y-85820671D01*
X106705480Y-85842849D01*
X106692867Y-85863893D01*
X106678253Y-85883598D01*
X106661777Y-85901777D01*
X106643598Y-85918253D01*
X106623893Y-85932867D01*
X106602849Y-85945480D01*
X106580671Y-85955970D01*
X106557571Y-85964235D01*
X106533773Y-85970196D01*
X106509504Y-85973796D01*
X106485000Y-85975000D01*
X104335000Y-85975000D01*
X104310496Y-85973796D01*
X104286227Y-85970196D01*
X104262429Y-85964235D01*
X104239329Y-85955970D01*
X104217151Y-85945480D01*
X104196107Y-85932867D01*
X104176402Y-85918253D01*
X104158223Y-85901777D01*
X104141747Y-85883598D01*
X104127133Y-85863893D01*
X104114520Y-85842849D01*
X104104030Y-85820671D01*
X104095765Y-85797571D01*
X104089804Y-85773773D01*
X104086204Y-85749504D01*
X104085000Y-85725000D01*
X104085000Y-84975000D01*
X104086204Y-84950496D01*
X104089804Y-84926227D01*
X104095765Y-84902429D01*
X104104030Y-84879329D01*
X104114520Y-84857151D01*
X104127133Y-84836107D01*
X104141747Y-84816402D01*
X104158223Y-84798223D01*
X104176402Y-84781747D01*
X104196107Y-84767133D01*
X104217151Y-84754520D01*
X104239329Y-84744030D01*
X104262429Y-84735765D01*
X104286227Y-84729804D01*
X104310496Y-84726204D01*
X104335000Y-84725000D01*
X106485000Y-84725000D01*
X106509504Y-84726204D01*
X106509504Y-84726204D01*
G37*
D12*
G04 #@! TD*
G04 #@! TO.P,C3,2*
G04 #@! TO.N,GND*
X105410000Y-85350000D03*
D11*
G04 #@! TO.N,BAT+*
G04 #@! TO.C,C3*
G36*
X106509504Y-81926204D02*
X106533773Y-81929804D01*
X106557571Y-81935765D01*
X106580671Y-81944030D01*
X106602849Y-81954520D01*
X106623893Y-81967133D01*
X106643598Y-81981747D01*
X106661777Y-81998223D01*
X106678253Y-82016402D01*
X106692867Y-82036107D01*
X106705480Y-82057151D01*
X106715970Y-82079329D01*
X106724235Y-82102429D01*
X106730196Y-82126227D01*
X106733796Y-82150496D01*
X106735000Y-82175000D01*
X106735000Y-82925000D01*
X106733796Y-82949504D01*
X106730196Y-82973773D01*
X106724235Y-82997571D01*
X106715970Y-83020671D01*
X106705480Y-83042849D01*
X106692867Y-83063893D01*
X106678253Y-83083598D01*
X106661777Y-83101777D01*
X106643598Y-83118253D01*
X106623893Y-83132867D01*
X106602849Y-83145480D01*
X106580671Y-83155970D01*
X106557571Y-83164235D01*
X106533773Y-83170196D01*
X106509504Y-83173796D01*
X106485000Y-83175000D01*
X104335000Y-83175000D01*
X104310496Y-83173796D01*
X104286227Y-83170196D01*
X104262429Y-83164235D01*
X104239329Y-83155970D01*
X104217151Y-83145480D01*
X104196107Y-83132867D01*
X104176402Y-83118253D01*
X104158223Y-83101777D01*
X104141747Y-83083598D01*
X104127133Y-83063893D01*
X104114520Y-83042849D01*
X104104030Y-83020671D01*
X104095765Y-82997571D01*
X104089804Y-82973773D01*
X104086204Y-82949504D01*
X104085000Y-82925000D01*
X104085000Y-82175000D01*
X104086204Y-82150496D01*
X104089804Y-82126227D01*
X104095765Y-82102429D01*
X104104030Y-82079329D01*
X104114520Y-82057151D01*
X104127133Y-82036107D01*
X104141747Y-82016402D01*
X104158223Y-81998223D01*
X104176402Y-81981747D01*
X104196107Y-81967133D01*
X104217151Y-81954520D01*
X104239329Y-81944030D01*
X104262429Y-81935765D01*
X104286227Y-81929804D01*
X104310496Y-81926204D01*
X104335000Y-81925000D01*
X106485000Y-81925000D01*
X106509504Y-81926204D01*
X106509504Y-81926204D01*
G37*
D12*
G04 #@! TD*
G04 #@! TO.P,C3,1*
G04 #@! TO.N,BAT+*
X105410000Y-82550000D03*
D11*
G04 #@! TO.N,+5V*
G04 #@! TO.C,C4*
G36*
X142069504Y-85606204D02*
X142093773Y-85609804D01*
X142117571Y-85615765D01*
X142140671Y-85624030D01*
X142162849Y-85634520D01*
X142183893Y-85647133D01*
X142203598Y-85661747D01*
X142221777Y-85678223D01*
X142238253Y-85696402D01*
X142252867Y-85716107D01*
X142265480Y-85737151D01*
X142275970Y-85759329D01*
X142284235Y-85782429D01*
X142290196Y-85806227D01*
X142293796Y-85830496D01*
X142295000Y-85855000D01*
X142295000Y-86605000D01*
X142293796Y-86629504D01*
X142290196Y-86653773D01*
X142284235Y-86677571D01*
X142275970Y-86700671D01*
X142265480Y-86722849D01*
X142252867Y-86743893D01*
X142238253Y-86763598D01*
X142221777Y-86781777D01*
X142203598Y-86798253D01*
X142183893Y-86812867D01*
X142162849Y-86825480D01*
X142140671Y-86835970D01*
X142117571Y-86844235D01*
X142093773Y-86850196D01*
X142069504Y-86853796D01*
X142045000Y-86855000D01*
X139895000Y-86855000D01*
X139870496Y-86853796D01*
X139846227Y-86850196D01*
X139822429Y-86844235D01*
X139799329Y-86835970D01*
X139777151Y-86825480D01*
X139756107Y-86812867D01*
X139736402Y-86798253D01*
X139718223Y-86781777D01*
X139701747Y-86763598D01*
X139687133Y-86743893D01*
X139674520Y-86722849D01*
X139664030Y-86700671D01*
X139655765Y-86677571D01*
X139649804Y-86653773D01*
X139646204Y-86629504D01*
X139645000Y-86605000D01*
X139645000Y-85855000D01*
X139646204Y-85830496D01*
X139649804Y-85806227D01*
X139655765Y-85782429D01*
X139664030Y-85759329D01*
X139674520Y-85737151D01*
X139687133Y-85716107D01*
X139701747Y-85696402D01*
X139718223Y-85678223D01*
X139736402Y-85661747D01*
X139756107Y-85647133D01*
X139777151Y-85634520D01*
X139799329Y-85624030D01*
X139822429Y-85615765D01*
X139846227Y-85609804D01*
X139870496Y-85606204D01*
X139895000Y-85605000D01*
X142045000Y-85605000D01*
X142069504Y-85606204D01*
X142069504Y-85606204D01*
G37*
D12*
G04 #@! TD*
G04 #@! TO.P,C4,1*
G04 #@! TO.N,+5V*
X140970000Y-86230000D03*
D11*
G04 #@! TO.N,GND*
G04 #@! TO.C,C4*
G36*
X142069504Y-88406204D02*
X142093773Y-88409804D01*
X142117571Y-88415765D01*
X142140671Y-88424030D01*
X142162849Y-88434520D01*
X142183893Y-88447133D01*
X142203598Y-88461747D01*
X142221777Y-88478223D01*
X142238253Y-88496402D01*
X142252867Y-88516107D01*
X142265480Y-88537151D01*
X142275970Y-88559329D01*
X142284235Y-88582429D01*
X142290196Y-88606227D01*
X142293796Y-88630496D01*
X142295000Y-88655000D01*
X142295000Y-89405000D01*
X142293796Y-89429504D01*
X142290196Y-89453773D01*
X142284235Y-89477571D01*
X142275970Y-89500671D01*
X142265480Y-89522849D01*
X142252867Y-89543893D01*
X142238253Y-89563598D01*
X142221777Y-89581777D01*
X142203598Y-89598253D01*
X142183893Y-89612867D01*
X142162849Y-89625480D01*
X142140671Y-89635970D01*
X142117571Y-89644235D01*
X142093773Y-89650196D01*
X142069504Y-89653796D01*
X142045000Y-89655000D01*
X139895000Y-89655000D01*
X139870496Y-89653796D01*
X139846227Y-89650196D01*
X139822429Y-89644235D01*
X139799329Y-89635970D01*
X139777151Y-89625480D01*
X139756107Y-89612867D01*
X139736402Y-89598253D01*
X139718223Y-89581777D01*
X139701747Y-89563598D01*
X139687133Y-89543893D01*
X139674520Y-89522849D01*
X139664030Y-89500671D01*
X139655765Y-89477571D01*
X139649804Y-89453773D01*
X139646204Y-89429504D01*
X139645000Y-89405000D01*
X139645000Y-88655000D01*
X139646204Y-88630496D01*
X139649804Y-88606227D01*
X139655765Y-88582429D01*
X139664030Y-88559329D01*
X139674520Y-88537151D01*
X139687133Y-88516107D01*
X139701747Y-88496402D01*
X139718223Y-88478223D01*
X139736402Y-88461747D01*
X139756107Y-88447133D01*
X139777151Y-88434520D01*
X139799329Y-88424030D01*
X139822429Y-88415765D01*
X139846227Y-88409804D01*
X139870496Y-88406204D01*
X139895000Y-88405000D01*
X142045000Y-88405000D01*
X142069504Y-88406204D01*
X142069504Y-88406204D01*
G37*
D12*
G04 #@! TD*
G04 #@! TO.P,C4,2*
G04 #@! TO.N,GND*
X140970000Y-89030000D03*
D13*
G04 #@! TO.P,J7,6*
G04 #@! TO.N,OUT-*
X146050000Y-90170000D03*
G04 #@! TO.P,J7,5*
X146050000Y-87630000D03*
G04 #@! TO.P,J7,4*
X146050000Y-85090000D03*
G04 #@! TO.P,J7,3*
G04 #@! TO.N,+5V*
X146050000Y-82550000D03*
G04 #@! TO.P,J7,2*
X146050000Y-80010000D03*
D14*
G04 #@! TO.P,J7,1*
X146050000Y-77470000D03*
G04 #@! TD*
G04 #@! TO.P,J2,1*
G04 #@! TO.N,BAT+*
X99060000Y-77470000D03*
D13*
G04 #@! TO.P,J2,2*
X99060000Y-80010000D03*
G04 #@! TO.P,J2,3*
X99060000Y-82550000D03*
G04 #@! TO.P,J2,4*
G04 #@! TO.N,GND*
X99060000Y-85090000D03*
G04 #@! TO.P,J2,5*
X99060000Y-87630000D03*
G04 #@! TO.P,J2,6*
X99060000Y-90170000D03*
G04 #@! TD*
D14*
G04 #@! TO.P,J5,1*
G04 #@! TO.N,/MISO*
X104775000Y-90170000D03*
D13*
G04 #@! TO.P,J5,2*
G04 #@! TO.N,VUSB*
X107315000Y-90170000D03*
G04 #@! TO.P,J5,3*
G04 #@! TO.N,/SCK*
X104775000Y-92710000D03*
G04 #@! TO.P,J5,4*
G04 #@! TO.N,/ACTIVE_INDICATOR*
X107315000Y-92710000D03*
G04 #@! TO.P,J5,5*
G04 #@! TO.N,/RST*
X104775000Y-95250000D03*
G04 #@! TO.P,J5,6*
G04 #@! TO.N,GND*
X107315000Y-95250000D03*
G04 #@! TD*
D15*
G04 #@! TO.P,L1,2*
G04 #@! TO.N,Net-(L1-Pad2)*
X130285000Y-82169000D03*
G04 #@! TO.P,L1,1*
G04 #@! TO.N,BoostConv_IN*
X124985000Y-82169000D03*
G04 #@! TD*
D16*
G04 #@! TO.P,D1,1*
G04 #@! TO.N,+5V*
X138429000Y-87122000D03*
G04 #@! TO.P,D1,2*
G04 #@! TO.N,Net-(D1-Pad2)*
X135129000Y-87122000D03*
G04 #@! TD*
D11*
G04 #@! TO.N,Net-(D3-Pad2)*
G04 #@! TO.C,D3*
G36*
X103614504Y-76821204D02*
X103638773Y-76824804D01*
X103662571Y-76830765D01*
X103685671Y-76839030D01*
X103707849Y-76849520D01*
X103728893Y-76862133D01*
X103748598Y-76876747D01*
X103766777Y-76893223D01*
X103783253Y-76911402D01*
X103797867Y-76931107D01*
X103810480Y-76952151D01*
X103820970Y-76974329D01*
X103829235Y-76997429D01*
X103835196Y-77021227D01*
X103838796Y-77045496D01*
X103840000Y-77070000D01*
X103840000Y-77870000D01*
X103838796Y-77894504D01*
X103835196Y-77918773D01*
X103829235Y-77942571D01*
X103820970Y-77965671D01*
X103810480Y-77987849D01*
X103797867Y-78008893D01*
X103783253Y-78028598D01*
X103766777Y-78046777D01*
X103748598Y-78063253D01*
X103728893Y-78077867D01*
X103707849Y-78090480D01*
X103685671Y-78100970D01*
X103662571Y-78109235D01*
X103638773Y-78115196D01*
X103614504Y-78118796D01*
X103590000Y-78120000D01*
X102765000Y-78120000D01*
X102740496Y-78118796D01*
X102716227Y-78115196D01*
X102692429Y-78109235D01*
X102669329Y-78100970D01*
X102647151Y-78090480D01*
X102626107Y-78077867D01*
X102606402Y-78063253D01*
X102588223Y-78046777D01*
X102571747Y-78028598D01*
X102557133Y-78008893D01*
X102544520Y-77987849D01*
X102534030Y-77965671D01*
X102525765Y-77942571D01*
X102519804Y-77918773D01*
X102516204Y-77894504D01*
X102515000Y-77870000D01*
X102515000Y-77070000D01*
X102516204Y-77045496D01*
X102519804Y-77021227D01*
X102525765Y-76997429D01*
X102534030Y-76974329D01*
X102544520Y-76952151D01*
X102557133Y-76931107D01*
X102571747Y-76911402D01*
X102588223Y-76893223D01*
X102606402Y-76876747D01*
X102626107Y-76862133D01*
X102647151Y-76849520D01*
X102669329Y-76839030D01*
X102692429Y-76830765D01*
X102716227Y-76824804D01*
X102740496Y-76821204D01*
X102765000Y-76820000D01*
X103590000Y-76820000D01*
X103614504Y-76821204D01*
X103614504Y-76821204D01*
G37*
D17*
G04 #@! TD*
G04 #@! TO.P,D3,2*
G04 #@! TO.N,Net-(D3-Pad2)*
X103177500Y-77470000D03*
D11*
G04 #@! TO.N,Net-(D3-Pad1)*
G04 #@! TO.C,D3*
G36*
X105539504Y-76821204D02*
X105563773Y-76824804D01*
X105587571Y-76830765D01*
X105610671Y-76839030D01*
X105632849Y-76849520D01*
X105653893Y-76862133D01*
X105673598Y-76876747D01*
X105691777Y-76893223D01*
X105708253Y-76911402D01*
X105722867Y-76931107D01*
X105735480Y-76952151D01*
X105745970Y-76974329D01*
X105754235Y-76997429D01*
X105760196Y-77021227D01*
X105763796Y-77045496D01*
X105765000Y-77070000D01*
X105765000Y-77870000D01*
X105763796Y-77894504D01*
X105760196Y-77918773D01*
X105754235Y-77942571D01*
X105745970Y-77965671D01*
X105735480Y-77987849D01*
X105722867Y-78008893D01*
X105708253Y-78028598D01*
X105691777Y-78046777D01*
X105673598Y-78063253D01*
X105653893Y-78077867D01*
X105632849Y-78090480D01*
X105610671Y-78100970D01*
X105587571Y-78109235D01*
X105563773Y-78115196D01*
X105539504Y-78118796D01*
X105515000Y-78120000D01*
X104690000Y-78120000D01*
X104665496Y-78118796D01*
X104641227Y-78115196D01*
X104617429Y-78109235D01*
X104594329Y-78100970D01*
X104572151Y-78090480D01*
X104551107Y-78077867D01*
X104531402Y-78063253D01*
X104513223Y-78046777D01*
X104496747Y-78028598D01*
X104482133Y-78008893D01*
X104469520Y-77987849D01*
X104459030Y-77965671D01*
X104450765Y-77942571D01*
X104444804Y-77918773D01*
X104441204Y-77894504D01*
X104440000Y-77870000D01*
X104440000Y-77070000D01*
X104441204Y-77045496D01*
X104444804Y-77021227D01*
X104450765Y-76997429D01*
X104459030Y-76974329D01*
X104469520Y-76952151D01*
X104482133Y-76931107D01*
X104496747Y-76911402D01*
X104513223Y-76893223D01*
X104531402Y-76876747D01*
X104551107Y-76862133D01*
X104572151Y-76849520D01*
X104594329Y-76839030D01*
X104617429Y-76830765D01*
X104641227Y-76824804D01*
X104665496Y-76821204D01*
X104690000Y-76820000D01*
X105515000Y-76820000D01*
X105539504Y-76821204D01*
X105539504Y-76821204D01*
G37*
D17*
G04 #@! TD*
G04 #@! TO.P,D3,1*
G04 #@! TO.N,Net-(D3-Pad1)*
X105102500Y-77470000D03*
D11*
G04 #@! TO.N,Net-(D2-Pad1)*
G04 #@! TO.C,D2*
G36*
X122377004Y-86346204D02*
X122401273Y-86349804D01*
X122425071Y-86355765D01*
X122448171Y-86364030D01*
X122470349Y-86374520D01*
X122491393Y-86387133D01*
X122511098Y-86401747D01*
X122529277Y-86418223D01*
X122545753Y-86436402D01*
X122560367Y-86456107D01*
X122572980Y-86477151D01*
X122583470Y-86499329D01*
X122591735Y-86522429D01*
X122597696Y-86546227D01*
X122601296Y-86570496D01*
X122602500Y-86595000D01*
X122602500Y-87395000D01*
X122601296Y-87419504D01*
X122597696Y-87443773D01*
X122591735Y-87467571D01*
X122583470Y-87490671D01*
X122572980Y-87512849D01*
X122560367Y-87533893D01*
X122545753Y-87553598D01*
X122529277Y-87571777D01*
X122511098Y-87588253D01*
X122491393Y-87602867D01*
X122470349Y-87615480D01*
X122448171Y-87625970D01*
X122425071Y-87634235D01*
X122401273Y-87640196D01*
X122377004Y-87643796D01*
X122352500Y-87645000D01*
X121527500Y-87645000D01*
X121502996Y-87643796D01*
X121478727Y-87640196D01*
X121454929Y-87634235D01*
X121431829Y-87625970D01*
X121409651Y-87615480D01*
X121388607Y-87602867D01*
X121368902Y-87588253D01*
X121350723Y-87571777D01*
X121334247Y-87553598D01*
X121319633Y-87533893D01*
X121307020Y-87512849D01*
X121296530Y-87490671D01*
X121288265Y-87467571D01*
X121282304Y-87443773D01*
X121278704Y-87419504D01*
X121277500Y-87395000D01*
X121277500Y-86595000D01*
X121278704Y-86570496D01*
X121282304Y-86546227D01*
X121288265Y-86522429D01*
X121296530Y-86499329D01*
X121307020Y-86477151D01*
X121319633Y-86456107D01*
X121334247Y-86436402D01*
X121350723Y-86418223D01*
X121368902Y-86401747D01*
X121388607Y-86387133D01*
X121409651Y-86374520D01*
X121431829Y-86364030D01*
X121454929Y-86355765D01*
X121478727Y-86349804D01*
X121502996Y-86346204D01*
X121527500Y-86345000D01*
X122352500Y-86345000D01*
X122377004Y-86346204D01*
X122377004Y-86346204D01*
G37*
D17*
G04 #@! TD*
G04 #@! TO.P,D2,1*
G04 #@! TO.N,Net-(D2-Pad1)*
X121940000Y-86995000D03*
D11*
G04 #@! TO.N,/ACTIVE_INDICATOR*
G04 #@! TO.C,D2*
G36*
X120452004Y-86346204D02*
X120476273Y-86349804D01*
X120500071Y-86355765D01*
X120523171Y-86364030D01*
X120545349Y-86374520D01*
X120566393Y-86387133D01*
X120586098Y-86401747D01*
X120604277Y-86418223D01*
X120620753Y-86436402D01*
X120635367Y-86456107D01*
X120647980Y-86477151D01*
X120658470Y-86499329D01*
X120666735Y-86522429D01*
X120672696Y-86546227D01*
X120676296Y-86570496D01*
X120677500Y-86595000D01*
X120677500Y-87395000D01*
X120676296Y-87419504D01*
X120672696Y-87443773D01*
X120666735Y-87467571D01*
X120658470Y-87490671D01*
X120647980Y-87512849D01*
X120635367Y-87533893D01*
X120620753Y-87553598D01*
X120604277Y-87571777D01*
X120586098Y-87588253D01*
X120566393Y-87602867D01*
X120545349Y-87615480D01*
X120523171Y-87625970D01*
X120500071Y-87634235D01*
X120476273Y-87640196D01*
X120452004Y-87643796D01*
X120427500Y-87645000D01*
X119602500Y-87645000D01*
X119577996Y-87643796D01*
X119553727Y-87640196D01*
X119529929Y-87634235D01*
X119506829Y-87625970D01*
X119484651Y-87615480D01*
X119463607Y-87602867D01*
X119443902Y-87588253D01*
X119425723Y-87571777D01*
X119409247Y-87553598D01*
X119394633Y-87533893D01*
X119382020Y-87512849D01*
X119371530Y-87490671D01*
X119363265Y-87467571D01*
X119357304Y-87443773D01*
X119353704Y-87419504D01*
X119352500Y-87395000D01*
X119352500Y-86595000D01*
X119353704Y-86570496D01*
X119357304Y-86546227D01*
X119363265Y-86522429D01*
X119371530Y-86499329D01*
X119382020Y-86477151D01*
X119394633Y-86456107D01*
X119409247Y-86436402D01*
X119425723Y-86418223D01*
X119443902Y-86401747D01*
X119463607Y-86387133D01*
X119484651Y-86374520D01*
X119506829Y-86364030D01*
X119529929Y-86355765D01*
X119553727Y-86349804D01*
X119577996Y-86346204D01*
X119602500Y-86345000D01*
X120427500Y-86345000D01*
X120452004Y-86346204D01*
X120452004Y-86346204D01*
G37*
D17*
G04 #@! TD*
G04 #@! TO.P,D2,2*
G04 #@! TO.N,/ACTIVE_INDICATOR*
X120015000Y-86995000D03*
D18*
G04 #@! TO.P,U1,1*
G04 #@! TO.N,/RST*
X112935000Y-82185000D03*
G04 #@! TO.P,U1,2*
G04 #@! TO.N,BAT+*
X112935000Y-82685000D03*
G04 #@! TO.P,U1,3*
G04 #@! TO.N,Net-(U1-Pad3)*
X112935000Y-83185000D03*
G04 #@! TO.P,U1,4*
G04 #@! TO.N,Net-(U1-Pad4)*
X112935000Y-83685000D03*
G04 #@! TO.P,U1,5*
G04 #@! TO.N,BoostConv_IN*
X112935000Y-84185000D03*
D19*
G04 #@! TO.P,U1,6*
G04 #@! TO.N,Net-(U1-Pad6)*
X113935000Y-85185000D03*
G04 #@! TO.P,U1,7*
G04 #@! TO.N,Net-(U1-Pad7)*
X114435000Y-85185000D03*
G04 #@! TO.P,U1,8*
G04 #@! TO.N,GND*
X114935000Y-85185000D03*
G04 #@! TO.P,U1,9*
G04 #@! TO.N,Net-(U1-Pad9)*
X115435000Y-85185000D03*
G04 #@! TO.P,U1,10*
G04 #@! TO.N,Net-(U1-Pad10)*
X115935000Y-85185000D03*
D18*
G04 #@! TO.P,U1,11*
G04 #@! TO.N,/ACTIVE_INDICATOR*
X116935000Y-84185000D03*
G04 #@! TO.P,U1,12*
G04 #@! TO.N,/MISO*
X116935000Y-83685000D03*
G04 #@! TO.P,U1,13*
G04 #@! TO.N,Net-(U1-Pad13)*
X116935000Y-83185000D03*
G04 #@! TO.P,U1,14*
G04 #@! TO.N,/SCK*
X116935000Y-82685000D03*
G04 #@! TO.P,U1,15*
G04 #@! TO.N,+5V*
X116935000Y-82185000D03*
D19*
G04 #@! TO.P,U1,16*
G04 #@! TO.N,Net-(U1-Pad16)*
X115935000Y-81185000D03*
G04 #@! TO.P,U1,17*
G04 #@! TO.N,Net-(U1-Pad17)*
X115435000Y-81185000D03*
G04 #@! TO.P,U1,18*
G04 #@! TO.N,Net-(U1-Pad18)*
X114935000Y-81185000D03*
G04 #@! TO.P,U1,19*
G04 #@! TO.N,Net-(U1-Pad19)*
X114435000Y-81185000D03*
G04 #@! TO.P,U1,20*
G04 #@! TO.N,Net-(U1-Pad20)*
X113935000Y-81185000D03*
D20*
G04 #@! TO.P,U1,21*
G04 #@! TO.N,GND*
X114935000Y-83185000D03*
G04 #@! TD*
D21*
G04 #@! TO.P,U3,1*
G04 #@! TO.N,Net-(U3-Pad1)*
X125435000Y-75352000D03*
G04 #@! TO.P,U3,2*
G04 #@! TO.N,GND*
X125435000Y-76002000D03*
G04 #@! TO.P,U3,3*
G04 #@! TO.N,Net-(C2-Pad1)*
X125435000Y-76652000D03*
G04 #@! TO.P,U3,4*
G04 #@! TO.N,Net-(R2-Pad2)*
X125435000Y-77302000D03*
G04 #@! TO.P,U3,5*
G04 #@! TO.N,SHDN*
X129835000Y-77302000D03*
G04 #@! TO.P,U3,6*
G04 #@! TO.N,Net-(U3-Pad6)*
X129835000Y-76652000D03*
G04 #@! TO.P,U3,7*
G04 #@! TO.N,Net-(U3-Pad7)*
X129835000Y-76002000D03*
G04 #@! TO.P,U3,8*
G04 #@! TO.N,Net-(C2-Pad1)*
X129835000Y-75352000D03*
G04 #@! TD*
D22*
G04 #@! TO.P,U4,1*
G04 #@! TO.N,Net-(U3-Pad1)*
X134010000Y-79615000D03*
G04 #@! TO.P,U4,3*
G04 #@! TO.N,GND*
X134010000Y-84215000D03*
G04 #@! TO.P,U4,2*
G04 #@! TO.N,Net-(L1-Pad2)*
X134010000Y-81915000D03*
D23*
G04 #@! TO.P,U4,4*
G04 #@! TO.N,Net-(D1-Pad2)*
X140310000Y-81915000D03*
G04 #@! TD*
G04 #@! TO.P,U5,4*
G04 #@! TO.N,OUT-*
X140310000Y-93345000D03*
D22*
G04 #@! TO.P,U5,2*
X134010000Y-93345000D03*
G04 #@! TO.P,U5,3*
G04 #@! TO.N,GND*
X134010000Y-95645000D03*
G04 #@! TO.P,U5,1*
G04 #@! TO.N,SHDN*
X134010000Y-91045000D03*
G04 #@! TD*
D11*
G04 #@! TO.N,SHDN*
G04 #@! TO.C,R12*
G36*
X130020142Y-93191174D02*
X130043803Y-93194684D01*
X130067007Y-93200496D01*
X130089529Y-93208554D01*
X130111153Y-93218782D01*
X130131670Y-93231079D01*
X130150883Y-93245329D01*
X130168607Y-93261393D01*
X130184671Y-93279117D01*
X130198921Y-93298330D01*
X130211218Y-93318847D01*
X130221446Y-93340471D01*
X130229504Y-93362993D01*
X130235316Y-93386197D01*
X130238826Y-93409858D01*
X130240000Y-93433750D01*
X130240000Y-93921250D01*
X130238826Y-93945142D01*
X130235316Y-93968803D01*
X130229504Y-93992007D01*
X130221446Y-94014529D01*
X130211218Y-94036153D01*
X130198921Y-94056670D01*
X130184671Y-94075883D01*
X130168607Y-94093607D01*
X130150883Y-94109671D01*
X130131670Y-94123921D01*
X130111153Y-94136218D01*
X130089529Y-94146446D01*
X130067007Y-94154504D01*
X130043803Y-94160316D01*
X130020142Y-94163826D01*
X129996250Y-94165000D01*
X129083750Y-94165000D01*
X129059858Y-94163826D01*
X129036197Y-94160316D01*
X129012993Y-94154504D01*
X128990471Y-94146446D01*
X128968847Y-94136218D01*
X128948330Y-94123921D01*
X128929117Y-94109671D01*
X128911393Y-94093607D01*
X128895329Y-94075883D01*
X128881079Y-94056670D01*
X128868782Y-94036153D01*
X128858554Y-94014529D01*
X128850496Y-93992007D01*
X128844684Y-93968803D01*
X128841174Y-93945142D01*
X128840000Y-93921250D01*
X128840000Y-93433750D01*
X128841174Y-93409858D01*
X128844684Y-93386197D01*
X128850496Y-93362993D01*
X128858554Y-93340471D01*
X128868782Y-93318847D01*
X128881079Y-93298330D01*
X128895329Y-93279117D01*
X128911393Y-93261393D01*
X128929117Y-93245329D01*
X128948330Y-93231079D01*
X128968847Y-93218782D01*
X128990471Y-93208554D01*
X129012993Y-93200496D01*
X129036197Y-93194684D01*
X129059858Y-93191174D01*
X129083750Y-93190000D01*
X129996250Y-93190000D01*
X130020142Y-93191174D01*
X130020142Y-93191174D01*
G37*
D24*
G04 #@! TD*
G04 #@! TO.P,R12,1*
G04 #@! TO.N,SHDN*
X129540000Y-93677500D03*
D11*
G04 #@! TO.N,GND*
G04 #@! TO.C,R12*
G36*
X130020142Y-95066174D02*
X130043803Y-95069684D01*
X130067007Y-95075496D01*
X130089529Y-95083554D01*
X130111153Y-95093782D01*
X130131670Y-95106079D01*
X130150883Y-95120329D01*
X130168607Y-95136393D01*
X130184671Y-95154117D01*
X130198921Y-95173330D01*
X130211218Y-95193847D01*
X130221446Y-95215471D01*
X130229504Y-95237993D01*
X130235316Y-95261197D01*
X130238826Y-95284858D01*
X130240000Y-95308750D01*
X130240000Y-95796250D01*
X130238826Y-95820142D01*
X130235316Y-95843803D01*
X130229504Y-95867007D01*
X130221446Y-95889529D01*
X130211218Y-95911153D01*
X130198921Y-95931670D01*
X130184671Y-95950883D01*
X130168607Y-95968607D01*
X130150883Y-95984671D01*
X130131670Y-95998921D01*
X130111153Y-96011218D01*
X130089529Y-96021446D01*
X130067007Y-96029504D01*
X130043803Y-96035316D01*
X130020142Y-96038826D01*
X129996250Y-96040000D01*
X129083750Y-96040000D01*
X129059858Y-96038826D01*
X129036197Y-96035316D01*
X129012993Y-96029504D01*
X128990471Y-96021446D01*
X128968847Y-96011218D01*
X128948330Y-95998921D01*
X128929117Y-95984671D01*
X128911393Y-95968607D01*
X128895329Y-95950883D01*
X128881079Y-95931670D01*
X128868782Y-95911153D01*
X128858554Y-95889529D01*
X128850496Y-95867007D01*
X128844684Y-95843803D01*
X128841174Y-95820142D01*
X128840000Y-95796250D01*
X128840000Y-95308750D01*
X128841174Y-95284858D01*
X128844684Y-95261197D01*
X128850496Y-95237993D01*
X128858554Y-95215471D01*
X128868782Y-95193847D01*
X128881079Y-95173330D01*
X128895329Y-95154117D01*
X128911393Y-95136393D01*
X128929117Y-95120329D01*
X128948330Y-95106079D01*
X128968847Y-95093782D01*
X128990471Y-95083554D01*
X129012993Y-95075496D01*
X129036197Y-95069684D01*
X129059858Y-95066174D01*
X129083750Y-95065000D01*
X129996250Y-95065000D01*
X130020142Y-95066174D01*
X130020142Y-95066174D01*
G37*
D24*
G04 #@! TD*
G04 #@! TO.P,R12,2*
G04 #@! TO.N,GND*
X129540000Y-95552500D03*
D11*
G04 #@! TO.N,Net-(R11-Pad2)*
G04 #@! TO.C,R11*
G36*
X127480142Y-93191174D02*
X127503803Y-93194684D01*
X127527007Y-93200496D01*
X127549529Y-93208554D01*
X127571153Y-93218782D01*
X127591670Y-93231079D01*
X127610883Y-93245329D01*
X127628607Y-93261393D01*
X127644671Y-93279117D01*
X127658921Y-93298330D01*
X127671218Y-93318847D01*
X127681446Y-93340471D01*
X127689504Y-93362993D01*
X127695316Y-93386197D01*
X127698826Y-93409858D01*
X127700000Y-93433750D01*
X127700000Y-93921250D01*
X127698826Y-93945142D01*
X127695316Y-93968803D01*
X127689504Y-93992007D01*
X127681446Y-94014529D01*
X127671218Y-94036153D01*
X127658921Y-94056670D01*
X127644671Y-94075883D01*
X127628607Y-94093607D01*
X127610883Y-94109671D01*
X127591670Y-94123921D01*
X127571153Y-94136218D01*
X127549529Y-94146446D01*
X127527007Y-94154504D01*
X127503803Y-94160316D01*
X127480142Y-94163826D01*
X127456250Y-94165000D01*
X126543750Y-94165000D01*
X126519858Y-94163826D01*
X126496197Y-94160316D01*
X126472993Y-94154504D01*
X126450471Y-94146446D01*
X126428847Y-94136218D01*
X126408330Y-94123921D01*
X126389117Y-94109671D01*
X126371393Y-94093607D01*
X126355329Y-94075883D01*
X126341079Y-94056670D01*
X126328782Y-94036153D01*
X126318554Y-94014529D01*
X126310496Y-93992007D01*
X126304684Y-93968803D01*
X126301174Y-93945142D01*
X126300000Y-93921250D01*
X126300000Y-93433750D01*
X126301174Y-93409858D01*
X126304684Y-93386197D01*
X126310496Y-93362993D01*
X126318554Y-93340471D01*
X126328782Y-93318847D01*
X126341079Y-93298330D01*
X126355329Y-93279117D01*
X126371393Y-93261393D01*
X126389117Y-93245329D01*
X126408330Y-93231079D01*
X126428847Y-93218782D01*
X126450471Y-93208554D01*
X126472993Y-93200496D01*
X126496197Y-93194684D01*
X126519858Y-93191174D01*
X126543750Y-93190000D01*
X127456250Y-93190000D01*
X127480142Y-93191174D01*
X127480142Y-93191174D01*
G37*
D24*
G04 #@! TD*
G04 #@! TO.P,R11,2*
G04 #@! TO.N,Net-(R11-Pad2)*
X127000000Y-93677500D03*
D11*
G04 #@! TO.N,+5V*
G04 #@! TO.C,R11*
G36*
X127480142Y-95066174D02*
X127503803Y-95069684D01*
X127527007Y-95075496D01*
X127549529Y-95083554D01*
X127571153Y-95093782D01*
X127591670Y-95106079D01*
X127610883Y-95120329D01*
X127628607Y-95136393D01*
X127644671Y-95154117D01*
X127658921Y-95173330D01*
X127671218Y-95193847D01*
X127681446Y-95215471D01*
X127689504Y-95237993D01*
X127695316Y-95261197D01*
X127698826Y-95284858D01*
X127700000Y-95308750D01*
X127700000Y-95796250D01*
X127698826Y-95820142D01*
X127695316Y-95843803D01*
X127689504Y-95867007D01*
X127681446Y-95889529D01*
X127671218Y-95911153D01*
X127658921Y-95931670D01*
X127644671Y-95950883D01*
X127628607Y-95968607D01*
X127610883Y-95984671D01*
X127591670Y-95998921D01*
X127571153Y-96011218D01*
X127549529Y-96021446D01*
X127527007Y-96029504D01*
X127503803Y-96035316D01*
X127480142Y-96038826D01*
X127456250Y-96040000D01*
X126543750Y-96040000D01*
X126519858Y-96038826D01*
X126496197Y-96035316D01*
X126472993Y-96029504D01*
X126450471Y-96021446D01*
X126428847Y-96011218D01*
X126408330Y-95998921D01*
X126389117Y-95984671D01*
X126371393Y-95968607D01*
X126355329Y-95950883D01*
X126341079Y-95931670D01*
X126328782Y-95911153D01*
X126318554Y-95889529D01*
X126310496Y-95867007D01*
X126304684Y-95843803D01*
X126301174Y-95820142D01*
X126300000Y-95796250D01*
X126300000Y-95308750D01*
X126301174Y-95284858D01*
X126304684Y-95261197D01*
X126310496Y-95237993D01*
X126318554Y-95215471D01*
X126328782Y-95193847D01*
X126341079Y-95173330D01*
X126355329Y-95154117D01*
X126371393Y-95136393D01*
X126389117Y-95120329D01*
X126408330Y-95106079D01*
X126428847Y-95093782D01*
X126450471Y-95083554D01*
X126472993Y-95075496D01*
X126496197Y-95069684D01*
X126519858Y-95066174D01*
X126543750Y-95065000D01*
X127456250Y-95065000D01*
X127480142Y-95066174D01*
X127480142Y-95066174D01*
G37*
D24*
G04 #@! TD*
G04 #@! TO.P,R11,1*
G04 #@! TO.N,+5V*
X127000000Y-95552500D03*
D11*
G04 #@! TO.N,Net-(D3-Pad1)*
G04 #@! TO.C,R10*
G36*
X106977642Y-76771174D02*
X107001303Y-76774684D01*
X107024507Y-76780496D01*
X107047029Y-76788554D01*
X107068653Y-76798782D01*
X107089170Y-76811079D01*
X107108383Y-76825329D01*
X107126107Y-76841393D01*
X107142171Y-76859117D01*
X107156421Y-76878330D01*
X107168718Y-76898847D01*
X107178946Y-76920471D01*
X107187004Y-76942993D01*
X107192816Y-76966197D01*
X107196326Y-76989858D01*
X107197500Y-77013750D01*
X107197500Y-77926250D01*
X107196326Y-77950142D01*
X107192816Y-77973803D01*
X107187004Y-77997007D01*
X107178946Y-78019529D01*
X107168718Y-78041153D01*
X107156421Y-78061670D01*
X107142171Y-78080883D01*
X107126107Y-78098607D01*
X107108383Y-78114671D01*
X107089170Y-78128921D01*
X107068653Y-78141218D01*
X107047029Y-78151446D01*
X107024507Y-78159504D01*
X107001303Y-78165316D01*
X106977642Y-78168826D01*
X106953750Y-78170000D01*
X106466250Y-78170000D01*
X106442358Y-78168826D01*
X106418697Y-78165316D01*
X106395493Y-78159504D01*
X106372971Y-78151446D01*
X106351347Y-78141218D01*
X106330830Y-78128921D01*
X106311617Y-78114671D01*
X106293893Y-78098607D01*
X106277829Y-78080883D01*
X106263579Y-78061670D01*
X106251282Y-78041153D01*
X106241054Y-78019529D01*
X106232996Y-77997007D01*
X106227184Y-77973803D01*
X106223674Y-77950142D01*
X106222500Y-77926250D01*
X106222500Y-77013750D01*
X106223674Y-76989858D01*
X106227184Y-76966197D01*
X106232996Y-76942993D01*
X106241054Y-76920471D01*
X106251282Y-76898847D01*
X106263579Y-76878330D01*
X106277829Y-76859117D01*
X106293893Y-76841393D01*
X106311617Y-76825329D01*
X106330830Y-76811079D01*
X106351347Y-76798782D01*
X106372971Y-76788554D01*
X106395493Y-76780496D01*
X106418697Y-76774684D01*
X106442358Y-76771174D01*
X106466250Y-76770000D01*
X106953750Y-76770000D01*
X106977642Y-76771174D01*
X106977642Y-76771174D01*
G37*
D24*
G04 #@! TD*
G04 #@! TO.P,R10,1*
G04 #@! TO.N,Net-(D3-Pad1)*
X106710000Y-77470000D03*
D11*
G04 #@! TO.N,GND*
G04 #@! TO.C,R10*
G36*
X108852642Y-76771174D02*
X108876303Y-76774684D01*
X108899507Y-76780496D01*
X108922029Y-76788554D01*
X108943653Y-76798782D01*
X108964170Y-76811079D01*
X108983383Y-76825329D01*
X109001107Y-76841393D01*
X109017171Y-76859117D01*
X109031421Y-76878330D01*
X109043718Y-76898847D01*
X109053946Y-76920471D01*
X109062004Y-76942993D01*
X109067816Y-76966197D01*
X109071326Y-76989858D01*
X109072500Y-77013750D01*
X109072500Y-77926250D01*
X109071326Y-77950142D01*
X109067816Y-77973803D01*
X109062004Y-77997007D01*
X109053946Y-78019529D01*
X109043718Y-78041153D01*
X109031421Y-78061670D01*
X109017171Y-78080883D01*
X109001107Y-78098607D01*
X108983383Y-78114671D01*
X108964170Y-78128921D01*
X108943653Y-78141218D01*
X108922029Y-78151446D01*
X108899507Y-78159504D01*
X108876303Y-78165316D01*
X108852642Y-78168826D01*
X108828750Y-78170000D01*
X108341250Y-78170000D01*
X108317358Y-78168826D01*
X108293697Y-78165316D01*
X108270493Y-78159504D01*
X108247971Y-78151446D01*
X108226347Y-78141218D01*
X108205830Y-78128921D01*
X108186617Y-78114671D01*
X108168893Y-78098607D01*
X108152829Y-78080883D01*
X108138579Y-78061670D01*
X108126282Y-78041153D01*
X108116054Y-78019529D01*
X108107996Y-77997007D01*
X108102184Y-77973803D01*
X108098674Y-77950142D01*
X108097500Y-77926250D01*
X108097500Y-77013750D01*
X108098674Y-76989858D01*
X108102184Y-76966197D01*
X108107996Y-76942993D01*
X108116054Y-76920471D01*
X108126282Y-76898847D01*
X108138579Y-76878330D01*
X108152829Y-76859117D01*
X108168893Y-76841393D01*
X108186617Y-76825329D01*
X108205830Y-76811079D01*
X108226347Y-76798782D01*
X108247971Y-76788554D01*
X108270493Y-76780496D01*
X108293697Y-76774684D01*
X108317358Y-76771174D01*
X108341250Y-76770000D01*
X108828750Y-76770000D01*
X108852642Y-76771174D01*
X108852642Y-76771174D01*
G37*
D24*
G04 #@! TD*
G04 #@! TO.P,R10,2*
G04 #@! TO.N,GND*
X108585000Y-77470000D03*
D11*
G04 #@! TO.N,GND*
G04 #@! TO.C,R9*
G36*
X125997642Y-86296174D02*
X126021303Y-86299684D01*
X126044507Y-86305496D01*
X126067029Y-86313554D01*
X126088653Y-86323782D01*
X126109170Y-86336079D01*
X126128383Y-86350329D01*
X126146107Y-86366393D01*
X126162171Y-86384117D01*
X126176421Y-86403330D01*
X126188718Y-86423847D01*
X126198946Y-86445471D01*
X126207004Y-86467993D01*
X126212816Y-86491197D01*
X126216326Y-86514858D01*
X126217500Y-86538750D01*
X126217500Y-87451250D01*
X126216326Y-87475142D01*
X126212816Y-87498803D01*
X126207004Y-87522007D01*
X126198946Y-87544529D01*
X126188718Y-87566153D01*
X126176421Y-87586670D01*
X126162171Y-87605883D01*
X126146107Y-87623607D01*
X126128383Y-87639671D01*
X126109170Y-87653921D01*
X126088653Y-87666218D01*
X126067029Y-87676446D01*
X126044507Y-87684504D01*
X126021303Y-87690316D01*
X125997642Y-87693826D01*
X125973750Y-87695000D01*
X125486250Y-87695000D01*
X125462358Y-87693826D01*
X125438697Y-87690316D01*
X125415493Y-87684504D01*
X125392971Y-87676446D01*
X125371347Y-87666218D01*
X125350830Y-87653921D01*
X125331617Y-87639671D01*
X125313893Y-87623607D01*
X125297829Y-87605883D01*
X125283579Y-87586670D01*
X125271282Y-87566153D01*
X125261054Y-87544529D01*
X125252996Y-87522007D01*
X125247184Y-87498803D01*
X125243674Y-87475142D01*
X125242500Y-87451250D01*
X125242500Y-86538750D01*
X125243674Y-86514858D01*
X125247184Y-86491197D01*
X125252996Y-86467993D01*
X125261054Y-86445471D01*
X125271282Y-86423847D01*
X125283579Y-86403330D01*
X125297829Y-86384117D01*
X125313893Y-86366393D01*
X125331617Y-86350329D01*
X125350830Y-86336079D01*
X125371347Y-86323782D01*
X125392971Y-86313554D01*
X125415493Y-86305496D01*
X125438697Y-86299684D01*
X125462358Y-86296174D01*
X125486250Y-86295000D01*
X125973750Y-86295000D01*
X125997642Y-86296174D01*
X125997642Y-86296174D01*
G37*
D24*
G04 #@! TD*
G04 #@! TO.P,R9,2*
G04 #@! TO.N,GND*
X125730000Y-86995000D03*
D11*
G04 #@! TO.N,Net-(D2-Pad1)*
G04 #@! TO.C,R9*
G36*
X124122642Y-86296174D02*
X124146303Y-86299684D01*
X124169507Y-86305496D01*
X124192029Y-86313554D01*
X124213653Y-86323782D01*
X124234170Y-86336079D01*
X124253383Y-86350329D01*
X124271107Y-86366393D01*
X124287171Y-86384117D01*
X124301421Y-86403330D01*
X124313718Y-86423847D01*
X124323946Y-86445471D01*
X124332004Y-86467993D01*
X124337816Y-86491197D01*
X124341326Y-86514858D01*
X124342500Y-86538750D01*
X124342500Y-87451250D01*
X124341326Y-87475142D01*
X124337816Y-87498803D01*
X124332004Y-87522007D01*
X124323946Y-87544529D01*
X124313718Y-87566153D01*
X124301421Y-87586670D01*
X124287171Y-87605883D01*
X124271107Y-87623607D01*
X124253383Y-87639671D01*
X124234170Y-87653921D01*
X124213653Y-87666218D01*
X124192029Y-87676446D01*
X124169507Y-87684504D01*
X124146303Y-87690316D01*
X124122642Y-87693826D01*
X124098750Y-87695000D01*
X123611250Y-87695000D01*
X123587358Y-87693826D01*
X123563697Y-87690316D01*
X123540493Y-87684504D01*
X123517971Y-87676446D01*
X123496347Y-87666218D01*
X123475830Y-87653921D01*
X123456617Y-87639671D01*
X123438893Y-87623607D01*
X123422829Y-87605883D01*
X123408579Y-87586670D01*
X123396282Y-87566153D01*
X123386054Y-87544529D01*
X123377996Y-87522007D01*
X123372184Y-87498803D01*
X123368674Y-87475142D01*
X123367500Y-87451250D01*
X123367500Y-86538750D01*
X123368674Y-86514858D01*
X123372184Y-86491197D01*
X123377996Y-86467993D01*
X123386054Y-86445471D01*
X123396282Y-86423847D01*
X123408579Y-86403330D01*
X123422829Y-86384117D01*
X123438893Y-86366393D01*
X123456617Y-86350329D01*
X123475830Y-86336079D01*
X123496347Y-86323782D01*
X123517971Y-86313554D01*
X123540493Y-86305496D01*
X123563697Y-86299684D01*
X123587358Y-86296174D01*
X123611250Y-86295000D01*
X124098750Y-86295000D01*
X124122642Y-86296174D01*
X124122642Y-86296174D01*
G37*
D24*
G04 #@! TD*
G04 #@! TO.P,R9,1*
G04 #@! TO.N,Net-(D2-Pad1)*
X123855000Y-86995000D03*
D11*
G04 #@! TO.N,Net-(R11-Pad2)*
G04 #@! TO.C,R7*
G36*
X115426642Y-86931174D02*
X115450303Y-86934684D01*
X115473507Y-86940496D01*
X115496029Y-86948554D01*
X115517653Y-86958782D01*
X115538170Y-86971079D01*
X115557383Y-86985329D01*
X115575107Y-87001393D01*
X115591171Y-87019117D01*
X115605421Y-87038330D01*
X115617718Y-87058847D01*
X115627946Y-87080471D01*
X115636004Y-87102993D01*
X115641816Y-87126197D01*
X115645326Y-87149858D01*
X115646500Y-87173750D01*
X115646500Y-88086250D01*
X115645326Y-88110142D01*
X115641816Y-88133803D01*
X115636004Y-88157007D01*
X115627946Y-88179529D01*
X115617718Y-88201153D01*
X115605421Y-88221670D01*
X115591171Y-88240883D01*
X115575107Y-88258607D01*
X115557383Y-88274671D01*
X115538170Y-88288921D01*
X115517653Y-88301218D01*
X115496029Y-88311446D01*
X115473507Y-88319504D01*
X115450303Y-88325316D01*
X115426642Y-88328826D01*
X115402750Y-88330000D01*
X114915250Y-88330000D01*
X114891358Y-88328826D01*
X114867697Y-88325316D01*
X114844493Y-88319504D01*
X114821971Y-88311446D01*
X114800347Y-88301218D01*
X114779830Y-88288921D01*
X114760617Y-88274671D01*
X114742893Y-88258607D01*
X114726829Y-88240883D01*
X114712579Y-88221670D01*
X114700282Y-88201153D01*
X114690054Y-88179529D01*
X114681996Y-88157007D01*
X114676184Y-88133803D01*
X114672674Y-88110142D01*
X114671500Y-88086250D01*
X114671500Y-87173750D01*
X114672674Y-87149858D01*
X114676184Y-87126197D01*
X114681996Y-87102993D01*
X114690054Y-87080471D01*
X114700282Y-87058847D01*
X114712579Y-87038330D01*
X114726829Y-87019117D01*
X114742893Y-87001393D01*
X114760617Y-86985329D01*
X114779830Y-86971079D01*
X114800347Y-86958782D01*
X114821971Y-86948554D01*
X114844493Y-86940496D01*
X114867697Y-86934684D01*
X114891358Y-86931174D01*
X114915250Y-86930000D01*
X115402750Y-86930000D01*
X115426642Y-86931174D01*
X115426642Y-86931174D01*
G37*
D24*
G04 #@! TD*
G04 #@! TO.P,R7,1*
G04 #@! TO.N,Net-(R11-Pad2)*
X115159000Y-87630000D03*
D11*
G04 #@! TO.N,/MISO*
G04 #@! TO.C,R7*
G36*
X113551642Y-86931174D02*
X113575303Y-86934684D01*
X113598507Y-86940496D01*
X113621029Y-86948554D01*
X113642653Y-86958782D01*
X113663170Y-86971079D01*
X113682383Y-86985329D01*
X113700107Y-87001393D01*
X113716171Y-87019117D01*
X113730421Y-87038330D01*
X113742718Y-87058847D01*
X113752946Y-87080471D01*
X113761004Y-87102993D01*
X113766816Y-87126197D01*
X113770326Y-87149858D01*
X113771500Y-87173750D01*
X113771500Y-88086250D01*
X113770326Y-88110142D01*
X113766816Y-88133803D01*
X113761004Y-88157007D01*
X113752946Y-88179529D01*
X113742718Y-88201153D01*
X113730421Y-88221670D01*
X113716171Y-88240883D01*
X113700107Y-88258607D01*
X113682383Y-88274671D01*
X113663170Y-88288921D01*
X113642653Y-88301218D01*
X113621029Y-88311446D01*
X113598507Y-88319504D01*
X113575303Y-88325316D01*
X113551642Y-88328826D01*
X113527750Y-88330000D01*
X113040250Y-88330000D01*
X113016358Y-88328826D01*
X112992697Y-88325316D01*
X112969493Y-88319504D01*
X112946971Y-88311446D01*
X112925347Y-88301218D01*
X112904830Y-88288921D01*
X112885617Y-88274671D01*
X112867893Y-88258607D01*
X112851829Y-88240883D01*
X112837579Y-88221670D01*
X112825282Y-88201153D01*
X112815054Y-88179529D01*
X112806996Y-88157007D01*
X112801184Y-88133803D01*
X112797674Y-88110142D01*
X112796500Y-88086250D01*
X112796500Y-87173750D01*
X112797674Y-87149858D01*
X112801184Y-87126197D01*
X112806996Y-87102993D01*
X112815054Y-87080471D01*
X112825282Y-87058847D01*
X112837579Y-87038330D01*
X112851829Y-87019117D01*
X112867893Y-87001393D01*
X112885617Y-86985329D01*
X112904830Y-86971079D01*
X112925347Y-86958782D01*
X112946971Y-86948554D01*
X112969493Y-86940496D01*
X112992697Y-86934684D01*
X113016358Y-86931174D01*
X113040250Y-86930000D01*
X113527750Y-86930000D01*
X113551642Y-86931174D01*
X113551642Y-86931174D01*
G37*
D24*
G04 #@! TD*
G04 #@! TO.P,R7,2*
G04 #@! TO.N,/MISO*
X113284000Y-87630000D03*
D11*
G04 #@! TO.N,/RST*
G04 #@! TO.C,R6*
G36*
X110122642Y-86931174D02*
X110146303Y-86934684D01*
X110169507Y-86940496D01*
X110192029Y-86948554D01*
X110213653Y-86958782D01*
X110234170Y-86971079D01*
X110253383Y-86985329D01*
X110271107Y-87001393D01*
X110287171Y-87019117D01*
X110301421Y-87038330D01*
X110313718Y-87058847D01*
X110323946Y-87080471D01*
X110332004Y-87102993D01*
X110337816Y-87126197D01*
X110341326Y-87149858D01*
X110342500Y-87173750D01*
X110342500Y-88086250D01*
X110341326Y-88110142D01*
X110337816Y-88133803D01*
X110332004Y-88157007D01*
X110323946Y-88179529D01*
X110313718Y-88201153D01*
X110301421Y-88221670D01*
X110287171Y-88240883D01*
X110271107Y-88258607D01*
X110253383Y-88274671D01*
X110234170Y-88288921D01*
X110213653Y-88301218D01*
X110192029Y-88311446D01*
X110169507Y-88319504D01*
X110146303Y-88325316D01*
X110122642Y-88328826D01*
X110098750Y-88330000D01*
X109611250Y-88330000D01*
X109587358Y-88328826D01*
X109563697Y-88325316D01*
X109540493Y-88319504D01*
X109517971Y-88311446D01*
X109496347Y-88301218D01*
X109475830Y-88288921D01*
X109456617Y-88274671D01*
X109438893Y-88258607D01*
X109422829Y-88240883D01*
X109408579Y-88221670D01*
X109396282Y-88201153D01*
X109386054Y-88179529D01*
X109377996Y-88157007D01*
X109372184Y-88133803D01*
X109368674Y-88110142D01*
X109367500Y-88086250D01*
X109367500Y-87173750D01*
X109368674Y-87149858D01*
X109372184Y-87126197D01*
X109377996Y-87102993D01*
X109386054Y-87080471D01*
X109396282Y-87058847D01*
X109408579Y-87038330D01*
X109422829Y-87019117D01*
X109438893Y-87001393D01*
X109456617Y-86985329D01*
X109475830Y-86971079D01*
X109496347Y-86958782D01*
X109517971Y-86948554D01*
X109540493Y-86940496D01*
X109563697Y-86934684D01*
X109587358Y-86931174D01*
X109611250Y-86930000D01*
X110098750Y-86930000D01*
X110122642Y-86931174D01*
X110122642Y-86931174D01*
G37*
D24*
G04 #@! TD*
G04 #@! TO.P,R6,2*
G04 #@! TO.N,/RST*
X109855000Y-87630000D03*
D11*
G04 #@! TO.N,+5V*
G04 #@! TO.C,R6*
G36*
X111997642Y-86931174D02*
X112021303Y-86934684D01*
X112044507Y-86940496D01*
X112067029Y-86948554D01*
X112088653Y-86958782D01*
X112109170Y-86971079D01*
X112128383Y-86985329D01*
X112146107Y-87001393D01*
X112162171Y-87019117D01*
X112176421Y-87038330D01*
X112188718Y-87058847D01*
X112198946Y-87080471D01*
X112207004Y-87102993D01*
X112212816Y-87126197D01*
X112216326Y-87149858D01*
X112217500Y-87173750D01*
X112217500Y-88086250D01*
X112216326Y-88110142D01*
X112212816Y-88133803D01*
X112207004Y-88157007D01*
X112198946Y-88179529D01*
X112188718Y-88201153D01*
X112176421Y-88221670D01*
X112162171Y-88240883D01*
X112146107Y-88258607D01*
X112128383Y-88274671D01*
X112109170Y-88288921D01*
X112088653Y-88301218D01*
X112067029Y-88311446D01*
X112044507Y-88319504D01*
X112021303Y-88325316D01*
X111997642Y-88328826D01*
X111973750Y-88330000D01*
X111486250Y-88330000D01*
X111462358Y-88328826D01*
X111438697Y-88325316D01*
X111415493Y-88319504D01*
X111392971Y-88311446D01*
X111371347Y-88301218D01*
X111350830Y-88288921D01*
X111331617Y-88274671D01*
X111313893Y-88258607D01*
X111297829Y-88240883D01*
X111283579Y-88221670D01*
X111271282Y-88201153D01*
X111261054Y-88179529D01*
X111252996Y-88157007D01*
X111247184Y-88133803D01*
X111243674Y-88110142D01*
X111242500Y-88086250D01*
X111242500Y-87173750D01*
X111243674Y-87149858D01*
X111247184Y-87126197D01*
X111252996Y-87102993D01*
X111261054Y-87080471D01*
X111271282Y-87058847D01*
X111283579Y-87038330D01*
X111297829Y-87019117D01*
X111313893Y-87001393D01*
X111331617Y-86985329D01*
X111350830Y-86971079D01*
X111371347Y-86958782D01*
X111392971Y-86948554D01*
X111415493Y-86940496D01*
X111438697Y-86934684D01*
X111462358Y-86931174D01*
X111486250Y-86930000D01*
X111973750Y-86930000D01*
X111997642Y-86931174D01*
X111997642Y-86931174D01*
G37*
D24*
G04 #@! TD*
G04 #@! TO.P,R6,1*
G04 #@! TO.N,+5V*
X111730000Y-87630000D03*
D11*
G04 #@! TO.N,Net-(R5-Pad1)*
G04 #@! TO.C,R5*
G36*
X108430142Y-73173674D02*
X108453803Y-73177184D01*
X108477007Y-73182996D01*
X108499529Y-73191054D01*
X108521153Y-73201282D01*
X108541670Y-73213579D01*
X108560883Y-73227829D01*
X108578607Y-73243893D01*
X108594671Y-73261617D01*
X108608921Y-73280830D01*
X108621218Y-73301347D01*
X108631446Y-73322971D01*
X108639504Y-73345493D01*
X108645316Y-73368697D01*
X108648826Y-73392358D01*
X108650000Y-73416250D01*
X108650000Y-73903750D01*
X108648826Y-73927642D01*
X108645316Y-73951303D01*
X108639504Y-73974507D01*
X108631446Y-73997029D01*
X108621218Y-74018653D01*
X108608921Y-74039170D01*
X108594671Y-74058383D01*
X108578607Y-74076107D01*
X108560883Y-74092171D01*
X108541670Y-74106421D01*
X108521153Y-74118718D01*
X108499529Y-74128946D01*
X108477007Y-74137004D01*
X108453803Y-74142816D01*
X108430142Y-74146326D01*
X108406250Y-74147500D01*
X107493750Y-74147500D01*
X107469858Y-74146326D01*
X107446197Y-74142816D01*
X107422993Y-74137004D01*
X107400471Y-74128946D01*
X107378847Y-74118718D01*
X107358330Y-74106421D01*
X107339117Y-74092171D01*
X107321393Y-74076107D01*
X107305329Y-74058383D01*
X107291079Y-74039170D01*
X107278782Y-74018653D01*
X107268554Y-73997029D01*
X107260496Y-73974507D01*
X107254684Y-73951303D01*
X107251174Y-73927642D01*
X107250000Y-73903750D01*
X107250000Y-73416250D01*
X107251174Y-73392358D01*
X107254684Y-73368697D01*
X107260496Y-73345493D01*
X107268554Y-73322971D01*
X107278782Y-73301347D01*
X107291079Y-73280830D01*
X107305329Y-73261617D01*
X107321393Y-73243893D01*
X107339117Y-73227829D01*
X107358330Y-73213579D01*
X107378847Y-73201282D01*
X107400471Y-73191054D01*
X107422993Y-73182996D01*
X107446197Y-73177184D01*
X107469858Y-73173674D01*
X107493750Y-73172500D01*
X108406250Y-73172500D01*
X108430142Y-73173674D01*
X108430142Y-73173674D01*
G37*
D24*
G04 #@! TD*
G04 #@! TO.P,R5,1*
G04 #@! TO.N,Net-(R5-Pad1)*
X107950000Y-73660000D03*
D11*
G04 #@! TO.N,GND*
G04 #@! TO.C,R5*
G36*
X108430142Y-75048674D02*
X108453803Y-75052184D01*
X108477007Y-75057996D01*
X108499529Y-75066054D01*
X108521153Y-75076282D01*
X108541670Y-75088579D01*
X108560883Y-75102829D01*
X108578607Y-75118893D01*
X108594671Y-75136617D01*
X108608921Y-75155830D01*
X108621218Y-75176347D01*
X108631446Y-75197971D01*
X108639504Y-75220493D01*
X108645316Y-75243697D01*
X108648826Y-75267358D01*
X108650000Y-75291250D01*
X108650000Y-75778750D01*
X108648826Y-75802642D01*
X108645316Y-75826303D01*
X108639504Y-75849507D01*
X108631446Y-75872029D01*
X108621218Y-75893653D01*
X108608921Y-75914170D01*
X108594671Y-75933383D01*
X108578607Y-75951107D01*
X108560883Y-75967171D01*
X108541670Y-75981421D01*
X108521153Y-75993718D01*
X108499529Y-76003946D01*
X108477007Y-76012004D01*
X108453803Y-76017816D01*
X108430142Y-76021326D01*
X108406250Y-76022500D01*
X107493750Y-76022500D01*
X107469858Y-76021326D01*
X107446197Y-76017816D01*
X107422993Y-76012004D01*
X107400471Y-76003946D01*
X107378847Y-75993718D01*
X107358330Y-75981421D01*
X107339117Y-75967171D01*
X107321393Y-75951107D01*
X107305329Y-75933383D01*
X107291079Y-75914170D01*
X107278782Y-75893653D01*
X107268554Y-75872029D01*
X107260496Y-75849507D01*
X107254684Y-75826303D01*
X107251174Y-75802642D01*
X107250000Y-75778750D01*
X107250000Y-75291250D01*
X107251174Y-75267358D01*
X107254684Y-75243697D01*
X107260496Y-75220493D01*
X107268554Y-75197971D01*
X107278782Y-75176347D01*
X107291079Y-75155830D01*
X107305329Y-75136617D01*
X107321393Y-75118893D01*
X107339117Y-75102829D01*
X107358330Y-75088579D01*
X107378847Y-75076282D01*
X107400471Y-75066054D01*
X107422993Y-75057996D01*
X107446197Y-75052184D01*
X107469858Y-75048674D01*
X107493750Y-75047500D01*
X108406250Y-75047500D01*
X108430142Y-75048674D01*
X108430142Y-75048674D01*
G37*
D24*
G04 #@! TD*
G04 #@! TO.P,R5,2*
G04 #@! TO.N,GND*
X107950000Y-75535000D03*
D11*
G04 #@! TO.N,GND*
G04 #@! TO.C,R3*
G36*
X135825142Y-73469174D02*
X135848803Y-73472684D01*
X135872007Y-73478496D01*
X135894529Y-73486554D01*
X135916153Y-73496782D01*
X135936670Y-73509079D01*
X135955883Y-73523329D01*
X135973607Y-73539393D01*
X135989671Y-73557117D01*
X136003921Y-73576330D01*
X136016218Y-73596847D01*
X136026446Y-73618471D01*
X136034504Y-73640993D01*
X136040316Y-73664197D01*
X136043826Y-73687858D01*
X136045000Y-73711750D01*
X136045000Y-74624250D01*
X136043826Y-74648142D01*
X136040316Y-74671803D01*
X136034504Y-74695007D01*
X136026446Y-74717529D01*
X136016218Y-74739153D01*
X136003921Y-74759670D01*
X135989671Y-74778883D01*
X135973607Y-74796607D01*
X135955883Y-74812671D01*
X135936670Y-74826921D01*
X135916153Y-74839218D01*
X135894529Y-74849446D01*
X135872007Y-74857504D01*
X135848803Y-74863316D01*
X135825142Y-74866826D01*
X135801250Y-74868000D01*
X135313750Y-74868000D01*
X135289858Y-74866826D01*
X135266197Y-74863316D01*
X135242993Y-74857504D01*
X135220471Y-74849446D01*
X135198847Y-74839218D01*
X135178330Y-74826921D01*
X135159117Y-74812671D01*
X135141393Y-74796607D01*
X135125329Y-74778883D01*
X135111079Y-74759670D01*
X135098782Y-74739153D01*
X135088554Y-74717529D01*
X135080496Y-74695007D01*
X135074684Y-74671803D01*
X135071174Y-74648142D01*
X135070000Y-74624250D01*
X135070000Y-73711750D01*
X135071174Y-73687858D01*
X135074684Y-73664197D01*
X135080496Y-73640993D01*
X135088554Y-73618471D01*
X135098782Y-73596847D01*
X135111079Y-73576330D01*
X135125329Y-73557117D01*
X135141393Y-73539393D01*
X135159117Y-73523329D01*
X135178330Y-73509079D01*
X135198847Y-73496782D01*
X135220471Y-73486554D01*
X135242993Y-73478496D01*
X135266197Y-73472684D01*
X135289858Y-73469174D01*
X135313750Y-73468000D01*
X135801250Y-73468000D01*
X135825142Y-73469174D01*
X135825142Y-73469174D01*
G37*
D24*
G04 #@! TD*
G04 #@! TO.P,R3,2*
G04 #@! TO.N,GND*
X135557500Y-74168000D03*
D11*
G04 #@! TO.N,Net-(R2-Pad2)*
G04 #@! TO.C,R3*
G36*
X133950142Y-73469174D02*
X133973803Y-73472684D01*
X133997007Y-73478496D01*
X134019529Y-73486554D01*
X134041153Y-73496782D01*
X134061670Y-73509079D01*
X134080883Y-73523329D01*
X134098607Y-73539393D01*
X134114671Y-73557117D01*
X134128921Y-73576330D01*
X134141218Y-73596847D01*
X134151446Y-73618471D01*
X134159504Y-73640993D01*
X134165316Y-73664197D01*
X134168826Y-73687858D01*
X134170000Y-73711750D01*
X134170000Y-74624250D01*
X134168826Y-74648142D01*
X134165316Y-74671803D01*
X134159504Y-74695007D01*
X134151446Y-74717529D01*
X134141218Y-74739153D01*
X134128921Y-74759670D01*
X134114671Y-74778883D01*
X134098607Y-74796607D01*
X134080883Y-74812671D01*
X134061670Y-74826921D01*
X134041153Y-74839218D01*
X134019529Y-74849446D01*
X133997007Y-74857504D01*
X133973803Y-74863316D01*
X133950142Y-74866826D01*
X133926250Y-74868000D01*
X133438750Y-74868000D01*
X133414858Y-74866826D01*
X133391197Y-74863316D01*
X133367993Y-74857504D01*
X133345471Y-74849446D01*
X133323847Y-74839218D01*
X133303330Y-74826921D01*
X133284117Y-74812671D01*
X133266393Y-74796607D01*
X133250329Y-74778883D01*
X133236079Y-74759670D01*
X133223782Y-74739153D01*
X133213554Y-74717529D01*
X133205496Y-74695007D01*
X133199684Y-74671803D01*
X133196174Y-74648142D01*
X133195000Y-74624250D01*
X133195000Y-73711750D01*
X133196174Y-73687858D01*
X133199684Y-73664197D01*
X133205496Y-73640993D01*
X133213554Y-73618471D01*
X133223782Y-73596847D01*
X133236079Y-73576330D01*
X133250329Y-73557117D01*
X133266393Y-73539393D01*
X133284117Y-73523329D01*
X133303330Y-73509079D01*
X133323847Y-73496782D01*
X133345471Y-73486554D01*
X133367993Y-73478496D01*
X133391197Y-73472684D01*
X133414858Y-73469174D01*
X133438750Y-73468000D01*
X133926250Y-73468000D01*
X133950142Y-73469174D01*
X133950142Y-73469174D01*
G37*
D24*
G04 #@! TD*
G04 #@! TO.P,R3,1*
G04 #@! TO.N,Net-(R2-Pad2)*
X133682500Y-74168000D03*
D11*
G04 #@! TO.N,+5V*
G04 #@! TO.C,R2*
G36*
X135825142Y-75628174D02*
X135848803Y-75631684D01*
X135872007Y-75637496D01*
X135894529Y-75645554D01*
X135916153Y-75655782D01*
X135936670Y-75668079D01*
X135955883Y-75682329D01*
X135973607Y-75698393D01*
X135989671Y-75716117D01*
X136003921Y-75735330D01*
X136016218Y-75755847D01*
X136026446Y-75777471D01*
X136034504Y-75799993D01*
X136040316Y-75823197D01*
X136043826Y-75846858D01*
X136045000Y-75870750D01*
X136045000Y-76783250D01*
X136043826Y-76807142D01*
X136040316Y-76830803D01*
X136034504Y-76854007D01*
X136026446Y-76876529D01*
X136016218Y-76898153D01*
X136003921Y-76918670D01*
X135989671Y-76937883D01*
X135973607Y-76955607D01*
X135955883Y-76971671D01*
X135936670Y-76985921D01*
X135916153Y-76998218D01*
X135894529Y-77008446D01*
X135872007Y-77016504D01*
X135848803Y-77022316D01*
X135825142Y-77025826D01*
X135801250Y-77027000D01*
X135313750Y-77027000D01*
X135289858Y-77025826D01*
X135266197Y-77022316D01*
X135242993Y-77016504D01*
X135220471Y-77008446D01*
X135198847Y-76998218D01*
X135178330Y-76985921D01*
X135159117Y-76971671D01*
X135141393Y-76955607D01*
X135125329Y-76937883D01*
X135111079Y-76918670D01*
X135098782Y-76898153D01*
X135088554Y-76876529D01*
X135080496Y-76854007D01*
X135074684Y-76830803D01*
X135071174Y-76807142D01*
X135070000Y-76783250D01*
X135070000Y-75870750D01*
X135071174Y-75846858D01*
X135074684Y-75823197D01*
X135080496Y-75799993D01*
X135088554Y-75777471D01*
X135098782Y-75755847D01*
X135111079Y-75735330D01*
X135125329Y-75716117D01*
X135141393Y-75698393D01*
X135159117Y-75682329D01*
X135178330Y-75668079D01*
X135198847Y-75655782D01*
X135220471Y-75645554D01*
X135242993Y-75637496D01*
X135266197Y-75631684D01*
X135289858Y-75628174D01*
X135313750Y-75627000D01*
X135801250Y-75627000D01*
X135825142Y-75628174D01*
X135825142Y-75628174D01*
G37*
D24*
G04 #@! TD*
G04 #@! TO.P,R2,1*
G04 #@! TO.N,+5V*
X135557500Y-76327000D03*
D11*
G04 #@! TO.N,Net-(R2-Pad2)*
G04 #@! TO.C,R2*
G36*
X133950142Y-75628174D02*
X133973803Y-75631684D01*
X133997007Y-75637496D01*
X134019529Y-75645554D01*
X134041153Y-75655782D01*
X134061670Y-75668079D01*
X134080883Y-75682329D01*
X134098607Y-75698393D01*
X134114671Y-75716117D01*
X134128921Y-75735330D01*
X134141218Y-75755847D01*
X134151446Y-75777471D01*
X134159504Y-75799993D01*
X134165316Y-75823197D01*
X134168826Y-75846858D01*
X134170000Y-75870750D01*
X134170000Y-76783250D01*
X134168826Y-76807142D01*
X134165316Y-76830803D01*
X134159504Y-76854007D01*
X134151446Y-76876529D01*
X134141218Y-76898153D01*
X134128921Y-76918670D01*
X134114671Y-76937883D01*
X134098607Y-76955607D01*
X134080883Y-76971671D01*
X134061670Y-76985921D01*
X134041153Y-76998218D01*
X134019529Y-77008446D01*
X133997007Y-77016504D01*
X133973803Y-77022316D01*
X133950142Y-77025826D01*
X133926250Y-77027000D01*
X133438750Y-77027000D01*
X133414858Y-77025826D01*
X133391197Y-77022316D01*
X133367993Y-77016504D01*
X133345471Y-77008446D01*
X133323847Y-76998218D01*
X133303330Y-76985921D01*
X133284117Y-76971671D01*
X133266393Y-76955607D01*
X133250329Y-76937883D01*
X133236079Y-76918670D01*
X133223782Y-76898153D01*
X133213554Y-76876529D01*
X133205496Y-76854007D01*
X133199684Y-76830803D01*
X133196174Y-76807142D01*
X133195000Y-76783250D01*
X133195000Y-75870750D01*
X133196174Y-75846858D01*
X133199684Y-75823197D01*
X133205496Y-75799993D01*
X133213554Y-75777471D01*
X133223782Y-75755847D01*
X133236079Y-75735330D01*
X133250329Y-75716117D01*
X133266393Y-75698393D01*
X133284117Y-75682329D01*
X133303330Y-75668079D01*
X133323847Y-75655782D01*
X133345471Y-75645554D01*
X133367993Y-75637496D01*
X133391197Y-75631684D01*
X133414858Y-75628174D01*
X133438750Y-75627000D01*
X133926250Y-75627000D01*
X133950142Y-75628174D01*
X133950142Y-75628174D01*
G37*
D24*
G04 #@! TD*
G04 #@! TO.P,R2,2*
G04 #@! TO.N,Net-(R2-Pad2)*
X133682500Y-76327000D03*
D11*
G04 #@! TO.N,Net-(C2-Pad1)*
G04 #@! TO.C,R1*
G36*
X125997642Y-72326174D02*
X126021303Y-72329684D01*
X126044507Y-72335496D01*
X126067029Y-72343554D01*
X126088653Y-72353782D01*
X126109170Y-72366079D01*
X126128383Y-72380329D01*
X126146107Y-72396393D01*
X126162171Y-72414117D01*
X126176421Y-72433330D01*
X126188718Y-72453847D01*
X126198946Y-72475471D01*
X126207004Y-72497993D01*
X126212816Y-72521197D01*
X126216326Y-72544858D01*
X126217500Y-72568750D01*
X126217500Y-73481250D01*
X126216326Y-73505142D01*
X126212816Y-73528803D01*
X126207004Y-73552007D01*
X126198946Y-73574529D01*
X126188718Y-73596153D01*
X126176421Y-73616670D01*
X126162171Y-73635883D01*
X126146107Y-73653607D01*
X126128383Y-73669671D01*
X126109170Y-73683921D01*
X126088653Y-73696218D01*
X126067029Y-73706446D01*
X126044507Y-73714504D01*
X126021303Y-73720316D01*
X125997642Y-73723826D01*
X125973750Y-73725000D01*
X125486250Y-73725000D01*
X125462358Y-73723826D01*
X125438697Y-73720316D01*
X125415493Y-73714504D01*
X125392971Y-73706446D01*
X125371347Y-73696218D01*
X125350830Y-73683921D01*
X125331617Y-73669671D01*
X125313893Y-73653607D01*
X125297829Y-73635883D01*
X125283579Y-73616670D01*
X125271282Y-73596153D01*
X125261054Y-73574529D01*
X125252996Y-73552007D01*
X125247184Y-73528803D01*
X125243674Y-73505142D01*
X125242500Y-73481250D01*
X125242500Y-72568750D01*
X125243674Y-72544858D01*
X125247184Y-72521197D01*
X125252996Y-72497993D01*
X125261054Y-72475471D01*
X125271282Y-72453847D01*
X125283579Y-72433330D01*
X125297829Y-72414117D01*
X125313893Y-72396393D01*
X125331617Y-72380329D01*
X125350830Y-72366079D01*
X125371347Y-72353782D01*
X125392971Y-72343554D01*
X125415493Y-72335496D01*
X125438697Y-72329684D01*
X125462358Y-72326174D01*
X125486250Y-72325000D01*
X125973750Y-72325000D01*
X125997642Y-72326174D01*
X125997642Y-72326174D01*
G37*
D24*
G04 #@! TD*
G04 #@! TO.P,R1,2*
G04 #@! TO.N,Net-(C2-Pad1)*
X125730000Y-73025000D03*
D11*
G04 #@! TO.N,+5V*
G04 #@! TO.C,R1*
G36*
X127872642Y-72326174D02*
X127896303Y-72329684D01*
X127919507Y-72335496D01*
X127942029Y-72343554D01*
X127963653Y-72353782D01*
X127984170Y-72366079D01*
X128003383Y-72380329D01*
X128021107Y-72396393D01*
X128037171Y-72414117D01*
X128051421Y-72433330D01*
X128063718Y-72453847D01*
X128073946Y-72475471D01*
X128082004Y-72497993D01*
X128087816Y-72521197D01*
X128091326Y-72544858D01*
X128092500Y-72568750D01*
X128092500Y-73481250D01*
X128091326Y-73505142D01*
X128087816Y-73528803D01*
X128082004Y-73552007D01*
X128073946Y-73574529D01*
X128063718Y-73596153D01*
X128051421Y-73616670D01*
X128037171Y-73635883D01*
X128021107Y-73653607D01*
X128003383Y-73669671D01*
X127984170Y-73683921D01*
X127963653Y-73696218D01*
X127942029Y-73706446D01*
X127919507Y-73714504D01*
X127896303Y-73720316D01*
X127872642Y-73723826D01*
X127848750Y-73725000D01*
X127361250Y-73725000D01*
X127337358Y-73723826D01*
X127313697Y-73720316D01*
X127290493Y-73714504D01*
X127267971Y-73706446D01*
X127246347Y-73696218D01*
X127225830Y-73683921D01*
X127206617Y-73669671D01*
X127188893Y-73653607D01*
X127172829Y-73635883D01*
X127158579Y-73616670D01*
X127146282Y-73596153D01*
X127136054Y-73574529D01*
X127127996Y-73552007D01*
X127122184Y-73528803D01*
X127118674Y-73505142D01*
X127117500Y-73481250D01*
X127117500Y-72568750D01*
X127118674Y-72544858D01*
X127122184Y-72521197D01*
X127127996Y-72497993D01*
X127136054Y-72475471D01*
X127146282Y-72453847D01*
X127158579Y-72433330D01*
X127172829Y-72414117D01*
X127188893Y-72396393D01*
X127206617Y-72380329D01*
X127225830Y-72366079D01*
X127246347Y-72353782D01*
X127267971Y-72343554D01*
X127290493Y-72335496D01*
X127313697Y-72329684D01*
X127337358Y-72326174D01*
X127361250Y-72325000D01*
X127848750Y-72325000D01*
X127872642Y-72326174D01*
X127872642Y-72326174D01*
G37*
D24*
G04 #@! TD*
G04 #@! TO.P,R1,1*
G04 #@! TO.N,+5V*
X127605000Y-73025000D03*
D11*
G04 #@! TO.N,SHDN*
G04 #@! TO.C,R8*
G36*
X127237642Y-88836174D02*
X127261303Y-88839684D01*
X127284507Y-88845496D01*
X127307029Y-88853554D01*
X127328653Y-88863782D01*
X127349170Y-88876079D01*
X127368383Y-88890329D01*
X127386107Y-88906393D01*
X127402171Y-88924117D01*
X127416421Y-88943330D01*
X127428718Y-88963847D01*
X127438946Y-88985471D01*
X127447004Y-89007993D01*
X127452816Y-89031197D01*
X127456326Y-89054858D01*
X127457500Y-89078750D01*
X127457500Y-89991250D01*
X127456326Y-90015142D01*
X127452816Y-90038803D01*
X127447004Y-90062007D01*
X127438946Y-90084529D01*
X127428718Y-90106153D01*
X127416421Y-90126670D01*
X127402171Y-90145883D01*
X127386107Y-90163607D01*
X127368383Y-90179671D01*
X127349170Y-90193921D01*
X127328653Y-90206218D01*
X127307029Y-90216446D01*
X127284507Y-90224504D01*
X127261303Y-90230316D01*
X127237642Y-90233826D01*
X127213750Y-90235000D01*
X126726250Y-90235000D01*
X126702358Y-90233826D01*
X126678697Y-90230316D01*
X126655493Y-90224504D01*
X126632971Y-90216446D01*
X126611347Y-90206218D01*
X126590830Y-90193921D01*
X126571617Y-90179671D01*
X126553893Y-90163607D01*
X126537829Y-90145883D01*
X126523579Y-90126670D01*
X126511282Y-90106153D01*
X126501054Y-90084529D01*
X126492996Y-90062007D01*
X126487184Y-90038803D01*
X126483674Y-90015142D01*
X126482500Y-89991250D01*
X126482500Y-89078750D01*
X126483674Y-89054858D01*
X126487184Y-89031197D01*
X126492996Y-89007993D01*
X126501054Y-88985471D01*
X126511282Y-88963847D01*
X126523579Y-88943330D01*
X126537829Y-88924117D01*
X126553893Y-88906393D01*
X126571617Y-88890329D01*
X126590830Y-88876079D01*
X126611347Y-88863782D01*
X126632971Y-88853554D01*
X126655493Y-88845496D01*
X126678697Y-88839684D01*
X126702358Y-88836174D01*
X126726250Y-88835000D01*
X127213750Y-88835000D01*
X127237642Y-88836174D01*
X127237642Y-88836174D01*
G37*
D24*
G04 #@! TD*
G04 #@! TO.P,R8,1*
G04 #@! TO.N,SHDN*
X126970000Y-89535000D03*
D11*
G04 #@! TO.N,/SCK*
G04 #@! TO.C,R8*
G36*
X125362642Y-88836174D02*
X125386303Y-88839684D01*
X125409507Y-88845496D01*
X125432029Y-88853554D01*
X125453653Y-88863782D01*
X125474170Y-88876079D01*
X125493383Y-88890329D01*
X125511107Y-88906393D01*
X125527171Y-88924117D01*
X125541421Y-88943330D01*
X125553718Y-88963847D01*
X125563946Y-88985471D01*
X125572004Y-89007993D01*
X125577816Y-89031197D01*
X125581326Y-89054858D01*
X125582500Y-89078750D01*
X125582500Y-89991250D01*
X125581326Y-90015142D01*
X125577816Y-90038803D01*
X125572004Y-90062007D01*
X125563946Y-90084529D01*
X125553718Y-90106153D01*
X125541421Y-90126670D01*
X125527171Y-90145883D01*
X125511107Y-90163607D01*
X125493383Y-90179671D01*
X125474170Y-90193921D01*
X125453653Y-90206218D01*
X125432029Y-90216446D01*
X125409507Y-90224504D01*
X125386303Y-90230316D01*
X125362642Y-90233826D01*
X125338750Y-90235000D01*
X124851250Y-90235000D01*
X124827358Y-90233826D01*
X124803697Y-90230316D01*
X124780493Y-90224504D01*
X124757971Y-90216446D01*
X124736347Y-90206218D01*
X124715830Y-90193921D01*
X124696617Y-90179671D01*
X124678893Y-90163607D01*
X124662829Y-90145883D01*
X124648579Y-90126670D01*
X124636282Y-90106153D01*
X124626054Y-90084529D01*
X124617996Y-90062007D01*
X124612184Y-90038803D01*
X124608674Y-90015142D01*
X124607500Y-89991250D01*
X124607500Y-89078750D01*
X124608674Y-89054858D01*
X124612184Y-89031197D01*
X124617996Y-89007993D01*
X124626054Y-88985471D01*
X124636282Y-88963847D01*
X124648579Y-88943330D01*
X124662829Y-88924117D01*
X124678893Y-88906393D01*
X124696617Y-88890329D01*
X124715830Y-88876079D01*
X124736347Y-88863782D01*
X124757971Y-88853554D01*
X124780493Y-88845496D01*
X124803697Y-88839684D01*
X124827358Y-88836174D01*
X124851250Y-88835000D01*
X125338750Y-88835000D01*
X125362642Y-88836174D01*
X125362642Y-88836174D01*
G37*
D24*
G04 #@! TD*
G04 #@! TO.P,R8,2*
G04 #@! TO.N,/SCK*
X125095000Y-89535000D03*
D11*
G04 #@! TO.N,BoostConv_IN*
G04 #@! TO.C,R4*
G36*
X122099505Y-83506204D02*
X122123773Y-83509804D01*
X122147572Y-83515765D01*
X122170671Y-83524030D01*
X122192850Y-83534520D01*
X122213893Y-83547132D01*
X122233599Y-83561747D01*
X122251777Y-83578223D01*
X122268253Y-83596401D01*
X122282868Y-83616107D01*
X122295480Y-83637150D01*
X122305970Y-83659329D01*
X122314235Y-83682428D01*
X122320196Y-83706227D01*
X122323796Y-83730495D01*
X122325000Y-83754999D01*
X122325000Y-84605001D01*
X122323796Y-84629505D01*
X122320196Y-84653773D01*
X122314235Y-84677572D01*
X122305970Y-84700671D01*
X122295480Y-84722850D01*
X122282868Y-84743893D01*
X122268253Y-84763599D01*
X122251777Y-84781777D01*
X122233599Y-84798253D01*
X122213893Y-84812868D01*
X122192850Y-84825480D01*
X122170671Y-84835970D01*
X122147572Y-84844235D01*
X122123773Y-84850196D01*
X122099505Y-84853796D01*
X122075001Y-84855000D01*
X119224999Y-84855000D01*
X119200495Y-84853796D01*
X119176227Y-84850196D01*
X119152428Y-84844235D01*
X119129329Y-84835970D01*
X119107150Y-84825480D01*
X119086107Y-84812868D01*
X119066401Y-84798253D01*
X119048223Y-84781777D01*
X119031747Y-84763599D01*
X119017132Y-84743893D01*
X119004520Y-84722850D01*
X118994030Y-84700671D01*
X118985765Y-84677572D01*
X118979804Y-84653773D01*
X118976204Y-84629505D01*
X118975000Y-84605001D01*
X118975000Y-83754999D01*
X118976204Y-83730495D01*
X118979804Y-83706227D01*
X118985765Y-83682428D01*
X118994030Y-83659329D01*
X119004520Y-83637150D01*
X119017132Y-83616107D01*
X119031747Y-83596401D01*
X119048223Y-83578223D01*
X119066401Y-83561747D01*
X119086107Y-83547132D01*
X119107150Y-83534520D01*
X119129329Y-83524030D01*
X119152428Y-83515765D01*
X119176227Y-83509804D01*
X119200495Y-83506204D01*
X119224999Y-83505000D01*
X122075001Y-83505000D01*
X122099505Y-83506204D01*
X122099505Y-83506204D01*
G37*
D25*
G04 #@! TD*
G04 #@! TO.P,R4,1*
G04 #@! TO.N,BoostConv_IN*
X120650000Y-84180000D03*
D11*
G04 #@! TO.N,BAT+*
G04 #@! TO.C,R4*
G36*
X122099505Y-77706204D02*
X122123773Y-77709804D01*
X122147572Y-77715765D01*
X122170671Y-77724030D01*
X122192850Y-77734520D01*
X122213893Y-77747132D01*
X122233599Y-77761747D01*
X122251777Y-77778223D01*
X122268253Y-77796401D01*
X122282868Y-77816107D01*
X122295480Y-77837150D01*
X122305970Y-77859329D01*
X122314235Y-77882428D01*
X122320196Y-77906227D01*
X122323796Y-77930495D01*
X122325000Y-77954999D01*
X122325000Y-78805001D01*
X122323796Y-78829505D01*
X122320196Y-78853773D01*
X122314235Y-78877572D01*
X122305970Y-78900671D01*
X122295480Y-78922850D01*
X122282868Y-78943893D01*
X122268253Y-78963599D01*
X122251777Y-78981777D01*
X122233599Y-78998253D01*
X122213893Y-79012868D01*
X122192850Y-79025480D01*
X122170671Y-79035970D01*
X122147572Y-79044235D01*
X122123773Y-79050196D01*
X122099505Y-79053796D01*
X122075001Y-79055000D01*
X119224999Y-79055000D01*
X119200495Y-79053796D01*
X119176227Y-79050196D01*
X119152428Y-79044235D01*
X119129329Y-79035970D01*
X119107150Y-79025480D01*
X119086107Y-79012868D01*
X119066401Y-78998253D01*
X119048223Y-78981777D01*
X119031747Y-78963599D01*
X119017132Y-78943893D01*
X119004520Y-78922850D01*
X118994030Y-78900671D01*
X118985765Y-78877572D01*
X118979804Y-78853773D01*
X118976204Y-78829505D01*
X118975000Y-78805001D01*
X118975000Y-77954999D01*
X118976204Y-77930495D01*
X118979804Y-77906227D01*
X118985765Y-77882428D01*
X118994030Y-77859329D01*
X119004520Y-77837150D01*
X119017132Y-77816107D01*
X119031747Y-77796401D01*
X119048223Y-77778223D01*
X119066401Y-77761747D01*
X119086107Y-77747132D01*
X119107150Y-77734520D01*
X119129329Y-77724030D01*
X119152428Y-77715765D01*
X119176227Y-77709804D01*
X119200495Y-77706204D01*
X119224999Y-77705000D01*
X122075001Y-77705000D01*
X122099505Y-77706204D01*
X122099505Y-77706204D01*
G37*
D25*
G04 #@! TD*
G04 #@! TO.P,R4,2*
G04 #@! TO.N,BAT+*
X120650000Y-78380000D03*
D26*
G04 #@! TO.P,U2,5*
G04 #@! TO.N,Net-(R5-Pad1)*
X106125000Y-73665000D03*
G04 #@! TO.P,U2,4*
G04 #@! TO.N,VUSB*
X106125000Y-75565000D03*
G04 #@! TO.P,U2,3*
G04 #@! TO.N,BAT+*
X103425000Y-75565000D03*
G04 #@! TO.P,U2,2*
G04 #@! TO.N,GND*
X103425000Y-74615000D03*
G04 #@! TO.P,U2,1*
G04 #@! TO.N,Net-(D3-Pad2)*
X103425000Y-73665000D03*
G04 #@! TD*
D27*
G04 #@! TO.P,S1,2*
G04 #@! TO.N,Net-(R11-Pad2)*
X122660000Y-90460000D03*
G04 #@! TO.P,S1,4*
G04 #@! TO.N,GND*
X122660000Y-94960000D03*
G04 #@! TO.P,S1,3*
X113560000Y-94960000D03*
G04 #@! TO.P,S1,1*
G04 #@! TO.N,Net-(R11-Pad2)*
X113560000Y-90460000D03*
G04 #@! TD*
D28*
G04 #@! TO.P,J4,3*
G04 #@! TO.N,Net-(J4-Pad3)*
X114300000Y-76335000D03*
G04 #@! TO.P,J4,2*
G04 #@! TO.N,Net-(J4-Pad2)*
X114950000Y-76335000D03*
G04 #@! TO.P,J4,5*
G04 #@! TO.N,GND*
X113000000Y-76335000D03*
G04 #@! TO.P,J4,4*
G04 #@! TO.N,Net-(J4-Pad4)*
X113650000Y-76335000D03*
G04 #@! TO.P,J4,1*
G04 #@! TO.N,VUSB*
X115600000Y-76335000D03*
D29*
G04 #@! TO.P,J4,SH*
G04 #@! TO.N,N/C*
X111200000Y-76210000D03*
X117400000Y-76210000D03*
D30*
X113100000Y-73660000D03*
X115500000Y-73660000D03*
D31*
X110500000Y-73660000D03*
X118100000Y-73660000D03*
G04 #@! TD*
D32*
G04 #@! TO.N,GND*
X122682000Y-94996000D03*
X113538000Y-94996000D03*
X114935000Y-83185000D03*
X104648000Y-74676000D03*
X109093000Y-76073000D03*
X105410000Y-86487000D03*
X108966000Y-86487000D03*
X112903000Y-75210002D03*
X130937000Y-95504000D03*
X136010000Y-95645000D03*
X137033000Y-95631000D03*
X138049000Y-95631000D03*
X140970000Y-90297000D03*
X131953000Y-85725000D03*
X131953000Y-86741000D03*
X131953000Y-87757000D03*
X136779000Y-74168000D03*
X121285000Y-71755000D03*
X122301000Y-71755000D03*
X126873000Y-75927000D03*
X126873000Y-86995000D03*
G04 #@! TO.N,VUSB*
X110363000Y-81407000D03*
X110236000Y-77984990D03*
X107315000Y-86868000D03*
G04 #@! TO.N,BAT+*
X111635158Y-83860148D03*
X111506000Y-81026000D03*
G04 #@! TO.N,BoostConv_IN*
X113030000Y-85598000D03*
X117221000Y-80264000D03*
G04 #@! TO.N,/SCK*
X119126000Y-82550000D03*
X119126000Y-88646000D03*
X116205000Y-88911237D03*
X116840000Y-87376000D03*
G04 #@! TO.N,+5V*
X116840000Y-85598000D03*
X118237000Y-81534000D03*
X111595010Y-86106000D03*
X111252000Y-93853000D03*
X128016000Y-92075000D03*
X132461000Y-89281000D03*
G04 #@! TO.N,Net-(R2-Pad2)*
X128629847Y-77956847D03*
X129159000Y-73787000D03*
G04 #@! TO.N,/MISO*
X118114653Y-84069347D03*
X117978347Y-85983653D03*
G04 #@! TO.N,OUT-*
X135763000Y-93345000D03*
X136779000Y-93345000D03*
X137795000Y-93345000D03*
G04 #@! TO.N,/ACTIVE_INDICATOR*
X120396000Y-91567000D03*
X120110382Y-85686258D03*
G04 #@! TD*
D33*
G04 #@! TO.N,GND*
X103425000Y-74615000D02*
X104587000Y-74615000D01*
X104587000Y-74615000D02*
X104648000Y-74676000D01*
X107950000Y-75535000D02*
X108555000Y-75535000D01*
X108555000Y-75535000D02*
X109093000Y-76073000D01*
X108585000Y-76581000D02*
X109093000Y-76073000D01*
X108585000Y-77470000D02*
X108585000Y-76581000D01*
X105410000Y-85350000D02*
X105410000Y-86487000D01*
X109220000Y-85350000D02*
X109220000Y-86233000D01*
X109220000Y-86233000D02*
X108966000Y-86487000D01*
X114935000Y-83185000D02*
X114935000Y-85185000D01*
X113000000Y-76335000D02*
X113000000Y-75307002D01*
X113000000Y-75307002D02*
X112903000Y-75210002D01*
X129540000Y-95552500D02*
X130888500Y-95552500D01*
X130888500Y-95552500D02*
X130937000Y-95504000D01*
D34*
X136010000Y-95645000D02*
X136010000Y-95645000D01*
X134010000Y-95645000D02*
X136010000Y-95645000D01*
X136024000Y-95631000D02*
X137033000Y-95631000D01*
X136010000Y-95645000D02*
X136024000Y-95631000D01*
X137033000Y-95631000D02*
X138049000Y-95631000D01*
X138049000Y-95631000D02*
X138430000Y-95631000D01*
X140970000Y-89030000D02*
X140970000Y-90297000D01*
D35*
X138035000Y-95645000D02*
X138049000Y-95631000D01*
X134010000Y-95645000D02*
X138035000Y-95645000D01*
D36*
X133760000Y-84215000D02*
X133647000Y-84328000D01*
X134010000Y-84215000D02*
X133760000Y-84215000D01*
X133647000Y-84328000D02*
X131953000Y-85217000D01*
X132842000Y-84328000D02*
X131953000Y-85217000D01*
X131953000Y-85217000D02*
X131953000Y-87757000D01*
X131953000Y-85217000D02*
X132842000Y-84328000D01*
X131953000Y-86614000D02*
X131953000Y-87757000D01*
X131953000Y-87757000D02*
X131953000Y-86614000D01*
D33*
X135557500Y-74168000D02*
X136779000Y-74168000D01*
X121920000Y-72895000D02*
X121920000Y-72390000D01*
X121920000Y-72390000D02*
X121285000Y-71755000D01*
X121920000Y-72895000D02*
X121920000Y-72136000D01*
X121920000Y-72136000D02*
X122301000Y-71755000D01*
X125435000Y-76002000D02*
X126798000Y-76002000D01*
X126798000Y-76002000D02*
X126873000Y-75927000D01*
X125730000Y-86995000D02*
X126873000Y-86995000D01*
G04 #@! TO.N,VUSB*
X115600000Y-77260000D02*
X115600000Y-76335000D01*
X115524999Y-77335001D02*
X115600000Y-77260000D01*
X109818001Y-77263003D02*
X109889999Y-77335001D01*
X109818001Y-75724999D02*
X109818001Y-77263003D01*
X108815492Y-74722490D02*
X109818001Y-75724999D01*
X106417510Y-74722490D02*
X108815492Y-74722490D01*
X106125000Y-75015000D02*
X106417510Y-74722490D01*
X106125000Y-75565000D02*
X106125000Y-75015000D01*
X109220000Y-82550000D02*
X110363000Y-81407000D01*
X110320304Y-77335001D02*
X110363000Y-77335001D01*
X110236000Y-77419305D02*
X110320304Y-77335001D01*
X110236000Y-77984990D02*
X110236000Y-77419305D01*
X109889999Y-77335001D02*
X110363000Y-77335001D01*
X110363000Y-77335001D02*
X115524999Y-77335001D01*
X109220000Y-82550000D02*
X107315000Y-84455000D01*
X107315000Y-84455000D02*
X107315000Y-86868000D01*
G04 #@! TO.N,Net-(R11-Pad2)*
X115715237Y-88186237D02*
X117015237Y-88186237D01*
X115159000Y-87630000D02*
X115715237Y-88186237D01*
X117015237Y-88186237D02*
X118110000Y-89281000D01*
X116931000Y-90460000D02*
X113560000Y-90460000D01*
X118110000Y-89281000D02*
X116931000Y-90460000D01*
X119289000Y-90460000D02*
X122660000Y-90460000D01*
X118110000Y-89281000D02*
X119289000Y-90460000D01*
X126227500Y-93677500D02*
X127000000Y-93677500D01*
X123010000Y-90460000D02*
X126227500Y-93677500D01*
X122660000Y-90460000D02*
X123010000Y-90460000D01*
G04 #@! TO.N,Net-(R5-Pad1)*
X106130000Y-73660000D02*
X106125000Y-73665000D01*
X107950000Y-73660000D02*
X106130000Y-73660000D01*
G04 #@! TO.N,BAT+*
X99060000Y-76370000D02*
X99060000Y-77470000D01*
X99865000Y-75565000D02*
X99060000Y-76370000D01*
X103425000Y-75565000D02*
X99865000Y-75565000D01*
D35*
X100262081Y-80010000D02*
X99060000Y-80010000D01*
X100687091Y-79584990D02*
X100262081Y-80010000D01*
X116353847Y-78380000D02*
X115148857Y-79584990D01*
X120650000Y-78380000D02*
X116353847Y-78380000D01*
X104775000Y-81190000D02*
X104775000Y-79584990D01*
X105410000Y-81825000D02*
X104775000Y-81190000D01*
X105410000Y-82550000D02*
X105410000Y-81825000D01*
X104775000Y-79584990D02*
X100687091Y-79584990D01*
X99060000Y-77470000D02*
X99060000Y-82550000D01*
D33*
X111635158Y-83563077D02*
X111635158Y-83860148D01*
X112935000Y-82685000D02*
X112513235Y-82685000D01*
X112513235Y-82685000D02*
X111635158Y-83563077D01*
X111506000Y-81026000D02*
X111506000Y-79584990D01*
D35*
X115148857Y-79584990D02*
X111506000Y-79584990D01*
X111506000Y-79584990D02*
X104775000Y-79584990D01*
D37*
G04 #@! TO.N,Net-(D3-Pad2)*
X103830929Y-76816571D02*
X103177500Y-77470000D01*
X105311501Y-75335999D02*
X103830929Y-76816571D01*
X105311501Y-74150803D02*
X105311501Y-75335999D01*
X104825698Y-73665000D02*
X105311501Y-74150803D01*
X103425000Y-73665000D02*
X104825698Y-73665000D01*
D35*
G04 #@! TO.N,BoostConv_IN*
X122974000Y-84180000D02*
X124985000Y-82169000D01*
X120650000Y-84180000D02*
X122974000Y-84180000D01*
D33*
X112935000Y-84185000D02*
X112935000Y-85503000D01*
X112935000Y-85503000D02*
X113030000Y-85598000D01*
X117786685Y-80264000D02*
X117221000Y-80264000D01*
X118040002Y-80264000D02*
X117786685Y-80264000D01*
X120650000Y-82873998D02*
X118040002Y-80264000D01*
X120650000Y-84180000D02*
X120650000Y-82873998D01*
G04 #@! TO.N,SHDN*
X132172500Y-91045000D02*
X134010000Y-91045000D01*
X129540000Y-93677500D02*
X132172500Y-91045000D01*
X129540000Y-92105000D02*
X126970000Y-89535000D01*
X129540000Y-93677500D02*
X129540000Y-92105000D01*
X129835000Y-77777000D02*
X129835000Y-77302000D01*
X128959990Y-78652010D02*
X129835000Y-77777000D01*
X128959990Y-87545010D02*
X128959990Y-78652010D01*
X126970000Y-89535000D02*
X128959990Y-87545010D01*
G04 #@! TO.N,/SCK*
X116935000Y-82685000D02*
X118991000Y-82685000D01*
X118991000Y-82685000D02*
X119126000Y-82550000D01*
X124538763Y-88978763D02*
X125095000Y-89535000D01*
X123806001Y-88246001D02*
X124538763Y-88978763D01*
X119525999Y-88246001D02*
X123806001Y-88246001D01*
X119126000Y-88646000D02*
X119525999Y-88246001D01*
X112773761Y-88911237D02*
X116205000Y-88911237D01*
X110264997Y-91420001D02*
X112773761Y-88911237D01*
X104775000Y-92710000D02*
X106064999Y-91420001D01*
X106064999Y-91420001D02*
X110264997Y-91420001D01*
X117856000Y-87376000D02*
X119126000Y-88646000D01*
X116840000Y-87376000D02*
X117856000Y-87376000D01*
G04 #@! TO.N,Net-(C2-Pad1)*
X126410000Y-76652000D02*
X125435000Y-76652000D01*
X127560000Y-76652000D02*
X126410000Y-76652000D01*
X128860000Y-75352000D02*
X127560000Y-76652000D01*
X129835000Y-75352000D02*
X128860000Y-75352000D01*
X124460000Y-76652000D02*
X125435000Y-76652000D01*
X124384999Y-76576999D02*
X124460000Y-76652000D01*
X124384999Y-73782501D02*
X124384999Y-76576999D01*
X125142500Y-73025000D02*
X124384999Y-73782501D01*
X125730000Y-73025000D02*
X125142500Y-73025000D01*
X124198710Y-76390710D02*
X124384999Y-76576999D01*
X122615710Y-76390710D02*
X124198710Y-76390710D01*
X121920000Y-75695000D02*
X122615710Y-76390710D01*
D35*
G04 #@! TO.N,+5V*
X140078000Y-87122000D02*
X140970000Y-86230000D01*
X138429000Y-87122000D02*
X140078000Y-87122000D01*
X144650000Y-82550000D02*
X146050000Y-82550000D01*
X140970000Y-86230000D02*
X144650000Y-82550000D01*
X146050000Y-82550000D02*
X146050000Y-77470000D01*
D33*
X116504358Y-85933642D02*
X116840000Y-85598000D01*
X114343948Y-85933642D02*
X116504358Y-85933642D01*
X113672600Y-86604990D02*
X114343948Y-85933642D01*
X111730000Y-87630000D02*
X112755010Y-86604990D01*
X112755010Y-86604990D02*
X113672600Y-86604990D01*
X117586000Y-81534000D02*
X116935000Y-82185000D01*
X118237000Y-81534000D02*
X117586000Y-81534000D01*
X111730000Y-87630000D02*
X111730000Y-86240990D01*
X111730000Y-86240990D02*
X111595010Y-86106000D01*
X126443763Y-94996263D02*
X127000000Y-95552500D01*
X124900501Y-93453001D02*
X126443763Y-94996263D01*
X111651999Y-93453001D02*
X124900501Y-93453001D01*
X111252000Y-93853000D02*
X111651999Y-93453001D01*
X136145000Y-76327000D02*
X135557500Y-76327000D01*
X137504001Y-74967999D02*
X136145000Y-76327000D01*
X137504001Y-73819999D02*
X137504001Y-74967999D01*
X136709002Y-73025000D02*
X137504001Y-73819999D01*
X127605000Y-73025000D02*
X136709002Y-73025000D01*
X128025010Y-92084010D02*
X128016000Y-92075000D01*
X127000000Y-95552500D02*
X128025010Y-94527490D01*
X128025010Y-94527490D02*
X128025010Y-92084010D01*
X137729000Y-87122000D02*
X138429000Y-87122000D01*
X136403990Y-88447010D02*
X137729000Y-87122000D01*
X133860675Y-88447010D02*
X136403990Y-88447010D01*
X133026685Y-89281000D02*
X133860675Y-88447010D01*
X132461000Y-89281000D02*
X133026685Y-89281000D01*
X146050000Y-76370000D02*
X146050000Y-77470000D01*
X146007000Y-76327000D02*
X146050000Y-76370000D01*
X135557500Y-76327000D02*
X146007000Y-76327000D01*
G04 #@! TO.N,Net-(R2-Pad2)*
X133682500Y-74168000D02*
X133682500Y-76327000D01*
X125435000Y-77302000D02*
X127975000Y-77302000D01*
X127975000Y-77302000D02*
X128629847Y-77956847D01*
X133301500Y-73787000D02*
X133682500Y-74168000D01*
X129159000Y-73787000D02*
X133301500Y-73787000D01*
G04 #@! TO.N,/RST*
X103925001Y-94400001D02*
X104775000Y-95250000D01*
X103599999Y-94074999D02*
X103925001Y-94400001D01*
X103599999Y-89059999D02*
X103599999Y-94074999D01*
X105029998Y-87630000D02*
X103599999Y-89059999D01*
X109855000Y-87630000D02*
X105029998Y-87630000D01*
X110411237Y-87073763D02*
X109855000Y-87630000D01*
X110870010Y-86614990D02*
X110411237Y-87073763D01*
X110870010Y-83599990D02*
X110870010Y-86614990D01*
X112285000Y-82185000D02*
X110870010Y-83599990D01*
X112935000Y-82185000D02*
X112285000Y-82185000D01*
G04 #@! TO.N,/MISO*
X116935000Y-83685000D02*
X117730306Y-83685000D01*
X117730306Y-83685000D02*
X118114653Y-84069347D01*
X113840237Y-87073763D02*
X113284000Y-87630000D01*
X114530348Y-86383652D02*
X113840237Y-87073763D01*
X117578348Y-86383652D02*
X114530348Y-86383652D01*
X117978347Y-85983653D02*
X117578348Y-86383652D01*
X104775000Y-89070000D02*
X104775000Y-90170000D01*
X104945000Y-88900000D02*
X104775000Y-89070000D01*
X112014000Y-88900000D02*
X104945000Y-88900000D01*
X113284000Y-87630000D02*
X112014000Y-88900000D01*
G04 #@! TO.N,Net-(D2-Pad1)*
X123855000Y-86995000D02*
X121940000Y-86995000D01*
D37*
G04 #@! TO.N,Net-(D3-Pad1)*
X105865000Y-77470000D02*
X106710000Y-77470000D01*
X105102500Y-77470000D02*
X105865000Y-77470000D01*
D34*
G04 #@! TO.N,OUT-*
X134010000Y-93345000D02*
X135763000Y-93345000D01*
X135763000Y-93345000D02*
X136779000Y-93345000D01*
X136779000Y-93345000D02*
X137795000Y-93345000D01*
X137795000Y-93345000D02*
X140310000Y-93345000D01*
D35*
X134010000Y-93345000D02*
X140310000Y-93345000D01*
D33*
G04 #@! TO.N,Net-(U3-Pad1)*
X134010000Y-78615000D02*
X134010000Y-79615000D01*
X132869990Y-77474990D02*
X134010000Y-78615000D01*
X130820001Y-74801999D02*
X132869990Y-76851988D01*
X132869990Y-76851988D02*
X132869990Y-77474990D01*
X126960001Y-74801999D02*
X130820001Y-74801999D01*
X126410000Y-75352000D02*
X126960001Y-74801999D01*
X125435000Y-75352000D02*
X126410000Y-75352000D01*
D35*
G04 #@! TO.N,Net-(L1-Pad2)*
X133756000Y-82169000D02*
X134010000Y-81915000D01*
X130285000Y-82169000D02*
X133756000Y-82169000D01*
G04 #@! TO.N,Net-(D1-Pad2)*
X135129000Y-86972000D02*
X135129000Y-87122000D01*
X136376000Y-85725000D02*
X135129000Y-86972000D01*
X136376000Y-82699000D02*
X137160000Y-81915000D01*
X136376000Y-85725000D02*
X136376000Y-82699000D01*
X140310000Y-81915000D02*
X137160000Y-81915000D01*
D33*
G04 #@! TO.N,/ACTIVE_INDICATOR*
X119361571Y-86341571D02*
X120015000Y-86995000D01*
X117205000Y-84185000D02*
X119361571Y-86341571D01*
X116935000Y-84185000D02*
X117205000Y-84185000D01*
X107315000Y-92710000D02*
X119253000Y-92710000D01*
X119253000Y-92710000D02*
X120396000Y-91567000D01*
X120110382Y-86899618D02*
X120015000Y-86995000D01*
X120110382Y-85686258D02*
X120110382Y-86899618D01*
G04 #@! TD*
D38*
G36*
X148463000Y-96393000D02*
X139506244Y-96393000D01*
X139589135Y-96268945D01*
X139664027Y-95892440D01*
X141310000Y-95892440D01*
X141557765Y-95843157D01*
X141767809Y-95702809D01*
X141908157Y-95492765D01*
X141957440Y-95245000D01*
X141957440Y-93443491D01*
X141977031Y-93345000D01*
X141957440Y-93246509D01*
X141957440Y-91445000D01*
X141908157Y-91197235D01*
X141820845Y-91066565D01*
X142039146Y-90739855D01*
X142105000Y-90408783D01*
X142105000Y-90290505D01*
X142388435Y-90234126D01*
X142679586Y-90039586D01*
X142874126Y-89748435D01*
X142942440Y-89405000D01*
X142942440Y-88655000D01*
X142874126Y-88311565D01*
X142679586Y-88020414D01*
X142388435Y-87825874D01*
X142045000Y-87757560D01*
X141754678Y-87757560D01*
X142009798Y-87502440D01*
X142045000Y-87502440D01*
X142388435Y-87434126D01*
X142679586Y-87239586D01*
X142874126Y-86948435D01*
X142942440Y-86605000D01*
X142942440Y-86569798D01*
X144564132Y-84948106D01*
X144535908Y-85090000D01*
X144651161Y-85669418D01*
X144979375Y-86160625D01*
X145277761Y-86360000D01*
X144979375Y-86559375D01*
X144651161Y-87050582D01*
X144535908Y-87630000D01*
X144651161Y-88209418D01*
X144979375Y-88700625D01*
X145277761Y-88900000D01*
X144979375Y-89099375D01*
X144651161Y-89590582D01*
X144535908Y-90170000D01*
X144651161Y-90749418D01*
X144979375Y-91240625D01*
X145470582Y-91568839D01*
X145903744Y-91655000D01*
X146196256Y-91655000D01*
X146629418Y-91568839D01*
X147120625Y-91240625D01*
X147448839Y-90749418D01*
X147564092Y-90170000D01*
X147448839Y-89590582D01*
X147120625Y-89099375D01*
X146822239Y-88900000D01*
X147120625Y-88700625D01*
X147448839Y-88209418D01*
X147564092Y-87630000D01*
X147448839Y-87050582D01*
X147120625Y-86559375D01*
X146822239Y-86360000D01*
X147120625Y-86160625D01*
X147448839Y-85669418D01*
X147564092Y-85090000D01*
X147448839Y-84510582D01*
X147120625Y-84019375D01*
X146957236Y-83910202D01*
X147228769Y-83728769D01*
X147590136Y-83187945D01*
X147717031Y-82550000D01*
X147685000Y-82388969D01*
X147685000Y-77308969D01*
X147590136Y-76832055D01*
X147547440Y-76768156D01*
X147547440Y-76620000D01*
X147498157Y-76372235D01*
X147357809Y-76162191D01*
X147147765Y-76021843D01*
X146900000Y-75972560D01*
X146751844Y-75972560D01*
X146687945Y-75929864D01*
X146667196Y-75925737D01*
X146597929Y-75822071D01*
X146572152Y-75804848D01*
X146554929Y-75779071D01*
X146303537Y-75611096D01*
X146081852Y-75567000D01*
X146081847Y-75567000D01*
X146007000Y-75552112D01*
X145932153Y-75567000D01*
X137979802Y-75567000D01*
X137988474Y-75558328D01*
X138051930Y-75515928D01*
X138219905Y-75264536D01*
X138264001Y-75042851D01*
X138264001Y-75042847D01*
X138278889Y-74967999D01*
X138264001Y-74893151D01*
X138264001Y-73894845D01*
X138278889Y-73819998D01*
X138264001Y-73745151D01*
X138264001Y-73745147D01*
X138219905Y-73523462D01*
X138172220Y-73452096D01*
X138094330Y-73335525D01*
X138094328Y-73335523D01*
X138051930Y-73272070D01*
X138007862Y-73242625D01*
X143650465Y-73242625D01*
X143650465Y-71247000D01*
X148463000Y-71247000D01*
X148463000Y-96393000D01*
X148463000Y-96393000D01*
G37*
X148463000Y-96393000D02*
X139506244Y-96393000D01*
X139589135Y-96268945D01*
X139664027Y-95892440D01*
X141310000Y-95892440D01*
X141557765Y-95843157D01*
X141767809Y-95702809D01*
X141908157Y-95492765D01*
X141957440Y-95245000D01*
X141957440Y-93443491D01*
X141977031Y-93345000D01*
X141957440Y-93246509D01*
X141957440Y-91445000D01*
X141908157Y-91197235D01*
X141820845Y-91066565D01*
X142039146Y-90739855D01*
X142105000Y-90408783D01*
X142105000Y-90290505D01*
X142388435Y-90234126D01*
X142679586Y-90039586D01*
X142874126Y-89748435D01*
X142942440Y-89405000D01*
X142942440Y-88655000D01*
X142874126Y-88311565D01*
X142679586Y-88020414D01*
X142388435Y-87825874D01*
X142045000Y-87757560D01*
X141754678Y-87757560D01*
X142009798Y-87502440D01*
X142045000Y-87502440D01*
X142388435Y-87434126D01*
X142679586Y-87239586D01*
X142874126Y-86948435D01*
X142942440Y-86605000D01*
X142942440Y-86569798D01*
X144564132Y-84948106D01*
X144535908Y-85090000D01*
X144651161Y-85669418D01*
X144979375Y-86160625D01*
X145277761Y-86360000D01*
X144979375Y-86559375D01*
X144651161Y-87050582D01*
X144535908Y-87630000D01*
X144651161Y-88209418D01*
X144979375Y-88700625D01*
X145277761Y-88900000D01*
X144979375Y-89099375D01*
X144651161Y-89590582D01*
X144535908Y-90170000D01*
X144651161Y-90749418D01*
X144979375Y-91240625D01*
X145470582Y-91568839D01*
X145903744Y-91655000D01*
X146196256Y-91655000D01*
X146629418Y-91568839D01*
X147120625Y-91240625D01*
X147448839Y-90749418D01*
X147564092Y-90170000D01*
X147448839Y-89590582D01*
X147120625Y-89099375D01*
X146822239Y-88900000D01*
X147120625Y-88700625D01*
X147448839Y-88209418D01*
X147564092Y-87630000D01*
X147448839Y-87050582D01*
X147120625Y-86559375D01*
X146822239Y-86360000D01*
X147120625Y-86160625D01*
X147448839Y-85669418D01*
X147564092Y-85090000D01*
X147448839Y-84510582D01*
X147120625Y-84019375D01*
X146957236Y-83910202D01*
X147228769Y-83728769D01*
X147590136Y-83187945D01*
X147717031Y-82550000D01*
X147685000Y-82388969D01*
X147685000Y-77308969D01*
X147590136Y-76832055D01*
X147547440Y-76768156D01*
X147547440Y-76620000D01*
X147498157Y-76372235D01*
X147357809Y-76162191D01*
X147147765Y-76021843D01*
X146900000Y-75972560D01*
X146751844Y-75972560D01*
X146687945Y-75929864D01*
X146667196Y-75925737D01*
X146597929Y-75822071D01*
X146572152Y-75804848D01*
X146554929Y-75779071D01*
X146303537Y-75611096D01*
X146081852Y-75567000D01*
X146081847Y-75567000D01*
X146007000Y-75552112D01*
X145932153Y-75567000D01*
X137979802Y-75567000D01*
X137988474Y-75558328D01*
X138051930Y-75515928D01*
X138219905Y-75264536D01*
X138264001Y-75042851D01*
X138264001Y-75042847D01*
X138278889Y-74967999D01*
X138264001Y-74893151D01*
X138264001Y-73894845D01*
X138278889Y-73819998D01*
X138264001Y-73745151D01*
X138264001Y-73745147D01*
X138219905Y-73523462D01*
X138172220Y-73452096D01*
X138094330Y-73335525D01*
X138094328Y-73335523D01*
X138051930Y-73272070D01*
X138007862Y-73242625D01*
X143650465Y-73242625D01*
X143650465Y-71247000D01*
X148463000Y-71247000D01*
X148463000Y-96393000D01*
G36*
X132411843Y-92042765D02*
X132513564Y-92195000D01*
X132411843Y-92347235D01*
X132362560Y-92595000D01*
X132362560Y-93246509D01*
X132342969Y-93345000D01*
X132362560Y-93443491D01*
X132362560Y-94095000D01*
X132411843Y-94342765D01*
X132513564Y-94495000D01*
X132411843Y-94647235D01*
X132362560Y-94895000D01*
X132362560Y-95546509D01*
X132342969Y-95645000D01*
X132362560Y-95743491D01*
X132362560Y-96393000D01*
X131495350Y-96393000D01*
X131523280Y-96381431D01*
X131814431Y-96090280D01*
X131972000Y-95709874D01*
X131972000Y-95298126D01*
X131814431Y-94917720D01*
X131523280Y-94626569D01*
X131142874Y-94469000D01*
X130731126Y-94469000D01*
X130662488Y-94497431D01*
X130819602Y-94262294D01*
X130887440Y-93921250D01*
X130887440Y-93433750D01*
X130882647Y-93409654D01*
X132384915Y-91907387D01*
X132411843Y-92042765D01*
X132411843Y-92042765D01*
G37*
X132411843Y-92042765D02*
X132513564Y-92195000D01*
X132411843Y-92347235D01*
X132362560Y-92595000D01*
X132362560Y-93246509D01*
X132342969Y-93345000D01*
X132362560Y-93443491D01*
X132362560Y-94095000D01*
X132411843Y-94342765D01*
X132513564Y-94495000D01*
X132411843Y-94647235D01*
X132362560Y-94895000D01*
X132362560Y-95546509D01*
X132342969Y-95645000D01*
X132362560Y-95743491D01*
X132362560Y-96393000D01*
X131495350Y-96393000D01*
X131523280Y-96381431D01*
X131814431Y-96090280D01*
X131972000Y-95709874D01*
X131972000Y-95298126D01*
X131814431Y-94917720D01*
X131523280Y-94626569D01*
X131142874Y-94469000D01*
X130731126Y-94469000D01*
X130662488Y-94497431D01*
X130819602Y-94262294D01*
X130887440Y-93921250D01*
X130887440Y-93433750D01*
X130882647Y-93409654D01*
X132384915Y-91907387D01*
X132411843Y-92042765D01*
G36*
X128431256Y-96393000D02*
X128108744Y-96393000D01*
X128270000Y-96151664D01*
X128431256Y-96393000D01*
X128431256Y-96393000D01*
G37*
X128431256Y-96393000D02*
X128108744Y-96393000D01*
X128270000Y-96151664D01*
X128431256Y-96393000D01*
G36*
X110217000Y-93647126D02*
X110217000Y-94058874D01*
X110374569Y-94439280D01*
X110665720Y-94730431D01*
X111046126Y-94888000D01*
X111457874Y-94888000D01*
X111838280Y-94730431D01*
X111862560Y-94706151D01*
X111862560Y-95660000D01*
X111911843Y-95907765D01*
X112052191Y-96117809D01*
X112262235Y-96258157D01*
X112510000Y-96307440D01*
X114610000Y-96307440D01*
X114857765Y-96258157D01*
X115067809Y-96117809D01*
X115208157Y-95907765D01*
X115257440Y-95660000D01*
X115257440Y-94260000D01*
X115248091Y-94213001D01*
X120971909Y-94213001D01*
X120962560Y-94260000D01*
X120962560Y-95660000D01*
X121011843Y-95907765D01*
X121152191Y-96117809D01*
X121362235Y-96258157D01*
X121610000Y-96307440D01*
X123710000Y-96307440D01*
X123957765Y-96258157D01*
X124167809Y-96117809D01*
X124308157Y-95907765D01*
X124357440Y-95660000D01*
X124357440Y-94260000D01*
X124348091Y-94213001D01*
X124585700Y-94213001D01*
X125657353Y-95284655D01*
X125652560Y-95308750D01*
X125652560Y-95796250D01*
X125720398Y-96137294D01*
X125891256Y-96393000D01*
X108277308Y-96393000D01*
X108385625Y-96320625D01*
X108713839Y-95829418D01*
X108829092Y-95250000D01*
X108713839Y-94670582D01*
X108385625Y-94179375D01*
X108087239Y-93980000D01*
X108385625Y-93780625D01*
X108593178Y-93470000D01*
X110290368Y-93470000D01*
X110217000Y-93647126D01*
X110217000Y-93647126D01*
G37*
X110217000Y-93647126D02*
X110217000Y-94058874D01*
X110374569Y-94439280D01*
X110665720Y-94730431D01*
X111046126Y-94888000D01*
X111457874Y-94888000D01*
X111838280Y-94730431D01*
X111862560Y-94706151D01*
X111862560Y-95660000D01*
X111911843Y-95907765D01*
X112052191Y-96117809D01*
X112262235Y-96258157D01*
X112510000Y-96307440D01*
X114610000Y-96307440D01*
X114857765Y-96258157D01*
X115067809Y-96117809D01*
X115208157Y-95907765D01*
X115257440Y-95660000D01*
X115257440Y-94260000D01*
X115248091Y-94213001D01*
X120971909Y-94213001D01*
X120962560Y-94260000D01*
X120962560Y-95660000D01*
X121011843Y-95907765D01*
X121152191Y-96117809D01*
X121362235Y-96258157D01*
X121610000Y-96307440D01*
X123710000Y-96307440D01*
X123957765Y-96258157D01*
X124167809Y-96117809D01*
X124308157Y-95907765D01*
X124357440Y-95660000D01*
X124357440Y-94260000D01*
X124348091Y-94213001D01*
X124585700Y-94213001D01*
X125657353Y-95284655D01*
X125652560Y-95308750D01*
X125652560Y-95796250D01*
X125720398Y-96137294D01*
X125891256Y-96393000D01*
X108277308Y-96393000D01*
X108385625Y-96320625D01*
X108713839Y-95829418D01*
X108829092Y-95250000D01*
X108713839Y-94670582D01*
X108385625Y-94179375D01*
X108087239Y-93980000D01*
X108385625Y-93780625D01*
X108593178Y-93470000D01*
X110290368Y-93470000D01*
X110217000Y-93647126D01*
G36*
X120250000Y-71549126D02*
X120250000Y-71858964D01*
X120210414Y-71885414D01*
X120015874Y-72176565D01*
X119947560Y-72520000D01*
X119947560Y-73270000D01*
X120015874Y-73613435D01*
X120210414Y-73904586D01*
X120501565Y-74099126D01*
X120845000Y-74167440D01*
X122995000Y-74167440D01*
X123338435Y-74099126D01*
X123624999Y-73907651D01*
X123624999Y-74682349D01*
X123338435Y-74490874D01*
X122995000Y-74422560D01*
X120845000Y-74422560D01*
X120501565Y-74490874D01*
X120210414Y-74685414D01*
X120015874Y-74976565D01*
X119947560Y-75320000D01*
X119947560Y-76070000D01*
X120015874Y-76413435D01*
X120210414Y-76704586D01*
X120270898Y-76745000D01*
X119097440Y-76745000D01*
X119097440Y-75410000D01*
X119085000Y-75347459D01*
X119085000Y-75283690D01*
X119068974Y-75245000D01*
X119126309Y-75245000D01*
X119185222Y-75220597D01*
X119247765Y-75208157D01*
X119300786Y-75172729D01*
X119359698Y-75148327D01*
X119404789Y-75103236D01*
X119457809Y-75067809D01*
X119493235Y-75014791D01*
X119538327Y-74969699D01*
X119562730Y-74910785D01*
X119598157Y-74857765D01*
X119610597Y-74795224D01*
X119635000Y-74736310D01*
X119635000Y-74672541D01*
X119647440Y-74610000D01*
X119647440Y-72710000D01*
X119635000Y-72647459D01*
X119635000Y-72583690D01*
X119610597Y-72524776D01*
X119598157Y-72462235D01*
X119562730Y-72409215D01*
X119538327Y-72350301D01*
X119493235Y-72305209D01*
X119457809Y-72252191D01*
X119404789Y-72216764D01*
X119359698Y-72171673D01*
X119300786Y-72147271D01*
X119247765Y-72111843D01*
X119185222Y-72099403D01*
X119126309Y-72075000D01*
X119062541Y-72075000D01*
X119000000Y-72062560D01*
X117200000Y-72062560D01*
X117137459Y-72075000D01*
X117073691Y-72075000D01*
X117014778Y-72099403D01*
X116952235Y-72111843D01*
X116899214Y-72147271D01*
X116840302Y-72171673D01*
X116825000Y-72186975D01*
X116809698Y-72171673D01*
X116750786Y-72147271D01*
X116697765Y-72111843D01*
X116635222Y-72099403D01*
X116576309Y-72075000D01*
X116512541Y-72075000D01*
X116450000Y-72062560D01*
X114550000Y-72062560D01*
X114487459Y-72075000D01*
X114423691Y-72075000D01*
X114364778Y-72099403D01*
X114302235Y-72111843D01*
X114300000Y-72113336D01*
X114297765Y-72111843D01*
X114235222Y-72099403D01*
X114176309Y-72075000D01*
X114112541Y-72075000D01*
X114050000Y-72062560D01*
X112150000Y-72062560D01*
X112087459Y-72075000D01*
X112023691Y-72075000D01*
X111964778Y-72099403D01*
X111902235Y-72111843D01*
X111849214Y-72147271D01*
X111790302Y-72171673D01*
X111775000Y-72186975D01*
X111759698Y-72171673D01*
X111700786Y-72147271D01*
X111647765Y-72111843D01*
X111585222Y-72099403D01*
X111526309Y-72075000D01*
X111462541Y-72075000D01*
X111400000Y-72062560D01*
X109600000Y-72062560D01*
X109537459Y-72075000D01*
X109473691Y-72075000D01*
X109414778Y-72099403D01*
X109352235Y-72111843D01*
X109299214Y-72147271D01*
X109240302Y-72171673D01*
X109195211Y-72216764D01*
X109142191Y-72252191D01*
X109106765Y-72305209D01*
X109061673Y-72350301D01*
X109037270Y-72409215D01*
X109001843Y-72462235D01*
X108989403Y-72524776D01*
X108965000Y-72583690D01*
X108965000Y-72647459D01*
X108952560Y-72710000D01*
X108952560Y-72730053D01*
X108747294Y-72592898D01*
X108406250Y-72525060D01*
X107493750Y-72525060D01*
X107152706Y-72592898D01*
X106893615Y-72766018D01*
X106650000Y-72717560D01*
X105600000Y-72717560D01*
X105352235Y-72766843D01*
X105142191Y-72907191D01*
X105078151Y-73003032D01*
X104894492Y-72966500D01*
X104894488Y-72966500D01*
X104825698Y-72952817D01*
X104756908Y-72966500D01*
X104447438Y-72966500D01*
X104407809Y-72907191D01*
X104197765Y-72766843D01*
X103950000Y-72717560D01*
X102900000Y-72717560D01*
X102652235Y-72766843D01*
X102442191Y-72907191D01*
X102301843Y-73117235D01*
X102252560Y-73365000D01*
X102252560Y-73965000D01*
X102287369Y-74140000D01*
X102252560Y-74315000D01*
X102252560Y-74805000D01*
X99939847Y-74805000D01*
X99865000Y-74790112D01*
X99790153Y-74805000D01*
X99790148Y-74805000D01*
X99568463Y-74849096D01*
X99317071Y-75017071D01*
X99274671Y-75080527D01*
X98575530Y-75779669D01*
X98512071Y-75822071D01*
X98442804Y-75925737D01*
X98422055Y-75929864D01*
X98358156Y-75972560D01*
X98210000Y-75972560D01*
X97962235Y-76021843D01*
X97752191Y-76162191D01*
X97611843Y-76372235D01*
X97562560Y-76620000D01*
X97562560Y-76768157D01*
X97519864Y-76832056D01*
X97425000Y-77308970D01*
X97425000Y-79848967D01*
X97392969Y-80010000D01*
X97425001Y-80171034D01*
X97425001Y-82711031D01*
X97519865Y-83187945D01*
X97881232Y-83728769D01*
X98152765Y-83910201D01*
X97989375Y-84019375D01*
X97661161Y-84510582D01*
X97545908Y-85090000D01*
X97661161Y-85669418D01*
X97989375Y-86160625D01*
X98287761Y-86360000D01*
X97989375Y-86559375D01*
X97661161Y-87050582D01*
X97545908Y-87630000D01*
X97661161Y-88209418D01*
X97989375Y-88700625D01*
X98287761Y-88900000D01*
X97989375Y-89099375D01*
X97661161Y-89590582D01*
X97545908Y-90170000D01*
X97661161Y-90749418D01*
X97989375Y-91240625D01*
X98480582Y-91568839D01*
X98913744Y-91655000D01*
X99206256Y-91655000D01*
X99639418Y-91568839D01*
X100130625Y-91240625D01*
X100458839Y-90749418D01*
X100574092Y-90170000D01*
X100458839Y-89590582D01*
X100130625Y-89099375D01*
X99832239Y-88900000D01*
X100130625Y-88700625D01*
X100458839Y-88209418D01*
X100574092Y-87630000D01*
X100458839Y-87050582D01*
X100130625Y-86559375D01*
X99832239Y-86360000D01*
X100130625Y-86160625D01*
X100458839Y-85669418D01*
X100574092Y-85090000D01*
X100458839Y-84510582D01*
X100130625Y-84019375D01*
X99967236Y-83910202D01*
X100238769Y-83728769D01*
X100600136Y-83187945D01*
X100695000Y-82711031D01*
X100695000Y-81590918D01*
X100900026Y-81550136D01*
X101394124Y-81219990D01*
X103113934Y-81219990D01*
X103140000Y-81351030D01*
X103234864Y-81827944D01*
X103444258Y-82141325D01*
X103437560Y-82175000D01*
X103437560Y-82925000D01*
X103505874Y-83268435D01*
X103700414Y-83559586D01*
X103991565Y-83754126D01*
X104335000Y-83822440D01*
X104371420Y-83822440D01*
X104753234Y-84077560D01*
X104335000Y-84077560D01*
X103991565Y-84145874D01*
X103700414Y-84340414D01*
X103505874Y-84631565D01*
X103437560Y-84975000D01*
X103437560Y-85725000D01*
X103505874Y-86068435D01*
X103700414Y-86359586D01*
X103991565Y-86554126D01*
X104335000Y-86622440D01*
X104375000Y-86622440D01*
X104375000Y-86692874D01*
X104524474Y-87053737D01*
X104482069Y-87082071D01*
X104439669Y-87145527D01*
X103115529Y-88469668D01*
X103052070Y-88512070D01*
X102884095Y-88763463D01*
X102839999Y-88985148D01*
X102839999Y-88985152D01*
X102825111Y-89059999D01*
X102839999Y-89134846D01*
X102840000Y-94000147D01*
X102825111Y-94074999D01*
X102884096Y-94371536D01*
X102932067Y-94443329D01*
X103052071Y-94622928D01*
X103115527Y-94665328D01*
X103333791Y-94883592D01*
X103260908Y-95250000D01*
X103376161Y-95829418D01*
X103704375Y-96320625D01*
X103812692Y-96393000D01*
X96647000Y-96393000D01*
X96647000Y-71247000D01*
X120375144Y-71247000D01*
X120250000Y-71549126D01*
X120250000Y-71549126D01*
G37*
X120250000Y-71549126D02*
X120250000Y-71858964D01*
X120210414Y-71885414D01*
X120015874Y-72176565D01*
X119947560Y-72520000D01*
X119947560Y-73270000D01*
X120015874Y-73613435D01*
X120210414Y-73904586D01*
X120501565Y-74099126D01*
X120845000Y-74167440D01*
X122995000Y-74167440D01*
X123338435Y-74099126D01*
X123624999Y-73907651D01*
X123624999Y-74682349D01*
X123338435Y-74490874D01*
X122995000Y-74422560D01*
X120845000Y-74422560D01*
X120501565Y-74490874D01*
X120210414Y-74685414D01*
X120015874Y-74976565D01*
X119947560Y-75320000D01*
X119947560Y-76070000D01*
X120015874Y-76413435D01*
X120210414Y-76704586D01*
X120270898Y-76745000D01*
X119097440Y-76745000D01*
X119097440Y-75410000D01*
X119085000Y-75347459D01*
X119085000Y-75283690D01*
X119068974Y-75245000D01*
X119126309Y-75245000D01*
X119185222Y-75220597D01*
X119247765Y-75208157D01*
X119300786Y-75172729D01*
X119359698Y-75148327D01*
X119404789Y-75103236D01*
X119457809Y-75067809D01*
X119493235Y-75014791D01*
X119538327Y-74969699D01*
X119562730Y-74910785D01*
X119598157Y-74857765D01*
X119610597Y-74795224D01*
X119635000Y-74736310D01*
X119635000Y-74672541D01*
X119647440Y-74610000D01*
X119647440Y-72710000D01*
X119635000Y-72647459D01*
X119635000Y-72583690D01*
X119610597Y-72524776D01*
X119598157Y-72462235D01*
X119562730Y-72409215D01*
X119538327Y-72350301D01*
X119493235Y-72305209D01*
X119457809Y-72252191D01*
X119404789Y-72216764D01*
X119359698Y-72171673D01*
X119300786Y-72147271D01*
X119247765Y-72111843D01*
X119185222Y-72099403D01*
X119126309Y-72075000D01*
X119062541Y-72075000D01*
X119000000Y-72062560D01*
X117200000Y-72062560D01*
X117137459Y-72075000D01*
X117073691Y-72075000D01*
X117014778Y-72099403D01*
X116952235Y-72111843D01*
X116899214Y-72147271D01*
X116840302Y-72171673D01*
X116825000Y-72186975D01*
X116809698Y-72171673D01*
X116750786Y-72147271D01*
X116697765Y-72111843D01*
X116635222Y-72099403D01*
X116576309Y-72075000D01*
X116512541Y-72075000D01*
X116450000Y-72062560D01*
X114550000Y-72062560D01*
X114487459Y-72075000D01*
X114423691Y-72075000D01*
X114364778Y-72099403D01*
X114302235Y-72111843D01*
X114300000Y-72113336D01*
X114297765Y-72111843D01*
X114235222Y-72099403D01*
X114176309Y-72075000D01*
X114112541Y-72075000D01*
X114050000Y-72062560D01*
X112150000Y-72062560D01*
X112087459Y-72075000D01*
X112023691Y-72075000D01*
X111964778Y-72099403D01*
X111902235Y-72111843D01*
X111849214Y-72147271D01*
X111790302Y-72171673D01*
X111775000Y-72186975D01*
X111759698Y-72171673D01*
X111700786Y-72147271D01*
X111647765Y-72111843D01*
X111585222Y-72099403D01*
X111526309Y-72075000D01*
X111462541Y-72075000D01*
X111400000Y-72062560D01*
X109600000Y-72062560D01*
X109537459Y-72075000D01*
X109473691Y-72075000D01*
X109414778Y-72099403D01*
X109352235Y-72111843D01*
X109299214Y-72147271D01*
X109240302Y-72171673D01*
X109195211Y-72216764D01*
X109142191Y-72252191D01*
X109106765Y-72305209D01*
X109061673Y-72350301D01*
X109037270Y-72409215D01*
X109001843Y-72462235D01*
X108989403Y-72524776D01*
X108965000Y-72583690D01*
X108965000Y-72647459D01*
X108952560Y-72710000D01*
X108952560Y-72730053D01*
X108747294Y-72592898D01*
X108406250Y-72525060D01*
X107493750Y-72525060D01*
X107152706Y-72592898D01*
X106893615Y-72766018D01*
X106650000Y-72717560D01*
X105600000Y-72717560D01*
X105352235Y-72766843D01*
X105142191Y-72907191D01*
X105078151Y-73003032D01*
X104894492Y-72966500D01*
X104894488Y-72966500D01*
X104825698Y-72952817D01*
X104756908Y-72966500D01*
X104447438Y-72966500D01*
X104407809Y-72907191D01*
X104197765Y-72766843D01*
X103950000Y-72717560D01*
X102900000Y-72717560D01*
X102652235Y-72766843D01*
X102442191Y-72907191D01*
X102301843Y-73117235D01*
X102252560Y-73365000D01*
X102252560Y-73965000D01*
X102287369Y-74140000D01*
X102252560Y-74315000D01*
X102252560Y-74805000D01*
X99939847Y-74805000D01*
X99865000Y-74790112D01*
X99790153Y-74805000D01*
X99790148Y-74805000D01*
X99568463Y-74849096D01*
X99317071Y-75017071D01*
X99274671Y-75080527D01*
X98575530Y-75779669D01*
X98512071Y-75822071D01*
X98442804Y-75925737D01*
X98422055Y-75929864D01*
X98358156Y-75972560D01*
X98210000Y-75972560D01*
X97962235Y-76021843D01*
X97752191Y-76162191D01*
X97611843Y-76372235D01*
X97562560Y-76620000D01*
X97562560Y-76768157D01*
X97519864Y-76832056D01*
X97425000Y-77308970D01*
X97425000Y-79848967D01*
X97392969Y-80010000D01*
X97425001Y-80171034D01*
X97425001Y-82711031D01*
X97519865Y-83187945D01*
X97881232Y-83728769D01*
X98152765Y-83910201D01*
X97989375Y-84019375D01*
X97661161Y-84510582D01*
X97545908Y-85090000D01*
X97661161Y-85669418D01*
X97989375Y-86160625D01*
X98287761Y-86360000D01*
X97989375Y-86559375D01*
X97661161Y-87050582D01*
X97545908Y-87630000D01*
X97661161Y-88209418D01*
X97989375Y-88700625D01*
X98287761Y-88900000D01*
X97989375Y-89099375D01*
X97661161Y-89590582D01*
X97545908Y-90170000D01*
X97661161Y-90749418D01*
X97989375Y-91240625D01*
X98480582Y-91568839D01*
X98913744Y-91655000D01*
X99206256Y-91655000D01*
X99639418Y-91568839D01*
X100130625Y-91240625D01*
X100458839Y-90749418D01*
X100574092Y-90170000D01*
X100458839Y-89590582D01*
X100130625Y-89099375D01*
X99832239Y-88900000D01*
X100130625Y-88700625D01*
X100458839Y-88209418D01*
X100574092Y-87630000D01*
X100458839Y-87050582D01*
X100130625Y-86559375D01*
X99832239Y-86360000D01*
X100130625Y-86160625D01*
X100458839Y-85669418D01*
X100574092Y-85090000D01*
X100458839Y-84510582D01*
X100130625Y-84019375D01*
X99967236Y-83910202D01*
X100238769Y-83728769D01*
X100600136Y-83187945D01*
X100695000Y-82711031D01*
X100695000Y-81590918D01*
X100900026Y-81550136D01*
X101394124Y-81219990D01*
X103113934Y-81219990D01*
X103140000Y-81351030D01*
X103234864Y-81827944D01*
X103444258Y-82141325D01*
X103437560Y-82175000D01*
X103437560Y-82925000D01*
X103505874Y-83268435D01*
X103700414Y-83559586D01*
X103991565Y-83754126D01*
X104335000Y-83822440D01*
X104371420Y-83822440D01*
X104753234Y-84077560D01*
X104335000Y-84077560D01*
X103991565Y-84145874D01*
X103700414Y-84340414D01*
X103505874Y-84631565D01*
X103437560Y-84975000D01*
X103437560Y-85725000D01*
X103505874Y-86068435D01*
X103700414Y-86359586D01*
X103991565Y-86554126D01*
X104335000Y-86622440D01*
X104375000Y-86622440D01*
X104375000Y-86692874D01*
X104524474Y-87053737D01*
X104482069Y-87082071D01*
X104439669Y-87145527D01*
X103115529Y-88469668D01*
X103052070Y-88512070D01*
X102884095Y-88763463D01*
X102839999Y-88985148D01*
X102839999Y-88985152D01*
X102825111Y-89059999D01*
X102839999Y-89134846D01*
X102840000Y-94000147D01*
X102825111Y-94074999D01*
X102884096Y-94371536D01*
X102932067Y-94443329D01*
X103052071Y-94622928D01*
X103115527Y-94665328D01*
X103333791Y-94883592D01*
X103260908Y-95250000D01*
X103376161Y-95829418D01*
X103704375Y-96320625D01*
X103812692Y-96393000D01*
X96647000Y-96393000D01*
X96647000Y-71247000D01*
X120375144Y-71247000D01*
X120250000Y-71549126D01*
G36*
X106244375Y-96320625D02*
X106352692Y-96393000D01*
X105737308Y-96393000D01*
X105845625Y-96320625D01*
X106045000Y-96022239D01*
X106244375Y-96320625D01*
X106244375Y-96320625D01*
G37*
X106244375Y-96320625D02*
X106352692Y-96393000D01*
X105737308Y-96393000D01*
X105845625Y-96320625D01*
X106045000Y-96022239D01*
X106244375Y-96320625D01*
G36*
X106244375Y-93780625D02*
X106542761Y-93980000D01*
X106244375Y-94179375D01*
X106045000Y-94477761D01*
X105845625Y-94179375D01*
X105547239Y-93980000D01*
X105845625Y-93780625D01*
X106045000Y-93482239D01*
X106244375Y-93780625D01*
X106244375Y-93780625D01*
G37*
X106244375Y-93780625D02*
X106542761Y-93980000D01*
X106244375Y-94179375D01*
X106045000Y-94477761D01*
X105845625Y-94179375D01*
X105547239Y-93980000D01*
X105845625Y-93780625D01*
X106045000Y-93482239D01*
X106244375Y-93780625D01*
G36*
X121610000Y-91807440D02*
X123282639Y-91807440D01*
X124168199Y-92693001D01*
X120344800Y-92693001D01*
X120435802Y-92602000D01*
X120601874Y-92602000D01*
X120982280Y-92444431D01*
X121273431Y-92153280D01*
X121431000Y-91772874D01*
X121431000Y-91771835D01*
X121610000Y-91807440D01*
X121610000Y-91807440D01*
G37*
X121610000Y-91807440D02*
X123282639Y-91807440D01*
X124168199Y-92693001D01*
X120344800Y-92693001D01*
X120435802Y-92602000D01*
X120601874Y-92602000D01*
X120982280Y-92444431D01*
X121273431Y-92153280D01*
X121431000Y-91772874D01*
X121431000Y-91771835D01*
X121610000Y-91807440D01*
G36*
X126096084Y-90621416D02*
X126385206Y-90814602D01*
X126726250Y-90882440D01*
X127213750Y-90882440D01*
X127237846Y-90877647D01*
X127520263Y-91160065D01*
X127429720Y-91197569D01*
X127138569Y-91488720D01*
X126981000Y-91869126D01*
X126981000Y-92280874D01*
X127089394Y-92542560D01*
X126543750Y-92542560D01*
X126229809Y-92605007D01*
X124357440Y-90732639D01*
X124357440Y-90712527D01*
X124510206Y-90814602D01*
X124851250Y-90882440D01*
X125338750Y-90882440D01*
X125679794Y-90814602D01*
X125968916Y-90621416D01*
X126032500Y-90526256D01*
X126096084Y-90621416D01*
X126096084Y-90621416D01*
G37*
X126096084Y-90621416D02*
X126385206Y-90814602D01*
X126726250Y-90882440D01*
X127213750Y-90882440D01*
X127237846Y-90877647D01*
X127520263Y-91160065D01*
X127429720Y-91197569D01*
X127138569Y-91488720D01*
X126981000Y-91869126D01*
X126981000Y-92280874D01*
X127089394Y-92542560D01*
X126543750Y-92542560D01*
X126229809Y-92605007D01*
X124357440Y-90732639D01*
X124357440Y-90712527D01*
X124510206Y-90814602D01*
X124851250Y-90882440D01*
X125338750Y-90882440D01*
X125679794Y-90814602D01*
X125968916Y-90621416D01*
X126032500Y-90526256D01*
X126096084Y-90621416D01*
G36*
X118698670Y-90944472D02*
X118741071Y-91007929D01*
X118804527Y-91050329D01*
X118992462Y-91175904D01*
X119040605Y-91185480D01*
X119214148Y-91220000D01*
X119214152Y-91220000D01*
X119289000Y-91234888D01*
X119363848Y-91220000D01*
X119419456Y-91220000D01*
X119361000Y-91361126D01*
X119361000Y-91527198D01*
X118938199Y-91950000D01*
X110824906Y-91950000D01*
X110855328Y-91904471D01*
X111862560Y-90897239D01*
X111862560Y-91160000D01*
X111911843Y-91407765D01*
X112052191Y-91617809D01*
X112262235Y-91758157D01*
X112510000Y-91807440D01*
X114610000Y-91807440D01*
X114857765Y-91758157D01*
X115067809Y-91617809D01*
X115208157Y-91407765D01*
X115245505Y-91220000D01*
X116856153Y-91220000D01*
X116931000Y-91234888D01*
X117005847Y-91220000D01*
X117005852Y-91220000D01*
X117227537Y-91175904D01*
X117478929Y-91007929D01*
X117521331Y-90944470D01*
X118110000Y-90355802D01*
X118698670Y-90944472D01*
X118698670Y-90944472D01*
G37*
X118698670Y-90944472D02*
X118741071Y-91007929D01*
X118804527Y-91050329D01*
X118992462Y-91175904D01*
X119040605Y-91185480D01*
X119214148Y-91220000D01*
X119214152Y-91220000D01*
X119289000Y-91234888D01*
X119363848Y-91220000D01*
X119419456Y-91220000D01*
X119361000Y-91361126D01*
X119361000Y-91527198D01*
X118938199Y-91950000D01*
X110824906Y-91950000D01*
X110855328Y-91904471D01*
X111862560Y-90897239D01*
X111862560Y-91160000D01*
X111911843Y-91407765D01*
X112052191Y-91617809D01*
X112262235Y-91758157D01*
X112510000Y-91807440D01*
X114610000Y-91807440D01*
X114857765Y-91758157D01*
X115067809Y-91617809D01*
X115208157Y-91407765D01*
X115245505Y-91220000D01*
X116856153Y-91220000D01*
X116931000Y-91234888D01*
X117005847Y-91220000D01*
X117005852Y-91220000D01*
X117227537Y-91175904D01*
X117478929Y-91007929D01*
X117521331Y-90944470D01*
X118110000Y-90355802D01*
X118698670Y-90944472D01*
G36*
X130766543Y-84499726D02*
X130648359Y-84676601D01*
X130635741Y-84740034D01*
X130604823Y-84796837D01*
X130582367Y-85008364D01*
X130540867Y-85217000D01*
X130553484Y-85280432D01*
X130546657Y-85344744D01*
X130568000Y-85417074D01*
X130568000Y-87893407D01*
X130648359Y-88297400D01*
X130791841Y-88512135D01*
X130954471Y-88755528D01*
X130954472Y-88755529D01*
X131106488Y-88857103D01*
X131412600Y-89061641D01*
X131430140Y-89065130D01*
X131426000Y-89075126D01*
X131426000Y-89486874D01*
X131583569Y-89867280D01*
X131874720Y-90158431D01*
X132153477Y-90273896D01*
X132097652Y-90285000D01*
X132097648Y-90285000D01*
X131875963Y-90329096D01*
X131624571Y-90497071D01*
X131582171Y-90560527D01*
X130268900Y-91873798D01*
X130255904Y-91808463D01*
X130087929Y-91557071D01*
X130024473Y-91514671D01*
X128104940Y-89595139D01*
X128104940Y-89474861D01*
X129444463Y-88135339D01*
X129507919Y-88092939D01*
X129556379Y-88020414D01*
X129675894Y-87841548D01*
X129699673Y-87722000D01*
X129719990Y-87619862D01*
X129719990Y-87619858D01*
X129734878Y-87545010D01*
X129719990Y-87470162D01*
X129719990Y-84316440D01*
X130866307Y-84316440D01*
X130766543Y-84499726D01*
X130766543Y-84499726D01*
G37*
X130766543Y-84499726D02*
X130648359Y-84676601D01*
X130635741Y-84740034D01*
X130604823Y-84796837D01*
X130582367Y-85008364D01*
X130540867Y-85217000D01*
X130553484Y-85280432D01*
X130546657Y-85344744D01*
X130568000Y-85417074D01*
X130568000Y-87893407D01*
X130648359Y-88297400D01*
X130791841Y-88512135D01*
X130954471Y-88755528D01*
X130954472Y-88755529D01*
X131106488Y-88857103D01*
X131412600Y-89061641D01*
X131430140Y-89065130D01*
X131426000Y-89075126D01*
X131426000Y-89486874D01*
X131583569Y-89867280D01*
X131874720Y-90158431D01*
X132153477Y-90273896D01*
X132097652Y-90285000D01*
X132097648Y-90285000D01*
X131875963Y-90329096D01*
X131624571Y-90497071D01*
X131582171Y-90560527D01*
X130268900Y-91873798D01*
X130255904Y-91808463D01*
X130087929Y-91557071D01*
X130024473Y-91514671D01*
X128104940Y-89595139D01*
X128104940Y-89474861D01*
X129444463Y-88135339D01*
X129507919Y-88092939D01*
X129556379Y-88020414D01*
X129675894Y-87841548D01*
X129699673Y-87722000D01*
X129719990Y-87619862D01*
X129719990Y-87619858D01*
X129734878Y-87545010D01*
X129719990Y-87470162D01*
X129719990Y-84316440D01*
X130866307Y-84316440D01*
X130766543Y-84499726D01*
G36*
X137791055Y-88662136D02*
X138267969Y-88757000D01*
X138997560Y-88757000D01*
X138997560Y-89405000D01*
X139065874Y-89748435D01*
X139260414Y-90039586D01*
X139551565Y-90234126D01*
X139835000Y-90290505D01*
X139835000Y-90408783D01*
X139900854Y-90739855D01*
X139939411Y-90797560D01*
X139310000Y-90797560D01*
X139062235Y-90846843D01*
X138852191Y-90987191D01*
X138711843Y-91197235D01*
X138662560Y-91445000D01*
X138662560Y-91710000D01*
X135657440Y-91710000D01*
X135657440Y-90295000D01*
X135608157Y-90047235D01*
X135467809Y-89837191D01*
X135257765Y-89696843D01*
X135010000Y-89647560D01*
X133734926Y-89647560D01*
X134175477Y-89207010D01*
X136329143Y-89207010D01*
X136403990Y-89221898D01*
X136478837Y-89207010D01*
X136478842Y-89207010D01*
X136700527Y-89162914D01*
X136951919Y-88994939D01*
X136994321Y-88931480D01*
X137474908Y-88450893D01*
X137791055Y-88662136D01*
X137791055Y-88662136D01*
G37*
X137791055Y-88662136D02*
X138267969Y-88757000D01*
X138997560Y-88757000D01*
X138997560Y-89405000D01*
X139065874Y-89748435D01*
X139260414Y-90039586D01*
X139551565Y-90234126D01*
X139835000Y-90290505D01*
X139835000Y-90408783D01*
X139900854Y-90739855D01*
X139939411Y-90797560D01*
X139310000Y-90797560D01*
X139062235Y-90846843D01*
X138852191Y-90987191D01*
X138711843Y-91197235D01*
X138662560Y-91445000D01*
X138662560Y-91710000D01*
X135657440Y-91710000D01*
X135657440Y-90295000D01*
X135608157Y-90047235D01*
X135467809Y-89837191D01*
X135257765Y-89696843D01*
X135010000Y-89647560D01*
X133734926Y-89647560D01*
X134175477Y-89207010D01*
X136329143Y-89207010D01*
X136403990Y-89221898D01*
X136478837Y-89207010D01*
X136478842Y-89207010D01*
X136700527Y-89162914D01*
X136951919Y-88994939D01*
X136994321Y-88931480D01*
X137474908Y-88450893D01*
X137791055Y-88662136D01*
G36*
X109950196Y-90660001D02*
X108731625Y-90660001D01*
X108829092Y-90170000D01*
X108727647Y-89660000D01*
X110950197Y-89660000D01*
X109950196Y-90660001D01*
X109950196Y-90660001D01*
G37*
X109950196Y-90660001D02*
X108731625Y-90660001D01*
X108829092Y-90170000D01*
X108727647Y-89660000D01*
X110950197Y-89660000D01*
X109950196Y-90660001D01*
G36*
X123597759Y-89112560D02*
X121610000Y-89112560D01*
X121362235Y-89161843D01*
X121152191Y-89302191D01*
X121011843Y-89512235D01*
X120974495Y-89700000D01*
X119603802Y-89700000D01*
X119510721Y-89606919D01*
X119712280Y-89523431D01*
X120003431Y-89232280D01*
X120097159Y-89006001D01*
X123491200Y-89006001D01*
X123597759Y-89112560D01*
X123597759Y-89112560D01*
G37*
X123597759Y-89112560D02*
X121610000Y-89112560D01*
X121362235Y-89161843D01*
X121152191Y-89302191D01*
X121011843Y-89512235D01*
X120974495Y-89700000D01*
X119603802Y-89700000D01*
X119510721Y-89606919D01*
X119712280Y-89523431D01*
X120003431Y-89232280D01*
X120097159Y-89006001D01*
X123491200Y-89006001D01*
X123597759Y-89112560D01*
G36*
X115530052Y-89700000D02*
X115245505Y-89700000D01*
X115239784Y-89671237D01*
X115501289Y-89671237D01*
X115530052Y-89700000D01*
X115530052Y-89700000D01*
G37*
X115530052Y-89700000D02*
X115245505Y-89700000D01*
X115239784Y-89671237D01*
X115501289Y-89671237D01*
X115530052Y-89700000D01*
G36*
X122540858Y-77150710D02*
X122540862Y-77150710D01*
X122615710Y-77165598D01*
X122690558Y-77150710D01*
X123875656Y-77150710D01*
X123882029Y-77154968D01*
X123912071Y-77199929D01*
X124062560Y-77300483D01*
X124062560Y-77527000D01*
X124111843Y-77774765D01*
X124252191Y-77984809D01*
X124462235Y-78125157D01*
X124710000Y-78174440D01*
X126160000Y-78174440D01*
X126407765Y-78125157D01*
X126502285Y-78062000D01*
X127594847Y-78062000D01*
X127594847Y-78162721D01*
X127752416Y-78543127D01*
X128043567Y-78834278D01*
X128199991Y-78899071D01*
X128199990Y-87230208D01*
X127237846Y-88192353D01*
X127213750Y-88187560D01*
X126726250Y-88187560D01*
X126385206Y-88255398D01*
X126096084Y-88448584D01*
X126032500Y-88543744D01*
X125968916Y-88448584D01*
X125810061Y-88342440D01*
X125973750Y-88342440D01*
X126314794Y-88274602D01*
X126603916Y-88081416D01*
X126644526Y-88020639D01*
X126667126Y-88030000D01*
X127078874Y-88030000D01*
X127459280Y-87872431D01*
X127750431Y-87581280D01*
X127908000Y-87200874D01*
X127908000Y-86789126D01*
X127750431Y-86408720D01*
X127459280Y-86117569D01*
X127078874Y-85960000D01*
X126667126Y-85960000D01*
X126644526Y-85969361D01*
X126603916Y-85908584D01*
X126314794Y-85715398D01*
X125973750Y-85647560D01*
X125486250Y-85647560D01*
X125145206Y-85715398D01*
X124856084Y-85908584D01*
X124792500Y-86003744D01*
X124728916Y-85908584D01*
X124439794Y-85715398D01*
X124098750Y-85647560D01*
X123720563Y-85647560D01*
X124152769Y-85358769D01*
X124243988Y-85222250D01*
X125149799Y-84316440D01*
X125785000Y-84316440D01*
X126032765Y-84267157D01*
X126242809Y-84126809D01*
X126383157Y-83916765D01*
X126432440Y-83669000D01*
X126432440Y-82945674D01*
X126525135Y-82806946D01*
X126652030Y-82169001D01*
X126525135Y-81531055D01*
X126432440Y-81392327D01*
X126432440Y-80669000D01*
X126383157Y-80421235D01*
X126242809Y-80211191D01*
X126032765Y-80070843D01*
X125785000Y-80021560D01*
X124185000Y-80021560D01*
X123937235Y-80070843D01*
X123727191Y-80211191D01*
X123586843Y-80421235D01*
X123537560Y-80669000D01*
X123537560Y-81304201D01*
X122296762Y-82545000D01*
X121344214Y-82545000D01*
X121197929Y-82326069D01*
X121134473Y-82283669D01*
X118865803Y-80015000D01*
X120811031Y-80015000D01*
X121287945Y-79920136D01*
X121613750Y-79702440D01*
X122075001Y-79702440D01*
X122418436Y-79634127D01*
X122709586Y-79439586D01*
X122904127Y-79148436D01*
X122972440Y-78805001D01*
X122972440Y-77954999D01*
X122904127Y-77611564D01*
X122709586Y-77320414D01*
X122419471Y-77126565D01*
X122540858Y-77150710D01*
X122540858Y-77150710D01*
G37*
X122540858Y-77150710D02*
X122540862Y-77150710D01*
X122615710Y-77165598D01*
X122690558Y-77150710D01*
X123875656Y-77150710D01*
X123882029Y-77154968D01*
X123912071Y-77199929D01*
X124062560Y-77300483D01*
X124062560Y-77527000D01*
X124111843Y-77774765D01*
X124252191Y-77984809D01*
X124462235Y-78125157D01*
X124710000Y-78174440D01*
X126160000Y-78174440D01*
X126407765Y-78125157D01*
X126502285Y-78062000D01*
X127594847Y-78062000D01*
X127594847Y-78162721D01*
X127752416Y-78543127D01*
X128043567Y-78834278D01*
X128199991Y-78899071D01*
X128199990Y-87230208D01*
X127237846Y-88192353D01*
X127213750Y-88187560D01*
X126726250Y-88187560D01*
X126385206Y-88255398D01*
X126096084Y-88448584D01*
X126032500Y-88543744D01*
X125968916Y-88448584D01*
X125810061Y-88342440D01*
X125973750Y-88342440D01*
X126314794Y-88274602D01*
X126603916Y-88081416D01*
X126644526Y-88020639D01*
X126667126Y-88030000D01*
X127078874Y-88030000D01*
X127459280Y-87872431D01*
X127750431Y-87581280D01*
X127908000Y-87200874D01*
X127908000Y-86789126D01*
X127750431Y-86408720D01*
X127459280Y-86117569D01*
X127078874Y-85960000D01*
X126667126Y-85960000D01*
X126644526Y-85969361D01*
X126603916Y-85908584D01*
X126314794Y-85715398D01*
X125973750Y-85647560D01*
X125486250Y-85647560D01*
X125145206Y-85715398D01*
X124856084Y-85908584D01*
X124792500Y-86003744D01*
X124728916Y-85908584D01*
X124439794Y-85715398D01*
X124098750Y-85647560D01*
X123720563Y-85647560D01*
X124152769Y-85358769D01*
X124243988Y-85222250D01*
X125149799Y-84316440D01*
X125785000Y-84316440D01*
X126032765Y-84267157D01*
X126242809Y-84126809D01*
X126383157Y-83916765D01*
X126432440Y-83669000D01*
X126432440Y-82945674D01*
X126525135Y-82806946D01*
X126652030Y-82169001D01*
X126525135Y-81531055D01*
X126432440Y-81392327D01*
X126432440Y-80669000D01*
X126383157Y-80421235D01*
X126242809Y-80211191D01*
X126032765Y-80070843D01*
X125785000Y-80021560D01*
X124185000Y-80021560D01*
X123937235Y-80070843D01*
X123727191Y-80211191D01*
X123586843Y-80421235D01*
X123537560Y-80669000D01*
X123537560Y-81304201D01*
X122296762Y-82545000D01*
X121344214Y-82545000D01*
X121197929Y-82326069D01*
X121134473Y-82283669D01*
X118865803Y-80015000D01*
X120811031Y-80015000D01*
X121287945Y-79920136D01*
X121613750Y-79702440D01*
X122075001Y-79702440D01*
X122418436Y-79634127D01*
X122709586Y-79439586D01*
X122904127Y-79148436D01*
X122972440Y-78805001D01*
X122972440Y-77954999D01*
X122904127Y-77611564D01*
X122709586Y-77320414D01*
X122419471Y-77126565D01*
X122540858Y-77150710D01*
G36*
X124856084Y-88081416D02*
X125014939Y-88187560D01*
X124851250Y-88187560D01*
X124827155Y-88192353D01*
X124721304Y-88086502D01*
X124728916Y-88081416D01*
X124792500Y-87986256D01*
X124856084Y-88081416D01*
X124856084Y-88081416D01*
G37*
X124856084Y-88081416D02*
X125014939Y-88187560D01*
X124851250Y-88187560D01*
X124827155Y-88192353D01*
X124721304Y-88086502D01*
X124728916Y-88081416D01*
X124792500Y-87986256D01*
X124856084Y-88081416D01*
G36*
X134086750Y-85702012D02*
X133950231Y-85793231D01*
X133588864Y-86334056D01*
X133523607Y-86662126D01*
X133461969Y-86972000D01*
X133494000Y-87133030D01*
X133494000Y-87283031D01*
X133582405Y-87727472D01*
X133564138Y-87731106D01*
X133338000Y-87882207D01*
X133338000Y-86054296D01*
X134113433Y-85647354D01*
X134148354Y-85640407D01*
X134086750Y-85702012D01*
X134086750Y-85702012D01*
G37*
X134086750Y-85702012D02*
X133950231Y-85793231D01*
X133588864Y-86334056D01*
X133523607Y-86662126D01*
X133461969Y-86972000D01*
X133494000Y-87133030D01*
X133494000Y-87283031D01*
X133582405Y-87727472D01*
X133564138Y-87731106D01*
X133338000Y-87882207D01*
X133338000Y-86054296D01*
X134113433Y-85647354D01*
X134148354Y-85640407D01*
X134086750Y-85702012D01*
G36*
X118705060Y-86759862D02*
X118705060Y-87150259D01*
X118459451Y-86904649D01*
X118564627Y-86861084D01*
X118685455Y-86740256D01*
X118705060Y-86759862D01*
X118705060Y-86759862D01*
G37*
X118705060Y-86759862D02*
X118705060Y-87150259D01*
X118459451Y-86904649D01*
X118564627Y-86861084D01*
X118685455Y-86740256D01*
X118705060Y-86759862D01*
G36*
X122974000Y-85847031D02*
X123115255Y-85818933D01*
X122981084Y-85908584D01*
X122958994Y-85941644D01*
X122769458Y-85815000D01*
X122812970Y-85815000D01*
X122974000Y-85847031D01*
X122974000Y-85847031D01*
G37*
X122974000Y-85847031D02*
X123115255Y-85818933D01*
X122981084Y-85908584D01*
X122958994Y-85941644D01*
X122769458Y-85815000D01*
X122812970Y-85815000D01*
X122974000Y-85847031D01*
G36*
X138662560Y-83815000D02*
X138711843Y-84062765D01*
X138852191Y-84272809D01*
X139062235Y-84413157D01*
X139310000Y-84462440D01*
X140425322Y-84462440D01*
X139930202Y-84957560D01*
X139895000Y-84957560D01*
X139551565Y-85025874D01*
X139260414Y-85220414D01*
X139082288Y-85487000D01*
X138267969Y-85487000D01*
X138011000Y-85538114D01*
X138011000Y-83550000D01*
X138662560Y-83550000D01*
X138662560Y-83815000D01*
X138662560Y-83815000D01*
G37*
X138662560Y-83815000D02*
X138711843Y-84062765D01*
X138852191Y-84272809D01*
X139062235Y-84413157D01*
X139310000Y-84462440D01*
X140425322Y-84462440D01*
X139930202Y-84957560D01*
X139895000Y-84957560D01*
X139551565Y-85025874D01*
X139260414Y-85220414D01*
X139082288Y-85487000D01*
X138267969Y-85487000D01*
X138011000Y-85538114D01*
X138011000Y-83550000D01*
X138662560Y-83550000D01*
X138662560Y-83815000D01*
G36*
X112175000Y-84788340D02*
X112175001Y-84989288D01*
X112152569Y-85011720D01*
X112080107Y-85186658D01*
X111800884Y-85071000D01*
X111630010Y-85071000D01*
X111630010Y-84895148D01*
X111841032Y-84895148D01*
X112145874Y-84768878D01*
X112175000Y-84788340D01*
X112175000Y-84788340D01*
G37*
X112175000Y-84788340D02*
X112175001Y-84989288D01*
X112152569Y-85011720D01*
X112080107Y-85186658D01*
X111800884Y-85071000D01*
X111630010Y-85071000D01*
X111630010Y-84895148D01*
X111841032Y-84895148D01*
X112145874Y-84768878D01*
X112175000Y-84788340D01*
G36*
X107315874Y-83268435D02*
X107360290Y-83334909D01*
X106830530Y-83864669D01*
X106767071Y-83907071D01*
X106633427Y-84107084D01*
X106485000Y-84077560D01*
X106066765Y-84077560D01*
X106448580Y-83822440D01*
X106485000Y-83822440D01*
X106828435Y-83754126D01*
X107119586Y-83559586D01*
X107314126Y-83268435D01*
X107315000Y-83264041D01*
X107315874Y-83268435D01*
X107315874Y-83268435D01*
G37*
X107315874Y-83268435D02*
X107360290Y-83334909D01*
X106830530Y-83864669D01*
X106767071Y-83907071D01*
X106633427Y-84107084D01*
X106485000Y-84077560D01*
X106066765Y-84077560D01*
X106448580Y-83822440D01*
X106485000Y-83822440D01*
X106828435Y-83754126D01*
X107119586Y-83559586D01*
X107314126Y-83268435D01*
X107315000Y-83264041D01*
X107315874Y-83268435D01*
G36*
X110110010Y-84077560D02*
X108767241Y-84077560D01*
X109022362Y-83822440D01*
X110110010Y-83822440D01*
X110110010Y-84077560D01*
X110110010Y-84077560D01*
G37*
X110110010Y-84077560D02*
X108767241Y-84077560D01*
X109022362Y-83822440D01*
X110110010Y-83822440D01*
X110110010Y-84077560D01*
G36*
X144415001Y-77308969D02*
X144415000Y-80929713D01*
X144012055Y-81009864D01*
X143471231Y-81371231D01*
X143380014Y-81507747D01*
X141957440Y-82930321D01*
X141957440Y-82013491D01*
X141977031Y-81915000D01*
X141957440Y-81816509D01*
X141957440Y-80015000D01*
X141908157Y-79767235D01*
X141767809Y-79557191D01*
X141557765Y-79416843D01*
X141310000Y-79367560D01*
X139310000Y-79367560D01*
X139062235Y-79416843D01*
X138852191Y-79557191D01*
X138711843Y-79767235D01*
X138662560Y-80015000D01*
X138662560Y-80280000D01*
X137321025Y-80280000D01*
X137159999Y-80247970D01*
X136998973Y-80280000D01*
X136998969Y-80280000D01*
X136522055Y-80374864D01*
X135981231Y-80736231D01*
X135890012Y-80872750D01*
X135647539Y-81115223D01*
X135608157Y-80917235D01*
X135506436Y-80765000D01*
X135608157Y-80612765D01*
X135657440Y-80365000D01*
X135657440Y-78865000D01*
X135608157Y-78617235D01*
X135467809Y-78407191D01*
X135257765Y-78266843D01*
X135010000Y-78217560D01*
X134658483Y-78217560D01*
X134557929Y-78067071D01*
X134494473Y-78024671D01*
X134108074Y-77638273D01*
X134267294Y-77606602D01*
X134556416Y-77413416D01*
X134620000Y-77318256D01*
X134683584Y-77413416D01*
X134972706Y-77606602D01*
X135313750Y-77674440D01*
X135801250Y-77674440D01*
X136142294Y-77606602D01*
X136431416Y-77413416D01*
X136624602Y-77124294D01*
X136632020Y-77087000D01*
X144459153Y-77087000D01*
X144415001Y-77308969D01*
X144415001Y-77308969D01*
G37*
X144415001Y-77308969D02*
X144415000Y-80929713D01*
X144012055Y-81009864D01*
X143471231Y-81371231D01*
X143380014Y-81507747D01*
X141957440Y-82930321D01*
X141957440Y-82013491D01*
X141977031Y-81915000D01*
X141957440Y-81816509D01*
X141957440Y-80015000D01*
X141908157Y-79767235D01*
X141767809Y-79557191D01*
X141557765Y-79416843D01*
X141310000Y-79367560D01*
X139310000Y-79367560D01*
X139062235Y-79416843D01*
X138852191Y-79557191D01*
X138711843Y-79767235D01*
X138662560Y-80015000D01*
X138662560Y-80280000D01*
X137321025Y-80280000D01*
X137159999Y-80247970D01*
X136998973Y-80280000D01*
X136998969Y-80280000D01*
X136522055Y-80374864D01*
X135981231Y-80736231D01*
X135890012Y-80872750D01*
X135647539Y-81115223D01*
X135608157Y-80917235D01*
X135506436Y-80765000D01*
X135608157Y-80612765D01*
X135657440Y-80365000D01*
X135657440Y-78865000D01*
X135608157Y-78617235D01*
X135467809Y-78407191D01*
X135257765Y-78266843D01*
X135010000Y-78217560D01*
X134658483Y-78217560D01*
X134557929Y-78067071D01*
X134494473Y-78024671D01*
X134108074Y-77638273D01*
X134267294Y-77606602D01*
X134556416Y-77413416D01*
X134620000Y-77318256D01*
X134683584Y-77413416D01*
X134972706Y-77606602D01*
X135313750Y-77674440D01*
X135801250Y-77674440D01*
X136142294Y-77606602D01*
X136431416Y-77413416D01*
X136624602Y-77124294D01*
X136632020Y-77087000D01*
X144459153Y-77087000D01*
X144415001Y-77308969D01*
G36*
X111300126Y-82061000D02*
X111334198Y-82061000D01*
X111192440Y-82202758D01*
X111192440Y-82175000D01*
X111170253Y-82063458D01*
X111210030Y-82023681D01*
X111300126Y-82061000D01*
X111300126Y-82061000D01*
G37*
X111300126Y-82061000D02*
X111334198Y-82061000D01*
X111192440Y-82202758D01*
X111192440Y-82175000D01*
X111170253Y-82063458D01*
X111210030Y-82023681D01*
X111300126Y-82061000D01*
G36*
X109328000Y-81277560D02*
X108145000Y-81277560D01*
X107801565Y-81345874D01*
X107510414Y-81540414D01*
X107315874Y-81831565D01*
X107315000Y-81835959D01*
X107314126Y-81831565D01*
X107119586Y-81540414D01*
X107005224Y-81464000D01*
X106956687Y-81219990D01*
X109328000Y-81219990D01*
X109328000Y-81277560D01*
X109328000Y-81277560D01*
G37*
X109328000Y-81277560D02*
X108145000Y-81277560D01*
X107801565Y-81345874D01*
X107510414Y-81540414D01*
X107315874Y-81831565D01*
X107315000Y-81835959D01*
X107314126Y-81831565D01*
X107119586Y-81540414D01*
X107005224Y-81464000D01*
X106956687Y-81219990D01*
X109328000Y-81219990D01*
X109328000Y-81277560D01*
G36*
X113150000Y-81400000D02*
X112607684Y-81400000D01*
X112482000Y-81425000D01*
X112461005Y-81425000D01*
X112541000Y-81231874D01*
X112541000Y-81219990D01*
X113150000Y-81219990D01*
X113150000Y-81400000D01*
X113150000Y-81400000D01*
G37*
X113150000Y-81400000D02*
X112607684Y-81400000D01*
X112482000Y-81425000D01*
X112461005Y-81425000D01*
X112541000Y-81231874D01*
X112541000Y-81219990D01*
X113150000Y-81219990D01*
X113150000Y-81400000D01*
G36*
X116824965Y-81220233D02*
X116720000Y-81325199D01*
X116720000Y-81176755D01*
X116824965Y-81220233D01*
X116824965Y-81220233D01*
G37*
X116824965Y-81220233D02*
X116720000Y-81325199D01*
X116720000Y-81176755D01*
X116824965Y-81220233D01*
G36*
X132109990Y-77166790D02*
X132109990Y-77400143D01*
X132095102Y-77474990D01*
X132109990Y-77549837D01*
X132109990Y-77549842D01*
X132154086Y-77771527D01*
X132322062Y-78022919D01*
X132385518Y-78065319D01*
X132657215Y-78337016D01*
X132552191Y-78407191D01*
X132411843Y-78617235D01*
X132362560Y-78865000D01*
X132362560Y-80365000D01*
X132396176Y-80534000D01*
X131705587Y-80534000D01*
X131683157Y-80421235D01*
X131542809Y-80211191D01*
X131332765Y-80070843D01*
X131085000Y-80021560D01*
X129719990Y-80021560D01*
X129719990Y-78966811D01*
X130319473Y-78367329D01*
X130382929Y-78324929D01*
X130483483Y-78174440D01*
X130560000Y-78174440D01*
X130807765Y-78125157D01*
X131017809Y-77984809D01*
X131158157Y-77774765D01*
X131207440Y-77527000D01*
X131207440Y-77077000D01*
X131187549Y-76977000D01*
X131207440Y-76877000D01*
X131207440Y-76427000D01*
X131187549Y-76327000D01*
X131201262Y-76258061D01*
X132109990Y-77166790D01*
X132109990Y-77166790D01*
G37*
X132109990Y-77166790D02*
X132109990Y-77400143D01*
X132095102Y-77474990D01*
X132109990Y-77549837D01*
X132109990Y-77549842D01*
X132154086Y-77771527D01*
X132322062Y-78022919D01*
X132385518Y-78065319D01*
X132657215Y-78337016D01*
X132552191Y-78407191D01*
X132411843Y-78617235D01*
X132362560Y-78865000D01*
X132362560Y-80365000D01*
X132396176Y-80534000D01*
X131705587Y-80534000D01*
X131683157Y-80421235D01*
X131542809Y-80211191D01*
X131332765Y-80070843D01*
X131085000Y-80021560D01*
X129719990Y-80021560D01*
X129719990Y-78966811D01*
X130319473Y-78367329D01*
X130382929Y-78324929D01*
X130483483Y-78174440D01*
X130560000Y-78174440D01*
X130807765Y-78125157D01*
X131017809Y-77984809D01*
X131158157Y-77774765D01*
X131207440Y-77527000D01*
X131207440Y-77077000D01*
X131187549Y-76977000D01*
X131207440Y-76877000D01*
X131207440Y-76427000D01*
X131187549Y-76327000D01*
X131201262Y-76258061D01*
X132109990Y-77166790D01*
G36*
X102130414Y-76435414D02*
X101935874Y-76726565D01*
X101867560Y-77070000D01*
X101867560Y-77870000D01*
X101883471Y-77949990D01*
X100848121Y-77949990D01*
X100695000Y-77919532D01*
X100695000Y-77308969D01*
X100600136Y-76832055D01*
X100557440Y-76768156D01*
X100557440Y-76620000D01*
X100508157Y-76372235D01*
X100476595Y-76325000D01*
X102295661Y-76325000D01*
X102130414Y-76435414D01*
X102130414Y-76435414D01*
G37*
X102130414Y-76435414D02*
X101935874Y-76726565D01*
X101867560Y-77070000D01*
X101867560Y-77870000D01*
X101883471Y-77949990D01*
X100848121Y-77949990D01*
X100695000Y-77919532D01*
X100695000Y-77308969D01*
X100600136Y-76832055D01*
X100557440Y-76768156D01*
X100557440Y-76620000D01*
X100508157Y-76372235D01*
X100476595Y-76325000D01*
X102295661Y-76325000D01*
X102130414Y-76435414D01*
G36*
X122318138Y-77105923D02*
X122075001Y-77057560D01*
X121613750Y-77057560D01*
X121478876Y-76967440D01*
X122110885Y-76967440D01*
X122318138Y-77105923D01*
X122318138Y-77105923D01*
G37*
X122318138Y-77105923D02*
X122075001Y-77057560D01*
X121613750Y-77057560D01*
X121478876Y-76967440D01*
X122110885Y-76967440D01*
X122318138Y-77105923D01*
G36*
X132547560Y-74624250D02*
X132615398Y-74965294D01*
X132803963Y-75247500D01*
X132618247Y-75525443D01*
X131639803Y-74547000D01*
X132547560Y-74547000D01*
X132547560Y-74624250D01*
X132547560Y-74624250D01*
G37*
X132547560Y-74624250D02*
X132615398Y-74965294D01*
X132803963Y-75247500D01*
X132618247Y-75525443D01*
X131639803Y-74547000D01*
X132547560Y-74547000D01*
X132547560Y-74624250D01*
G36*
X134678963Y-75247500D02*
X134620000Y-75335744D01*
X134561037Y-75247500D01*
X134620000Y-75159256D01*
X134678963Y-75247500D01*
X134678963Y-75247500D01*
G37*
X134678963Y-75247500D02*
X134620000Y-75335744D01*
X134561037Y-75247500D01*
X134620000Y-75159256D01*
X134678963Y-75247500D01*
G36*
X126708217Y-74077193D02*
X126663464Y-74086095D01*
X126412072Y-74254070D01*
X126369672Y-74317526D01*
X126199735Y-74487464D01*
X126160000Y-74479560D01*
X125144999Y-74479560D01*
X125144999Y-74304464D01*
X125145206Y-74304602D01*
X125486250Y-74372440D01*
X125973750Y-74372440D01*
X126314794Y-74304602D01*
X126603916Y-74111416D01*
X126667500Y-74016256D01*
X126708217Y-74077193D01*
X126708217Y-74077193D01*
G37*
X126708217Y-74077193D02*
X126663464Y-74086095D01*
X126412072Y-74254070D01*
X126369672Y-74317526D01*
X126199735Y-74487464D01*
X126160000Y-74479560D01*
X125144999Y-74479560D01*
X125144999Y-74304464D01*
X125145206Y-74304602D01*
X125486250Y-74372440D01*
X125973750Y-74372440D01*
X126314794Y-74304602D01*
X126603916Y-74111416D01*
X126667500Y-74016256D01*
X126708217Y-74077193D01*
G36*
X127621536Y-71677560D02*
X127361250Y-71677560D01*
X127020206Y-71745398D01*
X126731084Y-71938584D01*
X126667500Y-72033744D01*
X126603916Y-71938584D01*
X126314794Y-71745398D01*
X125973750Y-71677560D01*
X125486250Y-71677560D01*
X125145206Y-71745398D01*
X124856084Y-71938584D01*
X124662898Y-72227706D01*
X124616166Y-72462641D01*
X124594571Y-72477071D01*
X124552171Y-72540527D01*
X123900529Y-73192170D01*
X123892440Y-73197575D01*
X123892440Y-72520000D01*
X123824126Y-72176565D01*
X123629586Y-71885414D01*
X123338435Y-71690874D01*
X123336000Y-71690390D01*
X123336000Y-71549126D01*
X123210856Y-71247000D01*
X127621536Y-71247000D01*
X127621536Y-71677560D01*
X127621536Y-71677560D01*
G37*
X127621536Y-71677560D02*
X127361250Y-71677560D01*
X127020206Y-71745398D01*
X126731084Y-71938584D01*
X126667500Y-72033744D01*
X126603916Y-71938584D01*
X126314794Y-71745398D01*
X125973750Y-71677560D01*
X125486250Y-71677560D01*
X125145206Y-71745398D01*
X124856084Y-71938584D01*
X124662898Y-72227706D01*
X124616166Y-72462641D01*
X124594571Y-72477071D01*
X124552171Y-72540527D01*
X123900529Y-73192170D01*
X123892440Y-73197575D01*
X123892440Y-72520000D01*
X123824126Y-72176565D01*
X123629586Y-71885414D01*
X123338435Y-71690874D01*
X123336000Y-71690390D01*
X123336000Y-71549126D01*
X123210856Y-71247000D01*
X127621536Y-71247000D01*
X127621536Y-71677560D01*
M02*
