G04 #@! TF.GenerationSoftware,KiCad,Pcbnew,(5.0.1)-3*
G04 #@! TF.CreationDate,2019-12-21T11:02:08-05:00*
G04 #@! TF.ProjectId,BMS Module,424D53204D6F64756C652E6B69636164,rev?*
G04 #@! TF.SameCoordinates,Original*
G04 #@! TF.FileFunction,Soldermask,Top*
G04 #@! TF.FilePolarity,Negative*
%FSLAX46Y46*%
G04 Gerber Fmt 4.6, Leading zero omitted, Abs format (unit mm)*
G04 Created by KiCad (PCBNEW (5.0.1)-3) date 12/21/2019 11:02:08 AM*
%MOMM*%
%LPD*%
G01*
G04 APERTURE LIST*
%ADD10C,0.100000*%
G04 APERTURE END LIST*
D10*
G36*
X135010000Y-96395000D02*
X133010000Y-96395000D01*
X133010000Y-94895000D01*
X135010000Y-94895000D01*
X135010000Y-96395000D01*
X135010000Y-96395000D01*
G37*
G36*
X107481630Y-94412299D02*
X107641855Y-94460903D01*
X107789520Y-94539831D01*
X107918949Y-94646051D01*
X108025169Y-94775480D01*
X108104097Y-94923145D01*
X108152701Y-95083370D01*
X108169112Y-95250000D01*
X108152701Y-95416630D01*
X108104097Y-95576855D01*
X108025169Y-95724520D01*
X107918949Y-95853949D01*
X107789520Y-95960169D01*
X107641855Y-96039097D01*
X107481630Y-96087701D01*
X107356752Y-96100000D01*
X107273248Y-96100000D01*
X107148370Y-96087701D01*
X106988145Y-96039097D01*
X106840480Y-95960169D01*
X106711051Y-95853949D01*
X106604831Y-95724520D01*
X106525903Y-95576855D01*
X106477299Y-95416630D01*
X106460888Y-95250000D01*
X106477299Y-95083370D01*
X106525903Y-94923145D01*
X106604831Y-94775480D01*
X106711051Y-94646051D01*
X106840480Y-94539831D01*
X106988145Y-94460903D01*
X107148370Y-94412299D01*
X107273248Y-94400000D01*
X107356752Y-94400000D01*
X107481630Y-94412299D01*
X107481630Y-94412299D01*
G37*
G36*
X104941630Y-94412299D02*
X105101855Y-94460903D01*
X105249520Y-94539831D01*
X105378949Y-94646051D01*
X105485169Y-94775480D01*
X105564097Y-94923145D01*
X105612701Y-95083370D01*
X105629112Y-95250000D01*
X105612701Y-95416630D01*
X105564097Y-95576855D01*
X105485169Y-95724520D01*
X105378949Y-95853949D01*
X105249520Y-95960169D01*
X105101855Y-96039097D01*
X104941630Y-96087701D01*
X104816752Y-96100000D01*
X104733248Y-96100000D01*
X104608370Y-96087701D01*
X104448145Y-96039097D01*
X104300480Y-95960169D01*
X104171051Y-95853949D01*
X104064831Y-95724520D01*
X103985903Y-95576855D01*
X103937299Y-95416630D01*
X103920888Y-95250000D01*
X103937299Y-95083370D01*
X103985903Y-94923145D01*
X104064831Y-94775480D01*
X104171051Y-94646051D01*
X104300480Y-94539831D01*
X104448145Y-94460903D01*
X104608370Y-94412299D01*
X104733248Y-94400000D01*
X104816752Y-94400000D01*
X104941630Y-94412299D01*
X104941630Y-94412299D01*
G37*
G36*
X127553992Y-95069076D02*
X127587883Y-95079357D01*
X127619111Y-95096048D01*
X127646485Y-95118515D01*
X127668952Y-95145889D01*
X127685643Y-95177117D01*
X127695924Y-95211008D01*
X127700000Y-95252391D01*
X127700000Y-95852609D01*
X127695924Y-95893992D01*
X127685643Y-95927883D01*
X127668952Y-95959111D01*
X127646485Y-95986485D01*
X127619111Y-96008952D01*
X127587883Y-96025643D01*
X127553992Y-96035924D01*
X127512609Y-96040000D01*
X126487391Y-96040000D01*
X126446008Y-96035924D01*
X126412117Y-96025643D01*
X126380889Y-96008952D01*
X126353515Y-95986485D01*
X126331048Y-95959111D01*
X126314357Y-95927883D01*
X126304076Y-95893992D01*
X126300000Y-95852609D01*
X126300000Y-95252391D01*
X126304076Y-95211008D01*
X126314357Y-95177117D01*
X126331048Y-95145889D01*
X126353515Y-95118515D01*
X126380889Y-95096048D01*
X126412117Y-95079357D01*
X126446008Y-95069076D01*
X126487391Y-95065000D01*
X127512609Y-95065000D01*
X127553992Y-95069076D01*
X127553992Y-95069076D01*
G37*
G36*
X130093992Y-95069076D02*
X130127883Y-95079357D01*
X130159111Y-95096048D01*
X130186485Y-95118515D01*
X130208952Y-95145889D01*
X130225643Y-95177117D01*
X130235924Y-95211008D01*
X130240000Y-95252391D01*
X130240000Y-95852609D01*
X130235924Y-95893992D01*
X130225643Y-95927883D01*
X130208952Y-95959111D01*
X130186485Y-95986485D01*
X130159111Y-96008952D01*
X130127883Y-96025643D01*
X130093992Y-96035924D01*
X130052609Y-96040000D01*
X129027391Y-96040000D01*
X128986008Y-96035924D01*
X128952117Y-96025643D01*
X128920889Y-96008952D01*
X128893515Y-95986485D01*
X128871048Y-95959111D01*
X128854357Y-95927883D01*
X128844076Y-95893992D01*
X128840000Y-95852609D01*
X128840000Y-95252391D01*
X128844076Y-95211008D01*
X128854357Y-95177117D01*
X128871048Y-95145889D01*
X128893515Y-95118515D01*
X128920889Y-95096048D01*
X128952117Y-95079357D01*
X128986008Y-95069076D01*
X129027391Y-95065000D01*
X130052609Y-95065000D01*
X130093992Y-95069076D01*
X130093992Y-95069076D01*
G37*
G36*
X114610000Y-95660000D02*
X112510000Y-95660000D01*
X112510000Y-94260000D01*
X114610000Y-94260000D01*
X114610000Y-95660000D01*
X114610000Y-95660000D01*
G37*
G36*
X123710000Y-95660000D02*
X121610000Y-95660000D01*
X121610000Y-94260000D01*
X123710000Y-94260000D01*
X123710000Y-95660000D01*
X123710000Y-95660000D01*
G37*
G36*
X141310000Y-95245000D02*
X139310000Y-95245000D01*
X139310000Y-91445000D01*
X141310000Y-91445000D01*
X141310000Y-95245000D01*
X141310000Y-95245000D01*
G37*
G36*
X130093992Y-93194076D02*
X130127883Y-93204357D01*
X130159111Y-93221048D01*
X130186485Y-93243515D01*
X130208952Y-93270889D01*
X130225643Y-93302117D01*
X130235924Y-93336008D01*
X130240000Y-93377391D01*
X130240000Y-93977609D01*
X130235924Y-94018992D01*
X130225643Y-94052883D01*
X130208952Y-94084111D01*
X130186485Y-94111485D01*
X130159111Y-94133952D01*
X130127883Y-94150643D01*
X130093992Y-94160924D01*
X130052609Y-94165000D01*
X129027391Y-94165000D01*
X128986008Y-94160924D01*
X128952117Y-94150643D01*
X128920889Y-94133952D01*
X128893515Y-94111485D01*
X128871048Y-94084111D01*
X128854357Y-94052883D01*
X128844076Y-94018992D01*
X128840000Y-93977609D01*
X128840000Y-93377391D01*
X128844076Y-93336008D01*
X128854357Y-93302117D01*
X128871048Y-93270889D01*
X128893515Y-93243515D01*
X128920889Y-93221048D01*
X128952117Y-93204357D01*
X128986008Y-93194076D01*
X129027391Y-93190000D01*
X130052609Y-93190000D01*
X130093992Y-93194076D01*
X130093992Y-93194076D01*
G37*
G36*
X127553992Y-93194076D02*
X127587883Y-93204357D01*
X127619111Y-93221048D01*
X127646485Y-93243515D01*
X127668952Y-93270889D01*
X127685643Y-93302117D01*
X127695924Y-93336008D01*
X127700000Y-93377391D01*
X127700000Y-93977609D01*
X127695924Y-94018992D01*
X127685643Y-94052883D01*
X127668952Y-94084111D01*
X127646485Y-94111485D01*
X127619111Y-94133952D01*
X127587883Y-94150643D01*
X127553992Y-94160924D01*
X127512609Y-94165000D01*
X126487391Y-94165000D01*
X126446008Y-94160924D01*
X126412117Y-94150643D01*
X126380889Y-94133952D01*
X126353515Y-94111485D01*
X126331048Y-94084111D01*
X126314357Y-94052883D01*
X126304076Y-94018992D01*
X126300000Y-93977609D01*
X126300000Y-93377391D01*
X126304076Y-93336008D01*
X126314357Y-93302117D01*
X126331048Y-93270889D01*
X126353515Y-93243515D01*
X126380889Y-93221048D01*
X126412117Y-93204357D01*
X126446008Y-93194076D01*
X126487391Y-93190000D01*
X127512609Y-93190000D01*
X127553992Y-93194076D01*
X127553992Y-93194076D01*
G37*
G36*
X135010000Y-94095000D02*
X133010000Y-94095000D01*
X133010000Y-92595000D01*
X135010000Y-92595000D01*
X135010000Y-94095000D01*
X135010000Y-94095000D01*
G37*
G36*
X104941630Y-91872299D02*
X105101855Y-91920903D01*
X105249520Y-91999831D01*
X105378949Y-92106051D01*
X105485169Y-92235480D01*
X105564097Y-92383145D01*
X105612701Y-92543370D01*
X105629112Y-92710000D01*
X105612701Y-92876630D01*
X105564097Y-93036855D01*
X105485169Y-93184520D01*
X105378949Y-93313949D01*
X105249520Y-93420169D01*
X105101855Y-93499097D01*
X104941630Y-93547701D01*
X104816752Y-93560000D01*
X104733248Y-93560000D01*
X104608370Y-93547701D01*
X104448145Y-93499097D01*
X104300480Y-93420169D01*
X104171051Y-93313949D01*
X104064831Y-93184520D01*
X103985903Y-93036855D01*
X103937299Y-92876630D01*
X103920888Y-92710000D01*
X103937299Y-92543370D01*
X103985903Y-92383145D01*
X104064831Y-92235480D01*
X104171051Y-92106051D01*
X104300480Y-91999831D01*
X104448145Y-91920903D01*
X104608370Y-91872299D01*
X104733248Y-91860000D01*
X104816752Y-91860000D01*
X104941630Y-91872299D01*
X104941630Y-91872299D01*
G37*
G36*
X107481630Y-91872299D02*
X107641855Y-91920903D01*
X107789520Y-91999831D01*
X107918949Y-92106051D01*
X108025169Y-92235480D01*
X108104097Y-92383145D01*
X108152701Y-92543370D01*
X108169112Y-92710000D01*
X108152701Y-92876630D01*
X108104097Y-93036855D01*
X108025169Y-93184520D01*
X107918949Y-93313949D01*
X107789520Y-93420169D01*
X107641855Y-93499097D01*
X107481630Y-93547701D01*
X107356752Y-93560000D01*
X107273248Y-93560000D01*
X107148370Y-93547701D01*
X106988145Y-93499097D01*
X106840480Y-93420169D01*
X106711051Y-93313949D01*
X106604831Y-93184520D01*
X106525903Y-93036855D01*
X106477299Y-92876630D01*
X106460888Y-92710000D01*
X106477299Y-92543370D01*
X106525903Y-92383145D01*
X106604831Y-92235480D01*
X106711051Y-92106051D01*
X106840480Y-91999831D01*
X106988145Y-91920903D01*
X107148370Y-91872299D01*
X107273248Y-91860000D01*
X107356752Y-91860000D01*
X107481630Y-91872299D01*
X107481630Y-91872299D01*
G37*
G36*
X135010000Y-91795000D02*
X133010000Y-91795000D01*
X133010000Y-90295000D01*
X135010000Y-90295000D01*
X135010000Y-91795000D01*
X135010000Y-91795000D01*
G37*
G36*
X114610000Y-91160000D02*
X112510000Y-91160000D01*
X112510000Y-89760000D01*
X114610000Y-89760000D01*
X114610000Y-91160000D01*
X114610000Y-91160000D01*
G37*
G36*
X123710000Y-91160000D02*
X121610000Y-91160000D01*
X121610000Y-89760000D01*
X123710000Y-89760000D01*
X123710000Y-91160000D01*
X123710000Y-91160000D01*
G37*
G36*
X99226630Y-89332299D02*
X99386855Y-89380903D01*
X99534520Y-89459831D01*
X99663949Y-89566051D01*
X99770169Y-89695480D01*
X99849097Y-89843145D01*
X99897701Y-90003370D01*
X99914112Y-90170000D01*
X99897701Y-90336630D01*
X99849097Y-90496855D01*
X99770169Y-90644520D01*
X99663949Y-90773949D01*
X99534520Y-90880169D01*
X99386855Y-90959097D01*
X99226630Y-91007701D01*
X99101752Y-91020000D01*
X99018248Y-91020000D01*
X98893370Y-91007701D01*
X98733145Y-90959097D01*
X98585480Y-90880169D01*
X98456051Y-90773949D01*
X98349831Y-90644520D01*
X98270903Y-90496855D01*
X98222299Y-90336630D01*
X98205888Y-90170000D01*
X98222299Y-90003370D01*
X98270903Y-89843145D01*
X98349831Y-89695480D01*
X98456051Y-89566051D01*
X98585480Y-89459831D01*
X98733145Y-89380903D01*
X98893370Y-89332299D01*
X99018248Y-89320000D01*
X99101752Y-89320000D01*
X99226630Y-89332299D01*
X99226630Y-89332299D01*
G37*
G36*
X146216630Y-89332299D02*
X146376855Y-89380903D01*
X146524520Y-89459831D01*
X146653949Y-89566051D01*
X146760169Y-89695480D01*
X146839097Y-89843145D01*
X146887701Y-90003370D01*
X146904112Y-90170000D01*
X146887701Y-90336630D01*
X146839097Y-90496855D01*
X146760169Y-90644520D01*
X146653949Y-90773949D01*
X146524520Y-90880169D01*
X146376855Y-90959097D01*
X146216630Y-91007701D01*
X146091752Y-91020000D01*
X146008248Y-91020000D01*
X145883370Y-91007701D01*
X145723145Y-90959097D01*
X145575480Y-90880169D01*
X145446051Y-90773949D01*
X145339831Y-90644520D01*
X145260903Y-90496855D01*
X145212299Y-90336630D01*
X145195888Y-90170000D01*
X145212299Y-90003370D01*
X145260903Y-89843145D01*
X145339831Y-89695480D01*
X145446051Y-89566051D01*
X145575480Y-89459831D01*
X145723145Y-89380903D01*
X145883370Y-89332299D01*
X146008248Y-89320000D01*
X146091752Y-89320000D01*
X146216630Y-89332299D01*
X146216630Y-89332299D01*
G37*
G36*
X107481630Y-89332299D02*
X107641855Y-89380903D01*
X107789520Y-89459831D01*
X107918949Y-89566051D01*
X108025169Y-89695480D01*
X108104097Y-89843145D01*
X108152701Y-90003370D01*
X108169112Y-90170000D01*
X108152701Y-90336630D01*
X108104097Y-90496855D01*
X108025169Y-90644520D01*
X107918949Y-90773949D01*
X107789520Y-90880169D01*
X107641855Y-90959097D01*
X107481630Y-91007701D01*
X107356752Y-91020000D01*
X107273248Y-91020000D01*
X107148370Y-91007701D01*
X106988145Y-90959097D01*
X106840480Y-90880169D01*
X106711051Y-90773949D01*
X106604831Y-90644520D01*
X106525903Y-90496855D01*
X106477299Y-90336630D01*
X106460888Y-90170000D01*
X106477299Y-90003370D01*
X106525903Y-89843145D01*
X106604831Y-89695480D01*
X106711051Y-89566051D01*
X106840480Y-89459831D01*
X106988145Y-89380903D01*
X107148370Y-89332299D01*
X107273248Y-89320000D01*
X107356752Y-89320000D01*
X107481630Y-89332299D01*
X107481630Y-89332299D01*
G37*
G36*
X105625000Y-91020000D02*
X103925000Y-91020000D01*
X103925000Y-89320000D01*
X105625000Y-89320000D01*
X105625000Y-91020000D01*
X105625000Y-91020000D01*
G37*
G36*
X127311492Y-88839076D02*
X127345383Y-88849357D01*
X127376611Y-88866048D01*
X127403985Y-88888515D01*
X127426452Y-88915889D01*
X127443143Y-88947117D01*
X127453424Y-88981008D01*
X127457500Y-89022391D01*
X127457500Y-90047609D01*
X127453424Y-90088992D01*
X127443143Y-90122883D01*
X127426452Y-90154111D01*
X127403985Y-90181485D01*
X127376611Y-90203952D01*
X127345383Y-90220643D01*
X127311492Y-90230924D01*
X127270109Y-90235000D01*
X126669891Y-90235000D01*
X126628508Y-90230924D01*
X126594617Y-90220643D01*
X126563389Y-90203952D01*
X126536015Y-90181485D01*
X126513548Y-90154111D01*
X126496857Y-90122883D01*
X126486576Y-90088992D01*
X126482500Y-90047609D01*
X126482500Y-89022391D01*
X126486576Y-88981008D01*
X126496857Y-88947117D01*
X126513548Y-88915889D01*
X126536015Y-88888515D01*
X126563389Y-88866048D01*
X126594617Y-88849357D01*
X126628508Y-88839076D01*
X126669891Y-88835000D01*
X127270109Y-88835000D01*
X127311492Y-88839076D01*
X127311492Y-88839076D01*
G37*
G36*
X125436492Y-88839076D02*
X125470383Y-88849357D01*
X125501611Y-88866048D01*
X125528985Y-88888515D01*
X125551452Y-88915889D01*
X125568143Y-88947117D01*
X125578424Y-88981008D01*
X125582500Y-89022391D01*
X125582500Y-90047609D01*
X125578424Y-90088992D01*
X125568143Y-90122883D01*
X125551452Y-90154111D01*
X125528985Y-90181485D01*
X125501611Y-90203952D01*
X125470383Y-90220643D01*
X125436492Y-90230924D01*
X125395109Y-90235000D01*
X124794891Y-90235000D01*
X124753508Y-90230924D01*
X124719617Y-90220643D01*
X124688389Y-90203952D01*
X124661015Y-90181485D01*
X124638548Y-90154111D01*
X124621857Y-90122883D01*
X124611576Y-90088992D01*
X124607500Y-90047609D01*
X124607500Y-89022391D01*
X124611576Y-88981008D01*
X124621857Y-88947117D01*
X124638548Y-88915889D01*
X124661015Y-88888515D01*
X124688389Y-88866048D01*
X124719617Y-88849357D01*
X124753508Y-88839076D01*
X124794891Y-88835000D01*
X125395109Y-88835000D01*
X125436492Y-88839076D01*
X125436492Y-88839076D01*
G37*
G36*
X142154024Y-88408955D02*
X142186736Y-88418879D01*
X142216890Y-88434997D01*
X142243316Y-88456684D01*
X142265003Y-88483110D01*
X142281121Y-88513264D01*
X142291045Y-88545976D01*
X142295000Y-88586138D01*
X142295000Y-89473862D01*
X142291045Y-89514024D01*
X142281121Y-89546736D01*
X142265003Y-89576890D01*
X142243316Y-89603316D01*
X142216890Y-89625003D01*
X142186736Y-89641121D01*
X142154024Y-89651045D01*
X142113862Y-89655000D01*
X139826138Y-89655000D01*
X139785976Y-89651045D01*
X139753264Y-89641121D01*
X139723110Y-89625003D01*
X139696684Y-89603316D01*
X139674997Y-89576890D01*
X139658879Y-89546736D01*
X139648955Y-89514024D01*
X139645000Y-89473862D01*
X139645000Y-88586138D01*
X139648955Y-88545976D01*
X139658879Y-88513264D01*
X139674997Y-88483110D01*
X139696684Y-88456684D01*
X139723110Y-88434997D01*
X139753264Y-88418879D01*
X139785976Y-88408955D01*
X139826138Y-88405000D01*
X142113862Y-88405000D01*
X142154024Y-88408955D01*
X142154024Y-88408955D01*
G37*
G36*
X99226630Y-86792299D02*
X99386855Y-86840903D01*
X99534520Y-86919831D01*
X99663949Y-87026051D01*
X99770169Y-87155480D01*
X99849097Y-87303145D01*
X99897701Y-87463370D01*
X99914112Y-87630000D01*
X99897701Y-87796630D01*
X99849097Y-87956855D01*
X99770169Y-88104520D01*
X99663949Y-88233949D01*
X99534520Y-88340169D01*
X99386855Y-88419097D01*
X99226630Y-88467701D01*
X99101752Y-88480000D01*
X99018248Y-88480000D01*
X98893370Y-88467701D01*
X98733145Y-88419097D01*
X98585480Y-88340169D01*
X98456051Y-88233949D01*
X98349831Y-88104520D01*
X98270903Y-87956855D01*
X98222299Y-87796630D01*
X98205888Y-87630000D01*
X98222299Y-87463370D01*
X98270903Y-87303145D01*
X98349831Y-87155480D01*
X98456051Y-87026051D01*
X98585480Y-86919831D01*
X98733145Y-86840903D01*
X98893370Y-86792299D01*
X99018248Y-86780000D01*
X99101752Y-86780000D01*
X99226630Y-86792299D01*
X99226630Y-86792299D01*
G37*
G36*
X146216630Y-86792299D02*
X146376855Y-86840903D01*
X146524520Y-86919831D01*
X146653949Y-87026051D01*
X146760169Y-87155480D01*
X146839097Y-87303145D01*
X146887701Y-87463370D01*
X146904112Y-87630000D01*
X146887701Y-87796630D01*
X146839097Y-87956855D01*
X146760169Y-88104520D01*
X146653949Y-88233949D01*
X146524520Y-88340169D01*
X146376855Y-88419097D01*
X146216630Y-88467701D01*
X146091752Y-88480000D01*
X146008248Y-88480000D01*
X145883370Y-88467701D01*
X145723145Y-88419097D01*
X145575480Y-88340169D01*
X145446051Y-88233949D01*
X145339831Y-88104520D01*
X145260903Y-87956855D01*
X145212299Y-87796630D01*
X145195888Y-87630000D01*
X145212299Y-87463370D01*
X145260903Y-87303145D01*
X145339831Y-87155480D01*
X145446051Y-87026051D01*
X145575480Y-86919831D01*
X145723145Y-86840903D01*
X145883370Y-86792299D01*
X146008248Y-86780000D01*
X146091752Y-86780000D01*
X146216630Y-86792299D01*
X146216630Y-86792299D01*
G37*
G36*
X113625492Y-86934076D02*
X113659383Y-86944357D01*
X113690611Y-86961048D01*
X113717985Y-86983515D01*
X113740452Y-87010889D01*
X113757143Y-87042117D01*
X113767424Y-87076008D01*
X113771500Y-87117391D01*
X113771500Y-88142609D01*
X113767424Y-88183992D01*
X113757143Y-88217883D01*
X113740452Y-88249111D01*
X113717985Y-88276485D01*
X113690611Y-88298952D01*
X113659383Y-88315643D01*
X113625492Y-88325924D01*
X113584109Y-88330000D01*
X112983891Y-88330000D01*
X112942508Y-88325924D01*
X112908617Y-88315643D01*
X112877389Y-88298952D01*
X112850015Y-88276485D01*
X112827548Y-88249111D01*
X112810857Y-88217883D01*
X112800576Y-88183992D01*
X112796500Y-88142609D01*
X112796500Y-87117391D01*
X112800576Y-87076008D01*
X112810857Y-87042117D01*
X112827548Y-87010889D01*
X112850015Y-86983515D01*
X112877389Y-86961048D01*
X112908617Y-86944357D01*
X112942508Y-86934076D01*
X112983891Y-86930000D01*
X113584109Y-86930000D01*
X113625492Y-86934076D01*
X113625492Y-86934076D01*
G37*
G36*
X112071492Y-86934076D02*
X112105383Y-86944357D01*
X112136611Y-86961048D01*
X112163985Y-86983515D01*
X112186452Y-87010889D01*
X112203143Y-87042117D01*
X112213424Y-87076008D01*
X112217500Y-87117391D01*
X112217500Y-88142609D01*
X112213424Y-88183992D01*
X112203143Y-88217883D01*
X112186452Y-88249111D01*
X112163985Y-88276485D01*
X112136611Y-88298952D01*
X112105383Y-88315643D01*
X112071492Y-88325924D01*
X112030109Y-88330000D01*
X111429891Y-88330000D01*
X111388508Y-88325924D01*
X111354617Y-88315643D01*
X111323389Y-88298952D01*
X111296015Y-88276485D01*
X111273548Y-88249111D01*
X111256857Y-88217883D01*
X111246576Y-88183992D01*
X111242500Y-88142609D01*
X111242500Y-87117391D01*
X111246576Y-87076008D01*
X111256857Y-87042117D01*
X111273548Y-87010889D01*
X111296015Y-86983515D01*
X111323389Y-86961048D01*
X111354617Y-86944357D01*
X111388508Y-86934076D01*
X111429891Y-86930000D01*
X112030109Y-86930000D01*
X112071492Y-86934076D01*
X112071492Y-86934076D01*
G37*
G36*
X115500492Y-86934076D02*
X115534383Y-86944357D01*
X115565611Y-86961048D01*
X115592985Y-86983515D01*
X115615452Y-87010889D01*
X115632143Y-87042117D01*
X115642424Y-87076008D01*
X115646500Y-87117391D01*
X115646500Y-88142609D01*
X115642424Y-88183992D01*
X115632143Y-88217883D01*
X115615452Y-88249111D01*
X115592985Y-88276485D01*
X115565611Y-88298952D01*
X115534383Y-88315643D01*
X115500492Y-88325924D01*
X115459109Y-88330000D01*
X114858891Y-88330000D01*
X114817508Y-88325924D01*
X114783617Y-88315643D01*
X114752389Y-88298952D01*
X114725015Y-88276485D01*
X114702548Y-88249111D01*
X114685857Y-88217883D01*
X114675576Y-88183992D01*
X114671500Y-88142609D01*
X114671500Y-87117391D01*
X114675576Y-87076008D01*
X114685857Y-87042117D01*
X114702548Y-87010889D01*
X114725015Y-86983515D01*
X114752389Y-86961048D01*
X114783617Y-86944357D01*
X114817508Y-86934076D01*
X114858891Y-86930000D01*
X115459109Y-86930000D01*
X115500492Y-86934076D01*
X115500492Y-86934076D01*
G37*
G36*
X110196492Y-86934076D02*
X110230383Y-86944357D01*
X110261611Y-86961048D01*
X110288985Y-86983515D01*
X110311452Y-87010889D01*
X110328143Y-87042117D01*
X110338424Y-87076008D01*
X110342500Y-87117391D01*
X110342500Y-88142609D01*
X110338424Y-88183992D01*
X110328143Y-88217883D01*
X110311452Y-88249111D01*
X110288985Y-88276485D01*
X110261611Y-88298952D01*
X110230383Y-88315643D01*
X110196492Y-88325924D01*
X110155109Y-88330000D01*
X109554891Y-88330000D01*
X109513508Y-88325924D01*
X109479617Y-88315643D01*
X109448389Y-88298952D01*
X109421015Y-88276485D01*
X109398548Y-88249111D01*
X109381857Y-88217883D01*
X109371576Y-88183992D01*
X109367500Y-88142609D01*
X109367500Y-87117391D01*
X109371576Y-87076008D01*
X109381857Y-87042117D01*
X109398548Y-87010889D01*
X109421015Y-86983515D01*
X109448389Y-86961048D01*
X109479617Y-86944357D01*
X109513508Y-86934076D01*
X109554891Y-86930000D01*
X110155109Y-86930000D01*
X110196492Y-86934076D01*
X110196492Y-86934076D01*
G37*
G36*
X138879000Y-87722000D02*
X137979000Y-87722000D01*
X137979000Y-86522000D01*
X138879000Y-86522000D01*
X138879000Y-87722000D01*
X138879000Y-87722000D01*
G37*
G36*
X135579000Y-87722000D02*
X134679000Y-87722000D01*
X134679000Y-86522000D01*
X135579000Y-86522000D01*
X135579000Y-87722000D01*
X135579000Y-87722000D01*
G37*
G36*
X126071492Y-86299076D02*
X126105383Y-86309357D01*
X126136611Y-86326048D01*
X126163985Y-86348515D01*
X126186452Y-86375889D01*
X126203143Y-86407117D01*
X126213424Y-86441008D01*
X126217500Y-86482391D01*
X126217500Y-87507609D01*
X126213424Y-87548992D01*
X126203143Y-87582883D01*
X126186452Y-87614111D01*
X126163985Y-87641485D01*
X126136611Y-87663952D01*
X126105383Y-87680643D01*
X126071492Y-87690924D01*
X126030109Y-87695000D01*
X125429891Y-87695000D01*
X125388508Y-87690924D01*
X125354617Y-87680643D01*
X125323389Y-87663952D01*
X125296015Y-87641485D01*
X125273548Y-87614111D01*
X125256857Y-87582883D01*
X125246576Y-87548992D01*
X125242500Y-87507609D01*
X125242500Y-86482391D01*
X125246576Y-86441008D01*
X125256857Y-86407117D01*
X125273548Y-86375889D01*
X125296015Y-86348515D01*
X125323389Y-86326048D01*
X125354617Y-86309357D01*
X125388508Y-86299076D01*
X125429891Y-86295000D01*
X126030109Y-86295000D01*
X126071492Y-86299076D01*
X126071492Y-86299076D01*
G37*
G36*
X124196492Y-86299076D02*
X124230383Y-86309357D01*
X124261611Y-86326048D01*
X124288985Y-86348515D01*
X124311452Y-86375889D01*
X124328143Y-86407117D01*
X124338424Y-86441008D01*
X124342500Y-86482391D01*
X124342500Y-87507609D01*
X124338424Y-87548992D01*
X124328143Y-87582883D01*
X124311452Y-87614111D01*
X124288985Y-87641485D01*
X124261611Y-87663952D01*
X124230383Y-87680643D01*
X124196492Y-87690924D01*
X124155109Y-87695000D01*
X123554891Y-87695000D01*
X123513508Y-87690924D01*
X123479617Y-87680643D01*
X123448389Y-87663952D01*
X123421015Y-87641485D01*
X123398548Y-87614111D01*
X123381857Y-87582883D01*
X123371576Y-87548992D01*
X123367500Y-87507609D01*
X123367500Y-86482391D01*
X123371576Y-86441008D01*
X123381857Y-86407117D01*
X123398548Y-86375889D01*
X123421015Y-86348515D01*
X123448389Y-86326048D01*
X123479617Y-86309357D01*
X123513508Y-86299076D01*
X123554891Y-86295000D01*
X124155109Y-86295000D01*
X124196492Y-86299076D01*
X124196492Y-86299076D01*
G37*
G36*
X122463070Y-86348918D02*
X122495422Y-86358733D01*
X122525244Y-86374672D01*
X122551379Y-86396121D01*
X122572828Y-86422256D01*
X122588767Y-86452078D01*
X122598582Y-86484430D01*
X122602500Y-86524215D01*
X122602500Y-87465785D01*
X122598582Y-87505570D01*
X122588767Y-87537922D01*
X122572828Y-87567744D01*
X122551379Y-87593879D01*
X122525244Y-87615328D01*
X122495422Y-87631267D01*
X122463070Y-87641082D01*
X122423285Y-87645000D01*
X121456715Y-87645000D01*
X121416930Y-87641082D01*
X121384578Y-87631267D01*
X121354756Y-87615328D01*
X121328621Y-87593879D01*
X121307172Y-87567744D01*
X121291233Y-87537922D01*
X121281418Y-87505570D01*
X121277500Y-87465785D01*
X121277500Y-86524215D01*
X121281418Y-86484430D01*
X121291233Y-86452078D01*
X121307172Y-86422256D01*
X121328621Y-86396121D01*
X121354756Y-86374672D01*
X121384578Y-86358733D01*
X121416930Y-86348918D01*
X121456715Y-86345000D01*
X122423285Y-86345000D01*
X122463070Y-86348918D01*
X122463070Y-86348918D01*
G37*
G36*
X120538070Y-86348918D02*
X120570422Y-86358733D01*
X120600244Y-86374672D01*
X120626379Y-86396121D01*
X120647828Y-86422256D01*
X120663767Y-86452078D01*
X120673582Y-86484430D01*
X120677500Y-86524215D01*
X120677500Y-87465785D01*
X120673582Y-87505570D01*
X120663767Y-87537922D01*
X120647828Y-87567744D01*
X120626379Y-87593879D01*
X120600244Y-87615328D01*
X120570422Y-87631267D01*
X120538070Y-87641082D01*
X120498285Y-87645000D01*
X119531715Y-87645000D01*
X119491930Y-87641082D01*
X119459578Y-87631267D01*
X119429756Y-87615328D01*
X119403621Y-87593879D01*
X119382172Y-87567744D01*
X119366233Y-87537922D01*
X119356418Y-87505570D01*
X119352500Y-87465785D01*
X119352500Y-86524215D01*
X119356418Y-86484430D01*
X119366233Y-86452078D01*
X119382172Y-86422256D01*
X119403621Y-86396121D01*
X119429756Y-86374672D01*
X119459578Y-86358733D01*
X119491930Y-86348918D01*
X119531715Y-86345000D01*
X120498285Y-86345000D01*
X120538070Y-86348918D01*
X120538070Y-86348918D01*
G37*
G36*
X142154024Y-85608955D02*
X142186736Y-85618879D01*
X142216890Y-85634997D01*
X142243316Y-85656684D01*
X142265003Y-85683110D01*
X142281121Y-85713264D01*
X142291045Y-85745976D01*
X142295000Y-85786138D01*
X142295000Y-86673862D01*
X142291045Y-86714024D01*
X142281121Y-86746736D01*
X142265003Y-86776890D01*
X142243316Y-86803316D01*
X142216890Y-86825003D01*
X142186736Y-86841121D01*
X142154024Y-86851045D01*
X142113862Y-86855000D01*
X139826138Y-86855000D01*
X139785976Y-86851045D01*
X139753264Y-86841121D01*
X139723110Y-86825003D01*
X139696684Y-86803316D01*
X139674997Y-86776890D01*
X139658879Y-86746736D01*
X139648955Y-86714024D01*
X139645000Y-86673862D01*
X139645000Y-85786138D01*
X139648955Y-85745976D01*
X139658879Y-85713264D01*
X139674997Y-85683110D01*
X139696684Y-85656684D01*
X139723110Y-85634997D01*
X139753264Y-85618879D01*
X139785976Y-85608955D01*
X139826138Y-85605000D01*
X142113862Y-85605000D01*
X142154024Y-85608955D01*
X142154024Y-85608955D01*
G37*
G36*
X106594024Y-84728955D02*
X106626736Y-84738879D01*
X106656890Y-84754997D01*
X106683316Y-84776684D01*
X106705003Y-84803110D01*
X106721121Y-84833264D01*
X106731045Y-84865976D01*
X106735000Y-84906138D01*
X106735000Y-85793862D01*
X106731045Y-85834024D01*
X106721121Y-85866736D01*
X106705003Y-85896890D01*
X106683316Y-85923316D01*
X106656890Y-85945003D01*
X106626736Y-85961121D01*
X106594024Y-85971045D01*
X106553862Y-85975000D01*
X104266138Y-85975000D01*
X104225976Y-85971045D01*
X104193264Y-85961121D01*
X104163110Y-85945003D01*
X104136684Y-85923316D01*
X104114997Y-85896890D01*
X104098879Y-85866736D01*
X104088955Y-85834024D01*
X104085000Y-85793862D01*
X104085000Y-84906138D01*
X104088955Y-84865976D01*
X104098879Y-84833264D01*
X104114997Y-84803110D01*
X104136684Y-84776684D01*
X104163110Y-84754997D01*
X104193264Y-84738879D01*
X104225976Y-84728955D01*
X104266138Y-84725000D01*
X106553862Y-84725000D01*
X106594024Y-84728955D01*
X106594024Y-84728955D01*
G37*
G36*
X110404024Y-84728955D02*
X110436736Y-84738879D01*
X110466890Y-84754997D01*
X110493316Y-84776684D01*
X110515003Y-84803110D01*
X110531121Y-84833264D01*
X110541045Y-84865976D01*
X110545000Y-84906138D01*
X110545000Y-85793862D01*
X110541045Y-85834024D01*
X110531121Y-85866736D01*
X110515003Y-85896890D01*
X110493316Y-85923316D01*
X110466890Y-85945003D01*
X110436736Y-85961121D01*
X110404024Y-85971045D01*
X110363862Y-85975000D01*
X108076138Y-85975000D01*
X108035976Y-85971045D01*
X108003264Y-85961121D01*
X107973110Y-85945003D01*
X107946684Y-85923316D01*
X107924997Y-85896890D01*
X107908879Y-85866736D01*
X107898955Y-85834024D01*
X107895000Y-85793862D01*
X107895000Y-84906138D01*
X107898955Y-84865976D01*
X107908879Y-84833264D01*
X107924997Y-84803110D01*
X107946684Y-84776684D01*
X107973110Y-84754997D01*
X108003264Y-84738879D01*
X108035976Y-84728955D01*
X108076138Y-84725000D01*
X110363862Y-84725000D01*
X110404024Y-84728955D01*
X110404024Y-84728955D01*
G37*
G36*
X99226630Y-84252299D02*
X99386855Y-84300903D01*
X99534520Y-84379831D01*
X99663949Y-84486051D01*
X99770169Y-84615480D01*
X99849097Y-84763145D01*
X99897701Y-84923370D01*
X99914112Y-85090000D01*
X99897701Y-85256630D01*
X99849097Y-85416855D01*
X99770169Y-85564520D01*
X99663949Y-85693949D01*
X99534520Y-85800169D01*
X99386855Y-85879097D01*
X99226630Y-85927701D01*
X99101752Y-85940000D01*
X99018248Y-85940000D01*
X98893370Y-85927701D01*
X98733145Y-85879097D01*
X98585480Y-85800169D01*
X98456051Y-85693949D01*
X98349831Y-85564520D01*
X98270903Y-85416855D01*
X98222299Y-85256630D01*
X98205888Y-85090000D01*
X98222299Y-84923370D01*
X98270903Y-84763145D01*
X98349831Y-84615480D01*
X98456051Y-84486051D01*
X98585480Y-84379831D01*
X98733145Y-84300903D01*
X98893370Y-84252299D01*
X99018248Y-84240000D01*
X99101752Y-84240000D01*
X99226630Y-84252299D01*
X99226630Y-84252299D01*
G37*
G36*
X146216630Y-84252299D02*
X146376855Y-84300903D01*
X146524520Y-84379831D01*
X146653949Y-84486051D01*
X146760169Y-84615480D01*
X146839097Y-84763145D01*
X146887701Y-84923370D01*
X146904112Y-85090000D01*
X146887701Y-85256630D01*
X146839097Y-85416855D01*
X146760169Y-85564520D01*
X146653949Y-85693949D01*
X146524520Y-85800169D01*
X146376855Y-85879097D01*
X146216630Y-85927701D01*
X146091752Y-85940000D01*
X146008248Y-85940000D01*
X145883370Y-85927701D01*
X145723145Y-85879097D01*
X145575480Y-85800169D01*
X145446051Y-85693949D01*
X145339831Y-85564520D01*
X145260903Y-85416855D01*
X145212299Y-85256630D01*
X145195888Y-85090000D01*
X145212299Y-84923370D01*
X145260903Y-84763145D01*
X145339831Y-84615480D01*
X145446051Y-84486051D01*
X145575480Y-84379831D01*
X145723145Y-84300903D01*
X145883370Y-84252299D01*
X146008248Y-84240000D01*
X146091752Y-84240000D01*
X146216630Y-84252299D01*
X146216630Y-84252299D01*
G37*
G36*
X115964404Y-84787171D02*
X115992682Y-84795749D01*
X116018739Y-84809676D01*
X116041579Y-84828421D01*
X116060323Y-84851260D01*
X116074252Y-84877320D01*
X116082829Y-84905595D01*
X116085000Y-84927638D01*
X116085000Y-85442362D01*
X116082829Y-85464405D01*
X116074252Y-85492680D01*
X116060323Y-85518740D01*
X116041579Y-85541579D01*
X116018740Y-85560323D01*
X115992680Y-85574252D01*
X115964405Y-85582829D01*
X115935000Y-85585725D01*
X115905596Y-85582829D01*
X115877321Y-85574252D01*
X115851261Y-85560323D01*
X115828422Y-85541579D01*
X115809680Y-85518742D01*
X115807579Y-85514812D01*
X115795749Y-85492680D01*
X115795748Y-85492677D01*
X115795242Y-85491730D01*
X115781628Y-85471356D01*
X115764301Y-85454028D01*
X115743926Y-85440414D01*
X115721287Y-85431037D01*
X115697254Y-85426256D01*
X115672750Y-85426256D01*
X115648716Y-85431036D01*
X115626077Y-85440413D01*
X115605703Y-85454027D01*
X115588375Y-85471354D01*
X115574762Y-85491728D01*
X115560324Y-85518738D01*
X115541579Y-85541579D01*
X115518740Y-85560323D01*
X115492680Y-85574252D01*
X115464405Y-85582829D01*
X115435000Y-85585725D01*
X115405596Y-85582829D01*
X115377321Y-85574252D01*
X115351261Y-85560323D01*
X115328422Y-85541579D01*
X115309680Y-85518742D01*
X115307579Y-85514812D01*
X115295749Y-85492680D01*
X115295748Y-85492677D01*
X115295242Y-85491730D01*
X115281628Y-85471356D01*
X115264301Y-85454028D01*
X115243926Y-85440414D01*
X115221287Y-85431037D01*
X115197254Y-85426256D01*
X115172750Y-85426256D01*
X115148716Y-85431036D01*
X115126077Y-85440413D01*
X115105703Y-85454027D01*
X115088375Y-85471354D01*
X115074762Y-85491728D01*
X115060324Y-85518738D01*
X115041579Y-85541579D01*
X115018740Y-85560323D01*
X114992680Y-85574252D01*
X114964405Y-85582829D01*
X114935000Y-85585725D01*
X114905596Y-85582829D01*
X114877321Y-85574252D01*
X114851261Y-85560323D01*
X114828422Y-85541579D01*
X114809680Y-85518742D01*
X114807579Y-85514812D01*
X114795749Y-85492680D01*
X114795748Y-85492677D01*
X114795242Y-85491730D01*
X114781628Y-85471356D01*
X114764301Y-85454028D01*
X114743926Y-85440414D01*
X114721287Y-85431037D01*
X114697254Y-85426256D01*
X114672750Y-85426256D01*
X114648716Y-85431036D01*
X114626077Y-85440413D01*
X114605703Y-85454027D01*
X114588375Y-85471354D01*
X114574762Y-85491728D01*
X114560324Y-85518738D01*
X114541579Y-85541579D01*
X114518740Y-85560323D01*
X114492680Y-85574252D01*
X114464405Y-85582829D01*
X114435000Y-85585725D01*
X114405596Y-85582829D01*
X114377321Y-85574252D01*
X114351261Y-85560323D01*
X114328422Y-85541579D01*
X114309680Y-85518742D01*
X114307579Y-85514812D01*
X114295749Y-85492680D01*
X114295748Y-85492677D01*
X114295242Y-85491730D01*
X114281628Y-85471356D01*
X114264301Y-85454028D01*
X114243926Y-85440414D01*
X114221287Y-85431037D01*
X114197254Y-85426256D01*
X114172750Y-85426256D01*
X114148716Y-85431036D01*
X114126077Y-85440413D01*
X114105703Y-85454027D01*
X114088375Y-85471354D01*
X114074762Y-85491728D01*
X114060324Y-85518738D01*
X114041579Y-85541579D01*
X114018740Y-85560323D01*
X113992680Y-85574252D01*
X113964405Y-85582829D01*
X113935000Y-85585725D01*
X113905596Y-85582829D01*
X113877321Y-85574252D01*
X113851261Y-85560323D01*
X113828422Y-85541579D01*
X113809678Y-85518740D01*
X113795749Y-85492680D01*
X113787172Y-85464405D01*
X113785001Y-85442362D01*
X113785000Y-84927639D01*
X113787171Y-84905596D01*
X113795749Y-84877318D01*
X113809676Y-84851261D01*
X113828421Y-84828421D01*
X113851260Y-84809677D01*
X113877320Y-84795748D01*
X113905595Y-84787171D01*
X113935000Y-84784275D01*
X113964404Y-84787171D01*
X113992682Y-84795749D01*
X114018739Y-84809676D01*
X114041579Y-84828421D01*
X114060323Y-84851260D01*
X114074760Y-84878270D01*
X114088374Y-84898645D01*
X114105701Y-84915972D01*
X114126076Y-84929585D01*
X114148715Y-84938963D01*
X114172748Y-84943743D01*
X114197253Y-84943743D01*
X114221286Y-84938962D01*
X114243925Y-84929585D01*
X114264300Y-84915971D01*
X114281627Y-84898644D01*
X114295240Y-84878270D01*
X114309677Y-84851260D01*
X114328421Y-84828421D01*
X114351260Y-84809677D01*
X114377320Y-84795748D01*
X114405595Y-84787171D01*
X114435000Y-84784275D01*
X114464404Y-84787171D01*
X114492682Y-84795749D01*
X114518739Y-84809676D01*
X114541579Y-84828421D01*
X114560323Y-84851260D01*
X114574760Y-84878270D01*
X114588374Y-84898645D01*
X114605701Y-84915972D01*
X114626076Y-84929585D01*
X114648715Y-84938963D01*
X114672748Y-84943743D01*
X114697253Y-84943743D01*
X114721286Y-84938962D01*
X114743925Y-84929585D01*
X114764300Y-84915971D01*
X114781627Y-84898644D01*
X114795240Y-84878270D01*
X114809677Y-84851260D01*
X114828421Y-84828421D01*
X114851260Y-84809677D01*
X114877320Y-84795748D01*
X114905595Y-84787171D01*
X114935000Y-84784275D01*
X114964404Y-84787171D01*
X114992682Y-84795749D01*
X115018739Y-84809676D01*
X115041579Y-84828421D01*
X115060323Y-84851260D01*
X115074760Y-84878270D01*
X115088374Y-84898645D01*
X115105701Y-84915972D01*
X115126076Y-84929585D01*
X115148715Y-84938963D01*
X115172748Y-84943743D01*
X115197253Y-84943743D01*
X115221286Y-84938962D01*
X115243925Y-84929585D01*
X115264300Y-84915971D01*
X115281627Y-84898644D01*
X115295240Y-84878270D01*
X115309677Y-84851260D01*
X115328421Y-84828421D01*
X115351260Y-84809677D01*
X115377320Y-84795748D01*
X115405595Y-84787171D01*
X115435000Y-84784275D01*
X115464404Y-84787171D01*
X115492682Y-84795749D01*
X115518739Y-84809676D01*
X115541579Y-84828421D01*
X115560323Y-84851260D01*
X115574760Y-84878270D01*
X115588374Y-84898645D01*
X115605701Y-84915972D01*
X115626076Y-84929585D01*
X115648715Y-84938963D01*
X115672748Y-84943743D01*
X115697253Y-84943743D01*
X115721286Y-84938962D01*
X115743925Y-84929585D01*
X115764300Y-84915971D01*
X115781627Y-84898644D01*
X115795240Y-84878270D01*
X115809677Y-84851260D01*
X115828421Y-84828421D01*
X115851260Y-84809677D01*
X115877320Y-84795748D01*
X115905595Y-84787171D01*
X115935000Y-84784275D01*
X115964404Y-84787171D01*
X115964404Y-84787171D01*
G37*
G36*
X135010000Y-84965000D02*
X133010000Y-84965000D01*
X133010000Y-83465000D01*
X135010000Y-83465000D01*
X135010000Y-84965000D01*
X135010000Y-84965000D01*
G37*
G36*
X122187002Y-83508884D02*
X122219023Y-83518598D01*
X122248535Y-83534372D01*
X122274401Y-83555599D01*
X122295628Y-83581465D01*
X122311402Y-83610977D01*
X122321116Y-83642998D01*
X122325000Y-83682436D01*
X122325000Y-84677564D01*
X122321116Y-84717002D01*
X122311402Y-84749023D01*
X122295628Y-84778535D01*
X122274401Y-84804401D01*
X122248535Y-84825628D01*
X122219023Y-84841402D01*
X122187002Y-84851116D01*
X122147564Y-84855000D01*
X119152436Y-84855000D01*
X119112998Y-84851116D01*
X119080977Y-84841402D01*
X119051465Y-84825628D01*
X119025599Y-84804401D01*
X119004372Y-84778535D01*
X118988598Y-84749023D01*
X118978884Y-84717002D01*
X118975000Y-84677564D01*
X118975000Y-83682436D01*
X118978884Y-83642998D01*
X118988598Y-83610977D01*
X119004372Y-83581465D01*
X119025599Y-83555599D01*
X119051465Y-83534372D01*
X119080977Y-83518598D01*
X119112998Y-83508884D01*
X119152436Y-83505000D01*
X122147564Y-83505000D01*
X122187002Y-83508884D01*
X122187002Y-83508884D01*
G37*
G36*
X113214405Y-82037171D02*
X113242680Y-82045748D01*
X113268740Y-82059677D01*
X113291579Y-82078421D01*
X113310323Y-82101260D01*
X113324252Y-82127320D01*
X113332829Y-82155595D01*
X113335725Y-82185000D01*
X113332829Y-82214405D01*
X113324252Y-82242680D01*
X113310323Y-82268740D01*
X113291579Y-82291579D01*
X113268740Y-82310323D01*
X113241730Y-82324760D01*
X113221355Y-82338374D01*
X113204028Y-82355701D01*
X113190415Y-82376076D01*
X113181037Y-82398715D01*
X113176257Y-82422748D01*
X113176257Y-82447253D01*
X113181038Y-82471286D01*
X113190415Y-82493925D01*
X113204029Y-82514300D01*
X113221356Y-82531627D01*
X113241730Y-82545240D01*
X113268740Y-82559677D01*
X113291579Y-82578421D01*
X113310323Y-82601260D01*
X113324252Y-82627320D01*
X113332829Y-82655595D01*
X113335725Y-82685000D01*
X113332829Y-82714405D01*
X113324252Y-82742680D01*
X113310323Y-82768740D01*
X113291579Y-82791579D01*
X113268740Y-82810323D01*
X113241730Y-82824760D01*
X113221355Y-82838374D01*
X113204028Y-82855701D01*
X113190415Y-82876076D01*
X113181037Y-82898715D01*
X113176257Y-82922748D01*
X113176257Y-82947253D01*
X113181038Y-82971286D01*
X113190415Y-82993925D01*
X113204029Y-83014300D01*
X113221356Y-83031627D01*
X113241730Y-83045240D01*
X113268740Y-83059677D01*
X113291579Y-83078421D01*
X113310323Y-83101260D01*
X113324252Y-83127320D01*
X113332829Y-83155595D01*
X113335725Y-83185000D01*
X113332829Y-83214405D01*
X113324252Y-83242680D01*
X113310323Y-83268740D01*
X113291579Y-83291579D01*
X113268740Y-83310323D01*
X113241730Y-83324760D01*
X113221355Y-83338374D01*
X113204028Y-83355701D01*
X113190415Y-83376076D01*
X113181037Y-83398715D01*
X113176257Y-83422748D01*
X113176257Y-83447253D01*
X113181038Y-83471286D01*
X113190415Y-83493925D01*
X113204029Y-83514300D01*
X113221356Y-83531627D01*
X113241730Y-83545240D01*
X113268740Y-83559677D01*
X113291579Y-83578421D01*
X113310323Y-83601260D01*
X113324252Y-83627320D01*
X113332829Y-83655595D01*
X113335725Y-83685000D01*
X113332829Y-83714405D01*
X113324252Y-83742680D01*
X113310323Y-83768740D01*
X113291579Y-83791579D01*
X113268740Y-83810323D01*
X113241730Y-83824760D01*
X113221355Y-83838374D01*
X113204028Y-83855701D01*
X113190415Y-83876076D01*
X113181037Y-83898715D01*
X113176257Y-83922748D01*
X113176257Y-83947253D01*
X113181038Y-83971286D01*
X113190415Y-83993925D01*
X113204029Y-84014300D01*
X113221356Y-84031627D01*
X113241730Y-84045240D01*
X113268740Y-84059677D01*
X113291579Y-84078421D01*
X113310323Y-84101260D01*
X113324252Y-84127320D01*
X113332829Y-84155595D01*
X113335725Y-84185000D01*
X113332829Y-84214405D01*
X113324252Y-84242680D01*
X113310323Y-84268740D01*
X113291579Y-84291579D01*
X113268740Y-84310323D01*
X113242680Y-84324252D01*
X113214405Y-84332829D01*
X113192362Y-84335000D01*
X112677638Y-84335000D01*
X112655595Y-84332829D01*
X112627320Y-84324252D01*
X112601260Y-84310323D01*
X112578421Y-84291579D01*
X112559677Y-84268740D01*
X112545748Y-84242680D01*
X112537171Y-84214405D01*
X112534275Y-84185000D01*
X112537171Y-84155595D01*
X112545748Y-84127320D01*
X112559677Y-84101260D01*
X112578421Y-84078421D01*
X112601260Y-84059677D01*
X112628270Y-84045240D01*
X112648645Y-84031626D01*
X112665972Y-84014299D01*
X112679585Y-83993924D01*
X112688963Y-83971285D01*
X112693743Y-83947252D01*
X112693743Y-83922747D01*
X112688962Y-83898714D01*
X112679585Y-83876075D01*
X112665971Y-83855700D01*
X112648644Y-83838373D01*
X112628270Y-83824760D01*
X112601260Y-83810323D01*
X112578421Y-83791579D01*
X112559677Y-83768740D01*
X112545748Y-83742680D01*
X112537171Y-83714405D01*
X112534275Y-83685000D01*
X112537171Y-83655595D01*
X112545748Y-83627320D01*
X112559677Y-83601260D01*
X112578421Y-83578421D01*
X112601260Y-83559677D01*
X112628270Y-83545240D01*
X112648645Y-83531626D01*
X112665972Y-83514299D01*
X112679585Y-83493924D01*
X112688963Y-83471285D01*
X112693743Y-83447252D01*
X112693743Y-83422747D01*
X112688962Y-83398714D01*
X112679585Y-83376075D01*
X112665971Y-83355700D01*
X112648644Y-83338373D01*
X112628270Y-83324760D01*
X112601260Y-83310323D01*
X112578421Y-83291579D01*
X112559677Y-83268740D01*
X112545748Y-83242680D01*
X112537171Y-83214405D01*
X112534275Y-83185000D01*
X112537171Y-83155595D01*
X112545748Y-83127320D01*
X112559677Y-83101260D01*
X112578421Y-83078421D01*
X112601260Y-83059677D01*
X112628270Y-83045240D01*
X112648645Y-83031626D01*
X112665972Y-83014299D01*
X112679585Y-82993924D01*
X112688963Y-82971285D01*
X112693743Y-82947252D01*
X112693743Y-82922747D01*
X112688962Y-82898714D01*
X112679585Y-82876075D01*
X112665971Y-82855700D01*
X112648644Y-82838373D01*
X112628270Y-82824760D01*
X112601260Y-82810323D01*
X112578421Y-82791579D01*
X112559677Y-82768740D01*
X112545748Y-82742680D01*
X112537171Y-82714405D01*
X112534275Y-82685000D01*
X112537171Y-82655595D01*
X112545748Y-82627320D01*
X112559677Y-82601260D01*
X112578421Y-82578421D01*
X112601260Y-82559677D01*
X112628270Y-82545240D01*
X112648645Y-82531626D01*
X112665972Y-82514299D01*
X112679585Y-82493924D01*
X112688963Y-82471285D01*
X112693743Y-82447252D01*
X112693743Y-82422747D01*
X112688962Y-82398714D01*
X112679585Y-82376075D01*
X112665971Y-82355700D01*
X112648644Y-82338373D01*
X112628270Y-82324760D01*
X112601260Y-82310323D01*
X112578421Y-82291579D01*
X112559677Y-82268740D01*
X112545748Y-82242680D01*
X112537171Y-82214405D01*
X112534275Y-82185000D01*
X112537171Y-82155595D01*
X112545748Y-82127320D01*
X112559677Y-82101260D01*
X112578421Y-82078421D01*
X112601260Y-82059677D01*
X112627320Y-82045748D01*
X112655595Y-82037171D01*
X112677638Y-82035000D01*
X113192362Y-82035000D01*
X113214405Y-82037171D01*
X113214405Y-82037171D01*
G37*
G36*
X117214405Y-82037171D02*
X117242680Y-82045748D01*
X117268740Y-82059677D01*
X117291579Y-82078421D01*
X117310323Y-82101260D01*
X117324252Y-82127320D01*
X117332829Y-82155595D01*
X117335725Y-82185000D01*
X117332829Y-82214405D01*
X117324252Y-82242680D01*
X117310323Y-82268740D01*
X117291579Y-82291579D01*
X117268740Y-82310323D01*
X117241730Y-82324760D01*
X117221355Y-82338374D01*
X117204028Y-82355701D01*
X117190415Y-82376076D01*
X117181037Y-82398715D01*
X117176257Y-82422748D01*
X117176257Y-82447253D01*
X117181038Y-82471286D01*
X117190415Y-82493925D01*
X117204029Y-82514300D01*
X117221356Y-82531627D01*
X117241730Y-82545240D01*
X117268740Y-82559677D01*
X117291579Y-82578421D01*
X117310323Y-82601260D01*
X117324252Y-82627320D01*
X117332829Y-82655595D01*
X117335725Y-82685000D01*
X117332829Y-82714405D01*
X117324252Y-82742680D01*
X117310323Y-82768740D01*
X117291579Y-82791579D01*
X117268740Y-82810323D01*
X117241730Y-82824760D01*
X117221355Y-82838374D01*
X117204028Y-82855701D01*
X117190415Y-82876076D01*
X117181037Y-82898715D01*
X117176257Y-82922748D01*
X117176257Y-82947253D01*
X117181038Y-82971286D01*
X117190415Y-82993925D01*
X117204029Y-83014300D01*
X117221356Y-83031627D01*
X117241730Y-83045240D01*
X117268740Y-83059677D01*
X117291579Y-83078421D01*
X117310323Y-83101260D01*
X117324252Y-83127320D01*
X117332829Y-83155595D01*
X117335725Y-83185000D01*
X117332829Y-83214405D01*
X117324252Y-83242680D01*
X117310323Y-83268740D01*
X117291579Y-83291579D01*
X117268740Y-83310323D01*
X117241730Y-83324760D01*
X117221355Y-83338374D01*
X117204028Y-83355701D01*
X117190415Y-83376076D01*
X117181037Y-83398715D01*
X117176257Y-83422748D01*
X117176257Y-83447253D01*
X117181038Y-83471286D01*
X117190415Y-83493925D01*
X117204029Y-83514300D01*
X117221356Y-83531627D01*
X117241730Y-83545240D01*
X117268740Y-83559677D01*
X117291579Y-83578421D01*
X117310323Y-83601260D01*
X117324252Y-83627320D01*
X117332829Y-83655595D01*
X117335725Y-83685000D01*
X117332829Y-83714405D01*
X117324252Y-83742680D01*
X117310323Y-83768740D01*
X117291579Y-83791579D01*
X117268740Y-83810323D01*
X117241730Y-83824760D01*
X117221355Y-83838374D01*
X117204028Y-83855701D01*
X117190415Y-83876076D01*
X117181037Y-83898715D01*
X117176257Y-83922748D01*
X117176257Y-83947253D01*
X117181038Y-83971286D01*
X117190415Y-83993925D01*
X117204029Y-84014300D01*
X117221356Y-84031627D01*
X117241730Y-84045240D01*
X117268740Y-84059677D01*
X117291579Y-84078421D01*
X117310323Y-84101260D01*
X117324252Y-84127320D01*
X117332829Y-84155595D01*
X117335725Y-84185000D01*
X117332829Y-84214405D01*
X117324252Y-84242680D01*
X117310323Y-84268740D01*
X117291579Y-84291579D01*
X117268740Y-84310323D01*
X117242680Y-84324252D01*
X117214405Y-84332829D01*
X117192362Y-84335000D01*
X116677638Y-84335000D01*
X116655595Y-84332829D01*
X116627320Y-84324252D01*
X116601260Y-84310323D01*
X116578421Y-84291579D01*
X116559677Y-84268740D01*
X116545748Y-84242680D01*
X116537171Y-84214405D01*
X116534275Y-84185000D01*
X116537171Y-84155595D01*
X116545748Y-84127320D01*
X116559677Y-84101260D01*
X116578421Y-84078421D01*
X116601260Y-84059677D01*
X116628270Y-84045240D01*
X116648645Y-84031626D01*
X116665972Y-84014299D01*
X116679585Y-83993924D01*
X116688963Y-83971285D01*
X116693743Y-83947252D01*
X116693743Y-83922747D01*
X116688962Y-83898714D01*
X116679585Y-83876075D01*
X116665971Y-83855700D01*
X116648644Y-83838373D01*
X116628270Y-83824760D01*
X116601260Y-83810323D01*
X116578421Y-83791579D01*
X116559677Y-83768740D01*
X116545748Y-83742680D01*
X116537171Y-83714405D01*
X116534275Y-83685000D01*
X116537171Y-83655595D01*
X116545748Y-83627320D01*
X116559677Y-83601260D01*
X116578421Y-83578421D01*
X116601260Y-83559677D01*
X116628270Y-83545240D01*
X116648645Y-83531626D01*
X116665972Y-83514299D01*
X116679585Y-83493924D01*
X116688963Y-83471285D01*
X116693743Y-83447252D01*
X116693743Y-83422747D01*
X116688962Y-83398714D01*
X116679585Y-83376075D01*
X116665971Y-83355700D01*
X116648644Y-83338373D01*
X116628270Y-83324760D01*
X116601260Y-83310323D01*
X116578421Y-83291579D01*
X116559677Y-83268740D01*
X116545748Y-83242680D01*
X116537171Y-83214405D01*
X116534275Y-83185000D01*
X116537171Y-83155595D01*
X116545748Y-83127320D01*
X116559677Y-83101260D01*
X116578421Y-83078421D01*
X116601260Y-83059677D01*
X116628270Y-83045240D01*
X116648645Y-83031626D01*
X116665972Y-83014299D01*
X116679585Y-82993924D01*
X116688963Y-82971285D01*
X116693743Y-82947252D01*
X116693743Y-82922747D01*
X116688962Y-82898714D01*
X116679585Y-82876075D01*
X116665971Y-82855700D01*
X116648644Y-82838373D01*
X116628270Y-82824760D01*
X116601260Y-82810323D01*
X116578421Y-82791579D01*
X116559677Y-82768740D01*
X116545748Y-82742680D01*
X116537171Y-82714405D01*
X116534275Y-82685000D01*
X116537171Y-82655595D01*
X116545748Y-82627320D01*
X116559677Y-82601260D01*
X116578421Y-82578421D01*
X116601260Y-82559677D01*
X116628270Y-82545240D01*
X116648645Y-82531626D01*
X116665972Y-82514299D01*
X116679585Y-82493924D01*
X116688963Y-82471285D01*
X116693743Y-82447252D01*
X116693743Y-82422747D01*
X116688962Y-82398714D01*
X116679585Y-82376075D01*
X116665971Y-82355700D01*
X116648644Y-82338373D01*
X116628270Y-82324760D01*
X116601260Y-82310323D01*
X116578421Y-82291579D01*
X116559677Y-82268740D01*
X116545748Y-82242680D01*
X116537171Y-82214405D01*
X116534275Y-82185000D01*
X116537171Y-82155595D01*
X116545748Y-82127320D01*
X116559677Y-82101260D01*
X116578421Y-82078421D01*
X116601260Y-82059677D01*
X116627320Y-82045748D01*
X116655595Y-82037171D01*
X116677638Y-82035000D01*
X117192362Y-82035000D01*
X117214405Y-82037171D01*
X117214405Y-82037171D01*
G37*
G36*
X116060000Y-84310000D02*
X113810000Y-84310000D01*
X113810000Y-82060000D01*
X116060000Y-82060000D01*
X116060000Y-84310000D01*
X116060000Y-84310000D01*
G37*
G36*
X141310000Y-83815000D02*
X139310000Y-83815000D01*
X139310000Y-80015000D01*
X141310000Y-80015000D01*
X141310000Y-83815000D01*
X141310000Y-83815000D01*
G37*
G36*
X125785000Y-83669000D02*
X124185000Y-83669000D01*
X124185000Y-80669000D01*
X125785000Y-80669000D01*
X125785000Y-83669000D01*
X125785000Y-83669000D01*
G37*
G36*
X131085000Y-83669000D02*
X129485000Y-83669000D01*
X129485000Y-80669000D01*
X131085000Y-80669000D01*
X131085000Y-83669000D01*
X131085000Y-83669000D01*
G37*
G36*
X99226630Y-81712299D02*
X99386855Y-81760903D01*
X99534520Y-81839831D01*
X99663949Y-81946051D01*
X99770169Y-82075480D01*
X99849097Y-82223145D01*
X99897701Y-82383370D01*
X99914112Y-82550000D01*
X99897701Y-82716630D01*
X99849097Y-82876855D01*
X99770169Y-83024520D01*
X99663949Y-83153949D01*
X99534520Y-83260169D01*
X99386855Y-83339097D01*
X99226630Y-83387701D01*
X99101752Y-83400000D01*
X99018248Y-83400000D01*
X98893370Y-83387701D01*
X98733145Y-83339097D01*
X98585480Y-83260169D01*
X98456051Y-83153949D01*
X98349831Y-83024520D01*
X98270903Y-82876855D01*
X98222299Y-82716630D01*
X98205888Y-82550000D01*
X98222299Y-82383370D01*
X98270903Y-82223145D01*
X98349831Y-82075480D01*
X98456051Y-81946051D01*
X98585480Y-81839831D01*
X98733145Y-81760903D01*
X98893370Y-81712299D01*
X99018248Y-81700000D01*
X99101752Y-81700000D01*
X99226630Y-81712299D01*
X99226630Y-81712299D01*
G37*
G36*
X146216630Y-81712299D02*
X146376855Y-81760903D01*
X146524520Y-81839831D01*
X146653949Y-81946051D01*
X146760169Y-82075480D01*
X146839097Y-82223145D01*
X146887701Y-82383370D01*
X146904112Y-82550000D01*
X146887701Y-82716630D01*
X146839097Y-82876855D01*
X146760169Y-83024520D01*
X146653949Y-83153949D01*
X146524520Y-83260169D01*
X146376855Y-83339097D01*
X146216630Y-83387701D01*
X146091752Y-83400000D01*
X146008248Y-83400000D01*
X145883370Y-83387701D01*
X145723145Y-83339097D01*
X145575480Y-83260169D01*
X145446051Y-83153949D01*
X145339831Y-83024520D01*
X145260903Y-82876855D01*
X145212299Y-82716630D01*
X145195888Y-82550000D01*
X145212299Y-82383370D01*
X145260903Y-82223145D01*
X145339831Y-82075480D01*
X145446051Y-81946051D01*
X145575480Y-81839831D01*
X145723145Y-81760903D01*
X145883370Y-81712299D01*
X146008248Y-81700000D01*
X146091752Y-81700000D01*
X146216630Y-81712299D01*
X146216630Y-81712299D01*
G37*
G36*
X106594024Y-81928955D02*
X106626736Y-81938879D01*
X106656890Y-81954997D01*
X106683316Y-81976684D01*
X106705003Y-82003110D01*
X106721121Y-82033264D01*
X106731045Y-82065976D01*
X106735000Y-82106138D01*
X106735000Y-82993862D01*
X106731045Y-83034024D01*
X106721121Y-83066736D01*
X106705003Y-83096890D01*
X106683316Y-83123316D01*
X106656890Y-83145003D01*
X106626736Y-83161121D01*
X106594024Y-83171045D01*
X106553862Y-83175000D01*
X104266138Y-83175000D01*
X104225976Y-83171045D01*
X104193264Y-83161121D01*
X104163110Y-83145003D01*
X104136684Y-83123316D01*
X104114997Y-83096890D01*
X104098879Y-83066736D01*
X104088955Y-83034024D01*
X104085000Y-82993862D01*
X104085000Y-82106138D01*
X104088955Y-82065976D01*
X104098879Y-82033264D01*
X104114997Y-82003110D01*
X104136684Y-81976684D01*
X104163110Y-81954997D01*
X104193264Y-81938879D01*
X104225976Y-81928955D01*
X104266138Y-81925000D01*
X106553862Y-81925000D01*
X106594024Y-81928955D01*
X106594024Y-81928955D01*
G37*
G36*
X110404024Y-81928955D02*
X110436736Y-81938879D01*
X110466890Y-81954997D01*
X110493316Y-81976684D01*
X110515003Y-82003110D01*
X110531121Y-82033264D01*
X110541045Y-82065976D01*
X110545000Y-82106138D01*
X110545000Y-82993862D01*
X110541045Y-83034024D01*
X110531121Y-83066736D01*
X110515003Y-83096890D01*
X110493316Y-83123316D01*
X110466890Y-83145003D01*
X110436736Y-83161121D01*
X110404024Y-83171045D01*
X110363862Y-83175000D01*
X108076138Y-83175000D01*
X108035976Y-83171045D01*
X108003264Y-83161121D01*
X107973110Y-83145003D01*
X107946684Y-83123316D01*
X107924997Y-83096890D01*
X107908879Y-83066736D01*
X107898955Y-83034024D01*
X107895000Y-82993862D01*
X107895000Y-82106138D01*
X107898955Y-82065976D01*
X107908879Y-82033264D01*
X107924997Y-82003110D01*
X107946684Y-81976684D01*
X107973110Y-81954997D01*
X108003264Y-81938879D01*
X108035976Y-81928955D01*
X108076138Y-81925000D01*
X110363862Y-81925000D01*
X110404024Y-81928955D01*
X110404024Y-81928955D01*
G37*
G36*
X135010000Y-82665000D02*
X133010000Y-82665000D01*
X133010000Y-81165000D01*
X135010000Y-81165000D01*
X135010000Y-82665000D01*
X135010000Y-82665000D01*
G37*
G36*
X115964404Y-80787171D02*
X115992682Y-80795749D01*
X116018739Y-80809676D01*
X116041579Y-80828421D01*
X116060323Y-80851260D01*
X116074252Y-80877320D01*
X116082829Y-80905595D01*
X116085000Y-80927638D01*
X116085000Y-81442362D01*
X116082829Y-81464405D01*
X116074252Y-81492680D01*
X116060323Y-81518740D01*
X116041579Y-81541579D01*
X116018740Y-81560323D01*
X115992680Y-81574252D01*
X115964405Y-81582829D01*
X115935000Y-81585725D01*
X115905596Y-81582829D01*
X115877321Y-81574252D01*
X115851261Y-81560323D01*
X115828422Y-81541579D01*
X115809680Y-81518742D01*
X115807579Y-81514812D01*
X115795749Y-81492680D01*
X115795748Y-81492677D01*
X115795242Y-81491730D01*
X115781628Y-81471356D01*
X115764301Y-81454028D01*
X115743926Y-81440414D01*
X115721287Y-81431037D01*
X115697254Y-81426256D01*
X115672750Y-81426256D01*
X115648716Y-81431036D01*
X115626077Y-81440413D01*
X115605703Y-81454027D01*
X115588375Y-81471354D01*
X115574762Y-81491728D01*
X115560324Y-81518738D01*
X115541579Y-81541579D01*
X115518740Y-81560323D01*
X115492680Y-81574252D01*
X115464405Y-81582829D01*
X115435000Y-81585725D01*
X115405596Y-81582829D01*
X115377321Y-81574252D01*
X115351261Y-81560323D01*
X115328422Y-81541579D01*
X115309680Y-81518742D01*
X115307579Y-81514812D01*
X115295749Y-81492680D01*
X115295748Y-81492677D01*
X115295242Y-81491730D01*
X115281628Y-81471356D01*
X115264301Y-81454028D01*
X115243926Y-81440414D01*
X115221287Y-81431037D01*
X115197254Y-81426256D01*
X115172750Y-81426256D01*
X115148716Y-81431036D01*
X115126077Y-81440413D01*
X115105703Y-81454027D01*
X115088375Y-81471354D01*
X115074762Y-81491728D01*
X115060324Y-81518738D01*
X115041579Y-81541579D01*
X115018740Y-81560323D01*
X114992680Y-81574252D01*
X114964405Y-81582829D01*
X114935000Y-81585725D01*
X114905596Y-81582829D01*
X114877321Y-81574252D01*
X114851261Y-81560323D01*
X114828422Y-81541579D01*
X114809680Y-81518742D01*
X114807579Y-81514812D01*
X114795749Y-81492680D01*
X114795748Y-81492677D01*
X114795242Y-81491730D01*
X114781628Y-81471356D01*
X114764301Y-81454028D01*
X114743926Y-81440414D01*
X114721287Y-81431037D01*
X114697254Y-81426256D01*
X114672750Y-81426256D01*
X114648716Y-81431036D01*
X114626077Y-81440413D01*
X114605703Y-81454027D01*
X114588375Y-81471354D01*
X114574762Y-81491728D01*
X114560324Y-81518738D01*
X114541579Y-81541579D01*
X114518740Y-81560323D01*
X114492680Y-81574252D01*
X114464405Y-81582829D01*
X114435000Y-81585725D01*
X114405596Y-81582829D01*
X114377321Y-81574252D01*
X114351261Y-81560323D01*
X114328422Y-81541579D01*
X114309680Y-81518742D01*
X114307579Y-81514812D01*
X114295749Y-81492680D01*
X114295748Y-81492677D01*
X114295242Y-81491730D01*
X114281628Y-81471356D01*
X114264301Y-81454028D01*
X114243926Y-81440414D01*
X114221287Y-81431037D01*
X114197254Y-81426256D01*
X114172750Y-81426256D01*
X114148716Y-81431036D01*
X114126077Y-81440413D01*
X114105703Y-81454027D01*
X114088375Y-81471354D01*
X114074762Y-81491728D01*
X114060324Y-81518738D01*
X114041579Y-81541579D01*
X114018740Y-81560323D01*
X113992680Y-81574252D01*
X113964405Y-81582829D01*
X113935000Y-81585725D01*
X113905596Y-81582829D01*
X113877321Y-81574252D01*
X113851261Y-81560323D01*
X113828422Y-81541579D01*
X113809678Y-81518740D01*
X113795749Y-81492680D01*
X113787172Y-81464405D01*
X113785001Y-81442362D01*
X113785000Y-80927639D01*
X113787171Y-80905596D01*
X113795749Y-80877318D01*
X113809676Y-80851261D01*
X113828421Y-80828421D01*
X113851260Y-80809677D01*
X113877320Y-80795748D01*
X113905595Y-80787171D01*
X113935000Y-80784275D01*
X113964404Y-80787171D01*
X113992682Y-80795749D01*
X114018739Y-80809676D01*
X114041579Y-80828421D01*
X114060323Y-80851260D01*
X114074760Y-80878270D01*
X114088374Y-80898645D01*
X114105701Y-80915972D01*
X114126076Y-80929585D01*
X114148715Y-80938963D01*
X114172748Y-80943743D01*
X114197253Y-80943743D01*
X114221286Y-80938962D01*
X114243925Y-80929585D01*
X114264300Y-80915971D01*
X114281627Y-80898644D01*
X114295240Y-80878270D01*
X114309677Y-80851260D01*
X114328421Y-80828421D01*
X114351260Y-80809677D01*
X114377320Y-80795748D01*
X114405595Y-80787171D01*
X114435000Y-80784275D01*
X114464404Y-80787171D01*
X114492682Y-80795749D01*
X114518739Y-80809676D01*
X114541579Y-80828421D01*
X114560323Y-80851260D01*
X114574760Y-80878270D01*
X114588374Y-80898645D01*
X114605701Y-80915972D01*
X114626076Y-80929585D01*
X114648715Y-80938963D01*
X114672748Y-80943743D01*
X114697253Y-80943743D01*
X114721286Y-80938962D01*
X114743925Y-80929585D01*
X114764300Y-80915971D01*
X114781627Y-80898644D01*
X114795240Y-80878270D01*
X114809677Y-80851260D01*
X114828421Y-80828421D01*
X114851260Y-80809677D01*
X114877320Y-80795748D01*
X114905595Y-80787171D01*
X114935000Y-80784275D01*
X114964404Y-80787171D01*
X114992682Y-80795749D01*
X115018739Y-80809676D01*
X115041579Y-80828421D01*
X115060323Y-80851260D01*
X115074760Y-80878270D01*
X115088374Y-80898645D01*
X115105701Y-80915972D01*
X115126076Y-80929585D01*
X115148715Y-80938963D01*
X115172748Y-80943743D01*
X115197253Y-80943743D01*
X115221286Y-80938962D01*
X115243925Y-80929585D01*
X115264300Y-80915971D01*
X115281627Y-80898644D01*
X115295240Y-80878270D01*
X115309677Y-80851260D01*
X115328421Y-80828421D01*
X115351260Y-80809677D01*
X115377320Y-80795748D01*
X115405595Y-80787171D01*
X115435000Y-80784275D01*
X115464404Y-80787171D01*
X115492682Y-80795749D01*
X115518739Y-80809676D01*
X115541579Y-80828421D01*
X115560323Y-80851260D01*
X115574760Y-80878270D01*
X115588374Y-80898645D01*
X115605701Y-80915972D01*
X115626076Y-80929585D01*
X115648715Y-80938963D01*
X115672748Y-80943743D01*
X115697253Y-80943743D01*
X115721286Y-80938962D01*
X115743925Y-80929585D01*
X115764300Y-80915971D01*
X115781627Y-80898644D01*
X115795240Y-80878270D01*
X115809677Y-80851260D01*
X115828421Y-80828421D01*
X115851260Y-80809677D01*
X115877320Y-80795748D01*
X115905595Y-80787171D01*
X115935000Y-80784275D01*
X115964404Y-80787171D01*
X115964404Y-80787171D01*
G37*
G36*
X99226630Y-79172299D02*
X99386855Y-79220903D01*
X99534520Y-79299831D01*
X99663949Y-79406051D01*
X99770169Y-79535480D01*
X99849097Y-79683145D01*
X99897701Y-79843370D01*
X99914112Y-80010000D01*
X99897701Y-80176630D01*
X99849097Y-80336855D01*
X99770169Y-80484520D01*
X99663949Y-80613949D01*
X99534520Y-80720169D01*
X99386855Y-80799097D01*
X99226630Y-80847701D01*
X99101752Y-80860000D01*
X99018248Y-80860000D01*
X98893370Y-80847701D01*
X98733145Y-80799097D01*
X98585480Y-80720169D01*
X98456051Y-80613949D01*
X98349831Y-80484520D01*
X98270903Y-80336855D01*
X98222299Y-80176630D01*
X98205888Y-80010000D01*
X98222299Y-79843370D01*
X98270903Y-79683145D01*
X98349831Y-79535480D01*
X98456051Y-79406051D01*
X98585480Y-79299831D01*
X98733145Y-79220903D01*
X98893370Y-79172299D01*
X99018248Y-79160000D01*
X99101752Y-79160000D01*
X99226630Y-79172299D01*
X99226630Y-79172299D01*
G37*
G36*
X146216630Y-79172299D02*
X146376855Y-79220903D01*
X146524520Y-79299831D01*
X146653949Y-79406051D01*
X146760169Y-79535480D01*
X146839097Y-79683145D01*
X146887701Y-79843370D01*
X146904112Y-80010000D01*
X146887701Y-80176630D01*
X146839097Y-80336855D01*
X146760169Y-80484520D01*
X146653949Y-80613949D01*
X146524520Y-80720169D01*
X146376855Y-80799097D01*
X146216630Y-80847701D01*
X146091752Y-80860000D01*
X146008248Y-80860000D01*
X145883370Y-80847701D01*
X145723145Y-80799097D01*
X145575480Y-80720169D01*
X145446051Y-80613949D01*
X145339831Y-80484520D01*
X145260903Y-80336855D01*
X145212299Y-80176630D01*
X145195888Y-80010000D01*
X145212299Y-79843370D01*
X145260903Y-79683145D01*
X145339831Y-79535480D01*
X145446051Y-79406051D01*
X145575480Y-79299831D01*
X145723145Y-79220903D01*
X145883370Y-79172299D01*
X146008248Y-79160000D01*
X146091752Y-79160000D01*
X146216630Y-79172299D01*
X146216630Y-79172299D01*
G37*
G36*
X135010000Y-80365000D02*
X133010000Y-80365000D01*
X133010000Y-78865000D01*
X135010000Y-78865000D01*
X135010000Y-80365000D01*
X135010000Y-80365000D01*
G37*
G36*
X122187002Y-77708884D02*
X122219023Y-77718598D01*
X122248535Y-77734372D01*
X122274401Y-77755599D01*
X122295628Y-77781465D01*
X122311402Y-77810977D01*
X122321116Y-77842998D01*
X122325000Y-77882436D01*
X122325000Y-78877564D01*
X122321116Y-78917002D01*
X122311402Y-78949023D01*
X122295628Y-78978535D01*
X122274401Y-79004401D01*
X122248535Y-79025628D01*
X122219023Y-79041402D01*
X122187002Y-79051116D01*
X122147564Y-79055000D01*
X119152436Y-79055000D01*
X119112998Y-79051116D01*
X119080977Y-79041402D01*
X119051465Y-79025628D01*
X119025599Y-79004401D01*
X119004372Y-78978535D01*
X118988598Y-78949023D01*
X118978884Y-78917002D01*
X118975000Y-78877564D01*
X118975000Y-77882436D01*
X118978884Y-77842998D01*
X118988598Y-77810977D01*
X119004372Y-77781465D01*
X119025599Y-77755599D01*
X119051465Y-77734372D01*
X119080977Y-77718598D01*
X119112998Y-77708884D01*
X119152436Y-77705000D01*
X122147564Y-77705000D01*
X122187002Y-77708884D01*
X122187002Y-77708884D01*
G37*
G36*
X99910000Y-78320000D02*
X98210000Y-78320000D01*
X98210000Y-76620000D01*
X99910000Y-76620000D01*
X99910000Y-78320000D01*
X99910000Y-78320000D01*
G37*
G36*
X146900000Y-78320000D02*
X145200000Y-78320000D01*
X145200000Y-76620000D01*
X146900000Y-76620000D01*
X146900000Y-78320000D01*
X146900000Y-78320000D01*
G37*
G36*
X107051492Y-76774076D02*
X107085383Y-76784357D01*
X107116611Y-76801048D01*
X107143985Y-76823515D01*
X107166452Y-76850889D01*
X107183143Y-76882117D01*
X107193424Y-76916008D01*
X107197500Y-76957391D01*
X107197500Y-77982609D01*
X107193424Y-78023992D01*
X107183143Y-78057883D01*
X107166452Y-78089111D01*
X107143985Y-78116485D01*
X107116611Y-78138952D01*
X107085383Y-78155643D01*
X107051492Y-78165924D01*
X107010109Y-78170000D01*
X106409891Y-78170000D01*
X106368508Y-78165924D01*
X106334617Y-78155643D01*
X106303389Y-78138952D01*
X106276015Y-78116485D01*
X106253548Y-78089111D01*
X106236857Y-78057883D01*
X106226576Y-78023992D01*
X106222500Y-77982609D01*
X106222500Y-76957391D01*
X106226576Y-76916008D01*
X106236857Y-76882117D01*
X106253548Y-76850889D01*
X106276015Y-76823515D01*
X106303389Y-76801048D01*
X106334617Y-76784357D01*
X106368508Y-76774076D01*
X106409891Y-76770000D01*
X107010109Y-76770000D01*
X107051492Y-76774076D01*
X107051492Y-76774076D01*
G37*
G36*
X108926492Y-76774076D02*
X108960383Y-76784357D01*
X108991611Y-76801048D01*
X109018985Y-76823515D01*
X109041452Y-76850889D01*
X109058143Y-76882117D01*
X109068424Y-76916008D01*
X109072500Y-76957391D01*
X109072500Y-77982609D01*
X109068424Y-78023992D01*
X109058143Y-78057883D01*
X109041452Y-78089111D01*
X109018985Y-78116485D01*
X108991611Y-78138952D01*
X108960383Y-78155643D01*
X108926492Y-78165924D01*
X108885109Y-78170000D01*
X108284891Y-78170000D01*
X108243508Y-78165924D01*
X108209617Y-78155643D01*
X108178389Y-78138952D01*
X108151015Y-78116485D01*
X108128548Y-78089111D01*
X108111857Y-78057883D01*
X108101576Y-78023992D01*
X108097500Y-77982609D01*
X108097500Y-76957391D01*
X108101576Y-76916008D01*
X108111857Y-76882117D01*
X108128548Y-76850889D01*
X108151015Y-76823515D01*
X108178389Y-76801048D01*
X108209617Y-76784357D01*
X108243508Y-76774076D01*
X108284891Y-76770000D01*
X108885109Y-76770000D01*
X108926492Y-76774076D01*
X108926492Y-76774076D01*
G37*
G36*
X105625570Y-76823918D02*
X105657922Y-76833733D01*
X105687744Y-76849672D01*
X105713879Y-76871121D01*
X105735328Y-76897256D01*
X105751267Y-76927078D01*
X105761082Y-76959430D01*
X105765000Y-76999215D01*
X105765000Y-77940785D01*
X105761082Y-77980570D01*
X105751267Y-78012922D01*
X105735328Y-78042744D01*
X105713879Y-78068879D01*
X105687744Y-78090328D01*
X105657922Y-78106267D01*
X105625570Y-78116082D01*
X105585785Y-78120000D01*
X104619215Y-78120000D01*
X104579430Y-78116082D01*
X104547078Y-78106267D01*
X104517256Y-78090328D01*
X104491121Y-78068879D01*
X104469672Y-78042744D01*
X104453733Y-78012922D01*
X104443918Y-77980570D01*
X104440000Y-77940785D01*
X104440000Y-76999215D01*
X104443918Y-76959430D01*
X104453733Y-76927078D01*
X104469672Y-76897256D01*
X104491121Y-76871121D01*
X104517256Y-76849672D01*
X104547078Y-76833733D01*
X104579430Y-76823918D01*
X104619215Y-76820000D01*
X105585785Y-76820000D01*
X105625570Y-76823918D01*
X105625570Y-76823918D01*
G37*
G36*
X103700570Y-76823918D02*
X103732922Y-76833733D01*
X103762744Y-76849672D01*
X103788879Y-76871121D01*
X103810328Y-76897256D01*
X103826267Y-76927078D01*
X103836082Y-76959430D01*
X103840000Y-76999215D01*
X103840000Y-77940785D01*
X103836082Y-77980570D01*
X103826267Y-78012922D01*
X103810328Y-78042744D01*
X103788879Y-78068879D01*
X103762744Y-78090328D01*
X103732922Y-78106267D01*
X103700570Y-78116082D01*
X103660785Y-78120000D01*
X102694215Y-78120000D01*
X102654430Y-78116082D01*
X102622078Y-78106267D01*
X102592256Y-78090328D01*
X102566121Y-78068879D01*
X102544672Y-78042744D01*
X102528733Y-78012922D01*
X102518918Y-77980570D01*
X102515000Y-77940785D01*
X102515000Y-76999215D01*
X102518918Y-76959430D01*
X102528733Y-76927078D01*
X102544672Y-76897256D01*
X102566121Y-76871121D01*
X102592256Y-76849672D01*
X102622078Y-76833733D01*
X102654430Y-76823918D01*
X102694215Y-76820000D01*
X103660785Y-76820000D01*
X103700570Y-76823918D01*
X103700570Y-76823918D01*
G37*
G36*
X126160000Y-77527000D02*
X124710000Y-77527000D01*
X124710000Y-75127000D01*
X126160000Y-75127000D01*
X126160000Y-77527000D01*
X126160000Y-77527000D01*
G37*
G36*
X130560000Y-77527000D02*
X129110000Y-77527000D01*
X129110000Y-75127000D01*
X130560000Y-75127000D01*
X130560000Y-77527000D01*
X130560000Y-77527000D01*
G37*
G36*
X134023992Y-75631076D02*
X134057883Y-75641357D01*
X134089111Y-75658048D01*
X134116485Y-75680515D01*
X134138952Y-75707889D01*
X134155643Y-75739117D01*
X134165924Y-75773008D01*
X134170000Y-75814391D01*
X134170000Y-76839609D01*
X134165924Y-76880992D01*
X134155643Y-76914883D01*
X134138952Y-76946111D01*
X134116485Y-76973485D01*
X134089111Y-76995952D01*
X134057883Y-77012643D01*
X134023992Y-77022924D01*
X133982609Y-77027000D01*
X133382391Y-77027000D01*
X133341008Y-77022924D01*
X133307117Y-77012643D01*
X133275889Y-76995952D01*
X133248515Y-76973485D01*
X133226048Y-76946111D01*
X133209357Y-76914883D01*
X133199076Y-76880992D01*
X133195000Y-76839609D01*
X133195000Y-75814391D01*
X133199076Y-75773008D01*
X133209357Y-75739117D01*
X133226048Y-75707889D01*
X133248515Y-75680515D01*
X133275889Y-75658048D01*
X133307117Y-75641357D01*
X133341008Y-75631076D01*
X133382391Y-75627000D01*
X133982609Y-75627000D01*
X134023992Y-75631076D01*
X134023992Y-75631076D01*
G37*
G36*
X135898992Y-75631076D02*
X135932883Y-75641357D01*
X135964111Y-75658048D01*
X135991485Y-75680515D01*
X136013952Y-75707889D01*
X136030643Y-75739117D01*
X136040924Y-75773008D01*
X136045000Y-75814391D01*
X136045000Y-76839609D01*
X136040924Y-76880992D01*
X136030643Y-76914883D01*
X136013952Y-76946111D01*
X135991485Y-76973485D01*
X135964111Y-76995952D01*
X135932883Y-77012643D01*
X135898992Y-77022924D01*
X135857609Y-77027000D01*
X135257391Y-77027000D01*
X135216008Y-77022924D01*
X135182117Y-77012643D01*
X135150889Y-76995952D01*
X135123515Y-76973485D01*
X135101048Y-76946111D01*
X135084357Y-76914883D01*
X135074076Y-76880992D01*
X135070000Y-76839609D01*
X135070000Y-75814391D01*
X135074076Y-75773008D01*
X135084357Y-75739117D01*
X135101048Y-75707889D01*
X135123515Y-75680515D01*
X135150889Y-75658048D01*
X135182117Y-75641357D01*
X135216008Y-75631076D01*
X135257391Y-75627000D01*
X135857609Y-75627000D01*
X135898992Y-75631076D01*
X135898992Y-75631076D01*
G37*
G36*
X115800000Y-77010000D02*
X112800000Y-77010000D01*
X112800000Y-75660000D01*
X115800000Y-75660000D01*
X115800000Y-77010000D01*
X115800000Y-77010000D01*
G37*
G36*
X118450000Y-77010000D02*
X116350000Y-77010000D01*
X116350000Y-75410000D01*
X118450000Y-75410000D01*
X118450000Y-77010000D01*
X118450000Y-77010000D01*
G37*
G36*
X112250000Y-77010000D02*
X110150000Y-77010000D01*
X110150000Y-75410000D01*
X112250000Y-75410000D01*
X112250000Y-77010000D01*
X112250000Y-77010000D01*
G37*
G36*
X123104024Y-75073955D02*
X123136736Y-75083879D01*
X123166890Y-75099997D01*
X123193316Y-75121684D01*
X123215003Y-75148110D01*
X123231121Y-75178264D01*
X123241045Y-75210976D01*
X123245000Y-75251138D01*
X123245000Y-76138862D01*
X123241045Y-76179024D01*
X123231121Y-76211736D01*
X123215003Y-76241890D01*
X123193316Y-76268316D01*
X123166890Y-76290003D01*
X123136736Y-76306121D01*
X123104024Y-76316045D01*
X123063862Y-76320000D01*
X120776138Y-76320000D01*
X120735976Y-76316045D01*
X120703264Y-76306121D01*
X120673110Y-76290003D01*
X120646684Y-76268316D01*
X120624997Y-76241890D01*
X120608879Y-76211736D01*
X120598955Y-76179024D01*
X120595000Y-76138862D01*
X120595000Y-75251138D01*
X120598955Y-75210976D01*
X120608879Y-75178264D01*
X120624997Y-75148110D01*
X120646684Y-75121684D01*
X120673110Y-75099997D01*
X120703264Y-75083879D01*
X120735976Y-75073955D01*
X120776138Y-75070000D01*
X123063862Y-75070000D01*
X123104024Y-75073955D01*
X123104024Y-75073955D01*
G37*
G36*
X108503992Y-75051576D02*
X108537883Y-75061857D01*
X108569111Y-75078548D01*
X108596485Y-75101015D01*
X108618952Y-75128389D01*
X108635643Y-75159617D01*
X108645924Y-75193508D01*
X108650000Y-75234891D01*
X108650000Y-75835109D01*
X108645924Y-75876492D01*
X108635643Y-75910383D01*
X108618952Y-75941611D01*
X108596485Y-75968985D01*
X108569111Y-75991452D01*
X108537883Y-76008143D01*
X108503992Y-76018424D01*
X108462609Y-76022500D01*
X107437391Y-76022500D01*
X107396008Y-76018424D01*
X107362117Y-76008143D01*
X107330889Y-75991452D01*
X107303515Y-75968985D01*
X107281048Y-75941611D01*
X107264357Y-75910383D01*
X107254076Y-75876492D01*
X107250000Y-75835109D01*
X107250000Y-75234891D01*
X107254076Y-75193508D01*
X107264357Y-75159617D01*
X107281048Y-75128389D01*
X107303515Y-75101015D01*
X107330889Y-75078548D01*
X107362117Y-75061857D01*
X107396008Y-75051576D01*
X107437391Y-75047500D01*
X108462609Y-75047500D01*
X108503992Y-75051576D01*
X108503992Y-75051576D01*
G37*
G36*
X106720000Y-75935000D02*
X105530000Y-75935000D01*
X105530000Y-75195000D01*
X106720000Y-75195000D01*
X106720000Y-75935000D01*
X106720000Y-75935000D01*
G37*
G36*
X104020000Y-75935000D02*
X102830000Y-75935000D01*
X102830000Y-73295000D01*
X104020000Y-73295000D01*
X104020000Y-75935000D01*
X104020000Y-75935000D01*
G37*
G36*
X134023992Y-73472076D02*
X134057883Y-73482357D01*
X134089111Y-73499048D01*
X134116485Y-73521515D01*
X134138952Y-73548889D01*
X134155643Y-73580117D01*
X134165924Y-73614008D01*
X134170000Y-73655391D01*
X134170000Y-74680609D01*
X134165924Y-74721992D01*
X134155643Y-74755883D01*
X134138952Y-74787111D01*
X134116485Y-74814485D01*
X134089111Y-74836952D01*
X134057883Y-74853643D01*
X134023992Y-74863924D01*
X133982609Y-74868000D01*
X133382391Y-74868000D01*
X133341008Y-74863924D01*
X133307117Y-74853643D01*
X133275889Y-74836952D01*
X133248515Y-74814485D01*
X133226048Y-74787111D01*
X133209357Y-74755883D01*
X133199076Y-74721992D01*
X133195000Y-74680609D01*
X133195000Y-73655391D01*
X133199076Y-73614008D01*
X133209357Y-73580117D01*
X133226048Y-73548889D01*
X133248515Y-73521515D01*
X133275889Y-73499048D01*
X133307117Y-73482357D01*
X133341008Y-73472076D01*
X133382391Y-73468000D01*
X133982609Y-73468000D01*
X134023992Y-73472076D01*
X134023992Y-73472076D01*
G37*
G36*
X135898992Y-73472076D02*
X135932883Y-73482357D01*
X135964111Y-73499048D01*
X135991485Y-73521515D01*
X136013952Y-73548889D01*
X136030643Y-73580117D01*
X136040924Y-73614008D01*
X136045000Y-73655391D01*
X136045000Y-74680609D01*
X136040924Y-74721992D01*
X136030643Y-74755883D01*
X136013952Y-74787111D01*
X135991485Y-74814485D01*
X135964111Y-74836952D01*
X135932883Y-74853643D01*
X135898992Y-74863924D01*
X135857609Y-74868000D01*
X135257391Y-74868000D01*
X135216008Y-74863924D01*
X135182117Y-74853643D01*
X135150889Y-74836952D01*
X135123515Y-74814485D01*
X135101048Y-74787111D01*
X135084357Y-74755883D01*
X135074076Y-74721992D01*
X135070000Y-74680609D01*
X135070000Y-73655391D01*
X135074076Y-73614008D01*
X135084357Y-73580117D01*
X135101048Y-73548889D01*
X135123515Y-73521515D01*
X135150889Y-73499048D01*
X135182117Y-73482357D01*
X135216008Y-73472076D01*
X135257391Y-73468000D01*
X135857609Y-73468000D01*
X135898992Y-73472076D01*
X135898992Y-73472076D01*
G37*
G36*
X114050000Y-74610000D02*
X112150000Y-74610000D01*
X112150000Y-72710000D01*
X114050000Y-72710000D01*
X114050000Y-74610000D01*
X114050000Y-74610000D01*
G37*
G36*
X116450000Y-74610000D02*
X114550000Y-74610000D01*
X114550000Y-72710000D01*
X116450000Y-72710000D01*
X116450000Y-74610000D01*
X116450000Y-74610000D01*
G37*
G36*
X111400000Y-74610000D02*
X109600000Y-74610000D01*
X109600000Y-72710000D01*
X111400000Y-72710000D01*
X111400000Y-74610000D01*
X111400000Y-74610000D01*
G37*
G36*
X119000000Y-74610000D02*
X117200000Y-74610000D01*
X117200000Y-72710000D01*
X119000000Y-72710000D01*
X119000000Y-74610000D01*
X119000000Y-74610000D01*
G37*
G36*
X108503992Y-73176576D02*
X108537883Y-73186857D01*
X108569111Y-73203548D01*
X108596485Y-73226015D01*
X108618952Y-73253389D01*
X108635643Y-73284617D01*
X108645924Y-73318508D01*
X108650000Y-73359891D01*
X108650000Y-73960109D01*
X108645924Y-74001492D01*
X108635643Y-74035383D01*
X108618952Y-74066611D01*
X108596485Y-74093985D01*
X108569111Y-74116452D01*
X108537883Y-74133143D01*
X108503992Y-74143424D01*
X108462609Y-74147500D01*
X107437391Y-74147500D01*
X107396008Y-74143424D01*
X107362117Y-74133143D01*
X107330889Y-74116452D01*
X107303515Y-74093985D01*
X107281048Y-74066611D01*
X107264357Y-74035383D01*
X107254076Y-74001492D01*
X107250000Y-73960109D01*
X107250000Y-73359891D01*
X107254076Y-73318508D01*
X107264357Y-73284617D01*
X107281048Y-73253389D01*
X107303515Y-73226015D01*
X107330889Y-73203548D01*
X107362117Y-73186857D01*
X107396008Y-73176576D01*
X107437391Y-73172500D01*
X108462609Y-73172500D01*
X108503992Y-73176576D01*
X108503992Y-73176576D01*
G37*
G36*
X106720000Y-74035000D02*
X105530000Y-74035000D01*
X105530000Y-73295000D01*
X106720000Y-73295000D01*
X106720000Y-74035000D01*
X106720000Y-74035000D01*
G37*
G36*
X126071492Y-72329076D02*
X126105383Y-72339357D01*
X126136611Y-72356048D01*
X126163985Y-72378515D01*
X126186452Y-72405889D01*
X126203143Y-72437117D01*
X126213424Y-72471008D01*
X126217500Y-72512391D01*
X126217500Y-73537609D01*
X126213424Y-73578992D01*
X126203143Y-73612883D01*
X126186452Y-73644111D01*
X126163985Y-73671485D01*
X126136611Y-73693952D01*
X126105383Y-73710643D01*
X126071492Y-73720924D01*
X126030109Y-73725000D01*
X125429891Y-73725000D01*
X125388508Y-73720924D01*
X125354617Y-73710643D01*
X125323389Y-73693952D01*
X125296015Y-73671485D01*
X125273548Y-73644111D01*
X125256857Y-73612883D01*
X125246576Y-73578992D01*
X125242500Y-73537609D01*
X125242500Y-72512391D01*
X125246576Y-72471008D01*
X125256857Y-72437117D01*
X125273548Y-72405889D01*
X125296015Y-72378515D01*
X125323389Y-72356048D01*
X125354617Y-72339357D01*
X125388508Y-72329076D01*
X125429891Y-72325000D01*
X126030109Y-72325000D01*
X126071492Y-72329076D01*
X126071492Y-72329076D01*
G37*
G36*
X127946492Y-72329076D02*
X127980383Y-72339357D01*
X128011611Y-72356048D01*
X128038985Y-72378515D01*
X128061452Y-72405889D01*
X128078143Y-72437117D01*
X128088424Y-72471008D01*
X128092500Y-72512391D01*
X128092500Y-73537609D01*
X128088424Y-73578992D01*
X128078143Y-73612883D01*
X128061452Y-73644111D01*
X128038985Y-73671485D01*
X128011611Y-73693952D01*
X127980383Y-73710643D01*
X127946492Y-73720924D01*
X127905109Y-73725000D01*
X127304891Y-73725000D01*
X127263508Y-73720924D01*
X127229617Y-73710643D01*
X127198389Y-73693952D01*
X127171015Y-73671485D01*
X127148548Y-73644111D01*
X127131857Y-73612883D01*
X127121576Y-73578992D01*
X127117500Y-73537609D01*
X127117500Y-72512391D01*
X127121576Y-72471008D01*
X127131857Y-72437117D01*
X127148548Y-72405889D01*
X127171015Y-72378515D01*
X127198389Y-72356048D01*
X127229617Y-72339357D01*
X127263508Y-72329076D01*
X127304891Y-72325000D01*
X127905109Y-72325000D01*
X127946492Y-72329076D01*
X127946492Y-72329076D01*
G37*
G36*
X123104024Y-72273955D02*
X123136736Y-72283879D01*
X123166890Y-72299997D01*
X123193316Y-72321684D01*
X123215003Y-72348110D01*
X123231121Y-72378264D01*
X123241045Y-72410976D01*
X123245000Y-72451138D01*
X123245000Y-73338862D01*
X123241045Y-73379024D01*
X123231121Y-73411736D01*
X123215003Y-73441890D01*
X123193316Y-73468316D01*
X123166890Y-73490003D01*
X123136736Y-73506121D01*
X123104024Y-73516045D01*
X123063862Y-73520000D01*
X120776138Y-73520000D01*
X120735976Y-73516045D01*
X120703264Y-73506121D01*
X120673110Y-73490003D01*
X120646684Y-73468316D01*
X120624997Y-73441890D01*
X120608879Y-73411736D01*
X120598955Y-73379024D01*
X120595000Y-73338862D01*
X120595000Y-72451138D01*
X120598955Y-72410976D01*
X120608879Y-72378264D01*
X120624997Y-72348110D01*
X120646684Y-72321684D01*
X120673110Y-72299997D01*
X120703264Y-72283879D01*
X120735976Y-72273955D01*
X120776138Y-72270000D01*
X123063862Y-72270000D01*
X123104024Y-72273955D01*
X123104024Y-72273955D01*
G37*
M02*
