G04 #@! TF.GenerationSoftware,KiCad,Pcbnew,(5.0.1)-3*
G04 #@! TF.CreationDate,2019-09-21T13:45:32-04:00*
G04 #@! TF.ProjectId,BMS Board Rev2,424D5320426F61726420526576322E6B,rev?*
G04 #@! TF.SameCoordinates,Original*
G04 #@! TF.FileFunction,Copper,L2,Bot,Signal*
G04 #@! TF.FilePolarity,Positive*
%FSLAX46Y46*%
G04 Gerber Fmt 4.6, Leading zero omitted, Abs format (unit mm)*
G04 Created by KiCad (PCBNEW (5.0.1)-3) date 9/21/2019 1:45:32 PM*
%MOMM*%
%LPD*%
G01*
G04 APERTURE LIST*
G04 #@! TA.AperFunction,ComponentPad*
%ADD10R,1.700000X1.700000*%
G04 #@! TD*
G04 #@! TA.AperFunction,ComponentPad*
%ADD11O,1.700000X1.700000*%
G04 #@! TD*
G04 #@! TA.AperFunction,ViaPad*
%ADD12C,0.800000*%
G04 #@! TD*
G04 #@! TA.AperFunction,Conductor*
%ADD13C,0.350000*%
G04 #@! TD*
G04 #@! TA.AperFunction,Conductor*
%ADD14C,0.750000*%
G04 #@! TD*
G04 #@! TA.AperFunction,Conductor*
%ADD15C,0.250000*%
G04 #@! TD*
G04 #@! TA.AperFunction,Conductor*
%ADD16C,0.254000*%
G04 #@! TD*
G04 APERTURE END LIST*
D10*
G04 #@! TO.P,J3,1*
G04 #@! TO.N,GND_Protected*
X102616000Y-43688000D03*
D11*
G04 #@! TO.P,J3,2*
X102616000Y-46228000D03*
G04 #@! TO.P,J3,3*
X102616000Y-48768000D03*
G04 #@! TO.P,J3,4*
G04 #@! TO.N,Net-(C5-Pad1)*
X102616000Y-51308000D03*
G04 #@! TO.P,J3,5*
X102616000Y-53848000D03*
G04 #@! TO.P,J3,6*
X102616000Y-56388000D03*
G04 #@! TD*
D10*
G04 #@! TO.P,J1,1*
G04 #@! TO.N,BAT+*
X63895001Y-43735001D03*
D11*
G04 #@! TO.P,J1,2*
X63895001Y-46275001D03*
G04 #@! TO.P,J1,3*
X63895001Y-48815001D03*
G04 #@! TO.P,J1,4*
G04 #@! TO.N,BAT-*
X63895001Y-51355001D03*
G04 #@! TO.P,J1,5*
X63895001Y-53895001D03*
G04 #@! TO.P,J1,6*
X63895001Y-56435001D03*
G04 #@! TD*
D12*
G04 #@! TO.N,Net-(C2-Pad1)*
X81534000Y-54610000D03*
X81534000Y-50038000D03*
G04 #@! TO.N,BAT+*
X86614000Y-43688000D03*
X85344000Y-43735001D03*
X84074000Y-43735001D03*
X82550000Y-43735001D03*
G04 #@! TO.N,BAT-*
X68834000Y-46482000D03*
X68834000Y-50546000D03*
G04 #@! TO.N,Net-(R2-Pad1)*
X77947998Y-54864000D03*
X81280000Y-55626000D03*
G04 #@! TO.N,GND_Protected*
X75184000Y-56896000D03*
X76200000Y-56896000D03*
X77216000Y-56896000D03*
X78232000Y-56896000D03*
X97028000Y-45720000D03*
X92202000Y-46736000D03*
X86360000Y-48514000D03*
G04 #@! TO.N,Net-(U1-Pad3)*
X74676000Y-53086000D03*
G04 #@! TO.N,Net-(U1-Pad1)*
X75692000Y-53594000D03*
X72644000Y-55575998D03*
G04 #@! TD*
D13*
G04 #@! TO.N,Net-(C2-Pad1)*
X81534000Y-54610000D02*
X81534000Y-50038000D01*
D14*
G04 #@! TO.N,BAT+*
X63895001Y-43735001D02*
X63895001Y-48815001D01*
X85344000Y-43735001D02*
X84074000Y-43735001D01*
X84074000Y-43735001D02*
X82550000Y-43735001D01*
X82550000Y-43735001D02*
X63895001Y-43735001D01*
X86566999Y-43735001D02*
X86614000Y-43688000D01*
X85344000Y-43735001D02*
X86566999Y-43735001D01*
D13*
G04 #@! TO.N,BAT-*
X68834000Y-46482000D02*
X68834000Y-50546000D01*
D15*
G04 #@! TO.N,Net-(R2-Pad1)*
X81280000Y-55429002D02*
X81280000Y-55626000D01*
X77947998Y-54864000D02*
X80714998Y-54864000D01*
X80714998Y-54864000D02*
X81280000Y-55429002D01*
G04 #@! TO.N,Net-(U1-Pad1)*
X75692000Y-53594000D02*
X73710002Y-55575998D01*
X73710002Y-55575998D02*
X72644000Y-55575998D01*
G04 #@! TD*
D16*
G04 #@! TO.N,GND_Protected*
G36*
X104167001Y-57939000D02*
X62457000Y-57939000D01*
X62457000Y-56817538D01*
X62496162Y-57014419D01*
X62824376Y-57505626D01*
X63315583Y-57833840D01*
X63748745Y-57920001D01*
X64041257Y-57920001D01*
X64474419Y-57833840D01*
X64965626Y-57505626D01*
X65293840Y-57014419D01*
X65409093Y-56435001D01*
X65293840Y-55855583D01*
X64969467Y-55370124D01*
X71609000Y-55370124D01*
X71609000Y-55781872D01*
X71766569Y-56162278D01*
X72057720Y-56453429D01*
X72438126Y-56610998D01*
X72849874Y-56610998D01*
X73230280Y-56453429D01*
X73347711Y-56335998D01*
X73635155Y-56335998D01*
X73710002Y-56350886D01*
X73784849Y-56335998D01*
X73784854Y-56335998D01*
X74006539Y-56291902D01*
X74257931Y-56123927D01*
X74300333Y-56060468D01*
X75702675Y-54658126D01*
X76912998Y-54658126D01*
X76912998Y-55069874D01*
X77070567Y-55450280D01*
X77361718Y-55741431D01*
X77742124Y-55899000D01*
X78153872Y-55899000D01*
X78534278Y-55741431D01*
X78651709Y-55624000D01*
X80245000Y-55624000D01*
X80245000Y-55831874D01*
X80402569Y-56212280D01*
X80693720Y-56503431D01*
X81074126Y-56661000D01*
X81485874Y-56661000D01*
X81866280Y-56503431D01*
X82157431Y-56212280D01*
X82315000Y-55831874D01*
X82315000Y-55420126D01*
X82277681Y-55330030D01*
X82411431Y-55196280D01*
X82569000Y-54815874D01*
X82569000Y-54404126D01*
X82411431Y-54023720D01*
X82344000Y-53956289D01*
X82344000Y-51308000D01*
X101101908Y-51308000D01*
X101217161Y-51887418D01*
X101545375Y-52378625D01*
X101843761Y-52578000D01*
X101545375Y-52777375D01*
X101217161Y-53268582D01*
X101101908Y-53848000D01*
X101217161Y-54427418D01*
X101545375Y-54918625D01*
X101843761Y-55118000D01*
X101545375Y-55317375D01*
X101217161Y-55808582D01*
X101101908Y-56388000D01*
X101217161Y-56967418D01*
X101545375Y-57458625D01*
X102036582Y-57786839D01*
X102469744Y-57873000D01*
X102762256Y-57873000D01*
X103195418Y-57786839D01*
X103686625Y-57458625D01*
X104014839Y-56967418D01*
X104130092Y-56388000D01*
X104014839Y-55808582D01*
X103686625Y-55317375D01*
X103388239Y-55118000D01*
X103686625Y-54918625D01*
X104014839Y-54427418D01*
X104130092Y-53848000D01*
X104014839Y-53268582D01*
X103686625Y-52777375D01*
X103388239Y-52578000D01*
X103686625Y-52378625D01*
X104014839Y-51887418D01*
X104130092Y-51308000D01*
X104014839Y-50728582D01*
X103686625Y-50237375D01*
X103367522Y-50024157D01*
X103497358Y-49963183D01*
X103887645Y-49534924D01*
X104057476Y-49124890D01*
X103936155Y-48895000D01*
X102743000Y-48895000D01*
X102743000Y-48915000D01*
X102489000Y-48915000D01*
X102489000Y-48895000D01*
X101295845Y-48895000D01*
X101174524Y-49124890D01*
X101344355Y-49534924D01*
X101734642Y-49963183D01*
X101864478Y-50024157D01*
X101545375Y-50237375D01*
X101217161Y-50728582D01*
X101101908Y-51308000D01*
X82344000Y-51308000D01*
X82344000Y-50691711D01*
X82411431Y-50624280D01*
X82569000Y-50243874D01*
X82569000Y-49832126D01*
X82411431Y-49451720D01*
X82120280Y-49160569D01*
X81739874Y-49003000D01*
X81328126Y-49003000D01*
X80947720Y-49160569D01*
X80656569Y-49451720D01*
X80499000Y-49832126D01*
X80499000Y-50243874D01*
X80656569Y-50624280D01*
X80724001Y-50691712D01*
X80724000Y-53956289D01*
X80656569Y-54023720D01*
X80623316Y-54104000D01*
X78651709Y-54104000D01*
X78534278Y-53986569D01*
X78153872Y-53829000D01*
X77742124Y-53829000D01*
X77361718Y-53986569D01*
X77070567Y-54277720D01*
X76912998Y-54658126D01*
X75702675Y-54658126D01*
X75731802Y-54629000D01*
X75897874Y-54629000D01*
X76278280Y-54471431D01*
X76569431Y-54180280D01*
X76727000Y-53799874D01*
X76727000Y-53388126D01*
X76569431Y-53007720D01*
X76278280Y-52716569D01*
X75897874Y-52559000D01*
X75577986Y-52559000D01*
X75553431Y-52499720D01*
X75262280Y-52208569D01*
X74881874Y-52051000D01*
X74470126Y-52051000D01*
X74089720Y-52208569D01*
X73798569Y-52499720D01*
X73641000Y-52880126D01*
X73641000Y-53291874D01*
X73798569Y-53672280D01*
X74089720Y-53963431D01*
X74201476Y-54009722D01*
X73395201Y-54815998D01*
X73347711Y-54815998D01*
X73230280Y-54698567D01*
X72849874Y-54540998D01*
X72438126Y-54540998D01*
X72057720Y-54698567D01*
X71766569Y-54989718D01*
X71609000Y-55370124D01*
X64969467Y-55370124D01*
X64965626Y-55364376D01*
X64667240Y-55165001D01*
X64965626Y-54965626D01*
X65293840Y-54474419D01*
X65409093Y-53895001D01*
X65293840Y-53315583D01*
X64965626Y-52824376D01*
X64667240Y-52625001D01*
X64965626Y-52425626D01*
X65293840Y-51934419D01*
X65409093Y-51355001D01*
X65293840Y-50775583D01*
X64965626Y-50284376D01*
X64667240Y-50085001D01*
X64965626Y-49885626D01*
X65293840Y-49394419D01*
X65409093Y-48815001D01*
X65293840Y-48235583D01*
X64965626Y-47744376D01*
X64905001Y-47703868D01*
X64905001Y-47386134D01*
X64965626Y-47345626D01*
X65293840Y-46854419D01*
X65408869Y-46276126D01*
X67799000Y-46276126D01*
X67799000Y-46687874D01*
X67956569Y-47068280D01*
X68024000Y-47135711D01*
X68024001Y-49892288D01*
X67956569Y-49959720D01*
X67799000Y-50340126D01*
X67799000Y-50751874D01*
X67956569Y-51132280D01*
X68247720Y-51423431D01*
X68628126Y-51581000D01*
X69039874Y-51581000D01*
X69420280Y-51423431D01*
X69711431Y-51132280D01*
X69869000Y-50751874D01*
X69869000Y-50340126D01*
X69711431Y-49959720D01*
X69644000Y-49892289D01*
X69644000Y-47135711D01*
X69711431Y-47068280D01*
X69869000Y-46687874D01*
X69869000Y-46584890D01*
X101174524Y-46584890D01*
X101344355Y-46994924D01*
X101734642Y-47423183D01*
X101893954Y-47498000D01*
X101734642Y-47572817D01*
X101344355Y-48001076D01*
X101174524Y-48411110D01*
X101295845Y-48641000D01*
X102489000Y-48641000D01*
X102489000Y-46355000D01*
X102743000Y-46355000D01*
X102743000Y-48641000D01*
X103936155Y-48641000D01*
X104057476Y-48411110D01*
X103887645Y-48001076D01*
X103497358Y-47572817D01*
X103338046Y-47498000D01*
X103497358Y-47423183D01*
X103887645Y-46994924D01*
X104057476Y-46584890D01*
X103936155Y-46355000D01*
X102743000Y-46355000D01*
X102489000Y-46355000D01*
X101295845Y-46355000D01*
X101174524Y-46584890D01*
X69869000Y-46584890D01*
X69869000Y-46276126D01*
X69711431Y-45895720D01*
X69420280Y-45604569D01*
X69039874Y-45447000D01*
X68628126Y-45447000D01*
X68247720Y-45604569D01*
X67956569Y-45895720D01*
X67799000Y-46276126D01*
X65408869Y-46276126D01*
X65409093Y-46275001D01*
X65293840Y-45695583D01*
X64965626Y-45204376D01*
X64947382Y-45192185D01*
X64992766Y-45183158D01*
X65202810Y-45042810D01*
X65343158Y-44832766D01*
X65360615Y-44745001D01*
X82283771Y-44745001D01*
X82344126Y-44770001D01*
X82755874Y-44770001D01*
X82816229Y-44745001D01*
X83807771Y-44745001D01*
X83868126Y-44770001D01*
X84279874Y-44770001D01*
X84340229Y-44745001D01*
X85077771Y-44745001D01*
X85138126Y-44770001D01*
X85549874Y-44770001D01*
X85610229Y-44745001D01*
X86467528Y-44745001D01*
X86566999Y-44764787D01*
X86666470Y-44745001D01*
X86666475Y-44745001D01*
X86777081Y-44723000D01*
X86819874Y-44723000D01*
X86859410Y-44706624D01*
X86961081Y-44686400D01*
X87047272Y-44628809D01*
X87200280Y-44565431D01*
X87491431Y-44274280D01*
X87615914Y-43973750D01*
X101131000Y-43973750D01*
X101131000Y-44664310D01*
X101227673Y-44897699D01*
X101406302Y-45076327D01*
X101615878Y-45163136D01*
X101344355Y-45461076D01*
X101174524Y-45871110D01*
X101295845Y-46101000D01*
X102489000Y-46101000D01*
X102489000Y-43815000D01*
X102743000Y-43815000D01*
X102743000Y-46101000D01*
X103936155Y-46101000D01*
X104057476Y-45871110D01*
X103887645Y-45461076D01*
X103616122Y-45163136D01*
X103825698Y-45076327D01*
X104004327Y-44897699D01*
X104101000Y-44664310D01*
X104101000Y-43973750D01*
X103942250Y-43815000D01*
X102743000Y-43815000D01*
X102489000Y-43815000D01*
X101289750Y-43815000D01*
X101131000Y-43973750D01*
X87615914Y-43973750D01*
X87649000Y-43893874D01*
X87649000Y-43482126D01*
X87491431Y-43101720D01*
X87200280Y-42810569D01*
X86961565Y-42711690D01*
X101131000Y-42711690D01*
X101131000Y-43402250D01*
X101289750Y-43561000D01*
X102489000Y-43561000D01*
X102489000Y-42361750D01*
X102743000Y-42361750D01*
X102743000Y-43561000D01*
X103942250Y-43561000D01*
X104101000Y-43402250D01*
X104101000Y-42711690D01*
X104004327Y-42478301D01*
X103825698Y-42299673D01*
X103592309Y-42203000D01*
X102901750Y-42203000D01*
X102743000Y-42361750D01*
X102489000Y-42361750D01*
X102330250Y-42203000D01*
X101639691Y-42203000D01*
X101406302Y-42299673D01*
X101227673Y-42478301D01*
X101131000Y-42711690D01*
X86961565Y-42711690D01*
X86819874Y-42653000D01*
X86408126Y-42653000D01*
X86234300Y-42725001D01*
X85610229Y-42725001D01*
X85549874Y-42700001D01*
X85138126Y-42700001D01*
X85077771Y-42725001D01*
X84340229Y-42725001D01*
X84279874Y-42700001D01*
X83868126Y-42700001D01*
X83807771Y-42725001D01*
X82816229Y-42725001D01*
X82755874Y-42700001D01*
X82344126Y-42700001D01*
X82283771Y-42725001D01*
X65360615Y-42725001D01*
X65343158Y-42637236D01*
X65202810Y-42427192D01*
X64992766Y-42286844D01*
X64745001Y-42237561D01*
X63045001Y-42237561D01*
X62797236Y-42286844D01*
X62587192Y-42427192D01*
X62457000Y-42622037D01*
X62457000Y-42137000D01*
X104167000Y-42137000D01*
X104167001Y-57939000D01*
X104167001Y-57939000D01*
G37*
X104167001Y-57939000D02*
X62457000Y-57939000D01*
X62457000Y-56817538D01*
X62496162Y-57014419D01*
X62824376Y-57505626D01*
X63315583Y-57833840D01*
X63748745Y-57920001D01*
X64041257Y-57920001D01*
X64474419Y-57833840D01*
X64965626Y-57505626D01*
X65293840Y-57014419D01*
X65409093Y-56435001D01*
X65293840Y-55855583D01*
X64969467Y-55370124D01*
X71609000Y-55370124D01*
X71609000Y-55781872D01*
X71766569Y-56162278D01*
X72057720Y-56453429D01*
X72438126Y-56610998D01*
X72849874Y-56610998D01*
X73230280Y-56453429D01*
X73347711Y-56335998D01*
X73635155Y-56335998D01*
X73710002Y-56350886D01*
X73784849Y-56335998D01*
X73784854Y-56335998D01*
X74006539Y-56291902D01*
X74257931Y-56123927D01*
X74300333Y-56060468D01*
X75702675Y-54658126D01*
X76912998Y-54658126D01*
X76912998Y-55069874D01*
X77070567Y-55450280D01*
X77361718Y-55741431D01*
X77742124Y-55899000D01*
X78153872Y-55899000D01*
X78534278Y-55741431D01*
X78651709Y-55624000D01*
X80245000Y-55624000D01*
X80245000Y-55831874D01*
X80402569Y-56212280D01*
X80693720Y-56503431D01*
X81074126Y-56661000D01*
X81485874Y-56661000D01*
X81866280Y-56503431D01*
X82157431Y-56212280D01*
X82315000Y-55831874D01*
X82315000Y-55420126D01*
X82277681Y-55330030D01*
X82411431Y-55196280D01*
X82569000Y-54815874D01*
X82569000Y-54404126D01*
X82411431Y-54023720D01*
X82344000Y-53956289D01*
X82344000Y-51308000D01*
X101101908Y-51308000D01*
X101217161Y-51887418D01*
X101545375Y-52378625D01*
X101843761Y-52578000D01*
X101545375Y-52777375D01*
X101217161Y-53268582D01*
X101101908Y-53848000D01*
X101217161Y-54427418D01*
X101545375Y-54918625D01*
X101843761Y-55118000D01*
X101545375Y-55317375D01*
X101217161Y-55808582D01*
X101101908Y-56388000D01*
X101217161Y-56967418D01*
X101545375Y-57458625D01*
X102036582Y-57786839D01*
X102469744Y-57873000D01*
X102762256Y-57873000D01*
X103195418Y-57786839D01*
X103686625Y-57458625D01*
X104014839Y-56967418D01*
X104130092Y-56388000D01*
X104014839Y-55808582D01*
X103686625Y-55317375D01*
X103388239Y-55118000D01*
X103686625Y-54918625D01*
X104014839Y-54427418D01*
X104130092Y-53848000D01*
X104014839Y-53268582D01*
X103686625Y-52777375D01*
X103388239Y-52578000D01*
X103686625Y-52378625D01*
X104014839Y-51887418D01*
X104130092Y-51308000D01*
X104014839Y-50728582D01*
X103686625Y-50237375D01*
X103367522Y-50024157D01*
X103497358Y-49963183D01*
X103887645Y-49534924D01*
X104057476Y-49124890D01*
X103936155Y-48895000D01*
X102743000Y-48895000D01*
X102743000Y-48915000D01*
X102489000Y-48915000D01*
X102489000Y-48895000D01*
X101295845Y-48895000D01*
X101174524Y-49124890D01*
X101344355Y-49534924D01*
X101734642Y-49963183D01*
X101864478Y-50024157D01*
X101545375Y-50237375D01*
X101217161Y-50728582D01*
X101101908Y-51308000D01*
X82344000Y-51308000D01*
X82344000Y-50691711D01*
X82411431Y-50624280D01*
X82569000Y-50243874D01*
X82569000Y-49832126D01*
X82411431Y-49451720D01*
X82120280Y-49160569D01*
X81739874Y-49003000D01*
X81328126Y-49003000D01*
X80947720Y-49160569D01*
X80656569Y-49451720D01*
X80499000Y-49832126D01*
X80499000Y-50243874D01*
X80656569Y-50624280D01*
X80724001Y-50691712D01*
X80724000Y-53956289D01*
X80656569Y-54023720D01*
X80623316Y-54104000D01*
X78651709Y-54104000D01*
X78534278Y-53986569D01*
X78153872Y-53829000D01*
X77742124Y-53829000D01*
X77361718Y-53986569D01*
X77070567Y-54277720D01*
X76912998Y-54658126D01*
X75702675Y-54658126D01*
X75731802Y-54629000D01*
X75897874Y-54629000D01*
X76278280Y-54471431D01*
X76569431Y-54180280D01*
X76727000Y-53799874D01*
X76727000Y-53388126D01*
X76569431Y-53007720D01*
X76278280Y-52716569D01*
X75897874Y-52559000D01*
X75577986Y-52559000D01*
X75553431Y-52499720D01*
X75262280Y-52208569D01*
X74881874Y-52051000D01*
X74470126Y-52051000D01*
X74089720Y-52208569D01*
X73798569Y-52499720D01*
X73641000Y-52880126D01*
X73641000Y-53291874D01*
X73798569Y-53672280D01*
X74089720Y-53963431D01*
X74201476Y-54009722D01*
X73395201Y-54815998D01*
X73347711Y-54815998D01*
X73230280Y-54698567D01*
X72849874Y-54540998D01*
X72438126Y-54540998D01*
X72057720Y-54698567D01*
X71766569Y-54989718D01*
X71609000Y-55370124D01*
X64969467Y-55370124D01*
X64965626Y-55364376D01*
X64667240Y-55165001D01*
X64965626Y-54965626D01*
X65293840Y-54474419D01*
X65409093Y-53895001D01*
X65293840Y-53315583D01*
X64965626Y-52824376D01*
X64667240Y-52625001D01*
X64965626Y-52425626D01*
X65293840Y-51934419D01*
X65409093Y-51355001D01*
X65293840Y-50775583D01*
X64965626Y-50284376D01*
X64667240Y-50085001D01*
X64965626Y-49885626D01*
X65293840Y-49394419D01*
X65409093Y-48815001D01*
X65293840Y-48235583D01*
X64965626Y-47744376D01*
X64905001Y-47703868D01*
X64905001Y-47386134D01*
X64965626Y-47345626D01*
X65293840Y-46854419D01*
X65408869Y-46276126D01*
X67799000Y-46276126D01*
X67799000Y-46687874D01*
X67956569Y-47068280D01*
X68024000Y-47135711D01*
X68024001Y-49892288D01*
X67956569Y-49959720D01*
X67799000Y-50340126D01*
X67799000Y-50751874D01*
X67956569Y-51132280D01*
X68247720Y-51423431D01*
X68628126Y-51581000D01*
X69039874Y-51581000D01*
X69420280Y-51423431D01*
X69711431Y-51132280D01*
X69869000Y-50751874D01*
X69869000Y-50340126D01*
X69711431Y-49959720D01*
X69644000Y-49892289D01*
X69644000Y-47135711D01*
X69711431Y-47068280D01*
X69869000Y-46687874D01*
X69869000Y-46584890D01*
X101174524Y-46584890D01*
X101344355Y-46994924D01*
X101734642Y-47423183D01*
X101893954Y-47498000D01*
X101734642Y-47572817D01*
X101344355Y-48001076D01*
X101174524Y-48411110D01*
X101295845Y-48641000D01*
X102489000Y-48641000D01*
X102489000Y-46355000D01*
X102743000Y-46355000D01*
X102743000Y-48641000D01*
X103936155Y-48641000D01*
X104057476Y-48411110D01*
X103887645Y-48001076D01*
X103497358Y-47572817D01*
X103338046Y-47498000D01*
X103497358Y-47423183D01*
X103887645Y-46994924D01*
X104057476Y-46584890D01*
X103936155Y-46355000D01*
X102743000Y-46355000D01*
X102489000Y-46355000D01*
X101295845Y-46355000D01*
X101174524Y-46584890D01*
X69869000Y-46584890D01*
X69869000Y-46276126D01*
X69711431Y-45895720D01*
X69420280Y-45604569D01*
X69039874Y-45447000D01*
X68628126Y-45447000D01*
X68247720Y-45604569D01*
X67956569Y-45895720D01*
X67799000Y-46276126D01*
X65408869Y-46276126D01*
X65409093Y-46275001D01*
X65293840Y-45695583D01*
X64965626Y-45204376D01*
X64947382Y-45192185D01*
X64992766Y-45183158D01*
X65202810Y-45042810D01*
X65343158Y-44832766D01*
X65360615Y-44745001D01*
X82283771Y-44745001D01*
X82344126Y-44770001D01*
X82755874Y-44770001D01*
X82816229Y-44745001D01*
X83807771Y-44745001D01*
X83868126Y-44770001D01*
X84279874Y-44770001D01*
X84340229Y-44745001D01*
X85077771Y-44745001D01*
X85138126Y-44770001D01*
X85549874Y-44770001D01*
X85610229Y-44745001D01*
X86467528Y-44745001D01*
X86566999Y-44764787D01*
X86666470Y-44745001D01*
X86666475Y-44745001D01*
X86777081Y-44723000D01*
X86819874Y-44723000D01*
X86859410Y-44706624D01*
X86961081Y-44686400D01*
X87047272Y-44628809D01*
X87200280Y-44565431D01*
X87491431Y-44274280D01*
X87615914Y-43973750D01*
X101131000Y-43973750D01*
X101131000Y-44664310D01*
X101227673Y-44897699D01*
X101406302Y-45076327D01*
X101615878Y-45163136D01*
X101344355Y-45461076D01*
X101174524Y-45871110D01*
X101295845Y-46101000D01*
X102489000Y-46101000D01*
X102489000Y-43815000D01*
X102743000Y-43815000D01*
X102743000Y-46101000D01*
X103936155Y-46101000D01*
X104057476Y-45871110D01*
X103887645Y-45461076D01*
X103616122Y-45163136D01*
X103825698Y-45076327D01*
X104004327Y-44897699D01*
X104101000Y-44664310D01*
X104101000Y-43973750D01*
X103942250Y-43815000D01*
X102743000Y-43815000D01*
X102489000Y-43815000D01*
X101289750Y-43815000D01*
X101131000Y-43973750D01*
X87615914Y-43973750D01*
X87649000Y-43893874D01*
X87649000Y-43482126D01*
X87491431Y-43101720D01*
X87200280Y-42810569D01*
X86961565Y-42711690D01*
X101131000Y-42711690D01*
X101131000Y-43402250D01*
X101289750Y-43561000D01*
X102489000Y-43561000D01*
X102489000Y-42361750D01*
X102743000Y-42361750D01*
X102743000Y-43561000D01*
X103942250Y-43561000D01*
X104101000Y-43402250D01*
X104101000Y-42711690D01*
X104004327Y-42478301D01*
X103825698Y-42299673D01*
X103592309Y-42203000D01*
X102901750Y-42203000D01*
X102743000Y-42361750D01*
X102489000Y-42361750D01*
X102330250Y-42203000D01*
X101639691Y-42203000D01*
X101406302Y-42299673D01*
X101227673Y-42478301D01*
X101131000Y-42711690D01*
X86961565Y-42711690D01*
X86819874Y-42653000D01*
X86408126Y-42653000D01*
X86234300Y-42725001D01*
X85610229Y-42725001D01*
X85549874Y-42700001D01*
X85138126Y-42700001D01*
X85077771Y-42725001D01*
X84340229Y-42725001D01*
X84279874Y-42700001D01*
X83868126Y-42700001D01*
X83807771Y-42725001D01*
X82816229Y-42725001D01*
X82755874Y-42700001D01*
X82344126Y-42700001D01*
X82283771Y-42725001D01*
X65360615Y-42725001D01*
X65343158Y-42637236D01*
X65202810Y-42427192D01*
X64992766Y-42286844D01*
X64745001Y-42237561D01*
X63045001Y-42237561D01*
X62797236Y-42286844D01*
X62587192Y-42427192D01*
X62457000Y-42622037D01*
X62457000Y-42137000D01*
X104167000Y-42137000D01*
X104167001Y-57939000D01*
G04 #@! TD*
M02*
