G04 #@! TF.GenerationSoftware,KiCad,Pcbnew,(5.0.1)-3*
G04 #@! TF.CreationDate,2019-09-21T13:45:32-04:00*
G04 #@! TF.ProjectId,BMS Board Rev2,424D5320426F61726420526576322E6B,rev?*
G04 #@! TF.SameCoordinates,Original*
G04 #@! TF.FileFunction,Copper,L1,Top,Signal*
G04 #@! TF.FilePolarity,Positive*
%FSLAX46Y46*%
G04 Gerber Fmt 4.6, Leading zero omitted, Abs format (unit mm)*
G04 Created by KiCad (PCBNEW (5.0.1)-3) date 9/21/2019 1:45:32 PM*
%MOMM*%
%LPD*%
G01*
G04 APERTURE LIST*
G04 #@! TA.AperFunction,Conductor*
%ADD10C,0.100000*%
G04 #@! TD*
G04 #@! TA.AperFunction,SMDPad,CuDef*
%ADD11C,0.975000*%
G04 #@! TD*
G04 #@! TA.AperFunction,SMDPad,CuDef*
%ADD12R,0.450000X1.380000*%
G04 #@! TD*
G04 #@! TA.AperFunction,SMDPad,CuDef*
%ADD13R,1.475000X2.100000*%
G04 #@! TD*
G04 #@! TA.AperFunction,SMDPad,CuDef*
%ADD14R,2.375000X1.900000*%
G04 #@! TD*
G04 #@! TA.AperFunction,SMDPad,CuDef*
%ADD15R,1.175000X1.900000*%
G04 #@! TD*
G04 #@! TA.AperFunction,ComponentPad*
%ADD16R,1.700000X1.700000*%
G04 #@! TD*
G04 #@! TA.AperFunction,ComponentPad*
%ADD17O,1.700000X1.700000*%
G04 #@! TD*
G04 #@! TA.AperFunction,SMDPad,CuDef*
%ADD18R,2.575000X3.350000*%
G04 #@! TD*
G04 #@! TA.AperFunction,SMDPad,CuDef*
%ADD19R,1.100000X1.100000*%
G04 #@! TD*
G04 #@! TA.AperFunction,SMDPad,CuDef*
%ADD20R,0.800000X0.900000*%
G04 #@! TD*
G04 #@! TA.AperFunction,SMDPad,CuDef*
%ADD21R,1.060000X0.650000*%
G04 #@! TD*
G04 #@! TA.AperFunction,ViaPad*
%ADD22C,0.800000*%
G04 #@! TD*
G04 #@! TA.AperFunction,Conductor*
%ADD23C,0.350000*%
G04 #@! TD*
G04 #@! TA.AperFunction,Conductor*
%ADD24C,0.750000*%
G04 #@! TD*
G04 #@! TA.AperFunction,Conductor*
%ADD25C,0.250000*%
G04 #@! TD*
G04 #@! TA.AperFunction,Conductor*
%ADD26C,0.254000*%
G04 #@! TD*
G04 APERTURE END LIST*
D10*
G04 #@! TO.N,BAT-*
G04 #@! TO.C,C3*
G36*
X69314142Y-44647174D02*
X69337803Y-44650684D01*
X69361007Y-44656496D01*
X69383529Y-44664554D01*
X69405153Y-44674782D01*
X69425670Y-44687079D01*
X69444883Y-44701329D01*
X69462607Y-44717393D01*
X69478671Y-44735117D01*
X69492921Y-44754330D01*
X69505218Y-44774847D01*
X69515446Y-44796471D01*
X69523504Y-44818993D01*
X69529316Y-44842197D01*
X69532826Y-44865858D01*
X69534000Y-44889750D01*
X69534000Y-45377250D01*
X69532826Y-45401142D01*
X69529316Y-45424803D01*
X69523504Y-45448007D01*
X69515446Y-45470529D01*
X69505218Y-45492153D01*
X69492921Y-45512670D01*
X69478671Y-45531883D01*
X69462607Y-45549607D01*
X69444883Y-45565671D01*
X69425670Y-45579921D01*
X69405153Y-45592218D01*
X69383529Y-45602446D01*
X69361007Y-45610504D01*
X69337803Y-45616316D01*
X69314142Y-45619826D01*
X69290250Y-45621000D01*
X68377750Y-45621000D01*
X68353858Y-45619826D01*
X68330197Y-45616316D01*
X68306993Y-45610504D01*
X68284471Y-45602446D01*
X68262847Y-45592218D01*
X68242330Y-45579921D01*
X68223117Y-45565671D01*
X68205393Y-45549607D01*
X68189329Y-45531883D01*
X68175079Y-45512670D01*
X68162782Y-45492153D01*
X68152554Y-45470529D01*
X68144496Y-45448007D01*
X68138684Y-45424803D01*
X68135174Y-45401142D01*
X68134000Y-45377250D01*
X68134000Y-44889750D01*
X68135174Y-44865858D01*
X68138684Y-44842197D01*
X68144496Y-44818993D01*
X68152554Y-44796471D01*
X68162782Y-44774847D01*
X68175079Y-44754330D01*
X68189329Y-44735117D01*
X68205393Y-44717393D01*
X68223117Y-44701329D01*
X68242330Y-44687079D01*
X68262847Y-44674782D01*
X68284471Y-44664554D01*
X68306993Y-44656496D01*
X68330197Y-44650684D01*
X68353858Y-44647174D01*
X68377750Y-44646000D01*
X69290250Y-44646000D01*
X69314142Y-44647174D01*
X69314142Y-44647174D01*
G37*
D11*
G04 #@! TD*
G04 #@! TO.P,C3,2*
G04 #@! TO.N,BAT-*
X68834000Y-45133500D03*
D10*
G04 #@! TO.N,BAT+*
G04 #@! TO.C,C3*
G36*
X69314142Y-42772174D02*
X69337803Y-42775684D01*
X69361007Y-42781496D01*
X69383529Y-42789554D01*
X69405153Y-42799782D01*
X69425670Y-42812079D01*
X69444883Y-42826329D01*
X69462607Y-42842393D01*
X69478671Y-42860117D01*
X69492921Y-42879330D01*
X69505218Y-42899847D01*
X69515446Y-42921471D01*
X69523504Y-42943993D01*
X69529316Y-42967197D01*
X69532826Y-42990858D01*
X69534000Y-43014750D01*
X69534000Y-43502250D01*
X69532826Y-43526142D01*
X69529316Y-43549803D01*
X69523504Y-43573007D01*
X69515446Y-43595529D01*
X69505218Y-43617153D01*
X69492921Y-43637670D01*
X69478671Y-43656883D01*
X69462607Y-43674607D01*
X69444883Y-43690671D01*
X69425670Y-43704921D01*
X69405153Y-43717218D01*
X69383529Y-43727446D01*
X69361007Y-43735504D01*
X69337803Y-43741316D01*
X69314142Y-43744826D01*
X69290250Y-43746000D01*
X68377750Y-43746000D01*
X68353858Y-43744826D01*
X68330197Y-43741316D01*
X68306993Y-43735504D01*
X68284471Y-43727446D01*
X68262847Y-43717218D01*
X68242330Y-43704921D01*
X68223117Y-43690671D01*
X68205393Y-43674607D01*
X68189329Y-43656883D01*
X68175079Y-43637670D01*
X68162782Y-43617153D01*
X68152554Y-43595529D01*
X68144496Y-43573007D01*
X68138684Y-43549803D01*
X68135174Y-43526142D01*
X68134000Y-43502250D01*
X68134000Y-43014750D01*
X68135174Y-42990858D01*
X68138684Y-42967197D01*
X68144496Y-42943993D01*
X68152554Y-42921471D01*
X68162782Y-42899847D01*
X68175079Y-42879330D01*
X68189329Y-42860117D01*
X68205393Y-42842393D01*
X68223117Y-42826329D01*
X68242330Y-42812079D01*
X68262847Y-42799782D01*
X68284471Y-42789554D01*
X68306993Y-42781496D01*
X68330197Y-42775684D01*
X68353858Y-42772174D01*
X68377750Y-42771000D01*
X69290250Y-42771000D01*
X69314142Y-42772174D01*
X69314142Y-42772174D01*
G37*
D11*
G04 #@! TD*
G04 #@! TO.P,C3,1*
G04 #@! TO.N,BAT+*
X68834000Y-43258500D03*
D12*
G04 #@! TO.P,J2,1*
G04 #@! TO.N,Net-(C1-Pad1)*
X78516000Y-45910000D03*
G04 #@! TO.P,J2,2*
G04 #@! TO.N,Net-(J2-Pad2)*
X77866000Y-45910000D03*
G04 #@! TO.P,J2,3*
G04 #@! TO.N,Net-(J2-Pad3)*
X77216000Y-45910000D03*
G04 #@! TO.P,J2,4*
G04 #@! TO.N,Net-(J2-Pad4)*
X76566000Y-45910000D03*
G04 #@! TO.P,J2,5*
G04 #@! TO.N,BAT-*
X75916000Y-45910000D03*
D13*
G04 #@! TO.P,J2,6*
X79678500Y-45550000D03*
X74753500Y-45550000D03*
D14*
X80126000Y-43250000D03*
X74306000Y-43250000D03*
D15*
X78056000Y-43250000D03*
X76376000Y-43250000D03*
G04 #@! TD*
D16*
G04 #@! TO.P,J3,1*
G04 #@! TO.N,GND_Protected*
X102616000Y-43688000D03*
D17*
G04 #@! TO.P,J3,2*
X102616000Y-46228000D03*
G04 #@! TO.P,J3,3*
X102616000Y-48768000D03*
G04 #@! TO.P,J3,4*
G04 #@! TO.N,Net-(C5-Pad1)*
X102616000Y-51308000D03*
G04 #@! TO.P,J3,5*
X102616000Y-53848000D03*
G04 #@! TO.P,J3,6*
X102616000Y-56388000D03*
G04 #@! TD*
D18*
G04 #@! TO.P,L1,1*
G04 #@! TO.N,Net-(D2-Pad2)*
X92403500Y-53848000D03*
G04 #@! TO.P,L1,2*
G04 #@! TO.N,BAT+*
X87428500Y-53848000D03*
G04 #@! TD*
D10*
G04 #@! TO.N,Net-(C1-Pad1)*
G04 #@! TO.C,C1*
G36*
X80180642Y-50863174D02*
X80204303Y-50866684D01*
X80227507Y-50872496D01*
X80250029Y-50880554D01*
X80271653Y-50890782D01*
X80292170Y-50903079D01*
X80311383Y-50917329D01*
X80329107Y-50933393D01*
X80345171Y-50951117D01*
X80359421Y-50970330D01*
X80371718Y-50990847D01*
X80381946Y-51012471D01*
X80390004Y-51034993D01*
X80395816Y-51058197D01*
X80399326Y-51081858D01*
X80400500Y-51105750D01*
X80400500Y-52018250D01*
X80399326Y-52042142D01*
X80395816Y-52065803D01*
X80390004Y-52089007D01*
X80381946Y-52111529D01*
X80371718Y-52133153D01*
X80359421Y-52153670D01*
X80345171Y-52172883D01*
X80329107Y-52190607D01*
X80311383Y-52206671D01*
X80292170Y-52220921D01*
X80271653Y-52233218D01*
X80250029Y-52243446D01*
X80227507Y-52251504D01*
X80204303Y-52257316D01*
X80180642Y-52260826D01*
X80156750Y-52262000D01*
X79669250Y-52262000D01*
X79645358Y-52260826D01*
X79621697Y-52257316D01*
X79598493Y-52251504D01*
X79575971Y-52243446D01*
X79554347Y-52233218D01*
X79533830Y-52220921D01*
X79514617Y-52206671D01*
X79496893Y-52190607D01*
X79480829Y-52172883D01*
X79466579Y-52153670D01*
X79454282Y-52133153D01*
X79444054Y-52111529D01*
X79435996Y-52089007D01*
X79430184Y-52065803D01*
X79426674Y-52042142D01*
X79425500Y-52018250D01*
X79425500Y-51105750D01*
X79426674Y-51081858D01*
X79430184Y-51058197D01*
X79435996Y-51034993D01*
X79444054Y-51012471D01*
X79454282Y-50990847D01*
X79466579Y-50970330D01*
X79480829Y-50951117D01*
X79496893Y-50933393D01*
X79514617Y-50917329D01*
X79533830Y-50903079D01*
X79554347Y-50890782D01*
X79575971Y-50880554D01*
X79598493Y-50872496D01*
X79621697Y-50866684D01*
X79645358Y-50863174D01*
X79669250Y-50862000D01*
X80156750Y-50862000D01*
X80180642Y-50863174D01*
X80180642Y-50863174D01*
G37*
D11*
G04 #@! TD*
G04 #@! TO.P,C1,1*
G04 #@! TO.N,Net-(C1-Pad1)*
X79913000Y-51562000D03*
D10*
G04 #@! TO.N,BAT-*
G04 #@! TO.C,C1*
G36*
X82055642Y-50863174D02*
X82079303Y-50866684D01*
X82102507Y-50872496D01*
X82125029Y-50880554D01*
X82146653Y-50890782D01*
X82167170Y-50903079D01*
X82186383Y-50917329D01*
X82204107Y-50933393D01*
X82220171Y-50951117D01*
X82234421Y-50970330D01*
X82246718Y-50990847D01*
X82256946Y-51012471D01*
X82265004Y-51034993D01*
X82270816Y-51058197D01*
X82274326Y-51081858D01*
X82275500Y-51105750D01*
X82275500Y-52018250D01*
X82274326Y-52042142D01*
X82270816Y-52065803D01*
X82265004Y-52089007D01*
X82256946Y-52111529D01*
X82246718Y-52133153D01*
X82234421Y-52153670D01*
X82220171Y-52172883D01*
X82204107Y-52190607D01*
X82186383Y-52206671D01*
X82167170Y-52220921D01*
X82146653Y-52233218D01*
X82125029Y-52243446D01*
X82102507Y-52251504D01*
X82079303Y-52257316D01*
X82055642Y-52260826D01*
X82031750Y-52262000D01*
X81544250Y-52262000D01*
X81520358Y-52260826D01*
X81496697Y-52257316D01*
X81473493Y-52251504D01*
X81450971Y-52243446D01*
X81429347Y-52233218D01*
X81408830Y-52220921D01*
X81389617Y-52206671D01*
X81371893Y-52190607D01*
X81355829Y-52172883D01*
X81341579Y-52153670D01*
X81329282Y-52133153D01*
X81319054Y-52111529D01*
X81310996Y-52089007D01*
X81305184Y-52065803D01*
X81301674Y-52042142D01*
X81300500Y-52018250D01*
X81300500Y-51105750D01*
X81301674Y-51081858D01*
X81305184Y-51058197D01*
X81310996Y-51034993D01*
X81319054Y-51012471D01*
X81329282Y-50990847D01*
X81341579Y-50970330D01*
X81355829Y-50951117D01*
X81371893Y-50933393D01*
X81389617Y-50917329D01*
X81408830Y-50903079D01*
X81429347Y-50890782D01*
X81450971Y-50880554D01*
X81473493Y-50872496D01*
X81496697Y-50866684D01*
X81520358Y-50863174D01*
X81544250Y-50862000D01*
X82031750Y-50862000D01*
X82055642Y-50863174D01*
X82055642Y-50863174D01*
G37*
D11*
G04 #@! TD*
G04 #@! TO.P,C1,2*
G04 #@! TO.N,BAT-*
X81788000Y-51562000D03*
D10*
G04 #@! TO.N,BAT-*
G04 #@! TO.C,C2*
G36*
X80102142Y-47561174D02*
X80125803Y-47564684D01*
X80149007Y-47570496D01*
X80171529Y-47578554D01*
X80193153Y-47588782D01*
X80213670Y-47601079D01*
X80232883Y-47615329D01*
X80250607Y-47631393D01*
X80266671Y-47649117D01*
X80280921Y-47668330D01*
X80293218Y-47688847D01*
X80303446Y-47710471D01*
X80311504Y-47732993D01*
X80317316Y-47756197D01*
X80320826Y-47779858D01*
X80322000Y-47803750D01*
X80322000Y-48716250D01*
X80320826Y-48740142D01*
X80317316Y-48763803D01*
X80311504Y-48787007D01*
X80303446Y-48809529D01*
X80293218Y-48831153D01*
X80280921Y-48851670D01*
X80266671Y-48870883D01*
X80250607Y-48888607D01*
X80232883Y-48904671D01*
X80213670Y-48918921D01*
X80193153Y-48931218D01*
X80171529Y-48941446D01*
X80149007Y-48949504D01*
X80125803Y-48955316D01*
X80102142Y-48958826D01*
X80078250Y-48960000D01*
X79590750Y-48960000D01*
X79566858Y-48958826D01*
X79543197Y-48955316D01*
X79519993Y-48949504D01*
X79497471Y-48941446D01*
X79475847Y-48931218D01*
X79455330Y-48918921D01*
X79436117Y-48904671D01*
X79418393Y-48888607D01*
X79402329Y-48870883D01*
X79388079Y-48851670D01*
X79375782Y-48831153D01*
X79365554Y-48809529D01*
X79357496Y-48787007D01*
X79351684Y-48763803D01*
X79348174Y-48740142D01*
X79347000Y-48716250D01*
X79347000Y-47803750D01*
X79348174Y-47779858D01*
X79351684Y-47756197D01*
X79357496Y-47732993D01*
X79365554Y-47710471D01*
X79375782Y-47688847D01*
X79388079Y-47668330D01*
X79402329Y-47649117D01*
X79418393Y-47631393D01*
X79436117Y-47615329D01*
X79455330Y-47601079D01*
X79475847Y-47588782D01*
X79497471Y-47578554D01*
X79519993Y-47570496D01*
X79543197Y-47564684D01*
X79566858Y-47561174D01*
X79590750Y-47560000D01*
X80078250Y-47560000D01*
X80102142Y-47561174D01*
X80102142Y-47561174D01*
G37*
D11*
G04 #@! TD*
G04 #@! TO.P,C2,2*
G04 #@! TO.N,BAT-*
X79834500Y-48260000D03*
D10*
G04 #@! TO.N,Net-(C2-Pad1)*
G04 #@! TO.C,C2*
G36*
X81977142Y-47561174D02*
X82000803Y-47564684D01*
X82024007Y-47570496D01*
X82046529Y-47578554D01*
X82068153Y-47588782D01*
X82088670Y-47601079D01*
X82107883Y-47615329D01*
X82125607Y-47631393D01*
X82141671Y-47649117D01*
X82155921Y-47668330D01*
X82168218Y-47688847D01*
X82178446Y-47710471D01*
X82186504Y-47732993D01*
X82192316Y-47756197D01*
X82195826Y-47779858D01*
X82197000Y-47803750D01*
X82197000Y-48716250D01*
X82195826Y-48740142D01*
X82192316Y-48763803D01*
X82186504Y-48787007D01*
X82178446Y-48809529D01*
X82168218Y-48831153D01*
X82155921Y-48851670D01*
X82141671Y-48870883D01*
X82125607Y-48888607D01*
X82107883Y-48904671D01*
X82088670Y-48918921D01*
X82068153Y-48931218D01*
X82046529Y-48941446D01*
X82024007Y-48949504D01*
X82000803Y-48955316D01*
X81977142Y-48958826D01*
X81953250Y-48960000D01*
X81465750Y-48960000D01*
X81441858Y-48958826D01*
X81418197Y-48955316D01*
X81394993Y-48949504D01*
X81372471Y-48941446D01*
X81350847Y-48931218D01*
X81330330Y-48918921D01*
X81311117Y-48904671D01*
X81293393Y-48888607D01*
X81277329Y-48870883D01*
X81263079Y-48851670D01*
X81250782Y-48831153D01*
X81240554Y-48809529D01*
X81232496Y-48787007D01*
X81226684Y-48763803D01*
X81223174Y-48740142D01*
X81222000Y-48716250D01*
X81222000Y-47803750D01*
X81223174Y-47779858D01*
X81226684Y-47756197D01*
X81232496Y-47732993D01*
X81240554Y-47710471D01*
X81250782Y-47688847D01*
X81263079Y-47668330D01*
X81277329Y-47649117D01*
X81293393Y-47631393D01*
X81311117Y-47615329D01*
X81330330Y-47601079D01*
X81350847Y-47588782D01*
X81372471Y-47578554D01*
X81394993Y-47570496D01*
X81418197Y-47564684D01*
X81441858Y-47561174D01*
X81465750Y-47560000D01*
X81953250Y-47560000D01*
X81977142Y-47561174D01*
X81977142Y-47561174D01*
G37*
D11*
G04 #@! TD*
G04 #@! TO.P,C2,1*
G04 #@! TO.N,Net-(C2-Pad1)*
X81709500Y-48260000D03*
D10*
G04 #@! TO.N,GND_Protected*
G04 #@! TO.C,C4*
G36*
X85570142Y-48027674D02*
X85593803Y-48031184D01*
X85617007Y-48036996D01*
X85639529Y-48045054D01*
X85661153Y-48055282D01*
X85681670Y-48067579D01*
X85700883Y-48081829D01*
X85718607Y-48097893D01*
X85734671Y-48115617D01*
X85748921Y-48134830D01*
X85761218Y-48155347D01*
X85771446Y-48176971D01*
X85779504Y-48199493D01*
X85785316Y-48222697D01*
X85788826Y-48246358D01*
X85790000Y-48270250D01*
X85790000Y-48757750D01*
X85788826Y-48781642D01*
X85785316Y-48805303D01*
X85779504Y-48828507D01*
X85771446Y-48851029D01*
X85761218Y-48872653D01*
X85748921Y-48893170D01*
X85734671Y-48912383D01*
X85718607Y-48930107D01*
X85700883Y-48946171D01*
X85681670Y-48960421D01*
X85661153Y-48972718D01*
X85639529Y-48982946D01*
X85617007Y-48991004D01*
X85593803Y-48996816D01*
X85570142Y-49000326D01*
X85546250Y-49001500D01*
X84633750Y-49001500D01*
X84609858Y-49000326D01*
X84586197Y-48996816D01*
X84562993Y-48991004D01*
X84540471Y-48982946D01*
X84518847Y-48972718D01*
X84498330Y-48960421D01*
X84479117Y-48946171D01*
X84461393Y-48930107D01*
X84445329Y-48912383D01*
X84431079Y-48893170D01*
X84418782Y-48872653D01*
X84408554Y-48851029D01*
X84400496Y-48828507D01*
X84394684Y-48805303D01*
X84391174Y-48781642D01*
X84390000Y-48757750D01*
X84390000Y-48270250D01*
X84391174Y-48246358D01*
X84394684Y-48222697D01*
X84400496Y-48199493D01*
X84408554Y-48176971D01*
X84418782Y-48155347D01*
X84431079Y-48134830D01*
X84445329Y-48115617D01*
X84461393Y-48097893D01*
X84479117Y-48081829D01*
X84498330Y-48067579D01*
X84518847Y-48055282D01*
X84540471Y-48045054D01*
X84562993Y-48036996D01*
X84586197Y-48031184D01*
X84609858Y-48027674D01*
X84633750Y-48026500D01*
X85546250Y-48026500D01*
X85570142Y-48027674D01*
X85570142Y-48027674D01*
G37*
D11*
G04 #@! TD*
G04 #@! TO.P,C4,2*
G04 #@! TO.N,GND_Protected*
X85090000Y-48514000D03*
D10*
G04 #@! TO.N,BAT+*
G04 #@! TO.C,C4*
G36*
X85570142Y-49902674D02*
X85593803Y-49906184D01*
X85617007Y-49911996D01*
X85639529Y-49920054D01*
X85661153Y-49930282D01*
X85681670Y-49942579D01*
X85700883Y-49956829D01*
X85718607Y-49972893D01*
X85734671Y-49990617D01*
X85748921Y-50009830D01*
X85761218Y-50030347D01*
X85771446Y-50051971D01*
X85779504Y-50074493D01*
X85785316Y-50097697D01*
X85788826Y-50121358D01*
X85790000Y-50145250D01*
X85790000Y-50632750D01*
X85788826Y-50656642D01*
X85785316Y-50680303D01*
X85779504Y-50703507D01*
X85771446Y-50726029D01*
X85761218Y-50747653D01*
X85748921Y-50768170D01*
X85734671Y-50787383D01*
X85718607Y-50805107D01*
X85700883Y-50821171D01*
X85681670Y-50835421D01*
X85661153Y-50847718D01*
X85639529Y-50857946D01*
X85617007Y-50866004D01*
X85593803Y-50871816D01*
X85570142Y-50875326D01*
X85546250Y-50876500D01*
X84633750Y-50876500D01*
X84609858Y-50875326D01*
X84586197Y-50871816D01*
X84562993Y-50866004D01*
X84540471Y-50857946D01*
X84518847Y-50847718D01*
X84498330Y-50835421D01*
X84479117Y-50821171D01*
X84461393Y-50805107D01*
X84445329Y-50787383D01*
X84431079Y-50768170D01*
X84418782Y-50747653D01*
X84408554Y-50726029D01*
X84400496Y-50703507D01*
X84394684Y-50680303D01*
X84391174Y-50656642D01*
X84390000Y-50632750D01*
X84390000Y-50145250D01*
X84391174Y-50121358D01*
X84394684Y-50097697D01*
X84400496Y-50074493D01*
X84408554Y-50051971D01*
X84418782Y-50030347D01*
X84431079Y-50009830D01*
X84445329Y-49990617D01*
X84461393Y-49972893D01*
X84479117Y-49956829D01*
X84498330Y-49942579D01*
X84518847Y-49930282D01*
X84540471Y-49920054D01*
X84562993Y-49911996D01*
X84586197Y-49906184D01*
X84609858Y-49902674D01*
X84633750Y-49901500D01*
X85546250Y-49901500D01*
X85570142Y-49902674D01*
X85570142Y-49902674D01*
G37*
D11*
G04 #@! TD*
G04 #@! TO.P,C4,1*
G04 #@! TO.N,BAT+*
X85090000Y-50389000D03*
D10*
G04 #@! TO.N,Net-(C5-Pad1)*
G04 #@! TO.C,C5*
G36*
X100048142Y-50743174D02*
X100071803Y-50746684D01*
X100095007Y-50752496D01*
X100117529Y-50760554D01*
X100139153Y-50770782D01*
X100159670Y-50783079D01*
X100178883Y-50797329D01*
X100196607Y-50813393D01*
X100212671Y-50831117D01*
X100226921Y-50850330D01*
X100239218Y-50870847D01*
X100249446Y-50892471D01*
X100257504Y-50914993D01*
X100263316Y-50938197D01*
X100266826Y-50961858D01*
X100268000Y-50985750D01*
X100268000Y-51473250D01*
X100266826Y-51497142D01*
X100263316Y-51520803D01*
X100257504Y-51544007D01*
X100249446Y-51566529D01*
X100239218Y-51588153D01*
X100226921Y-51608670D01*
X100212671Y-51627883D01*
X100196607Y-51645607D01*
X100178883Y-51661671D01*
X100159670Y-51675921D01*
X100139153Y-51688218D01*
X100117529Y-51698446D01*
X100095007Y-51706504D01*
X100071803Y-51712316D01*
X100048142Y-51715826D01*
X100024250Y-51717000D01*
X99111750Y-51717000D01*
X99087858Y-51715826D01*
X99064197Y-51712316D01*
X99040993Y-51706504D01*
X99018471Y-51698446D01*
X98996847Y-51688218D01*
X98976330Y-51675921D01*
X98957117Y-51661671D01*
X98939393Y-51645607D01*
X98923329Y-51627883D01*
X98909079Y-51608670D01*
X98896782Y-51588153D01*
X98886554Y-51566529D01*
X98878496Y-51544007D01*
X98872684Y-51520803D01*
X98869174Y-51497142D01*
X98868000Y-51473250D01*
X98868000Y-50985750D01*
X98869174Y-50961858D01*
X98872684Y-50938197D01*
X98878496Y-50914993D01*
X98886554Y-50892471D01*
X98896782Y-50870847D01*
X98909079Y-50850330D01*
X98923329Y-50831117D01*
X98939393Y-50813393D01*
X98957117Y-50797329D01*
X98976330Y-50783079D01*
X98996847Y-50770782D01*
X99018471Y-50760554D01*
X99040993Y-50752496D01*
X99064197Y-50746684D01*
X99087858Y-50743174D01*
X99111750Y-50742000D01*
X100024250Y-50742000D01*
X100048142Y-50743174D01*
X100048142Y-50743174D01*
G37*
D11*
G04 #@! TD*
G04 #@! TO.P,C5,1*
G04 #@! TO.N,Net-(C5-Pad1)*
X99568000Y-51229500D03*
D10*
G04 #@! TO.N,GND_Protected*
G04 #@! TO.C,C5*
G36*
X100048142Y-48868174D02*
X100071803Y-48871684D01*
X100095007Y-48877496D01*
X100117529Y-48885554D01*
X100139153Y-48895782D01*
X100159670Y-48908079D01*
X100178883Y-48922329D01*
X100196607Y-48938393D01*
X100212671Y-48956117D01*
X100226921Y-48975330D01*
X100239218Y-48995847D01*
X100249446Y-49017471D01*
X100257504Y-49039993D01*
X100263316Y-49063197D01*
X100266826Y-49086858D01*
X100268000Y-49110750D01*
X100268000Y-49598250D01*
X100266826Y-49622142D01*
X100263316Y-49645803D01*
X100257504Y-49669007D01*
X100249446Y-49691529D01*
X100239218Y-49713153D01*
X100226921Y-49733670D01*
X100212671Y-49752883D01*
X100196607Y-49770607D01*
X100178883Y-49786671D01*
X100159670Y-49800921D01*
X100139153Y-49813218D01*
X100117529Y-49823446D01*
X100095007Y-49831504D01*
X100071803Y-49837316D01*
X100048142Y-49840826D01*
X100024250Y-49842000D01*
X99111750Y-49842000D01*
X99087858Y-49840826D01*
X99064197Y-49837316D01*
X99040993Y-49831504D01*
X99018471Y-49823446D01*
X98996847Y-49813218D01*
X98976330Y-49800921D01*
X98957117Y-49786671D01*
X98939393Y-49770607D01*
X98923329Y-49752883D01*
X98909079Y-49733670D01*
X98896782Y-49713153D01*
X98886554Y-49691529D01*
X98878496Y-49669007D01*
X98872684Y-49645803D01*
X98869174Y-49622142D01*
X98868000Y-49598250D01*
X98868000Y-49110750D01*
X98869174Y-49086858D01*
X98872684Y-49063197D01*
X98878496Y-49039993D01*
X98886554Y-49017471D01*
X98896782Y-48995847D01*
X98909079Y-48975330D01*
X98923329Y-48956117D01*
X98939393Y-48938393D01*
X98957117Y-48922329D01*
X98976330Y-48908079D01*
X98996847Y-48895782D01*
X99018471Y-48885554D01*
X99040993Y-48877496D01*
X99064197Y-48871684D01*
X99087858Y-48868174D01*
X99111750Y-48867000D01*
X100024250Y-48867000D01*
X100048142Y-48868174D01*
X100048142Y-48868174D01*
G37*
D11*
G04 #@! TD*
G04 #@! TO.P,C5,2*
G04 #@! TO.N,GND_Protected*
X99568000Y-49354500D03*
D16*
G04 #@! TO.P,J1,1*
G04 #@! TO.N,BAT+*
X63895001Y-43735001D03*
D17*
G04 #@! TO.P,J1,2*
X63895001Y-46275001D03*
G04 #@! TO.P,J1,3*
X63895001Y-48815001D03*
G04 #@! TO.P,J1,4*
G04 #@! TO.N,BAT-*
X63895001Y-51355001D03*
G04 #@! TO.P,J1,5*
X63895001Y-53895001D03*
G04 #@! TO.P,J1,6*
X63895001Y-56435001D03*
G04 #@! TD*
D19*
G04 #@! TO.P,D2,1*
G04 #@! TO.N,Net-(C5-Pad1)*
X98174000Y-54102000D03*
G04 #@! TO.P,D2,2*
G04 #@! TO.N,Net-(D2-Pad2)*
X95374000Y-54102000D03*
G04 #@! TD*
D10*
G04 #@! TO.N,Net-(D1-Pad1)*
G04 #@! TO.C,D1*
G36*
X76292142Y-50863174D02*
X76315803Y-50866684D01*
X76339007Y-50872496D01*
X76361529Y-50880554D01*
X76383153Y-50890782D01*
X76403670Y-50903079D01*
X76422883Y-50917329D01*
X76440607Y-50933393D01*
X76456671Y-50951117D01*
X76470921Y-50970330D01*
X76483218Y-50990847D01*
X76493446Y-51012471D01*
X76501504Y-51034993D01*
X76507316Y-51058197D01*
X76510826Y-51081858D01*
X76512000Y-51105750D01*
X76512000Y-52018250D01*
X76510826Y-52042142D01*
X76507316Y-52065803D01*
X76501504Y-52089007D01*
X76493446Y-52111529D01*
X76483218Y-52133153D01*
X76470921Y-52153670D01*
X76456671Y-52172883D01*
X76440607Y-52190607D01*
X76422883Y-52206671D01*
X76403670Y-52220921D01*
X76383153Y-52233218D01*
X76361529Y-52243446D01*
X76339007Y-52251504D01*
X76315803Y-52257316D01*
X76292142Y-52260826D01*
X76268250Y-52262000D01*
X75780750Y-52262000D01*
X75756858Y-52260826D01*
X75733197Y-52257316D01*
X75709993Y-52251504D01*
X75687471Y-52243446D01*
X75665847Y-52233218D01*
X75645330Y-52220921D01*
X75626117Y-52206671D01*
X75608393Y-52190607D01*
X75592329Y-52172883D01*
X75578079Y-52153670D01*
X75565782Y-52133153D01*
X75555554Y-52111529D01*
X75547496Y-52089007D01*
X75541684Y-52065803D01*
X75538174Y-52042142D01*
X75537000Y-52018250D01*
X75537000Y-51105750D01*
X75538174Y-51081858D01*
X75541684Y-51058197D01*
X75547496Y-51034993D01*
X75555554Y-51012471D01*
X75565782Y-50990847D01*
X75578079Y-50970330D01*
X75592329Y-50951117D01*
X75608393Y-50933393D01*
X75626117Y-50917329D01*
X75645330Y-50903079D01*
X75665847Y-50890782D01*
X75687471Y-50880554D01*
X75709993Y-50872496D01*
X75733197Y-50866684D01*
X75756858Y-50863174D01*
X75780750Y-50862000D01*
X76268250Y-50862000D01*
X76292142Y-50863174D01*
X76292142Y-50863174D01*
G37*
D11*
G04 #@! TD*
G04 #@! TO.P,D1,1*
G04 #@! TO.N,Net-(D1-Pad1)*
X76024500Y-51562000D03*
D10*
G04 #@! TO.N,Net-(C1-Pad1)*
G04 #@! TO.C,D1*
G36*
X78167142Y-50863174D02*
X78190803Y-50866684D01*
X78214007Y-50872496D01*
X78236529Y-50880554D01*
X78258153Y-50890782D01*
X78278670Y-50903079D01*
X78297883Y-50917329D01*
X78315607Y-50933393D01*
X78331671Y-50951117D01*
X78345921Y-50970330D01*
X78358218Y-50990847D01*
X78368446Y-51012471D01*
X78376504Y-51034993D01*
X78382316Y-51058197D01*
X78385826Y-51081858D01*
X78387000Y-51105750D01*
X78387000Y-52018250D01*
X78385826Y-52042142D01*
X78382316Y-52065803D01*
X78376504Y-52089007D01*
X78368446Y-52111529D01*
X78358218Y-52133153D01*
X78345921Y-52153670D01*
X78331671Y-52172883D01*
X78315607Y-52190607D01*
X78297883Y-52206671D01*
X78278670Y-52220921D01*
X78258153Y-52233218D01*
X78236529Y-52243446D01*
X78214007Y-52251504D01*
X78190803Y-52257316D01*
X78167142Y-52260826D01*
X78143250Y-52262000D01*
X77655750Y-52262000D01*
X77631858Y-52260826D01*
X77608197Y-52257316D01*
X77584993Y-52251504D01*
X77562471Y-52243446D01*
X77540847Y-52233218D01*
X77520330Y-52220921D01*
X77501117Y-52206671D01*
X77483393Y-52190607D01*
X77467329Y-52172883D01*
X77453079Y-52153670D01*
X77440782Y-52133153D01*
X77430554Y-52111529D01*
X77422496Y-52089007D01*
X77416684Y-52065803D01*
X77413174Y-52042142D01*
X77412000Y-52018250D01*
X77412000Y-51105750D01*
X77413174Y-51081858D01*
X77416684Y-51058197D01*
X77422496Y-51034993D01*
X77430554Y-51012471D01*
X77440782Y-50990847D01*
X77453079Y-50970330D01*
X77467329Y-50951117D01*
X77483393Y-50933393D01*
X77501117Y-50917329D01*
X77520330Y-50903079D01*
X77540847Y-50890782D01*
X77562471Y-50880554D01*
X77584993Y-50872496D01*
X77608197Y-50866684D01*
X77631858Y-50863174D01*
X77655750Y-50862000D01*
X78143250Y-50862000D01*
X78167142Y-50863174D01*
X78167142Y-50863174D01*
G37*
D11*
G04 #@! TD*
G04 #@! TO.P,D1,2*
G04 #@! TO.N,Net-(C1-Pad1)*
X77899500Y-51562000D03*
D20*
G04 #@! TO.P,U4,3*
G04 #@! TO.N,Net-(U3-Pad2)*
X67818000Y-56626000D03*
G04 #@! TO.P,U4,2*
G04 #@! TO.N,BAT-*
X66868000Y-54626000D03*
G04 #@! TO.P,U4,1*
G04 #@! TO.N,Net-(U1-Pad3)*
X68768000Y-54626000D03*
G04 #@! TD*
G04 #@! TO.P,U3,1*
G04 #@! TO.N,Net-(U1-Pad1)*
X73594000Y-54626000D03*
G04 #@! TO.P,U3,2*
G04 #@! TO.N,Net-(U3-Pad2)*
X71694000Y-54626000D03*
G04 #@! TO.P,U3,3*
G04 #@! TO.N,GND_Protected*
X72644000Y-56626000D03*
G04 #@! TD*
D21*
G04 #@! TO.P,U2,1*
G04 #@! TO.N,BAT+*
X67734000Y-49596000D03*
G04 #@! TO.P,U2,2*
G04 #@! TO.N,BAT-*
X67734000Y-50546000D03*
G04 #@! TO.P,U2,3*
G04 #@! TO.N,chrg_indicator*
X67734000Y-51496000D03*
G04 #@! TO.P,U2,4*
G04 #@! TO.N,Net-(C1-Pad1)*
X69934000Y-51496000D03*
G04 #@! TO.P,U2,5*
G04 #@! TO.N,Net-(R3-Pad1)*
X69934000Y-49596000D03*
G04 #@! TD*
G04 #@! TO.P,U1,5*
G04 #@! TO.N,Net-(C2-Pad1)*
X79078000Y-54610000D03*
G04 #@! TO.P,U1,6*
G04 #@! TO.N,BAT-*
X79078000Y-53660000D03*
G04 #@! TO.P,U1,4*
G04 #@! TO.N,Net-(U1-Pad4)*
X79078000Y-55560000D03*
G04 #@! TO.P,U1,3*
G04 #@! TO.N,Net-(U1-Pad3)*
X76878000Y-55560000D03*
G04 #@! TO.P,U1,2*
G04 #@! TO.N,Net-(R2-Pad1)*
X76878000Y-54610000D03*
G04 #@! TO.P,U1,1*
G04 #@! TO.N,Net-(U1-Pad1)*
X76878000Y-53660000D03*
G04 #@! TD*
G04 #@! TO.P,U5,1*
G04 #@! TO.N,Net-(D2-Pad2)*
X91016000Y-47686000D03*
G04 #@! TO.P,U5,2*
G04 #@! TO.N,GND_Protected*
X91016000Y-46736000D03*
G04 #@! TO.P,U5,3*
G04 #@! TO.N,Net-(R5-Pad2)*
X91016000Y-45786000D03*
G04 #@! TO.P,U5,4*
G04 #@! TO.N,BAT+*
X88816000Y-45786000D03*
G04 #@! TO.P,U5,6*
G04 #@! TO.N,N/C*
X88816000Y-47686000D03*
G04 #@! TO.P,U5,5*
G04 #@! TO.N,BAT+*
X88816000Y-46736000D03*
G04 #@! TD*
D10*
G04 #@! TO.N,Net-(R5-Pad2)*
G04 #@! TO.C,R5*
G36*
X94326142Y-47053174D02*
X94349803Y-47056684D01*
X94373007Y-47062496D01*
X94395529Y-47070554D01*
X94417153Y-47080782D01*
X94437670Y-47093079D01*
X94456883Y-47107329D01*
X94474607Y-47123393D01*
X94490671Y-47141117D01*
X94504921Y-47160330D01*
X94517218Y-47180847D01*
X94527446Y-47202471D01*
X94535504Y-47224993D01*
X94541316Y-47248197D01*
X94544826Y-47271858D01*
X94546000Y-47295750D01*
X94546000Y-48208250D01*
X94544826Y-48232142D01*
X94541316Y-48255803D01*
X94535504Y-48279007D01*
X94527446Y-48301529D01*
X94517218Y-48323153D01*
X94504921Y-48343670D01*
X94490671Y-48362883D01*
X94474607Y-48380607D01*
X94456883Y-48396671D01*
X94437670Y-48410921D01*
X94417153Y-48423218D01*
X94395529Y-48433446D01*
X94373007Y-48441504D01*
X94349803Y-48447316D01*
X94326142Y-48450826D01*
X94302250Y-48452000D01*
X93814750Y-48452000D01*
X93790858Y-48450826D01*
X93767197Y-48447316D01*
X93743993Y-48441504D01*
X93721471Y-48433446D01*
X93699847Y-48423218D01*
X93679330Y-48410921D01*
X93660117Y-48396671D01*
X93642393Y-48380607D01*
X93626329Y-48362883D01*
X93612079Y-48343670D01*
X93599782Y-48323153D01*
X93589554Y-48301529D01*
X93581496Y-48279007D01*
X93575684Y-48255803D01*
X93572174Y-48232142D01*
X93571000Y-48208250D01*
X93571000Y-47295750D01*
X93572174Y-47271858D01*
X93575684Y-47248197D01*
X93581496Y-47224993D01*
X93589554Y-47202471D01*
X93599782Y-47180847D01*
X93612079Y-47160330D01*
X93626329Y-47141117D01*
X93642393Y-47123393D01*
X93660117Y-47107329D01*
X93679330Y-47093079D01*
X93699847Y-47080782D01*
X93721471Y-47070554D01*
X93743993Y-47062496D01*
X93767197Y-47056684D01*
X93790858Y-47053174D01*
X93814750Y-47052000D01*
X94302250Y-47052000D01*
X94326142Y-47053174D01*
X94326142Y-47053174D01*
G37*
D11*
G04 #@! TD*
G04 #@! TO.P,R5,2*
G04 #@! TO.N,Net-(R5-Pad2)*
X94058500Y-47752000D03*
D10*
G04 #@! TO.N,Net-(C5-Pad1)*
G04 #@! TO.C,R5*
G36*
X96201142Y-47053174D02*
X96224803Y-47056684D01*
X96248007Y-47062496D01*
X96270529Y-47070554D01*
X96292153Y-47080782D01*
X96312670Y-47093079D01*
X96331883Y-47107329D01*
X96349607Y-47123393D01*
X96365671Y-47141117D01*
X96379921Y-47160330D01*
X96392218Y-47180847D01*
X96402446Y-47202471D01*
X96410504Y-47224993D01*
X96416316Y-47248197D01*
X96419826Y-47271858D01*
X96421000Y-47295750D01*
X96421000Y-48208250D01*
X96419826Y-48232142D01*
X96416316Y-48255803D01*
X96410504Y-48279007D01*
X96402446Y-48301529D01*
X96392218Y-48323153D01*
X96379921Y-48343670D01*
X96365671Y-48362883D01*
X96349607Y-48380607D01*
X96331883Y-48396671D01*
X96312670Y-48410921D01*
X96292153Y-48423218D01*
X96270529Y-48433446D01*
X96248007Y-48441504D01*
X96224803Y-48447316D01*
X96201142Y-48450826D01*
X96177250Y-48452000D01*
X95689750Y-48452000D01*
X95665858Y-48450826D01*
X95642197Y-48447316D01*
X95618993Y-48441504D01*
X95596471Y-48433446D01*
X95574847Y-48423218D01*
X95554330Y-48410921D01*
X95535117Y-48396671D01*
X95517393Y-48380607D01*
X95501329Y-48362883D01*
X95487079Y-48343670D01*
X95474782Y-48323153D01*
X95464554Y-48301529D01*
X95456496Y-48279007D01*
X95450684Y-48255803D01*
X95447174Y-48232142D01*
X95446000Y-48208250D01*
X95446000Y-47295750D01*
X95447174Y-47271858D01*
X95450684Y-47248197D01*
X95456496Y-47224993D01*
X95464554Y-47202471D01*
X95474782Y-47180847D01*
X95487079Y-47160330D01*
X95501329Y-47141117D01*
X95517393Y-47123393D01*
X95535117Y-47107329D01*
X95554330Y-47093079D01*
X95574847Y-47080782D01*
X95596471Y-47070554D01*
X95618993Y-47062496D01*
X95642197Y-47056684D01*
X95665858Y-47053174D01*
X95689750Y-47052000D01*
X96177250Y-47052000D01*
X96201142Y-47053174D01*
X96201142Y-47053174D01*
G37*
D11*
G04 #@! TD*
G04 #@! TO.P,R5,1*
G04 #@! TO.N,Net-(C5-Pad1)*
X95933500Y-47752000D03*
D10*
G04 #@! TO.N,Net-(R5-Pad2)*
G04 #@! TO.C,R6*
G36*
X94326142Y-45021174D02*
X94349803Y-45024684D01*
X94373007Y-45030496D01*
X94395529Y-45038554D01*
X94417153Y-45048782D01*
X94437670Y-45061079D01*
X94456883Y-45075329D01*
X94474607Y-45091393D01*
X94490671Y-45109117D01*
X94504921Y-45128330D01*
X94517218Y-45148847D01*
X94527446Y-45170471D01*
X94535504Y-45192993D01*
X94541316Y-45216197D01*
X94544826Y-45239858D01*
X94546000Y-45263750D01*
X94546000Y-46176250D01*
X94544826Y-46200142D01*
X94541316Y-46223803D01*
X94535504Y-46247007D01*
X94527446Y-46269529D01*
X94517218Y-46291153D01*
X94504921Y-46311670D01*
X94490671Y-46330883D01*
X94474607Y-46348607D01*
X94456883Y-46364671D01*
X94437670Y-46378921D01*
X94417153Y-46391218D01*
X94395529Y-46401446D01*
X94373007Y-46409504D01*
X94349803Y-46415316D01*
X94326142Y-46418826D01*
X94302250Y-46420000D01*
X93814750Y-46420000D01*
X93790858Y-46418826D01*
X93767197Y-46415316D01*
X93743993Y-46409504D01*
X93721471Y-46401446D01*
X93699847Y-46391218D01*
X93679330Y-46378921D01*
X93660117Y-46364671D01*
X93642393Y-46348607D01*
X93626329Y-46330883D01*
X93612079Y-46311670D01*
X93599782Y-46291153D01*
X93589554Y-46269529D01*
X93581496Y-46247007D01*
X93575684Y-46223803D01*
X93572174Y-46200142D01*
X93571000Y-46176250D01*
X93571000Y-45263750D01*
X93572174Y-45239858D01*
X93575684Y-45216197D01*
X93581496Y-45192993D01*
X93589554Y-45170471D01*
X93599782Y-45148847D01*
X93612079Y-45128330D01*
X93626329Y-45109117D01*
X93642393Y-45091393D01*
X93660117Y-45075329D01*
X93679330Y-45061079D01*
X93699847Y-45048782D01*
X93721471Y-45038554D01*
X93743993Y-45030496D01*
X93767197Y-45024684D01*
X93790858Y-45021174D01*
X93814750Y-45020000D01*
X94302250Y-45020000D01*
X94326142Y-45021174D01*
X94326142Y-45021174D01*
G37*
D11*
G04 #@! TD*
G04 #@! TO.P,R6,1*
G04 #@! TO.N,Net-(R5-Pad2)*
X94058500Y-45720000D03*
D10*
G04 #@! TO.N,GND_Protected*
G04 #@! TO.C,R6*
G36*
X96201142Y-45021174D02*
X96224803Y-45024684D01*
X96248007Y-45030496D01*
X96270529Y-45038554D01*
X96292153Y-45048782D01*
X96312670Y-45061079D01*
X96331883Y-45075329D01*
X96349607Y-45091393D01*
X96365671Y-45109117D01*
X96379921Y-45128330D01*
X96392218Y-45148847D01*
X96402446Y-45170471D01*
X96410504Y-45192993D01*
X96416316Y-45216197D01*
X96419826Y-45239858D01*
X96421000Y-45263750D01*
X96421000Y-46176250D01*
X96419826Y-46200142D01*
X96416316Y-46223803D01*
X96410504Y-46247007D01*
X96402446Y-46269529D01*
X96392218Y-46291153D01*
X96379921Y-46311670D01*
X96365671Y-46330883D01*
X96349607Y-46348607D01*
X96331883Y-46364671D01*
X96312670Y-46378921D01*
X96292153Y-46391218D01*
X96270529Y-46401446D01*
X96248007Y-46409504D01*
X96224803Y-46415316D01*
X96201142Y-46418826D01*
X96177250Y-46420000D01*
X95689750Y-46420000D01*
X95665858Y-46418826D01*
X95642197Y-46415316D01*
X95618993Y-46409504D01*
X95596471Y-46401446D01*
X95574847Y-46391218D01*
X95554330Y-46378921D01*
X95535117Y-46364671D01*
X95517393Y-46348607D01*
X95501329Y-46330883D01*
X95487079Y-46311670D01*
X95474782Y-46291153D01*
X95464554Y-46269529D01*
X95456496Y-46247007D01*
X95450684Y-46223803D01*
X95447174Y-46200142D01*
X95446000Y-46176250D01*
X95446000Y-45263750D01*
X95447174Y-45239858D01*
X95450684Y-45216197D01*
X95456496Y-45192993D01*
X95464554Y-45170471D01*
X95474782Y-45148847D01*
X95487079Y-45128330D01*
X95501329Y-45109117D01*
X95517393Y-45091393D01*
X95535117Y-45075329D01*
X95554330Y-45061079D01*
X95574847Y-45048782D01*
X95596471Y-45038554D01*
X95618993Y-45030496D01*
X95642197Y-45024684D01*
X95665858Y-45021174D01*
X95689750Y-45020000D01*
X96177250Y-45020000D01*
X96201142Y-45021174D01*
X96201142Y-45021174D01*
G37*
D11*
G04 #@! TD*
G04 #@! TO.P,R6,2*
G04 #@! TO.N,GND_Protected*
X95933500Y-45720000D03*
D10*
G04 #@! TO.N,chrg_indicator*
G04 #@! TO.C,R1*
G36*
X72306642Y-50863174D02*
X72330303Y-50866684D01*
X72353507Y-50872496D01*
X72376029Y-50880554D01*
X72397653Y-50890782D01*
X72418170Y-50903079D01*
X72437383Y-50917329D01*
X72455107Y-50933393D01*
X72471171Y-50951117D01*
X72485421Y-50970330D01*
X72497718Y-50990847D01*
X72507946Y-51012471D01*
X72516004Y-51034993D01*
X72521816Y-51058197D01*
X72525326Y-51081858D01*
X72526500Y-51105750D01*
X72526500Y-52018250D01*
X72525326Y-52042142D01*
X72521816Y-52065803D01*
X72516004Y-52089007D01*
X72507946Y-52111529D01*
X72497718Y-52133153D01*
X72485421Y-52153670D01*
X72471171Y-52172883D01*
X72455107Y-52190607D01*
X72437383Y-52206671D01*
X72418170Y-52220921D01*
X72397653Y-52233218D01*
X72376029Y-52243446D01*
X72353507Y-52251504D01*
X72330303Y-52257316D01*
X72306642Y-52260826D01*
X72282750Y-52262000D01*
X71795250Y-52262000D01*
X71771358Y-52260826D01*
X71747697Y-52257316D01*
X71724493Y-52251504D01*
X71701971Y-52243446D01*
X71680347Y-52233218D01*
X71659830Y-52220921D01*
X71640617Y-52206671D01*
X71622893Y-52190607D01*
X71606829Y-52172883D01*
X71592579Y-52153670D01*
X71580282Y-52133153D01*
X71570054Y-52111529D01*
X71561996Y-52089007D01*
X71556184Y-52065803D01*
X71552674Y-52042142D01*
X71551500Y-52018250D01*
X71551500Y-51105750D01*
X71552674Y-51081858D01*
X71556184Y-51058197D01*
X71561996Y-51034993D01*
X71570054Y-51012471D01*
X71580282Y-50990847D01*
X71592579Y-50970330D01*
X71606829Y-50951117D01*
X71622893Y-50933393D01*
X71640617Y-50917329D01*
X71659830Y-50903079D01*
X71680347Y-50890782D01*
X71701971Y-50880554D01*
X71724493Y-50872496D01*
X71747697Y-50866684D01*
X71771358Y-50863174D01*
X71795250Y-50862000D01*
X72282750Y-50862000D01*
X72306642Y-50863174D01*
X72306642Y-50863174D01*
G37*
D11*
G04 #@! TD*
G04 #@! TO.P,R1,2*
G04 #@! TO.N,chrg_indicator*
X72039000Y-51562000D03*
D10*
G04 #@! TO.N,Net-(D1-Pad1)*
G04 #@! TO.C,R1*
G36*
X74181642Y-50863174D02*
X74205303Y-50866684D01*
X74228507Y-50872496D01*
X74251029Y-50880554D01*
X74272653Y-50890782D01*
X74293170Y-50903079D01*
X74312383Y-50917329D01*
X74330107Y-50933393D01*
X74346171Y-50951117D01*
X74360421Y-50970330D01*
X74372718Y-50990847D01*
X74382946Y-51012471D01*
X74391004Y-51034993D01*
X74396816Y-51058197D01*
X74400326Y-51081858D01*
X74401500Y-51105750D01*
X74401500Y-52018250D01*
X74400326Y-52042142D01*
X74396816Y-52065803D01*
X74391004Y-52089007D01*
X74382946Y-52111529D01*
X74372718Y-52133153D01*
X74360421Y-52153670D01*
X74346171Y-52172883D01*
X74330107Y-52190607D01*
X74312383Y-52206671D01*
X74293170Y-52220921D01*
X74272653Y-52233218D01*
X74251029Y-52243446D01*
X74228507Y-52251504D01*
X74205303Y-52257316D01*
X74181642Y-52260826D01*
X74157750Y-52262000D01*
X73670250Y-52262000D01*
X73646358Y-52260826D01*
X73622697Y-52257316D01*
X73599493Y-52251504D01*
X73576971Y-52243446D01*
X73555347Y-52233218D01*
X73534830Y-52220921D01*
X73515617Y-52206671D01*
X73497893Y-52190607D01*
X73481829Y-52172883D01*
X73467579Y-52153670D01*
X73455282Y-52133153D01*
X73445054Y-52111529D01*
X73436996Y-52089007D01*
X73431184Y-52065803D01*
X73427674Y-52042142D01*
X73426500Y-52018250D01*
X73426500Y-51105750D01*
X73427674Y-51081858D01*
X73431184Y-51058197D01*
X73436996Y-51034993D01*
X73445054Y-51012471D01*
X73455282Y-50990847D01*
X73467579Y-50970330D01*
X73481829Y-50951117D01*
X73497893Y-50933393D01*
X73515617Y-50917329D01*
X73534830Y-50903079D01*
X73555347Y-50890782D01*
X73576971Y-50880554D01*
X73599493Y-50872496D01*
X73622697Y-50866684D01*
X73646358Y-50863174D01*
X73670250Y-50862000D01*
X74157750Y-50862000D01*
X74181642Y-50863174D01*
X74181642Y-50863174D01*
G37*
D11*
G04 #@! TD*
G04 #@! TO.P,R1,1*
G04 #@! TO.N,Net-(D1-Pad1)*
X73914000Y-51562000D03*
D10*
G04 #@! TO.N,Net-(R2-Pad1)*
G04 #@! TO.C,R2*
G36*
X83538142Y-53948174D02*
X83561803Y-53951684D01*
X83585007Y-53957496D01*
X83607529Y-53965554D01*
X83629153Y-53975782D01*
X83649670Y-53988079D01*
X83668883Y-54002329D01*
X83686607Y-54018393D01*
X83702671Y-54036117D01*
X83716921Y-54055330D01*
X83729218Y-54075847D01*
X83739446Y-54097471D01*
X83747504Y-54119993D01*
X83753316Y-54143197D01*
X83756826Y-54166858D01*
X83758000Y-54190750D01*
X83758000Y-54678250D01*
X83756826Y-54702142D01*
X83753316Y-54725803D01*
X83747504Y-54749007D01*
X83739446Y-54771529D01*
X83729218Y-54793153D01*
X83716921Y-54813670D01*
X83702671Y-54832883D01*
X83686607Y-54850607D01*
X83668883Y-54866671D01*
X83649670Y-54880921D01*
X83629153Y-54893218D01*
X83607529Y-54903446D01*
X83585007Y-54911504D01*
X83561803Y-54917316D01*
X83538142Y-54920826D01*
X83514250Y-54922000D01*
X82601750Y-54922000D01*
X82577858Y-54920826D01*
X82554197Y-54917316D01*
X82530993Y-54911504D01*
X82508471Y-54903446D01*
X82486847Y-54893218D01*
X82466330Y-54880921D01*
X82447117Y-54866671D01*
X82429393Y-54850607D01*
X82413329Y-54832883D01*
X82399079Y-54813670D01*
X82386782Y-54793153D01*
X82376554Y-54771529D01*
X82368496Y-54749007D01*
X82362684Y-54725803D01*
X82359174Y-54702142D01*
X82358000Y-54678250D01*
X82358000Y-54190750D01*
X82359174Y-54166858D01*
X82362684Y-54143197D01*
X82368496Y-54119993D01*
X82376554Y-54097471D01*
X82386782Y-54075847D01*
X82399079Y-54055330D01*
X82413329Y-54036117D01*
X82429393Y-54018393D01*
X82447117Y-54002329D01*
X82466330Y-53988079D01*
X82486847Y-53975782D01*
X82508471Y-53965554D01*
X82530993Y-53957496D01*
X82554197Y-53951684D01*
X82577858Y-53948174D01*
X82601750Y-53947000D01*
X83514250Y-53947000D01*
X83538142Y-53948174D01*
X83538142Y-53948174D01*
G37*
D11*
G04 #@! TD*
G04 #@! TO.P,R2,1*
G04 #@! TO.N,Net-(R2-Pad1)*
X83058000Y-54434500D03*
D10*
G04 #@! TO.N,GND_Protected*
G04 #@! TO.C,R2*
G36*
X83538142Y-55823174D02*
X83561803Y-55826684D01*
X83585007Y-55832496D01*
X83607529Y-55840554D01*
X83629153Y-55850782D01*
X83649670Y-55863079D01*
X83668883Y-55877329D01*
X83686607Y-55893393D01*
X83702671Y-55911117D01*
X83716921Y-55930330D01*
X83729218Y-55950847D01*
X83739446Y-55972471D01*
X83747504Y-55994993D01*
X83753316Y-56018197D01*
X83756826Y-56041858D01*
X83758000Y-56065750D01*
X83758000Y-56553250D01*
X83756826Y-56577142D01*
X83753316Y-56600803D01*
X83747504Y-56624007D01*
X83739446Y-56646529D01*
X83729218Y-56668153D01*
X83716921Y-56688670D01*
X83702671Y-56707883D01*
X83686607Y-56725607D01*
X83668883Y-56741671D01*
X83649670Y-56755921D01*
X83629153Y-56768218D01*
X83607529Y-56778446D01*
X83585007Y-56786504D01*
X83561803Y-56792316D01*
X83538142Y-56795826D01*
X83514250Y-56797000D01*
X82601750Y-56797000D01*
X82577858Y-56795826D01*
X82554197Y-56792316D01*
X82530993Y-56786504D01*
X82508471Y-56778446D01*
X82486847Y-56768218D01*
X82466330Y-56755921D01*
X82447117Y-56741671D01*
X82429393Y-56725607D01*
X82413329Y-56707883D01*
X82399079Y-56688670D01*
X82386782Y-56668153D01*
X82376554Y-56646529D01*
X82368496Y-56624007D01*
X82362684Y-56600803D01*
X82359174Y-56577142D01*
X82358000Y-56553250D01*
X82358000Y-56065750D01*
X82359174Y-56041858D01*
X82362684Y-56018197D01*
X82368496Y-55994993D01*
X82376554Y-55972471D01*
X82386782Y-55950847D01*
X82399079Y-55930330D01*
X82413329Y-55911117D01*
X82429393Y-55893393D01*
X82447117Y-55877329D01*
X82466330Y-55863079D01*
X82486847Y-55850782D01*
X82508471Y-55840554D01*
X82530993Y-55832496D01*
X82554197Y-55826684D01*
X82577858Y-55823174D01*
X82601750Y-55822000D01*
X83514250Y-55822000D01*
X83538142Y-55823174D01*
X83538142Y-55823174D01*
G37*
D11*
G04 #@! TD*
G04 #@! TO.P,R2,2*
G04 #@! TO.N,GND_Protected*
X83058000Y-56309500D03*
D10*
G04 #@! TO.N,BAT-*
G04 #@! TO.C,R3*
G36*
X71817142Y-47053174D02*
X71840803Y-47056684D01*
X71864007Y-47062496D01*
X71886529Y-47070554D01*
X71908153Y-47080782D01*
X71928670Y-47093079D01*
X71947883Y-47107329D01*
X71965607Y-47123393D01*
X71981671Y-47141117D01*
X71995921Y-47160330D01*
X72008218Y-47180847D01*
X72018446Y-47202471D01*
X72026504Y-47224993D01*
X72032316Y-47248197D01*
X72035826Y-47271858D01*
X72037000Y-47295750D01*
X72037000Y-48208250D01*
X72035826Y-48232142D01*
X72032316Y-48255803D01*
X72026504Y-48279007D01*
X72018446Y-48301529D01*
X72008218Y-48323153D01*
X71995921Y-48343670D01*
X71981671Y-48362883D01*
X71965607Y-48380607D01*
X71947883Y-48396671D01*
X71928670Y-48410921D01*
X71908153Y-48423218D01*
X71886529Y-48433446D01*
X71864007Y-48441504D01*
X71840803Y-48447316D01*
X71817142Y-48450826D01*
X71793250Y-48452000D01*
X71305750Y-48452000D01*
X71281858Y-48450826D01*
X71258197Y-48447316D01*
X71234993Y-48441504D01*
X71212471Y-48433446D01*
X71190847Y-48423218D01*
X71170330Y-48410921D01*
X71151117Y-48396671D01*
X71133393Y-48380607D01*
X71117329Y-48362883D01*
X71103079Y-48343670D01*
X71090782Y-48323153D01*
X71080554Y-48301529D01*
X71072496Y-48279007D01*
X71066684Y-48255803D01*
X71063174Y-48232142D01*
X71062000Y-48208250D01*
X71062000Y-47295750D01*
X71063174Y-47271858D01*
X71066684Y-47248197D01*
X71072496Y-47224993D01*
X71080554Y-47202471D01*
X71090782Y-47180847D01*
X71103079Y-47160330D01*
X71117329Y-47141117D01*
X71133393Y-47123393D01*
X71151117Y-47107329D01*
X71170330Y-47093079D01*
X71190847Y-47080782D01*
X71212471Y-47070554D01*
X71234993Y-47062496D01*
X71258197Y-47056684D01*
X71281858Y-47053174D01*
X71305750Y-47052000D01*
X71793250Y-47052000D01*
X71817142Y-47053174D01*
X71817142Y-47053174D01*
G37*
D11*
G04 #@! TD*
G04 #@! TO.P,R3,2*
G04 #@! TO.N,BAT-*
X71549500Y-47752000D03*
D10*
G04 #@! TO.N,Net-(R3-Pad1)*
G04 #@! TO.C,R3*
G36*
X69942142Y-47053174D02*
X69965803Y-47056684D01*
X69989007Y-47062496D01*
X70011529Y-47070554D01*
X70033153Y-47080782D01*
X70053670Y-47093079D01*
X70072883Y-47107329D01*
X70090607Y-47123393D01*
X70106671Y-47141117D01*
X70120921Y-47160330D01*
X70133218Y-47180847D01*
X70143446Y-47202471D01*
X70151504Y-47224993D01*
X70157316Y-47248197D01*
X70160826Y-47271858D01*
X70162000Y-47295750D01*
X70162000Y-48208250D01*
X70160826Y-48232142D01*
X70157316Y-48255803D01*
X70151504Y-48279007D01*
X70143446Y-48301529D01*
X70133218Y-48323153D01*
X70120921Y-48343670D01*
X70106671Y-48362883D01*
X70090607Y-48380607D01*
X70072883Y-48396671D01*
X70053670Y-48410921D01*
X70033153Y-48423218D01*
X70011529Y-48433446D01*
X69989007Y-48441504D01*
X69965803Y-48447316D01*
X69942142Y-48450826D01*
X69918250Y-48452000D01*
X69430750Y-48452000D01*
X69406858Y-48450826D01*
X69383197Y-48447316D01*
X69359993Y-48441504D01*
X69337471Y-48433446D01*
X69315847Y-48423218D01*
X69295330Y-48410921D01*
X69276117Y-48396671D01*
X69258393Y-48380607D01*
X69242329Y-48362883D01*
X69228079Y-48343670D01*
X69215782Y-48323153D01*
X69205554Y-48301529D01*
X69197496Y-48279007D01*
X69191684Y-48255803D01*
X69188174Y-48232142D01*
X69187000Y-48208250D01*
X69187000Y-47295750D01*
X69188174Y-47271858D01*
X69191684Y-47248197D01*
X69197496Y-47224993D01*
X69205554Y-47202471D01*
X69215782Y-47180847D01*
X69228079Y-47160330D01*
X69242329Y-47141117D01*
X69258393Y-47123393D01*
X69276117Y-47107329D01*
X69295330Y-47093079D01*
X69315847Y-47080782D01*
X69337471Y-47070554D01*
X69359993Y-47062496D01*
X69383197Y-47056684D01*
X69406858Y-47053174D01*
X69430750Y-47052000D01*
X69918250Y-47052000D01*
X69942142Y-47053174D01*
X69942142Y-47053174D01*
G37*
D11*
G04 #@! TD*
G04 #@! TO.P,R3,1*
G04 #@! TO.N,Net-(R3-Pad1)*
X69674500Y-47752000D03*
D10*
G04 #@! TO.N,Net-(C2-Pad1)*
G04 #@! TO.C,R4*
G36*
X84928142Y-45783174D02*
X84951803Y-45786684D01*
X84975007Y-45792496D01*
X84997529Y-45800554D01*
X85019153Y-45810782D01*
X85039670Y-45823079D01*
X85058883Y-45837329D01*
X85076607Y-45853393D01*
X85092671Y-45871117D01*
X85106921Y-45890330D01*
X85119218Y-45910847D01*
X85129446Y-45932471D01*
X85137504Y-45954993D01*
X85143316Y-45978197D01*
X85146826Y-46001858D01*
X85148000Y-46025750D01*
X85148000Y-46938250D01*
X85146826Y-46962142D01*
X85143316Y-46985803D01*
X85137504Y-47009007D01*
X85129446Y-47031529D01*
X85119218Y-47053153D01*
X85106921Y-47073670D01*
X85092671Y-47092883D01*
X85076607Y-47110607D01*
X85058883Y-47126671D01*
X85039670Y-47140921D01*
X85019153Y-47153218D01*
X84997529Y-47163446D01*
X84975007Y-47171504D01*
X84951803Y-47177316D01*
X84928142Y-47180826D01*
X84904250Y-47182000D01*
X84416750Y-47182000D01*
X84392858Y-47180826D01*
X84369197Y-47177316D01*
X84345993Y-47171504D01*
X84323471Y-47163446D01*
X84301847Y-47153218D01*
X84281330Y-47140921D01*
X84262117Y-47126671D01*
X84244393Y-47110607D01*
X84228329Y-47092883D01*
X84214079Y-47073670D01*
X84201782Y-47053153D01*
X84191554Y-47031529D01*
X84183496Y-47009007D01*
X84177684Y-46985803D01*
X84174174Y-46962142D01*
X84173000Y-46938250D01*
X84173000Y-46025750D01*
X84174174Y-46001858D01*
X84177684Y-45978197D01*
X84183496Y-45954993D01*
X84191554Y-45932471D01*
X84201782Y-45910847D01*
X84214079Y-45890330D01*
X84228329Y-45871117D01*
X84244393Y-45853393D01*
X84262117Y-45837329D01*
X84281330Y-45823079D01*
X84301847Y-45810782D01*
X84323471Y-45800554D01*
X84345993Y-45792496D01*
X84369197Y-45786684D01*
X84392858Y-45783174D01*
X84416750Y-45782000D01*
X84904250Y-45782000D01*
X84928142Y-45783174D01*
X84928142Y-45783174D01*
G37*
D11*
G04 #@! TD*
G04 #@! TO.P,R4,1*
G04 #@! TO.N,Net-(C2-Pad1)*
X84660500Y-46482000D03*
D10*
G04 #@! TO.N,BAT+*
G04 #@! TO.C,R4*
G36*
X86803142Y-45783174D02*
X86826803Y-45786684D01*
X86850007Y-45792496D01*
X86872529Y-45800554D01*
X86894153Y-45810782D01*
X86914670Y-45823079D01*
X86933883Y-45837329D01*
X86951607Y-45853393D01*
X86967671Y-45871117D01*
X86981921Y-45890330D01*
X86994218Y-45910847D01*
X87004446Y-45932471D01*
X87012504Y-45954993D01*
X87018316Y-45978197D01*
X87021826Y-46001858D01*
X87023000Y-46025750D01*
X87023000Y-46938250D01*
X87021826Y-46962142D01*
X87018316Y-46985803D01*
X87012504Y-47009007D01*
X87004446Y-47031529D01*
X86994218Y-47053153D01*
X86981921Y-47073670D01*
X86967671Y-47092883D01*
X86951607Y-47110607D01*
X86933883Y-47126671D01*
X86914670Y-47140921D01*
X86894153Y-47153218D01*
X86872529Y-47163446D01*
X86850007Y-47171504D01*
X86826803Y-47177316D01*
X86803142Y-47180826D01*
X86779250Y-47182000D01*
X86291750Y-47182000D01*
X86267858Y-47180826D01*
X86244197Y-47177316D01*
X86220993Y-47171504D01*
X86198471Y-47163446D01*
X86176847Y-47153218D01*
X86156330Y-47140921D01*
X86137117Y-47126671D01*
X86119393Y-47110607D01*
X86103329Y-47092883D01*
X86089079Y-47073670D01*
X86076782Y-47053153D01*
X86066554Y-47031529D01*
X86058496Y-47009007D01*
X86052684Y-46985803D01*
X86049174Y-46962142D01*
X86048000Y-46938250D01*
X86048000Y-46025750D01*
X86049174Y-46001858D01*
X86052684Y-45978197D01*
X86058496Y-45954993D01*
X86066554Y-45932471D01*
X86076782Y-45910847D01*
X86089079Y-45890330D01*
X86103329Y-45871117D01*
X86119393Y-45853393D01*
X86137117Y-45837329D01*
X86156330Y-45823079D01*
X86176847Y-45810782D01*
X86198471Y-45800554D01*
X86220993Y-45792496D01*
X86244197Y-45786684D01*
X86267858Y-45783174D01*
X86291750Y-45782000D01*
X86779250Y-45782000D01*
X86803142Y-45783174D01*
X86803142Y-45783174D01*
G37*
D11*
G04 #@! TD*
G04 #@! TO.P,R4,2*
G04 #@! TO.N,BAT+*
X86535500Y-46482000D03*
D22*
G04 #@! TO.N,Net-(C2-Pad1)*
X81534000Y-54610000D03*
X81534000Y-50038000D03*
G04 #@! TO.N,BAT+*
X86614000Y-43688000D03*
X85344000Y-43735001D03*
X84074000Y-43735001D03*
X82550000Y-43735001D03*
G04 #@! TO.N,BAT-*
X68834000Y-46482000D03*
X68834000Y-50546000D03*
G04 #@! TO.N,Net-(R2-Pad1)*
X77947998Y-54864000D03*
X81280000Y-55626000D03*
G04 #@! TO.N,GND_Protected*
X75184000Y-56896000D03*
X76200000Y-56896000D03*
X77216000Y-56896000D03*
X78232000Y-56896000D03*
X97028000Y-45720000D03*
X92202000Y-46736000D03*
X86360000Y-48514000D03*
G04 #@! TO.N,Net-(U1-Pad3)*
X74676000Y-53086000D03*
G04 #@! TO.N,Net-(U1-Pad1)*
X75692000Y-53594000D03*
X72644000Y-55575998D03*
G04 #@! TD*
D23*
G04 #@! TO.N,Net-(C2-Pad1)*
X79078000Y-54610000D02*
X81534000Y-54610000D01*
X81534000Y-48435500D02*
X81709500Y-48260000D01*
X81534000Y-50038000D02*
X81534000Y-48435500D01*
D24*
X82882500Y-48260000D02*
X84660500Y-46482000D01*
X81709500Y-48260000D02*
X82882500Y-48260000D01*
G04 #@! TO.N,BAT+*
X66953001Y-48815001D02*
X67734000Y-49596000D01*
X63895001Y-48815001D02*
X66953001Y-48815001D01*
D23*
X64371502Y-43258500D02*
X63895001Y-43735001D01*
X68834000Y-43258500D02*
X64371502Y-43258500D01*
D24*
X82597001Y-43688000D02*
X82550000Y-43735001D01*
X86614000Y-43688000D02*
X82597001Y-43688000D01*
X86614000Y-46403500D02*
X86535500Y-46482000D01*
X86614000Y-43688000D02*
X86614000Y-46403500D01*
X86535500Y-46482000D02*
X88646000Y-46482000D01*
X88646000Y-45956000D02*
X88816000Y-45786000D01*
X88646000Y-46482000D02*
X88646000Y-45956000D01*
X85090000Y-51509500D02*
X87428500Y-53848000D01*
X85090000Y-50389000D02*
X85090000Y-51509500D01*
X87091737Y-47038237D02*
X86535500Y-46482000D01*
X87335001Y-47281501D02*
X87091737Y-47038237D01*
X87335001Y-48982001D02*
X87335001Y-47281501D01*
X85928002Y-50389000D02*
X87335001Y-48982001D01*
X85090000Y-50389000D02*
X85928002Y-50389000D01*
G04 #@! TO.N,BAT-*
X63895001Y-56435001D02*
X63895001Y-51355001D01*
X64704002Y-50546000D02*
X63895001Y-51355001D01*
X67734000Y-50546000D02*
X64704002Y-50546000D01*
X64626000Y-54626000D02*
X63895001Y-53895001D01*
X66868000Y-54626000D02*
X64626000Y-54626000D01*
D23*
X72137000Y-47752000D02*
X71549500Y-47752000D01*
X72864000Y-47752000D02*
X72137000Y-47752000D01*
X74753500Y-45862500D02*
X72864000Y-47752000D01*
X74753500Y-45550000D02*
X74753500Y-45862500D01*
X71549500Y-47752000D02*
X70537010Y-47752000D01*
X70537010Y-47039450D02*
X70174550Y-46676990D01*
X70174550Y-46676990D02*
X69174450Y-46676990D01*
X69174450Y-46676990D02*
X69101720Y-46749720D01*
X70537010Y-47752000D02*
X70537010Y-47039450D01*
X69101720Y-46749720D02*
X68834000Y-46482000D01*
X68834000Y-50546000D02*
X67734000Y-50546000D01*
X68834000Y-45133500D02*
X68834000Y-46482000D01*
X79834500Y-49608500D02*
X79834500Y-48260000D01*
X81788000Y-51562000D02*
X79834500Y-49608500D01*
X79834500Y-45706000D02*
X79678500Y-45550000D01*
X79834500Y-48260000D02*
X79834500Y-45706000D01*
X75113500Y-45910000D02*
X74753500Y-45550000D01*
X75916000Y-45910000D02*
X75113500Y-45910000D01*
X79678500Y-43697500D02*
X80126000Y-43250000D01*
X79678500Y-45550000D02*
X79678500Y-43697500D01*
X80126000Y-43250000D02*
X78056000Y-43250000D01*
X78056000Y-43250000D02*
X76376000Y-43250000D01*
X76376000Y-43250000D02*
X74306000Y-43250000D01*
X74306000Y-45102500D02*
X74753500Y-45550000D01*
X74306000Y-43250000D02*
X74306000Y-45102500D01*
X81788000Y-51830000D02*
X81788000Y-51562000D01*
X79958000Y-53660000D02*
X81788000Y-51830000D01*
X79078000Y-53660000D02*
X79958000Y-53660000D01*
G04 #@! TO.N,Net-(R3-Pad1)*
X69674500Y-49336500D02*
X69934000Y-49596000D01*
X69674500Y-47752000D02*
X69674500Y-49336500D01*
D25*
G04 #@! TO.N,Net-(R2-Pad1)*
X76878000Y-54610000D02*
X77693998Y-54610000D01*
X77693998Y-54610000D02*
X77947998Y-54864000D01*
X81866500Y-55626000D02*
X83058000Y-54434500D01*
X81280000Y-55626000D02*
X81866500Y-55626000D01*
D24*
G04 #@! TO.N,GND_Protected*
X72644000Y-56626000D02*
X74914000Y-56626000D01*
X74914000Y-56626000D02*
X75184000Y-56896000D01*
X75184000Y-56896000D02*
X78232000Y-56896000D01*
X82471500Y-56896000D02*
X83058000Y-56309500D01*
X78232000Y-56896000D02*
X82471500Y-56896000D01*
X102029500Y-49354500D02*
X102616000Y-48768000D01*
X99568000Y-49354500D02*
X102029500Y-49354500D01*
X102616000Y-48768000D02*
X102616000Y-43688000D01*
D25*
X95933500Y-45720000D02*
X97028000Y-45720000D01*
X91016000Y-46736000D02*
X92202000Y-46736000D01*
X85090000Y-48514000D02*
X86360000Y-48514000D01*
D23*
G04 #@! TO.N,chrg_indicator*
X71482763Y-52118237D02*
X72039000Y-51562000D01*
X71404999Y-52196001D02*
X71482763Y-52118237D01*
X68639001Y-52196001D02*
X71404999Y-52196001D01*
X67939000Y-51496000D02*
X68639001Y-52196001D01*
X67734000Y-51496000D02*
X67939000Y-51496000D01*
G04 #@! TO.N,Net-(D1-Pad1)*
X73914000Y-51562000D02*
X76024500Y-51562000D01*
D25*
G04 #@! TO.N,Net-(R5-Pad2)*
X94058500Y-45720000D02*
X94058500Y-47752000D01*
X91082000Y-45720000D02*
X91016000Y-45786000D01*
X94058500Y-45720000D02*
X91082000Y-45720000D01*
D24*
G04 #@! TO.N,Net-(C5-Pad1)*
X102362000Y-54102000D02*
X102616000Y-53848000D01*
X98174000Y-54102000D02*
X102362000Y-54102000D01*
X102616000Y-51308000D02*
X102616000Y-56388000D01*
X102537500Y-51229500D02*
X102616000Y-51308000D01*
X99568000Y-51229500D02*
X102537500Y-51229500D01*
X96090500Y-47752000D02*
X99568000Y-51229500D01*
X95933500Y-47752000D02*
X96090500Y-47752000D01*
G04 #@! TO.N,Net-(D2-Pad2)*
X91016000Y-52460500D02*
X92403500Y-53848000D01*
X91016000Y-47686000D02*
X91016000Y-52460500D01*
X95120000Y-53848000D02*
X95374000Y-54102000D01*
X92403500Y-53848000D02*
X95120000Y-53848000D01*
G04 #@! TO.N,Net-(U1-Pad3)*
X68768000Y-53426000D02*
X69108000Y-53086000D01*
X68768000Y-54626000D02*
X68768000Y-53426000D01*
X69108000Y-53086000D02*
X74676000Y-53086000D01*
X75937998Y-55560000D02*
X76878000Y-55560000D01*
X75772999Y-55395001D02*
X75937998Y-55560000D01*
X75772999Y-55372000D02*
X75772999Y-55395001D01*
X75749998Y-55372000D02*
X75772999Y-55372000D01*
X74676000Y-54298002D02*
X75749998Y-55372000D01*
X74676000Y-53086000D02*
X74676000Y-54298002D01*
D25*
G04 #@! TO.N,Net-(U1-Pad1)*
X76878000Y-53660000D02*
X75758000Y-53660000D01*
X75758000Y-53660000D02*
X75692000Y-53594000D01*
X72644002Y-55575998D02*
X73594000Y-54626000D01*
X72644000Y-55575998D02*
X72644002Y-55575998D01*
D23*
G04 #@! TO.N,Net-(C1-Pad1)*
X77899500Y-51562000D02*
X79913000Y-51562000D01*
X77343263Y-51005763D02*
X77899500Y-51562000D01*
X75524450Y-50486990D02*
X76824490Y-50486990D01*
X73354940Y-50546000D02*
X73413950Y-50486990D01*
X72598060Y-50546000D02*
X73354940Y-50546000D01*
X72539050Y-50486990D02*
X72598060Y-50546000D01*
X75465440Y-50546000D02*
X75524450Y-50486990D01*
X71538950Y-50486990D02*
X72539050Y-50486990D01*
X73413950Y-50486990D02*
X74414050Y-50486990D01*
X71479940Y-50546000D02*
X71538950Y-50486990D01*
X74473060Y-50546000D02*
X75465440Y-50546000D01*
X70514002Y-50546000D02*
X71479940Y-50546000D01*
X76824490Y-50486990D02*
X77343263Y-51005763D01*
X69934000Y-51126002D02*
X70514002Y-50546000D01*
X74414050Y-50486990D02*
X74473060Y-50546000D01*
X69934000Y-51496000D02*
X69934000Y-51126002D01*
X78516000Y-50945500D02*
X78516000Y-45910000D01*
X77899500Y-51562000D02*
X78516000Y-50945500D01*
D24*
G04 #@! TO.N,Net-(U3-Pad2)*
X69694000Y-56626000D02*
X71694000Y-54626000D01*
X67818000Y-56626000D02*
X69694000Y-56626000D01*
G04 #@! TD*
D26*
G04 #@! TO.N,BAT+*
G36*
X67774301Y-42232673D02*
X67595673Y-42411302D01*
X67499000Y-42644691D01*
X67499000Y-42972750D01*
X67657750Y-43131500D01*
X68707000Y-43131500D01*
X68707000Y-43111500D01*
X68961000Y-43111500D01*
X68961000Y-43131500D01*
X70010250Y-43131500D01*
X70169000Y-42972750D01*
X70169000Y-42644691D01*
X70072327Y-42411302D01*
X69893699Y-42232673D01*
X69662724Y-42137000D01*
X72503482Y-42137000D01*
X72471060Y-42300000D01*
X72471060Y-44200000D01*
X72520343Y-44447765D01*
X72660691Y-44657809D01*
X72870735Y-44798157D01*
X73118500Y-44847440D01*
X73368560Y-44847440D01*
X73368560Y-46101927D01*
X72576219Y-46894269D01*
X72423416Y-46665584D01*
X72134294Y-46472398D01*
X71793250Y-46404560D01*
X71305750Y-46404560D01*
X71104655Y-46444560D01*
X71053354Y-46410282D01*
X70803718Y-46160646D01*
X70758527Y-46093013D01*
X70490596Y-45913987D01*
X70254324Y-45866990D01*
X70254323Y-45866990D01*
X70174550Y-45851122D01*
X70094777Y-45866990D01*
X70014246Y-45866990D01*
X70113602Y-45718294D01*
X70181440Y-45377250D01*
X70181440Y-44889750D01*
X70113602Y-44548706D01*
X69920416Y-44259584D01*
X69919233Y-44258793D01*
X70072327Y-44105698D01*
X70169000Y-43872309D01*
X70169000Y-43544250D01*
X70010250Y-43385500D01*
X68961000Y-43385500D01*
X68961000Y-43405500D01*
X68707000Y-43405500D01*
X68707000Y-43385500D01*
X67657750Y-43385500D01*
X67499000Y-43544250D01*
X67499000Y-43872309D01*
X67595673Y-44105698D01*
X67748767Y-44258793D01*
X67747584Y-44259584D01*
X67554398Y-44548706D01*
X67486560Y-44889750D01*
X67486560Y-45377250D01*
X67554398Y-45718294D01*
X67747584Y-46007416D01*
X67875030Y-46092573D01*
X67799000Y-46276126D01*
X67799000Y-46687874D01*
X67956569Y-47068280D01*
X68247720Y-47359431D01*
X68539560Y-47480315D01*
X68539560Y-48208250D01*
X68607398Y-48549294D01*
X68800584Y-48838416D01*
X68864501Y-48881124D01*
X68864501Y-48935448D01*
X68832294Y-48983648D01*
X68802327Y-48911301D01*
X68623698Y-48732673D01*
X68390309Y-48636000D01*
X68019750Y-48636000D01*
X67861000Y-48794750D01*
X67861000Y-49469000D01*
X67881000Y-49469000D01*
X67881000Y-49545453D01*
X67833476Y-49536000D01*
X67587000Y-49536000D01*
X67587000Y-49469000D01*
X67607000Y-49469000D01*
X67607000Y-48794750D01*
X67448250Y-48636000D01*
X67077691Y-48636000D01*
X66844302Y-48732673D01*
X66665673Y-48911301D01*
X66569000Y-49144690D01*
X66569000Y-49310250D01*
X66727748Y-49468998D01*
X66569000Y-49468998D01*
X66569000Y-49536000D01*
X65185668Y-49536000D01*
X65336477Y-49171891D01*
X65215156Y-48942001D01*
X64022001Y-48942001D01*
X64022001Y-48962001D01*
X63768001Y-48962001D01*
X63768001Y-48942001D01*
X63748001Y-48942001D01*
X63748001Y-48688001D01*
X63768001Y-48688001D01*
X63768001Y-46402001D01*
X64022001Y-46402001D01*
X64022001Y-48688001D01*
X65215156Y-48688001D01*
X65336477Y-48458111D01*
X65166646Y-48048077D01*
X64776359Y-47619818D01*
X64617047Y-47545001D01*
X64776359Y-47470184D01*
X65166646Y-47041925D01*
X65336477Y-46631891D01*
X65215156Y-46402001D01*
X64022001Y-46402001D01*
X63768001Y-46402001D01*
X63748001Y-46402001D01*
X63748001Y-46148001D01*
X63768001Y-46148001D01*
X63768001Y-43862001D01*
X64022001Y-43862001D01*
X64022001Y-46148001D01*
X65215156Y-46148001D01*
X65336477Y-45918111D01*
X65166646Y-45508077D01*
X64895123Y-45210137D01*
X65104699Y-45123328D01*
X65283328Y-44944700D01*
X65380001Y-44711311D01*
X65380001Y-44020751D01*
X65221251Y-43862001D01*
X64022001Y-43862001D01*
X63768001Y-43862001D01*
X63748001Y-43862001D01*
X63748001Y-43608001D01*
X63768001Y-43608001D01*
X63768001Y-42408751D01*
X64022001Y-42408751D01*
X64022001Y-43608001D01*
X65221251Y-43608001D01*
X65380001Y-43449251D01*
X65380001Y-42758691D01*
X65283328Y-42525302D01*
X65104699Y-42346674D01*
X64871310Y-42250001D01*
X64180751Y-42250001D01*
X64022001Y-42408751D01*
X63768001Y-42408751D01*
X63609251Y-42250001D01*
X62918692Y-42250001D01*
X62685303Y-42346674D01*
X62506674Y-42525302D01*
X62457000Y-42645226D01*
X62457000Y-42137000D01*
X68005276Y-42137000D01*
X67774301Y-42232673D01*
X67774301Y-42232673D01*
G37*
X67774301Y-42232673D02*
X67595673Y-42411302D01*
X67499000Y-42644691D01*
X67499000Y-42972750D01*
X67657750Y-43131500D01*
X68707000Y-43131500D01*
X68707000Y-43111500D01*
X68961000Y-43111500D01*
X68961000Y-43131500D01*
X70010250Y-43131500D01*
X70169000Y-42972750D01*
X70169000Y-42644691D01*
X70072327Y-42411302D01*
X69893699Y-42232673D01*
X69662724Y-42137000D01*
X72503482Y-42137000D01*
X72471060Y-42300000D01*
X72471060Y-44200000D01*
X72520343Y-44447765D01*
X72660691Y-44657809D01*
X72870735Y-44798157D01*
X73118500Y-44847440D01*
X73368560Y-44847440D01*
X73368560Y-46101927D01*
X72576219Y-46894269D01*
X72423416Y-46665584D01*
X72134294Y-46472398D01*
X71793250Y-46404560D01*
X71305750Y-46404560D01*
X71104655Y-46444560D01*
X71053354Y-46410282D01*
X70803718Y-46160646D01*
X70758527Y-46093013D01*
X70490596Y-45913987D01*
X70254324Y-45866990D01*
X70254323Y-45866990D01*
X70174550Y-45851122D01*
X70094777Y-45866990D01*
X70014246Y-45866990D01*
X70113602Y-45718294D01*
X70181440Y-45377250D01*
X70181440Y-44889750D01*
X70113602Y-44548706D01*
X69920416Y-44259584D01*
X69919233Y-44258793D01*
X70072327Y-44105698D01*
X70169000Y-43872309D01*
X70169000Y-43544250D01*
X70010250Y-43385500D01*
X68961000Y-43385500D01*
X68961000Y-43405500D01*
X68707000Y-43405500D01*
X68707000Y-43385500D01*
X67657750Y-43385500D01*
X67499000Y-43544250D01*
X67499000Y-43872309D01*
X67595673Y-44105698D01*
X67748767Y-44258793D01*
X67747584Y-44259584D01*
X67554398Y-44548706D01*
X67486560Y-44889750D01*
X67486560Y-45377250D01*
X67554398Y-45718294D01*
X67747584Y-46007416D01*
X67875030Y-46092573D01*
X67799000Y-46276126D01*
X67799000Y-46687874D01*
X67956569Y-47068280D01*
X68247720Y-47359431D01*
X68539560Y-47480315D01*
X68539560Y-48208250D01*
X68607398Y-48549294D01*
X68800584Y-48838416D01*
X68864501Y-48881124D01*
X68864501Y-48935448D01*
X68832294Y-48983648D01*
X68802327Y-48911301D01*
X68623698Y-48732673D01*
X68390309Y-48636000D01*
X68019750Y-48636000D01*
X67861000Y-48794750D01*
X67861000Y-49469000D01*
X67881000Y-49469000D01*
X67881000Y-49545453D01*
X67833476Y-49536000D01*
X67587000Y-49536000D01*
X67587000Y-49469000D01*
X67607000Y-49469000D01*
X67607000Y-48794750D01*
X67448250Y-48636000D01*
X67077691Y-48636000D01*
X66844302Y-48732673D01*
X66665673Y-48911301D01*
X66569000Y-49144690D01*
X66569000Y-49310250D01*
X66727748Y-49468998D01*
X66569000Y-49468998D01*
X66569000Y-49536000D01*
X65185668Y-49536000D01*
X65336477Y-49171891D01*
X65215156Y-48942001D01*
X64022001Y-48942001D01*
X64022001Y-48962001D01*
X63768001Y-48962001D01*
X63768001Y-48942001D01*
X63748001Y-48942001D01*
X63748001Y-48688001D01*
X63768001Y-48688001D01*
X63768001Y-46402001D01*
X64022001Y-46402001D01*
X64022001Y-48688001D01*
X65215156Y-48688001D01*
X65336477Y-48458111D01*
X65166646Y-48048077D01*
X64776359Y-47619818D01*
X64617047Y-47545001D01*
X64776359Y-47470184D01*
X65166646Y-47041925D01*
X65336477Y-46631891D01*
X65215156Y-46402001D01*
X64022001Y-46402001D01*
X63768001Y-46402001D01*
X63748001Y-46402001D01*
X63748001Y-46148001D01*
X63768001Y-46148001D01*
X63768001Y-43862001D01*
X64022001Y-43862001D01*
X64022001Y-46148001D01*
X65215156Y-46148001D01*
X65336477Y-45918111D01*
X65166646Y-45508077D01*
X64895123Y-45210137D01*
X65104699Y-45123328D01*
X65283328Y-44944700D01*
X65380001Y-44711311D01*
X65380001Y-44020751D01*
X65221251Y-43862001D01*
X64022001Y-43862001D01*
X63768001Y-43862001D01*
X63748001Y-43862001D01*
X63748001Y-43608001D01*
X63768001Y-43608001D01*
X63768001Y-42408751D01*
X64022001Y-42408751D01*
X64022001Y-43608001D01*
X65221251Y-43608001D01*
X65380001Y-43449251D01*
X65380001Y-42758691D01*
X65283328Y-42525302D01*
X65104699Y-42346674D01*
X64871310Y-42250001D01*
X64180751Y-42250001D01*
X64022001Y-42408751D01*
X63768001Y-42408751D01*
X63609251Y-42250001D01*
X62918692Y-42250001D01*
X62685303Y-42346674D01*
X62506674Y-42525302D01*
X62457000Y-42645226D01*
X62457000Y-42137000D01*
X68005276Y-42137000D01*
X67774301Y-42232673D01*
G36*
X84455000Y-45134560D02*
X84416750Y-45134560D01*
X84075706Y-45202398D01*
X83786584Y-45395584D01*
X83593398Y-45684706D01*
X83525560Y-46025750D01*
X83525560Y-46188584D01*
X82557726Y-47156419D01*
X82294294Y-46980398D01*
X81953250Y-46912560D01*
X81465750Y-46912560D01*
X81124706Y-46980398D01*
X80835584Y-47173584D01*
X80772000Y-47268744D01*
X80708416Y-47173584D01*
X80704478Y-47170953D01*
X80873809Y-47057809D01*
X81014157Y-46847765D01*
X81063440Y-46600000D01*
X81063440Y-44847440D01*
X81313500Y-44847440D01*
X81561265Y-44798157D01*
X81771309Y-44657809D01*
X81911657Y-44447765D01*
X81960940Y-44200000D01*
X81960940Y-42300000D01*
X81928518Y-42137000D01*
X84455000Y-42137000D01*
X84455000Y-45134560D01*
X84455000Y-45134560D01*
G37*
X84455000Y-45134560D02*
X84416750Y-45134560D01*
X84075706Y-45202398D01*
X83786584Y-45395584D01*
X83593398Y-45684706D01*
X83525560Y-46025750D01*
X83525560Y-46188584D01*
X82557726Y-47156419D01*
X82294294Y-46980398D01*
X81953250Y-46912560D01*
X81465750Y-46912560D01*
X81124706Y-46980398D01*
X80835584Y-47173584D01*
X80772000Y-47268744D01*
X80708416Y-47173584D01*
X80704478Y-47170953D01*
X80873809Y-47057809D01*
X81014157Y-46847765D01*
X81063440Y-46600000D01*
X81063440Y-44847440D01*
X81313500Y-44847440D01*
X81561265Y-44798157D01*
X81771309Y-44657809D01*
X81911657Y-44447765D01*
X81960940Y-44200000D01*
X81960940Y-42300000D01*
X81928518Y-42137000D01*
X84455000Y-42137000D01*
X84455000Y-45134560D01*
G04 #@! TD*
M02*
