G04 #@! TF.GenerationSoftware,KiCad,Pcbnew,(5.0.1)-3*
G04 #@! TF.CreationDate,2019-09-21T13:45:32-04:00*
G04 #@! TF.ProjectId,BMS Board Rev2,424D5320426F61726420526576322E6B,rev?*
G04 #@! TF.SameCoordinates,Original*
G04 #@! TF.FileFunction,Soldermask,Top*
G04 #@! TF.FilePolarity,Negative*
%FSLAX46Y46*%
G04 Gerber Fmt 4.6, Leading zero omitted, Abs format (unit mm)*
G04 Created by KiCad (PCBNEW (5.0.1)-3) date 9/21/2019 1:45:32 PM*
%MOMM*%
%LPD*%
G01*
G04 APERTURE LIST*
%ADD10C,0.100000*%
G04 APERTURE END LIST*
D10*
G36*
X64005444Y-55540520D02*
X64071628Y-55547038D01*
X64160510Y-55574000D01*
X64241468Y-55598558D01*
X64310060Y-55635222D01*
X64397992Y-55682223D01*
X64433730Y-55711553D01*
X64535187Y-55794815D01*
X64609206Y-55885009D01*
X64647779Y-55932010D01*
X64650732Y-55937534D01*
X64731444Y-56088534D01*
X64731444Y-56088535D01*
X64782964Y-56258374D01*
X64800360Y-56435001D01*
X64782964Y-56611628D01*
X64777003Y-56631278D01*
X64731444Y-56781468D01*
X64706836Y-56827505D01*
X64647779Y-56937992D01*
X64618449Y-56973730D01*
X64535187Y-57075187D01*
X64433730Y-57158449D01*
X64397992Y-57187779D01*
X64397990Y-57187780D01*
X64241468Y-57271444D01*
X64184854Y-57288617D01*
X64071628Y-57322964D01*
X64005444Y-57329482D01*
X63939261Y-57336001D01*
X63850741Y-57336001D01*
X63784558Y-57329482D01*
X63718374Y-57322964D01*
X63605148Y-57288617D01*
X63548534Y-57271444D01*
X63392012Y-57187780D01*
X63392010Y-57187779D01*
X63356272Y-57158449D01*
X63254815Y-57075187D01*
X63171553Y-56973730D01*
X63142223Y-56937992D01*
X63083166Y-56827505D01*
X63058558Y-56781468D01*
X63012999Y-56631278D01*
X63007038Y-56611628D01*
X62989642Y-56435001D01*
X63007038Y-56258374D01*
X63058558Y-56088535D01*
X63058558Y-56088534D01*
X63139270Y-55937534D01*
X63142223Y-55932010D01*
X63180796Y-55885009D01*
X63254815Y-55794815D01*
X63356272Y-55711553D01*
X63392010Y-55682223D01*
X63479942Y-55635222D01*
X63548534Y-55598558D01*
X63629492Y-55574000D01*
X63718374Y-55547038D01*
X63784558Y-55540520D01*
X63850741Y-55534001D01*
X63939261Y-55534001D01*
X64005444Y-55540520D01*
X64005444Y-55540520D01*
G37*
G36*
X102726442Y-55493518D02*
X102792627Y-55500037D01*
X102905853Y-55534384D01*
X102962467Y-55551557D01*
X103004454Y-55574000D01*
X103118991Y-55635222D01*
X103154729Y-55664552D01*
X103256186Y-55747814D01*
X103339448Y-55849271D01*
X103368778Y-55885009D01*
X103368779Y-55885011D01*
X103452443Y-56041533D01*
X103452443Y-56041534D01*
X103503963Y-56211373D01*
X103521359Y-56388000D01*
X103503963Y-56564627D01*
X103469616Y-56677853D01*
X103452443Y-56734467D01*
X103391757Y-56848000D01*
X103368778Y-56890991D01*
X103339448Y-56926729D01*
X103256186Y-57028186D01*
X103154729Y-57111448D01*
X103118991Y-57140778D01*
X103118989Y-57140779D01*
X102962467Y-57224443D01*
X102905853Y-57241616D01*
X102792627Y-57275963D01*
X102726443Y-57282481D01*
X102660260Y-57289000D01*
X102571740Y-57289000D01*
X102505557Y-57282481D01*
X102439373Y-57275963D01*
X102326147Y-57241616D01*
X102269533Y-57224443D01*
X102113011Y-57140779D01*
X102113009Y-57140778D01*
X102077271Y-57111448D01*
X101975814Y-57028186D01*
X101892552Y-56926729D01*
X101863222Y-56890991D01*
X101840243Y-56848000D01*
X101779557Y-56734467D01*
X101762384Y-56677853D01*
X101728037Y-56564627D01*
X101710641Y-56388000D01*
X101728037Y-56211373D01*
X101779557Y-56041534D01*
X101779557Y-56041533D01*
X101863221Y-55885011D01*
X101863222Y-55885009D01*
X101892552Y-55849271D01*
X101975814Y-55747814D01*
X102077271Y-55664552D01*
X102113009Y-55635222D01*
X102227546Y-55574000D01*
X102269533Y-55551557D01*
X102326147Y-55534384D01*
X102439373Y-55500037D01*
X102505558Y-55493518D01*
X102571740Y-55487000D01*
X102660260Y-55487000D01*
X102726442Y-55493518D01*
X102726442Y-55493518D01*
G37*
G36*
X68269000Y-57127000D02*
X67367000Y-57127000D01*
X67367000Y-56125000D01*
X68269000Y-56125000D01*
X68269000Y-57127000D01*
X68269000Y-57127000D01*
G37*
G36*
X73095000Y-57127000D02*
X72193000Y-57127000D01*
X72193000Y-56125000D01*
X73095000Y-56125000D01*
X73095000Y-57127000D01*
X73095000Y-57127000D01*
G37*
G36*
X83642466Y-55775565D02*
X83681137Y-55787296D01*
X83716779Y-55806348D01*
X83748017Y-55831983D01*
X83773652Y-55863221D01*
X83792704Y-55898863D01*
X83804435Y-55937534D01*
X83809000Y-55983888D01*
X83809000Y-56635112D01*
X83804435Y-56681466D01*
X83792704Y-56720137D01*
X83773652Y-56755779D01*
X83748017Y-56787017D01*
X83716779Y-56812652D01*
X83681137Y-56831704D01*
X83642466Y-56843435D01*
X83596112Y-56848000D01*
X82519888Y-56848000D01*
X82473534Y-56843435D01*
X82434863Y-56831704D01*
X82399221Y-56812652D01*
X82367983Y-56787017D01*
X82342348Y-56755779D01*
X82323296Y-56720137D01*
X82311565Y-56681466D01*
X82307000Y-56635112D01*
X82307000Y-55983888D01*
X82311565Y-55937534D01*
X82323296Y-55898863D01*
X82342348Y-55863221D01*
X82367983Y-55831983D01*
X82399221Y-55806348D01*
X82434863Y-55787296D01*
X82473534Y-55775565D01*
X82519888Y-55771000D01*
X83596112Y-55771000D01*
X83642466Y-55775565D01*
X83642466Y-55775565D01*
G37*
G36*
X77459000Y-55936000D02*
X76297000Y-55936000D01*
X76297000Y-53284000D01*
X77459000Y-53284000D01*
X77459000Y-55936000D01*
X77459000Y-55936000D01*
G37*
G36*
X79659000Y-55936000D02*
X78497000Y-55936000D01*
X78497000Y-53284000D01*
X79659000Y-53284000D01*
X79659000Y-55936000D01*
X79659000Y-55936000D01*
G37*
G36*
X93742000Y-55574000D02*
X91065000Y-55574000D01*
X91065000Y-52122000D01*
X93742000Y-52122000D01*
X93742000Y-55574000D01*
X93742000Y-55574000D01*
G37*
G36*
X88767000Y-55574000D02*
X86090000Y-55574000D01*
X86090000Y-52122000D01*
X88767000Y-52122000D01*
X88767000Y-55574000D01*
X88767000Y-55574000D01*
G37*
G36*
X74045000Y-55127000D02*
X73143000Y-55127000D01*
X73143000Y-54125000D01*
X74045000Y-54125000D01*
X74045000Y-55127000D01*
X74045000Y-55127000D01*
G37*
G36*
X72145000Y-55127000D02*
X71243000Y-55127000D01*
X71243000Y-54125000D01*
X72145000Y-54125000D01*
X72145000Y-55127000D01*
X72145000Y-55127000D01*
G37*
G36*
X69219000Y-55127000D02*
X68317000Y-55127000D01*
X68317000Y-54125000D01*
X69219000Y-54125000D01*
X69219000Y-55127000D01*
X69219000Y-55127000D01*
G37*
G36*
X67319000Y-55127000D02*
X66417000Y-55127000D01*
X66417000Y-54125000D01*
X67319000Y-54125000D01*
X67319000Y-55127000D01*
X67319000Y-55127000D01*
G37*
G36*
X83642466Y-53900565D02*
X83681137Y-53912296D01*
X83716779Y-53931348D01*
X83748017Y-53956983D01*
X83773652Y-53988221D01*
X83792704Y-54023863D01*
X83804435Y-54062534D01*
X83809000Y-54108888D01*
X83809000Y-54760112D01*
X83804435Y-54806466D01*
X83792704Y-54845137D01*
X83773652Y-54880779D01*
X83748017Y-54912017D01*
X83716779Y-54937652D01*
X83681137Y-54956704D01*
X83642466Y-54968435D01*
X83596112Y-54973000D01*
X82519888Y-54973000D01*
X82473534Y-54968435D01*
X82434863Y-54956704D01*
X82399221Y-54937652D01*
X82367983Y-54912017D01*
X82342348Y-54880779D01*
X82323296Y-54845137D01*
X82311565Y-54806466D01*
X82307000Y-54760112D01*
X82307000Y-54108888D01*
X82311565Y-54062534D01*
X82323296Y-54023863D01*
X82342348Y-53988221D01*
X82367983Y-53956983D01*
X82399221Y-53931348D01*
X82434863Y-53912296D01*
X82473534Y-53900565D01*
X82519888Y-53896000D01*
X83596112Y-53896000D01*
X83642466Y-53900565D01*
X83642466Y-53900565D01*
G37*
G36*
X64005443Y-53000519D02*
X64071628Y-53007038D01*
X64184854Y-53041385D01*
X64241468Y-53058558D01*
X64310060Y-53095222D01*
X64397992Y-53142223D01*
X64433730Y-53171553D01*
X64535187Y-53254815D01*
X64609206Y-53345009D01*
X64647779Y-53392010D01*
X64647780Y-53392012D01*
X64731444Y-53548534D01*
X64731444Y-53548535D01*
X64782964Y-53718374D01*
X64800360Y-53895001D01*
X64782964Y-54071628D01*
X64754564Y-54165250D01*
X64731444Y-54241468D01*
X64672903Y-54350989D01*
X64647779Y-54397992D01*
X64618449Y-54433730D01*
X64535187Y-54535187D01*
X64433730Y-54618449D01*
X64397992Y-54647779D01*
X64397990Y-54647780D01*
X64241468Y-54731444D01*
X64184854Y-54748617D01*
X64071628Y-54782964D01*
X64005443Y-54789483D01*
X63939261Y-54796001D01*
X63850741Y-54796001D01*
X63784559Y-54789483D01*
X63718374Y-54782964D01*
X63605148Y-54748617D01*
X63548534Y-54731444D01*
X63392012Y-54647780D01*
X63392010Y-54647779D01*
X63356272Y-54618449D01*
X63254815Y-54535187D01*
X63171553Y-54433730D01*
X63142223Y-54397992D01*
X63117099Y-54350989D01*
X63058558Y-54241468D01*
X63035438Y-54165250D01*
X63007038Y-54071628D01*
X62989642Y-53895001D01*
X63007038Y-53718374D01*
X63058558Y-53548535D01*
X63058558Y-53548534D01*
X63142222Y-53392012D01*
X63142223Y-53392010D01*
X63180796Y-53345009D01*
X63254815Y-53254815D01*
X63356272Y-53171553D01*
X63392010Y-53142223D01*
X63479942Y-53095222D01*
X63548534Y-53058558D01*
X63605148Y-53041385D01*
X63718374Y-53007038D01*
X63784559Y-53000519D01*
X63850741Y-52994001D01*
X63939261Y-52994001D01*
X64005443Y-53000519D01*
X64005443Y-53000519D01*
G37*
G36*
X102726443Y-52953519D02*
X102792627Y-52960037D01*
X102905853Y-52994384D01*
X102962467Y-53011557D01*
X103050398Y-53058558D01*
X103118991Y-53095222D01*
X103154729Y-53124552D01*
X103256186Y-53207814D01*
X103318709Y-53284000D01*
X103368778Y-53345009D01*
X103368779Y-53345011D01*
X103452443Y-53501533D01*
X103452443Y-53501534D01*
X103503963Y-53671373D01*
X103521359Y-53848000D01*
X103503963Y-54024627D01*
X103492464Y-54062534D01*
X103452443Y-54194467D01*
X103427320Y-54241468D01*
X103368778Y-54350991D01*
X103339448Y-54386729D01*
X103256186Y-54488186D01*
X103154729Y-54571448D01*
X103118991Y-54600778D01*
X103118989Y-54600779D01*
X102962467Y-54684443D01*
X102905853Y-54701616D01*
X102792627Y-54735963D01*
X102726442Y-54742482D01*
X102660260Y-54749000D01*
X102571740Y-54749000D01*
X102505558Y-54742482D01*
X102439373Y-54735963D01*
X102326147Y-54701616D01*
X102269533Y-54684443D01*
X102113011Y-54600779D01*
X102113009Y-54600778D01*
X102077271Y-54571448D01*
X101975814Y-54488186D01*
X101892552Y-54386729D01*
X101863222Y-54350991D01*
X101804680Y-54241468D01*
X101779557Y-54194467D01*
X101739536Y-54062534D01*
X101728037Y-54024627D01*
X101710641Y-53848000D01*
X101728037Y-53671373D01*
X101779557Y-53501534D01*
X101779557Y-53501533D01*
X101863221Y-53345011D01*
X101863222Y-53345009D01*
X101913291Y-53284000D01*
X101975814Y-53207814D01*
X102077271Y-53124552D01*
X102113009Y-53095222D01*
X102181602Y-53058558D01*
X102269533Y-53011557D01*
X102326147Y-52994384D01*
X102439373Y-52960037D01*
X102505557Y-52953519D01*
X102571740Y-52947000D01*
X102660260Y-52947000D01*
X102726443Y-52953519D01*
X102726443Y-52953519D01*
G37*
G36*
X98775000Y-54703000D02*
X97573000Y-54703000D01*
X97573000Y-53501000D01*
X98775000Y-53501000D01*
X98775000Y-54703000D01*
X98775000Y-54703000D01*
G37*
G36*
X95975000Y-54703000D02*
X94773000Y-54703000D01*
X94773000Y-53501000D01*
X95975000Y-53501000D01*
X95975000Y-54703000D01*
X95975000Y-54703000D01*
G37*
G36*
X78271466Y-50815565D02*
X78310137Y-50827296D01*
X78345779Y-50846348D01*
X78377017Y-50871983D01*
X78402652Y-50903221D01*
X78421704Y-50938863D01*
X78433435Y-50977534D01*
X78438000Y-51023888D01*
X78438000Y-52100112D01*
X78433435Y-52146466D01*
X78421704Y-52185137D01*
X78402652Y-52220779D01*
X78377017Y-52252017D01*
X78345779Y-52277652D01*
X78310137Y-52296704D01*
X78271466Y-52308435D01*
X78225112Y-52313000D01*
X77573888Y-52313000D01*
X77527534Y-52308435D01*
X77488863Y-52296704D01*
X77453221Y-52277652D01*
X77421983Y-52252017D01*
X77396348Y-52220779D01*
X77377296Y-52185137D01*
X77365565Y-52146466D01*
X77361000Y-52100112D01*
X77361000Y-51023888D01*
X77365565Y-50977534D01*
X77377296Y-50938863D01*
X77396348Y-50903221D01*
X77421983Y-50871983D01*
X77453221Y-50846348D01*
X77488863Y-50827296D01*
X77527534Y-50815565D01*
X77573888Y-50811000D01*
X78225112Y-50811000D01*
X78271466Y-50815565D01*
X78271466Y-50815565D01*
G37*
G36*
X80284966Y-50815565D02*
X80323637Y-50827296D01*
X80359279Y-50846348D01*
X80390517Y-50871983D01*
X80416152Y-50903221D01*
X80435204Y-50938863D01*
X80446935Y-50977534D01*
X80451500Y-51023888D01*
X80451500Y-52100112D01*
X80446935Y-52146466D01*
X80435204Y-52185137D01*
X80416152Y-52220779D01*
X80390517Y-52252017D01*
X80359279Y-52277652D01*
X80323637Y-52296704D01*
X80284966Y-52308435D01*
X80238612Y-52313000D01*
X79587388Y-52313000D01*
X79541034Y-52308435D01*
X79502363Y-52296704D01*
X79466721Y-52277652D01*
X79435483Y-52252017D01*
X79409848Y-52220779D01*
X79390796Y-52185137D01*
X79379065Y-52146466D01*
X79374500Y-52100112D01*
X79374500Y-51023888D01*
X79379065Y-50977534D01*
X79390796Y-50938863D01*
X79409848Y-50903221D01*
X79435483Y-50871983D01*
X79466721Y-50846348D01*
X79502363Y-50827296D01*
X79541034Y-50815565D01*
X79587388Y-50811000D01*
X80238612Y-50811000D01*
X80284966Y-50815565D01*
X80284966Y-50815565D01*
G37*
G36*
X74285966Y-50815565D02*
X74324637Y-50827296D01*
X74360279Y-50846348D01*
X74391517Y-50871983D01*
X74417152Y-50903221D01*
X74436204Y-50938863D01*
X74447935Y-50977534D01*
X74452500Y-51023888D01*
X74452500Y-52100112D01*
X74447935Y-52146466D01*
X74436204Y-52185137D01*
X74417152Y-52220779D01*
X74391517Y-52252017D01*
X74360279Y-52277652D01*
X74324637Y-52296704D01*
X74285966Y-52308435D01*
X74239612Y-52313000D01*
X73588388Y-52313000D01*
X73542034Y-52308435D01*
X73503363Y-52296704D01*
X73467721Y-52277652D01*
X73436483Y-52252017D01*
X73410848Y-52220779D01*
X73391796Y-52185137D01*
X73380065Y-52146466D01*
X73375500Y-52100112D01*
X73375500Y-51023888D01*
X73380065Y-50977534D01*
X73391796Y-50938863D01*
X73410848Y-50903221D01*
X73436483Y-50871983D01*
X73467721Y-50846348D01*
X73503363Y-50827296D01*
X73542034Y-50815565D01*
X73588388Y-50811000D01*
X74239612Y-50811000D01*
X74285966Y-50815565D01*
X74285966Y-50815565D01*
G37*
G36*
X72410966Y-50815565D02*
X72449637Y-50827296D01*
X72485279Y-50846348D01*
X72516517Y-50871983D01*
X72542152Y-50903221D01*
X72561204Y-50938863D01*
X72572935Y-50977534D01*
X72577500Y-51023888D01*
X72577500Y-52100112D01*
X72572935Y-52146466D01*
X72561204Y-52185137D01*
X72542152Y-52220779D01*
X72516517Y-52252017D01*
X72485279Y-52277652D01*
X72449637Y-52296704D01*
X72410966Y-52308435D01*
X72364612Y-52313000D01*
X71713388Y-52313000D01*
X71667034Y-52308435D01*
X71628363Y-52296704D01*
X71592721Y-52277652D01*
X71561483Y-52252017D01*
X71535848Y-52220779D01*
X71516796Y-52185137D01*
X71505065Y-52146466D01*
X71500500Y-52100112D01*
X71500500Y-51023888D01*
X71505065Y-50977534D01*
X71516796Y-50938863D01*
X71535848Y-50903221D01*
X71561483Y-50871983D01*
X71592721Y-50846348D01*
X71628363Y-50827296D01*
X71667034Y-50815565D01*
X71713388Y-50811000D01*
X72364612Y-50811000D01*
X72410966Y-50815565D01*
X72410966Y-50815565D01*
G37*
G36*
X76396466Y-50815565D02*
X76435137Y-50827296D01*
X76470779Y-50846348D01*
X76502017Y-50871983D01*
X76527652Y-50903221D01*
X76546704Y-50938863D01*
X76558435Y-50977534D01*
X76563000Y-51023888D01*
X76563000Y-52100112D01*
X76558435Y-52146466D01*
X76546704Y-52185137D01*
X76527652Y-52220779D01*
X76502017Y-52252017D01*
X76470779Y-52277652D01*
X76435137Y-52296704D01*
X76396466Y-52308435D01*
X76350112Y-52313000D01*
X75698888Y-52313000D01*
X75652534Y-52308435D01*
X75613863Y-52296704D01*
X75578221Y-52277652D01*
X75546983Y-52252017D01*
X75521348Y-52220779D01*
X75502296Y-52185137D01*
X75490565Y-52146466D01*
X75486000Y-52100112D01*
X75486000Y-51023888D01*
X75490565Y-50977534D01*
X75502296Y-50938863D01*
X75521348Y-50903221D01*
X75546983Y-50871983D01*
X75578221Y-50846348D01*
X75613863Y-50827296D01*
X75652534Y-50815565D01*
X75698888Y-50811000D01*
X76350112Y-50811000D01*
X76396466Y-50815565D01*
X76396466Y-50815565D01*
G37*
G36*
X82159966Y-50815565D02*
X82198637Y-50827296D01*
X82234279Y-50846348D01*
X82265517Y-50871983D01*
X82291152Y-50903221D01*
X82310204Y-50938863D01*
X82321935Y-50977534D01*
X82326500Y-51023888D01*
X82326500Y-52100112D01*
X82321935Y-52146466D01*
X82310204Y-52185137D01*
X82291152Y-52220779D01*
X82265517Y-52252017D01*
X82234279Y-52277652D01*
X82198637Y-52296704D01*
X82159966Y-52308435D01*
X82113612Y-52313000D01*
X81462388Y-52313000D01*
X81416034Y-52308435D01*
X81377363Y-52296704D01*
X81341721Y-52277652D01*
X81310483Y-52252017D01*
X81284848Y-52220779D01*
X81265796Y-52185137D01*
X81254065Y-52146466D01*
X81249500Y-52100112D01*
X81249500Y-51023888D01*
X81254065Y-50977534D01*
X81265796Y-50938863D01*
X81284848Y-50903221D01*
X81310483Y-50871983D01*
X81341721Y-50846348D01*
X81377363Y-50827296D01*
X81416034Y-50815565D01*
X81462388Y-50811000D01*
X82113612Y-50811000D01*
X82159966Y-50815565D01*
X82159966Y-50815565D01*
G37*
G36*
X64005443Y-50460519D02*
X64071628Y-50467038D01*
X64184854Y-50501385D01*
X64241468Y-50518558D01*
X64310060Y-50555222D01*
X64397992Y-50602223D01*
X64433730Y-50631553D01*
X64535187Y-50714815D01*
X64609206Y-50805009D01*
X64647779Y-50852010D01*
X64650732Y-50857534D01*
X64731444Y-51008534D01*
X64748617Y-51065148D01*
X64782964Y-51178374D01*
X64800360Y-51355001D01*
X64782964Y-51531628D01*
X64777003Y-51551278D01*
X64731444Y-51701468D01*
X64706836Y-51747505D01*
X64647779Y-51857992D01*
X64618449Y-51893730D01*
X64535187Y-51995187D01*
X64433730Y-52078449D01*
X64397992Y-52107779D01*
X64397990Y-52107780D01*
X64241468Y-52191444D01*
X64184854Y-52208617D01*
X64071628Y-52242964D01*
X64005443Y-52249483D01*
X63939261Y-52256001D01*
X63850741Y-52256001D01*
X63784559Y-52249483D01*
X63718374Y-52242964D01*
X63605148Y-52208617D01*
X63548534Y-52191444D01*
X63392012Y-52107780D01*
X63392010Y-52107779D01*
X63356272Y-52078449D01*
X63254815Y-51995187D01*
X63171553Y-51893730D01*
X63142223Y-51857992D01*
X63083166Y-51747505D01*
X63058558Y-51701468D01*
X63012999Y-51551278D01*
X63007038Y-51531628D01*
X62989642Y-51355001D01*
X63007038Y-51178374D01*
X63041385Y-51065148D01*
X63058558Y-51008534D01*
X63139270Y-50857534D01*
X63142223Y-50852010D01*
X63180796Y-50805009D01*
X63254815Y-50714815D01*
X63356272Y-50631553D01*
X63392010Y-50602223D01*
X63479942Y-50555222D01*
X63548534Y-50518558D01*
X63605148Y-50501385D01*
X63718374Y-50467038D01*
X63784558Y-50460520D01*
X63850741Y-50454001D01*
X63939261Y-50454001D01*
X64005443Y-50460519D01*
X64005443Y-50460519D01*
G37*
G36*
X102726443Y-50413519D02*
X102792627Y-50420037D01*
X102905853Y-50454384D01*
X102962467Y-50471557D01*
X103050398Y-50518558D01*
X103118991Y-50555222D01*
X103154729Y-50584552D01*
X103256186Y-50667814D01*
X103332633Y-50760966D01*
X103368778Y-50805009D01*
X103368779Y-50805011D01*
X103452443Y-50961533D01*
X103452443Y-50961534D01*
X103503963Y-51131373D01*
X103521359Y-51308000D01*
X103503963Y-51484627D01*
X103469616Y-51597853D01*
X103452443Y-51654467D01*
X103391757Y-51768000D01*
X103368778Y-51810991D01*
X103339448Y-51846729D01*
X103256186Y-51948186D01*
X103154729Y-52031448D01*
X103118991Y-52060778D01*
X103118989Y-52060779D01*
X102962467Y-52144443D01*
X102954736Y-52146788D01*
X102792627Y-52195963D01*
X102726443Y-52202481D01*
X102660260Y-52209000D01*
X102571740Y-52209000D01*
X102505557Y-52202481D01*
X102439373Y-52195963D01*
X102277264Y-52146788D01*
X102269533Y-52144443D01*
X102113011Y-52060779D01*
X102113009Y-52060778D01*
X102077271Y-52031448D01*
X101975814Y-51948186D01*
X101892552Y-51846729D01*
X101863222Y-51810991D01*
X101840243Y-51768000D01*
X101779557Y-51654467D01*
X101762384Y-51597853D01*
X101728037Y-51484627D01*
X101710641Y-51308000D01*
X101728037Y-51131373D01*
X101779557Y-50961534D01*
X101779557Y-50961533D01*
X101863221Y-50805011D01*
X101863222Y-50805009D01*
X101899367Y-50760966D01*
X101975814Y-50667814D01*
X102077271Y-50584552D01*
X102113009Y-50555222D01*
X102181602Y-50518558D01*
X102269533Y-50471557D01*
X102326147Y-50454384D01*
X102439373Y-50420037D01*
X102505558Y-50413518D01*
X102571740Y-50407000D01*
X102660260Y-50407000D01*
X102726443Y-50413519D01*
X102726443Y-50413519D01*
G37*
G36*
X68315000Y-51872000D02*
X67153000Y-51872000D01*
X67153000Y-49220000D01*
X68315000Y-49220000D01*
X68315000Y-51872000D01*
X68315000Y-51872000D01*
G37*
G36*
X70515000Y-51872000D02*
X69353000Y-51872000D01*
X69353000Y-51120000D01*
X70515000Y-51120000D01*
X70515000Y-51872000D01*
X70515000Y-51872000D01*
G37*
G36*
X100152466Y-50695565D02*
X100191137Y-50707296D01*
X100226779Y-50726348D01*
X100258017Y-50751983D01*
X100283652Y-50783221D01*
X100302704Y-50818863D01*
X100314435Y-50857534D01*
X100319000Y-50903888D01*
X100319000Y-51555112D01*
X100314435Y-51601466D01*
X100302704Y-51640137D01*
X100283652Y-51675779D01*
X100258017Y-51707017D01*
X100226779Y-51732652D01*
X100191137Y-51751704D01*
X100152466Y-51763435D01*
X100106112Y-51768000D01*
X99029888Y-51768000D01*
X98983534Y-51763435D01*
X98944863Y-51751704D01*
X98909221Y-51732652D01*
X98877983Y-51707017D01*
X98852348Y-51675779D01*
X98833296Y-51640137D01*
X98821565Y-51601466D01*
X98817000Y-51555112D01*
X98817000Y-50903888D01*
X98821565Y-50857534D01*
X98833296Y-50818863D01*
X98852348Y-50783221D01*
X98877983Y-50751983D01*
X98909221Y-50726348D01*
X98944863Y-50707296D01*
X98983534Y-50695565D01*
X99029888Y-50691000D01*
X100106112Y-50691000D01*
X100152466Y-50695565D01*
X100152466Y-50695565D01*
G37*
G36*
X85674466Y-49855065D02*
X85713137Y-49866796D01*
X85748779Y-49885848D01*
X85780017Y-49911483D01*
X85805652Y-49942721D01*
X85824704Y-49978363D01*
X85836435Y-50017034D01*
X85841000Y-50063388D01*
X85841000Y-50714612D01*
X85836435Y-50760966D01*
X85824704Y-50799637D01*
X85805652Y-50835279D01*
X85780017Y-50866517D01*
X85748779Y-50892152D01*
X85713137Y-50911204D01*
X85674466Y-50922935D01*
X85628112Y-50927500D01*
X84551888Y-50927500D01*
X84505534Y-50922935D01*
X84466863Y-50911204D01*
X84431221Y-50892152D01*
X84399983Y-50866517D01*
X84374348Y-50835279D01*
X84355296Y-50799637D01*
X84343565Y-50760966D01*
X84339000Y-50714612D01*
X84339000Y-50063388D01*
X84343565Y-50017034D01*
X84355296Y-49978363D01*
X84374348Y-49942721D01*
X84399983Y-49911483D01*
X84431221Y-49885848D01*
X84466863Y-49866796D01*
X84505534Y-49855065D01*
X84551888Y-49850500D01*
X85628112Y-49850500D01*
X85674466Y-49855065D01*
X85674466Y-49855065D01*
G37*
G36*
X70515000Y-49972000D02*
X69353000Y-49972000D01*
X69353000Y-49220000D01*
X70515000Y-49220000D01*
X70515000Y-49972000D01*
X70515000Y-49972000D01*
G37*
G36*
X100152466Y-48820565D02*
X100191137Y-48832296D01*
X100226779Y-48851348D01*
X100258017Y-48876983D01*
X100283652Y-48908221D01*
X100302704Y-48943863D01*
X100314435Y-48982534D01*
X100319000Y-49028888D01*
X100319000Y-49680112D01*
X100314435Y-49726466D01*
X100302704Y-49765137D01*
X100283652Y-49800779D01*
X100258017Y-49832017D01*
X100226779Y-49857652D01*
X100191137Y-49876704D01*
X100152466Y-49888435D01*
X100106112Y-49893000D01*
X99029888Y-49893000D01*
X98983534Y-49888435D01*
X98944863Y-49876704D01*
X98909221Y-49857652D01*
X98877983Y-49832017D01*
X98852348Y-49800779D01*
X98833296Y-49765137D01*
X98821565Y-49726466D01*
X98817000Y-49680112D01*
X98817000Y-49028888D01*
X98821565Y-48982534D01*
X98833296Y-48943863D01*
X98852348Y-48908221D01*
X98877983Y-48876983D01*
X98909221Y-48851348D01*
X98944863Y-48832296D01*
X98983534Y-48820565D01*
X99029888Y-48816000D01*
X100106112Y-48816000D01*
X100152466Y-48820565D01*
X100152466Y-48820565D01*
G37*
G36*
X64005443Y-47920519D02*
X64071628Y-47927038D01*
X64184854Y-47961385D01*
X64241468Y-47978558D01*
X64310060Y-48015222D01*
X64397992Y-48062223D01*
X64404691Y-48067721D01*
X64535187Y-48174815D01*
X64592580Y-48244750D01*
X64647779Y-48312010D01*
X64647780Y-48312012D01*
X64731444Y-48468534D01*
X64740329Y-48497826D01*
X64782964Y-48638374D01*
X64800360Y-48815001D01*
X64782964Y-48991628D01*
X64754564Y-49085250D01*
X64731444Y-49161468D01*
X64672903Y-49270989D01*
X64647779Y-49317992D01*
X64618449Y-49353730D01*
X64535187Y-49455187D01*
X64433730Y-49538449D01*
X64397992Y-49567779D01*
X64397990Y-49567780D01*
X64241468Y-49651444D01*
X64184854Y-49668617D01*
X64071628Y-49702964D01*
X64005444Y-49709482D01*
X63939261Y-49716001D01*
X63850741Y-49716001D01*
X63784559Y-49709483D01*
X63718374Y-49702964D01*
X63605148Y-49668617D01*
X63548534Y-49651444D01*
X63392012Y-49567780D01*
X63392010Y-49567779D01*
X63356272Y-49538449D01*
X63254815Y-49455187D01*
X63171553Y-49353730D01*
X63142223Y-49317992D01*
X63117099Y-49270989D01*
X63058558Y-49161468D01*
X63035438Y-49085250D01*
X63007038Y-48991628D01*
X62989642Y-48815001D01*
X63007038Y-48638374D01*
X63049673Y-48497826D01*
X63058558Y-48468534D01*
X63142222Y-48312012D01*
X63142223Y-48312010D01*
X63197422Y-48244750D01*
X63254815Y-48174815D01*
X63385311Y-48067721D01*
X63392010Y-48062223D01*
X63479942Y-48015222D01*
X63548534Y-47978558D01*
X63605148Y-47961385D01*
X63718374Y-47927038D01*
X63784559Y-47920519D01*
X63850741Y-47914001D01*
X63939261Y-47914001D01*
X64005443Y-47920519D01*
X64005443Y-47920519D01*
G37*
G36*
X102726442Y-47873518D02*
X102792627Y-47880037D01*
X102905853Y-47914384D01*
X102962467Y-47931557D01*
X103083020Y-47995995D01*
X103118991Y-48015222D01*
X103144897Y-48036483D01*
X103256186Y-48127814D01*
X103309043Y-48192222D01*
X103368778Y-48265009D01*
X103368779Y-48265011D01*
X103452443Y-48421533D01*
X103466433Y-48467652D01*
X103503963Y-48591373D01*
X103521359Y-48768000D01*
X103503963Y-48944627D01*
X103485214Y-49006435D01*
X103452443Y-49114467D01*
X103378348Y-49253087D01*
X103368778Y-49270991D01*
X103339448Y-49306729D01*
X103256186Y-49408186D01*
X103154729Y-49491448D01*
X103118991Y-49520778D01*
X103118989Y-49520779D01*
X102962467Y-49604443D01*
X102905853Y-49621616D01*
X102792627Y-49655963D01*
X102726442Y-49662482D01*
X102660260Y-49669000D01*
X102571740Y-49669000D01*
X102505558Y-49662482D01*
X102439373Y-49655963D01*
X102326147Y-49621616D01*
X102269533Y-49604443D01*
X102113011Y-49520779D01*
X102113009Y-49520778D01*
X102077271Y-49491448D01*
X101975814Y-49408186D01*
X101892552Y-49306729D01*
X101863222Y-49270991D01*
X101853652Y-49253087D01*
X101779557Y-49114467D01*
X101746786Y-49006435D01*
X101728037Y-48944627D01*
X101710641Y-48768000D01*
X101728037Y-48591373D01*
X101765567Y-48467652D01*
X101779557Y-48421533D01*
X101863221Y-48265011D01*
X101863222Y-48265009D01*
X101922957Y-48192222D01*
X101975814Y-48127814D01*
X102087103Y-48036483D01*
X102113009Y-48015222D01*
X102148980Y-47995995D01*
X102269533Y-47931557D01*
X102326147Y-47914384D01*
X102439373Y-47880037D01*
X102505558Y-47873518D01*
X102571740Y-47867000D01*
X102660260Y-47867000D01*
X102726442Y-47873518D01*
X102726442Y-47873518D01*
G37*
G36*
X85674466Y-47980065D02*
X85713137Y-47991796D01*
X85748779Y-48010848D01*
X85780017Y-48036483D01*
X85805652Y-48067721D01*
X85824704Y-48103363D01*
X85836435Y-48142034D01*
X85841000Y-48188388D01*
X85841000Y-48839612D01*
X85836435Y-48885966D01*
X85824704Y-48924637D01*
X85805652Y-48960279D01*
X85780017Y-48991517D01*
X85748779Y-49017152D01*
X85713137Y-49036204D01*
X85674466Y-49047935D01*
X85628112Y-49052500D01*
X84551888Y-49052500D01*
X84505534Y-49047935D01*
X84466863Y-49036204D01*
X84431221Y-49017152D01*
X84399983Y-48991517D01*
X84374348Y-48960279D01*
X84355296Y-48924637D01*
X84343565Y-48885966D01*
X84339000Y-48839612D01*
X84339000Y-48188388D01*
X84343565Y-48142034D01*
X84355296Y-48103363D01*
X84374348Y-48067721D01*
X84399983Y-48036483D01*
X84431221Y-48010848D01*
X84466863Y-47991796D01*
X84505534Y-47980065D01*
X84551888Y-47975500D01*
X85628112Y-47975500D01*
X85674466Y-47980065D01*
X85674466Y-47980065D01*
G37*
G36*
X82081466Y-47513565D02*
X82120137Y-47525296D01*
X82155779Y-47544348D01*
X82187017Y-47569983D01*
X82212652Y-47601221D01*
X82231704Y-47636863D01*
X82243435Y-47675534D01*
X82248000Y-47721888D01*
X82248000Y-48798112D01*
X82243435Y-48844466D01*
X82231704Y-48883137D01*
X82212652Y-48918779D01*
X82187017Y-48950017D01*
X82155779Y-48975652D01*
X82120137Y-48994704D01*
X82081466Y-49006435D01*
X82035112Y-49011000D01*
X81383888Y-49011000D01*
X81337534Y-49006435D01*
X81298863Y-48994704D01*
X81263221Y-48975652D01*
X81231983Y-48950017D01*
X81206348Y-48918779D01*
X81187296Y-48883137D01*
X81175565Y-48844466D01*
X81171000Y-48798112D01*
X81171000Y-47721888D01*
X81175565Y-47675534D01*
X81187296Y-47636863D01*
X81206348Y-47601221D01*
X81231983Y-47569983D01*
X81263221Y-47544348D01*
X81298863Y-47525296D01*
X81337534Y-47513565D01*
X81383888Y-47509000D01*
X82035112Y-47509000D01*
X82081466Y-47513565D01*
X82081466Y-47513565D01*
G37*
G36*
X80206466Y-47513565D02*
X80245137Y-47525296D01*
X80280779Y-47544348D01*
X80312017Y-47569983D01*
X80337652Y-47601221D01*
X80356704Y-47636863D01*
X80368435Y-47675534D01*
X80373000Y-47721888D01*
X80373000Y-48798112D01*
X80368435Y-48844466D01*
X80356704Y-48883137D01*
X80337652Y-48918779D01*
X80312017Y-48950017D01*
X80280779Y-48975652D01*
X80245137Y-48994704D01*
X80206466Y-49006435D01*
X80160112Y-49011000D01*
X79508888Y-49011000D01*
X79462534Y-49006435D01*
X79423863Y-48994704D01*
X79388221Y-48975652D01*
X79356983Y-48950017D01*
X79331348Y-48918779D01*
X79312296Y-48883137D01*
X79300565Y-48844466D01*
X79296000Y-48798112D01*
X79296000Y-47721888D01*
X79300565Y-47675534D01*
X79312296Y-47636863D01*
X79331348Y-47601221D01*
X79356983Y-47569983D01*
X79388221Y-47544348D01*
X79423863Y-47525296D01*
X79462534Y-47513565D01*
X79508888Y-47509000D01*
X80160112Y-47509000D01*
X80206466Y-47513565D01*
X80206466Y-47513565D01*
G37*
G36*
X71921466Y-47005565D02*
X71960137Y-47017296D01*
X71995779Y-47036348D01*
X72027017Y-47061983D01*
X72052652Y-47093221D01*
X72071704Y-47128863D01*
X72083435Y-47167534D01*
X72088000Y-47213888D01*
X72088000Y-48290112D01*
X72083435Y-48336466D01*
X72071704Y-48375137D01*
X72052652Y-48410779D01*
X72027017Y-48442017D01*
X71995779Y-48467652D01*
X71960137Y-48486704D01*
X71921466Y-48498435D01*
X71875112Y-48503000D01*
X71223888Y-48503000D01*
X71177534Y-48498435D01*
X71138863Y-48486704D01*
X71103221Y-48467652D01*
X71071983Y-48442017D01*
X71046348Y-48410779D01*
X71027296Y-48375137D01*
X71015565Y-48336466D01*
X71011000Y-48290112D01*
X71011000Y-47213888D01*
X71015565Y-47167534D01*
X71027296Y-47128863D01*
X71046348Y-47093221D01*
X71071983Y-47061983D01*
X71103221Y-47036348D01*
X71138863Y-47017296D01*
X71177534Y-47005565D01*
X71223888Y-47001000D01*
X71875112Y-47001000D01*
X71921466Y-47005565D01*
X71921466Y-47005565D01*
G37*
G36*
X70046466Y-47005565D02*
X70085137Y-47017296D01*
X70120779Y-47036348D01*
X70152017Y-47061983D01*
X70177652Y-47093221D01*
X70196704Y-47128863D01*
X70208435Y-47167534D01*
X70213000Y-47213888D01*
X70213000Y-48290112D01*
X70208435Y-48336466D01*
X70196704Y-48375137D01*
X70177652Y-48410779D01*
X70152017Y-48442017D01*
X70120779Y-48467652D01*
X70085137Y-48486704D01*
X70046466Y-48498435D01*
X70000112Y-48503000D01*
X69348888Y-48503000D01*
X69302534Y-48498435D01*
X69263863Y-48486704D01*
X69228221Y-48467652D01*
X69196983Y-48442017D01*
X69171348Y-48410779D01*
X69152296Y-48375137D01*
X69140565Y-48336466D01*
X69136000Y-48290112D01*
X69136000Y-47213888D01*
X69140565Y-47167534D01*
X69152296Y-47128863D01*
X69171348Y-47093221D01*
X69196983Y-47061983D01*
X69228221Y-47036348D01*
X69263863Y-47017296D01*
X69302534Y-47005565D01*
X69348888Y-47001000D01*
X70000112Y-47001000D01*
X70046466Y-47005565D01*
X70046466Y-47005565D01*
G37*
G36*
X96305466Y-47005565D02*
X96344137Y-47017296D01*
X96379779Y-47036348D01*
X96411017Y-47061983D01*
X96436652Y-47093221D01*
X96455704Y-47128863D01*
X96467435Y-47167534D01*
X96472000Y-47213888D01*
X96472000Y-48290112D01*
X96467435Y-48336466D01*
X96455704Y-48375137D01*
X96436652Y-48410779D01*
X96411017Y-48442017D01*
X96379779Y-48467652D01*
X96344137Y-48486704D01*
X96305466Y-48498435D01*
X96259112Y-48503000D01*
X95607888Y-48503000D01*
X95561534Y-48498435D01*
X95522863Y-48486704D01*
X95487221Y-48467652D01*
X95455983Y-48442017D01*
X95430348Y-48410779D01*
X95411296Y-48375137D01*
X95399565Y-48336466D01*
X95395000Y-48290112D01*
X95395000Y-47213888D01*
X95399565Y-47167534D01*
X95411296Y-47128863D01*
X95430348Y-47093221D01*
X95455983Y-47061983D01*
X95487221Y-47036348D01*
X95522863Y-47017296D01*
X95561534Y-47005565D01*
X95607888Y-47001000D01*
X96259112Y-47001000D01*
X96305466Y-47005565D01*
X96305466Y-47005565D01*
G37*
G36*
X94430466Y-47005565D02*
X94469137Y-47017296D01*
X94504779Y-47036348D01*
X94536017Y-47061983D01*
X94561652Y-47093221D01*
X94580704Y-47128863D01*
X94592435Y-47167534D01*
X94597000Y-47213888D01*
X94597000Y-48290112D01*
X94592435Y-48336466D01*
X94580704Y-48375137D01*
X94561652Y-48410779D01*
X94536017Y-48442017D01*
X94504779Y-48467652D01*
X94469137Y-48486704D01*
X94430466Y-48498435D01*
X94384112Y-48503000D01*
X93732888Y-48503000D01*
X93686534Y-48498435D01*
X93647863Y-48486704D01*
X93612221Y-48467652D01*
X93580983Y-48442017D01*
X93555348Y-48410779D01*
X93536296Y-48375137D01*
X93524565Y-48336466D01*
X93520000Y-48290112D01*
X93520000Y-47213888D01*
X93524565Y-47167534D01*
X93536296Y-47128863D01*
X93555348Y-47093221D01*
X93580983Y-47061983D01*
X93612221Y-47036348D01*
X93647863Y-47017296D01*
X93686534Y-47005565D01*
X93732888Y-47001000D01*
X94384112Y-47001000D01*
X94430466Y-47005565D01*
X94430466Y-47005565D01*
G37*
G36*
X91597000Y-48062000D02*
X90435000Y-48062000D01*
X90435000Y-45410000D01*
X91597000Y-45410000D01*
X91597000Y-48062000D01*
X91597000Y-48062000D01*
G37*
G36*
X89397000Y-48062000D02*
X88235000Y-48062000D01*
X88235000Y-45410000D01*
X89397000Y-45410000D01*
X89397000Y-48062000D01*
X89397000Y-48062000D01*
G37*
G36*
X85032466Y-45735565D02*
X85071137Y-45747296D01*
X85106779Y-45766348D01*
X85138017Y-45791983D01*
X85163652Y-45823221D01*
X85182704Y-45858863D01*
X85194435Y-45897534D01*
X85199000Y-45943888D01*
X85199000Y-47020112D01*
X85194435Y-47066466D01*
X85182704Y-47105137D01*
X85163652Y-47140779D01*
X85138017Y-47172017D01*
X85106779Y-47197652D01*
X85071137Y-47216704D01*
X85032466Y-47228435D01*
X84986112Y-47233000D01*
X84334888Y-47233000D01*
X84288534Y-47228435D01*
X84249863Y-47216704D01*
X84214221Y-47197652D01*
X84182983Y-47172017D01*
X84157348Y-47140779D01*
X84138296Y-47105137D01*
X84126565Y-47066466D01*
X84122000Y-47020112D01*
X84122000Y-45943888D01*
X84126565Y-45897534D01*
X84138296Y-45858863D01*
X84157348Y-45823221D01*
X84182983Y-45791983D01*
X84214221Y-45766348D01*
X84249863Y-45747296D01*
X84288534Y-45735565D01*
X84334888Y-45731000D01*
X84986112Y-45731000D01*
X85032466Y-45735565D01*
X85032466Y-45735565D01*
G37*
G36*
X86907466Y-45735565D02*
X86946137Y-45747296D01*
X86981779Y-45766348D01*
X87013017Y-45791983D01*
X87038652Y-45823221D01*
X87057704Y-45858863D01*
X87069435Y-45897534D01*
X87074000Y-45943888D01*
X87074000Y-47020112D01*
X87069435Y-47066466D01*
X87057704Y-47105137D01*
X87038652Y-47140779D01*
X87013017Y-47172017D01*
X86981779Y-47197652D01*
X86946137Y-47216704D01*
X86907466Y-47228435D01*
X86861112Y-47233000D01*
X86209888Y-47233000D01*
X86163534Y-47228435D01*
X86124863Y-47216704D01*
X86089221Y-47197652D01*
X86057983Y-47172017D01*
X86032348Y-47140779D01*
X86013296Y-47105137D01*
X86001565Y-47066466D01*
X85997000Y-47020112D01*
X85997000Y-45943888D01*
X86001565Y-45897534D01*
X86013296Y-45858863D01*
X86032348Y-45823221D01*
X86057983Y-45791983D01*
X86089221Y-45766348D01*
X86124863Y-45747296D01*
X86163534Y-45735565D01*
X86209888Y-45731000D01*
X86861112Y-45731000D01*
X86907466Y-45735565D01*
X86907466Y-45735565D01*
G37*
G36*
X64005443Y-45380519D02*
X64071628Y-45387038D01*
X64184854Y-45421385D01*
X64241468Y-45438558D01*
X64310060Y-45475222D01*
X64397992Y-45522223D01*
X64424694Y-45544137D01*
X64535187Y-45634815D01*
X64609206Y-45725009D01*
X64647779Y-45772010D01*
X64647780Y-45772012D01*
X64731444Y-45928534D01*
X64748617Y-45985148D01*
X64782964Y-46098374D01*
X64800360Y-46275001D01*
X64782964Y-46451628D01*
X64748617Y-46564854D01*
X64731444Y-46621468D01*
X64672903Y-46730989D01*
X64647779Y-46777992D01*
X64618449Y-46813730D01*
X64535187Y-46915187D01*
X64433730Y-46998449D01*
X64397992Y-47027779D01*
X64397990Y-47027780D01*
X64241468Y-47111444D01*
X64211076Y-47120663D01*
X64071628Y-47162964D01*
X64025227Y-47167534D01*
X63939261Y-47176001D01*
X63850741Y-47176001D01*
X63764775Y-47167534D01*
X63718374Y-47162964D01*
X63578926Y-47120663D01*
X63548534Y-47111444D01*
X63392012Y-47027780D01*
X63392010Y-47027779D01*
X63356272Y-46998449D01*
X63254815Y-46915187D01*
X63171553Y-46813730D01*
X63142223Y-46777992D01*
X63117099Y-46730989D01*
X63058558Y-46621468D01*
X63041385Y-46564854D01*
X63007038Y-46451628D01*
X62989642Y-46275001D01*
X63007038Y-46098374D01*
X63041385Y-45985148D01*
X63058558Y-45928534D01*
X63142222Y-45772012D01*
X63142223Y-45772010D01*
X63180796Y-45725009D01*
X63254815Y-45634815D01*
X63365308Y-45544137D01*
X63392010Y-45522223D01*
X63479942Y-45475222D01*
X63548534Y-45438558D01*
X63605148Y-45421385D01*
X63718374Y-45387038D01*
X63784559Y-45380519D01*
X63850741Y-45374001D01*
X63939261Y-45374001D01*
X64005443Y-45380519D01*
X64005443Y-45380519D01*
G37*
G36*
X102726442Y-45333518D02*
X102792627Y-45340037D01*
X102905853Y-45374384D01*
X102962467Y-45391557D01*
X103050398Y-45438558D01*
X103118991Y-45475222D01*
X103154729Y-45504552D01*
X103256186Y-45587814D01*
X103339448Y-45689271D01*
X103368778Y-45725009D01*
X103368779Y-45725011D01*
X103452443Y-45881533D01*
X103452443Y-45881534D01*
X103503963Y-46051373D01*
X103521359Y-46228000D01*
X103503963Y-46404627D01*
X103485214Y-46466435D01*
X103452443Y-46574467D01*
X103378348Y-46713087D01*
X103368778Y-46730991D01*
X103339448Y-46766729D01*
X103256186Y-46868186D01*
X103154729Y-46951448D01*
X103118991Y-46980778D01*
X103118989Y-46980779D01*
X102962467Y-47064443D01*
X102954736Y-47066788D01*
X102792627Y-47115963D01*
X102744906Y-47120663D01*
X102660260Y-47129000D01*
X102571740Y-47129000D01*
X102487094Y-47120663D01*
X102439373Y-47115963D01*
X102277264Y-47066788D01*
X102269533Y-47064443D01*
X102113011Y-46980779D01*
X102113009Y-46980778D01*
X102077271Y-46951448D01*
X101975814Y-46868186D01*
X101892552Y-46766729D01*
X101863222Y-46730991D01*
X101853652Y-46713087D01*
X101779557Y-46574467D01*
X101746786Y-46466435D01*
X101728037Y-46404627D01*
X101710641Y-46228000D01*
X101728037Y-46051373D01*
X101779557Y-45881534D01*
X101779557Y-45881533D01*
X101863221Y-45725011D01*
X101863222Y-45725009D01*
X101892552Y-45689271D01*
X101975814Y-45587814D01*
X102077271Y-45504552D01*
X102113009Y-45475222D01*
X102181602Y-45438558D01*
X102269533Y-45391557D01*
X102326147Y-45374384D01*
X102439373Y-45340037D01*
X102505557Y-45333519D01*
X102571740Y-45327000D01*
X102660260Y-45327000D01*
X102726442Y-45333518D01*
X102726442Y-45333518D01*
G37*
G36*
X77014500Y-44251000D02*
X75667000Y-44251000D01*
X75642614Y-44253402D01*
X75619165Y-44260515D01*
X75597554Y-44272066D01*
X75578612Y-44287612D01*
X75563066Y-44306554D01*
X75551515Y-44328165D01*
X75544402Y-44351614D01*
X75542000Y-44376000D01*
X75542000Y-45044000D01*
X75544402Y-45068386D01*
X75551515Y-45091835D01*
X75563066Y-45113446D01*
X75578612Y-45132388D01*
X75597554Y-45147934D01*
X75619165Y-45159485D01*
X75642614Y-45166598D01*
X75667000Y-45169000D01*
X78765000Y-45169000D01*
X78789386Y-45166598D01*
X78812835Y-45159485D01*
X78834446Y-45147934D01*
X78853388Y-45132388D01*
X78868934Y-45113446D01*
X78880485Y-45091835D01*
X78887598Y-45068386D01*
X78890000Y-45044000D01*
X78890000Y-44376000D01*
X78887598Y-44351614D01*
X78880485Y-44328165D01*
X78868934Y-44306554D01*
X78853388Y-44287612D01*
X78834446Y-44272066D01*
X78812835Y-44260515D01*
X78789386Y-44253402D01*
X78765000Y-44251000D01*
X77417500Y-44251000D01*
X77417500Y-42249000D01*
X81364500Y-42249000D01*
X81364500Y-44251000D01*
X80592000Y-44251000D01*
X80567614Y-44253402D01*
X80544165Y-44260515D01*
X80522554Y-44272066D01*
X80503612Y-44287612D01*
X80488066Y-44306554D01*
X80476515Y-44328165D01*
X80469402Y-44351614D01*
X80467000Y-44376000D01*
X80467000Y-46651000D01*
X73965000Y-46651000D01*
X73965000Y-44376000D01*
X73962598Y-44351614D01*
X73955485Y-44328165D01*
X73943934Y-44306554D01*
X73928388Y-44287612D01*
X73909446Y-44272066D01*
X73887835Y-44260515D01*
X73864386Y-44253402D01*
X73840000Y-44251000D01*
X73067500Y-44251000D01*
X73067500Y-42249000D01*
X77014500Y-42249000D01*
X77014500Y-44251000D01*
X77014500Y-44251000D01*
G37*
G36*
X96305466Y-44973565D02*
X96344137Y-44985296D01*
X96379779Y-45004348D01*
X96411017Y-45029983D01*
X96436652Y-45061221D01*
X96455704Y-45096863D01*
X96467435Y-45135534D01*
X96472000Y-45181888D01*
X96472000Y-46258112D01*
X96467435Y-46304466D01*
X96455704Y-46343137D01*
X96436652Y-46378779D01*
X96411017Y-46410017D01*
X96379779Y-46435652D01*
X96344137Y-46454704D01*
X96305466Y-46466435D01*
X96259112Y-46471000D01*
X95607888Y-46471000D01*
X95561534Y-46466435D01*
X95522863Y-46454704D01*
X95487221Y-46435652D01*
X95455983Y-46410017D01*
X95430348Y-46378779D01*
X95411296Y-46343137D01*
X95399565Y-46304466D01*
X95395000Y-46258112D01*
X95395000Y-45181888D01*
X95399565Y-45135534D01*
X95411296Y-45096863D01*
X95430348Y-45061221D01*
X95455983Y-45029983D01*
X95487221Y-45004348D01*
X95522863Y-44985296D01*
X95561534Y-44973565D01*
X95607888Y-44969000D01*
X96259112Y-44969000D01*
X96305466Y-44973565D01*
X96305466Y-44973565D01*
G37*
G36*
X94430466Y-44973565D02*
X94469137Y-44985296D01*
X94504779Y-45004348D01*
X94536017Y-45029983D01*
X94561652Y-45061221D01*
X94580704Y-45096863D01*
X94592435Y-45135534D01*
X94597000Y-45181888D01*
X94597000Y-46258112D01*
X94592435Y-46304466D01*
X94580704Y-46343137D01*
X94561652Y-46378779D01*
X94536017Y-46410017D01*
X94504779Y-46435652D01*
X94469137Y-46454704D01*
X94430466Y-46466435D01*
X94384112Y-46471000D01*
X93732888Y-46471000D01*
X93686534Y-46466435D01*
X93647863Y-46454704D01*
X93612221Y-46435652D01*
X93580983Y-46410017D01*
X93555348Y-46378779D01*
X93536296Y-46343137D01*
X93524565Y-46304466D01*
X93520000Y-46258112D01*
X93520000Y-45181888D01*
X93524565Y-45135534D01*
X93536296Y-45096863D01*
X93555348Y-45061221D01*
X93580983Y-45029983D01*
X93612221Y-45004348D01*
X93647863Y-44985296D01*
X93686534Y-44973565D01*
X93732888Y-44969000D01*
X94384112Y-44969000D01*
X94430466Y-44973565D01*
X94430466Y-44973565D01*
G37*
G36*
X69418466Y-44599565D02*
X69457137Y-44611296D01*
X69492779Y-44630348D01*
X69524017Y-44655983D01*
X69549652Y-44687221D01*
X69568704Y-44722863D01*
X69580435Y-44761534D01*
X69585000Y-44807888D01*
X69585000Y-45459112D01*
X69580435Y-45505466D01*
X69568704Y-45544137D01*
X69549652Y-45579779D01*
X69524017Y-45611017D01*
X69492779Y-45636652D01*
X69457137Y-45655704D01*
X69418466Y-45667435D01*
X69372112Y-45672000D01*
X68295888Y-45672000D01*
X68249534Y-45667435D01*
X68210863Y-45655704D01*
X68175221Y-45636652D01*
X68143983Y-45611017D01*
X68118348Y-45579779D01*
X68099296Y-45544137D01*
X68087565Y-45505466D01*
X68083000Y-45459112D01*
X68083000Y-44807888D01*
X68087565Y-44761534D01*
X68099296Y-44722863D01*
X68118348Y-44687221D01*
X68143983Y-44655983D01*
X68175221Y-44630348D01*
X68210863Y-44611296D01*
X68249534Y-44599565D01*
X68295888Y-44595000D01*
X69372112Y-44595000D01*
X69418466Y-44599565D01*
X69418466Y-44599565D01*
G37*
G36*
X64796001Y-44636001D02*
X62994001Y-44636001D01*
X62994001Y-42834001D01*
X64796001Y-42834001D01*
X64796001Y-44636001D01*
X64796001Y-44636001D01*
G37*
G36*
X103517000Y-44589000D02*
X101715000Y-44589000D01*
X101715000Y-42787000D01*
X103517000Y-42787000D01*
X103517000Y-44589000D01*
X103517000Y-44589000D01*
G37*
G36*
X69418466Y-42724565D02*
X69457137Y-42736296D01*
X69492779Y-42755348D01*
X69524017Y-42780983D01*
X69549652Y-42812221D01*
X69568704Y-42847863D01*
X69580435Y-42886534D01*
X69585000Y-42932888D01*
X69585000Y-43584112D01*
X69580435Y-43630466D01*
X69568704Y-43669137D01*
X69549652Y-43704779D01*
X69524017Y-43736017D01*
X69492779Y-43761652D01*
X69457137Y-43780704D01*
X69418466Y-43792435D01*
X69372112Y-43797000D01*
X68295888Y-43797000D01*
X68249534Y-43792435D01*
X68210863Y-43780704D01*
X68175221Y-43761652D01*
X68143983Y-43736017D01*
X68118348Y-43704779D01*
X68099296Y-43669137D01*
X68087565Y-43630466D01*
X68083000Y-43584112D01*
X68083000Y-42932888D01*
X68087565Y-42886534D01*
X68099296Y-42847863D01*
X68118348Y-42812221D01*
X68143983Y-42780983D01*
X68175221Y-42755348D01*
X68210863Y-42736296D01*
X68249534Y-42724565D01*
X68295888Y-42720000D01*
X69372112Y-42720000D01*
X69418466Y-42724565D01*
X69418466Y-42724565D01*
G37*
M02*
