M48
;DRILL file {KiCad (5.0.1)-3} date 9/21/2019 12:36:37 PM
;FORMAT={-:-/ absolute / inch / decimal}
FMAT,2
INCH,TZ
T1C0.0157
T2C0.0394
%
G90
G05
M72
T1
X2.71Y-1.83
X2.71Y-1.99
X2.86Y-2.188
X2.94Y-2.09
X2.96Y-2.24
X2.98Y-2.11
X3.Y-2.24
X3.04Y-2.24
X3.0688Y-2.16
X3.08Y-2.24
X3.2Y-2.19
X3.21Y-1.97
X3.21Y-2.15
X3.25Y-1.7219
X3.31Y-1.7219
X3.36Y-1.7219
X3.4Y-1.91
X3.41Y-1.72
X3.63Y-1.84
X3.82Y-1.8
T2
X4.04Y-1.72
X4.04Y-1.82
X4.04Y-1.92
X4.04Y-2.02
X4.04Y-2.12
X4.04Y-2.22
X2.5156Y-1.7219
X2.5156Y-1.8219
X2.5156Y-1.9219
X2.5156Y-2.0219
X2.5156Y-2.1219
X2.5156Y-2.2219
T0
M30
