G04 #@! TF.GenerationSoftware,KiCad,Pcbnew,(5.0.1)-3*
G04 #@! TF.CreationDate,2019-09-21T13:45:32-04:00*
G04 #@! TF.ProjectId,BMS Board Rev2,424D5320426F61726420526576322E6B,rev?*
G04 #@! TF.SameCoordinates,Original*
G04 #@! TF.FileFunction,Soldermask,Bot*
G04 #@! TF.FilePolarity,Negative*
%FSLAX46Y46*%
G04 Gerber Fmt 4.6, Leading zero omitted, Abs format (unit mm)*
G04 Created by KiCad (PCBNEW (5.0.1)-3) date 9/21/2019 1:45:32 PM*
%MOMM*%
%LPD*%
G01*
G04 APERTURE LIST*
%ADD10C,0.100000*%
G04 APERTURE END LIST*
D10*
G36*
X64005444Y-55540520D02*
X64071628Y-55547038D01*
X64184854Y-55581385D01*
X64241468Y-55598558D01*
X64310060Y-55635222D01*
X64397992Y-55682223D01*
X64433730Y-55711553D01*
X64535187Y-55794815D01*
X64609206Y-55885009D01*
X64647779Y-55932010D01*
X64647780Y-55932012D01*
X64731444Y-56088534D01*
X64731444Y-56088535D01*
X64782964Y-56258374D01*
X64800360Y-56435001D01*
X64782964Y-56611628D01*
X64748617Y-56724854D01*
X64731444Y-56781468D01*
X64672903Y-56890989D01*
X64647779Y-56937992D01*
X64618449Y-56973730D01*
X64535187Y-57075187D01*
X64433730Y-57158449D01*
X64397992Y-57187779D01*
X64397990Y-57187780D01*
X64241468Y-57271444D01*
X64184854Y-57288617D01*
X64071628Y-57322964D01*
X64005444Y-57329482D01*
X63939261Y-57336001D01*
X63850741Y-57336001D01*
X63784558Y-57329482D01*
X63718374Y-57322964D01*
X63605148Y-57288617D01*
X63548534Y-57271444D01*
X63392012Y-57187780D01*
X63392010Y-57187779D01*
X63356272Y-57158449D01*
X63254815Y-57075187D01*
X63171553Y-56973730D01*
X63142223Y-56937992D01*
X63117099Y-56890989D01*
X63058558Y-56781468D01*
X63041385Y-56724854D01*
X63007038Y-56611628D01*
X62989642Y-56435001D01*
X63007038Y-56258374D01*
X63058558Y-56088535D01*
X63058558Y-56088534D01*
X63142222Y-55932012D01*
X63142223Y-55932010D01*
X63180796Y-55885009D01*
X63254815Y-55794815D01*
X63356272Y-55711553D01*
X63392010Y-55682223D01*
X63479942Y-55635222D01*
X63548534Y-55598558D01*
X63605148Y-55581385D01*
X63718374Y-55547038D01*
X63784558Y-55540520D01*
X63850741Y-55534001D01*
X63939261Y-55534001D01*
X64005444Y-55540520D01*
X64005444Y-55540520D01*
G37*
G36*
X102726442Y-55493518D02*
X102792627Y-55500037D01*
X102905853Y-55534384D01*
X102962467Y-55551557D01*
X103050398Y-55598558D01*
X103118991Y-55635222D01*
X103154729Y-55664552D01*
X103256186Y-55747814D01*
X103339448Y-55849271D01*
X103368778Y-55885009D01*
X103368779Y-55885011D01*
X103452443Y-56041533D01*
X103452443Y-56041534D01*
X103503963Y-56211373D01*
X103521359Y-56388000D01*
X103503963Y-56564627D01*
X103489706Y-56611626D01*
X103452443Y-56734467D01*
X103427320Y-56781468D01*
X103368778Y-56890991D01*
X103339448Y-56926729D01*
X103256186Y-57028186D01*
X103154729Y-57111448D01*
X103118991Y-57140778D01*
X103118989Y-57140779D01*
X102962467Y-57224443D01*
X102905853Y-57241616D01*
X102792627Y-57275963D01*
X102726443Y-57282481D01*
X102660260Y-57289000D01*
X102571740Y-57289000D01*
X102505557Y-57282481D01*
X102439373Y-57275963D01*
X102326147Y-57241616D01*
X102269533Y-57224443D01*
X102113011Y-57140779D01*
X102113009Y-57140778D01*
X102077271Y-57111448D01*
X101975814Y-57028186D01*
X101892552Y-56926729D01*
X101863222Y-56890991D01*
X101804680Y-56781468D01*
X101779557Y-56734467D01*
X101742294Y-56611626D01*
X101728037Y-56564627D01*
X101710641Y-56388000D01*
X101728037Y-56211373D01*
X101779557Y-56041534D01*
X101779557Y-56041533D01*
X101863221Y-55885011D01*
X101863222Y-55885009D01*
X101892552Y-55849271D01*
X101975814Y-55747814D01*
X102077271Y-55664552D01*
X102113009Y-55635222D01*
X102181602Y-55598558D01*
X102269533Y-55551557D01*
X102326147Y-55534384D01*
X102439373Y-55500037D01*
X102505558Y-55493518D01*
X102571740Y-55487000D01*
X102660260Y-55487000D01*
X102726442Y-55493518D01*
X102726442Y-55493518D01*
G37*
G36*
X64005443Y-53000519D02*
X64071628Y-53007038D01*
X64184854Y-53041385D01*
X64241468Y-53058558D01*
X64310060Y-53095222D01*
X64397992Y-53142223D01*
X64433730Y-53171553D01*
X64535187Y-53254815D01*
X64609206Y-53345009D01*
X64647779Y-53392010D01*
X64647780Y-53392012D01*
X64731444Y-53548534D01*
X64731444Y-53548535D01*
X64782964Y-53718374D01*
X64800360Y-53895001D01*
X64782964Y-54071628D01*
X64748617Y-54184854D01*
X64731444Y-54241468D01*
X64672903Y-54350989D01*
X64647779Y-54397992D01*
X64618449Y-54433730D01*
X64535187Y-54535187D01*
X64433730Y-54618449D01*
X64397992Y-54647779D01*
X64397990Y-54647780D01*
X64241468Y-54731444D01*
X64184854Y-54748617D01*
X64071628Y-54782964D01*
X64005443Y-54789483D01*
X63939261Y-54796001D01*
X63850741Y-54796001D01*
X63784559Y-54789483D01*
X63718374Y-54782964D01*
X63605148Y-54748617D01*
X63548534Y-54731444D01*
X63392012Y-54647780D01*
X63392010Y-54647779D01*
X63356272Y-54618449D01*
X63254815Y-54535187D01*
X63171553Y-54433730D01*
X63142223Y-54397992D01*
X63117099Y-54350989D01*
X63058558Y-54241468D01*
X63041385Y-54184854D01*
X63007038Y-54071628D01*
X62989642Y-53895001D01*
X63007038Y-53718374D01*
X63058558Y-53548535D01*
X63058558Y-53548534D01*
X63142222Y-53392012D01*
X63142223Y-53392010D01*
X63180796Y-53345009D01*
X63254815Y-53254815D01*
X63356272Y-53171553D01*
X63392010Y-53142223D01*
X63479942Y-53095222D01*
X63548534Y-53058558D01*
X63605148Y-53041385D01*
X63718374Y-53007038D01*
X63784559Y-53000519D01*
X63850741Y-52994001D01*
X63939261Y-52994001D01*
X64005443Y-53000519D01*
X64005443Y-53000519D01*
G37*
G36*
X102726443Y-52953519D02*
X102792627Y-52960037D01*
X102905853Y-52994384D01*
X102962467Y-53011557D01*
X103050398Y-53058558D01*
X103118991Y-53095222D01*
X103154729Y-53124552D01*
X103256186Y-53207814D01*
X103339448Y-53309271D01*
X103368778Y-53345009D01*
X103368779Y-53345011D01*
X103452443Y-53501533D01*
X103452443Y-53501534D01*
X103503963Y-53671373D01*
X103521359Y-53848000D01*
X103503963Y-54024627D01*
X103489706Y-54071626D01*
X103452443Y-54194467D01*
X103427320Y-54241468D01*
X103368778Y-54350991D01*
X103339448Y-54386729D01*
X103256186Y-54488186D01*
X103154729Y-54571448D01*
X103118991Y-54600778D01*
X103118989Y-54600779D01*
X102962467Y-54684443D01*
X102905853Y-54701616D01*
X102792627Y-54735963D01*
X102726442Y-54742482D01*
X102660260Y-54749000D01*
X102571740Y-54749000D01*
X102505558Y-54742482D01*
X102439373Y-54735963D01*
X102326147Y-54701616D01*
X102269533Y-54684443D01*
X102113011Y-54600779D01*
X102113009Y-54600778D01*
X102077271Y-54571448D01*
X101975814Y-54488186D01*
X101892552Y-54386729D01*
X101863222Y-54350991D01*
X101804680Y-54241468D01*
X101779557Y-54194467D01*
X101742294Y-54071626D01*
X101728037Y-54024627D01*
X101710641Y-53848000D01*
X101728037Y-53671373D01*
X101779557Y-53501534D01*
X101779557Y-53501533D01*
X101863221Y-53345011D01*
X101863222Y-53345009D01*
X101892552Y-53309271D01*
X101975814Y-53207814D01*
X102077271Y-53124552D01*
X102113009Y-53095222D01*
X102181602Y-53058558D01*
X102269533Y-53011557D01*
X102326147Y-52994384D01*
X102439373Y-52960037D01*
X102505557Y-52953519D01*
X102571740Y-52947000D01*
X102660260Y-52947000D01*
X102726443Y-52953519D01*
X102726443Y-52953519D01*
G37*
G36*
X64005443Y-50460519D02*
X64071628Y-50467038D01*
X64184854Y-50501385D01*
X64241468Y-50518558D01*
X64310060Y-50555222D01*
X64397992Y-50602223D01*
X64433730Y-50631553D01*
X64535187Y-50714815D01*
X64609206Y-50805009D01*
X64647779Y-50852010D01*
X64647780Y-50852012D01*
X64731444Y-51008534D01*
X64731444Y-51008535D01*
X64782964Y-51178374D01*
X64800360Y-51355001D01*
X64782964Y-51531628D01*
X64748617Y-51644854D01*
X64731444Y-51701468D01*
X64672903Y-51810989D01*
X64647779Y-51857992D01*
X64618449Y-51893730D01*
X64535187Y-51995187D01*
X64433730Y-52078449D01*
X64397992Y-52107779D01*
X64397990Y-52107780D01*
X64241468Y-52191444D01*
X64184854Y-52208617D01*
X64071628Y-52242964D01*
X64005443Y-52249483D01*
X63939261Y-52256001D01*
X63850741Y-52256001D01*
X63784559Y-52249483D01*
X63718374Y-52242964D01*
X63605148Y-52208617D01*
X63548534Y-52191444D01*
X63392012Y-52107780D01*
X63392010Y-52107779D01*
X63356272Y-52078449D01*
X63254815Y-51995187D01*
X63171553Y-51893730D01*
X63142223Y-51857992D01*
X63117099Y-51810989D01*
X63058558Y-51701468D01*
X63041385Y-51644854D01*
X63007038Y-51531628D01*
X62989642Y-51355001D01*
X63007038Y-51178374D01*
X63058558Y-51008535D01*
X63058558Y-51008534D01*
X63142222Y-50852012D01*
X63142223Y-50852010D01*
X63180796Y-50805009D01*
X63254815Y-50714815D01*
X63356272Y-50631553D01*
X63392010Y-50602223D01*
X63479942Y-50555222D01*
X63548534Y-50518558D01*
X63605148Y-50501385D01*
X63718374Y-50467038D01*
X63784558Y-50460520D01*
X63850741Y-50454001D01*
X63939261Y-50454001D01*
X64005443Y-50460519D01*
X64005443Y-50460519D01*
G37*
G36*
X102726443Y-50413519D02*
X102792627Y-50420037D01*
X102905853Y-50454384D01*
X102962467Y-50471557D01*
X103050398Y-50518558D01*
X103118991Y-50555222D01*
X103154729Y-50584552D01*
X103256186Y-50667814D01*
X103339448Y-50769271D01*
X103368778Y-50805009D01*
X103368779Y-50805011D01*
X103452443Y-50961533D01*
X103452443Y-50961534D01*
X103503963Y-51131373D01*
X103521359Y-51308000D01*
X103503963Y-51484627D01*
X103489706Y-51531626D01*
X103452443Y-51654467D01*
X103427320Y-51701468D01*
X103368778Y-51810991D01*
X103339448Y-51846729D01*
X103256186Y-51948186D01*
X103154729Y-52031448D01*
X103118991Y-52060778D01*
X103118989Y-52060779D01*
X102962467Y-52144443D01*
X102905853Y-52161616D01*
X102792627Y-52195963D01*
X102726443Y-52202481D01*
X102660260Y-52209000D01*
X102571740Y-52209000D01*
X102505557Y-52202481D01*
X102439373Y-52195963D01*
X102326147Y-52161616D01*
X102269533Y-52144443D01*
X102113011Y-52060779D01*
X102113009Y-52060778D01*
X102077271Y-52031448D01*
X101975814Y-51948186D01*
X101892552Y-51846729D01*
X101863222Y-51810991D01*
X101804680Y-51701468D01*
X101779557Y-51654467D01*
X101742294Y-51531626D01*
X101728037Y-51484627D01*
X101710641Y-51308000D01*
X101728037Y-51131373D01*
X101779557Y-50961534D01*
X101779557Y-50961533D01*
X101863221Y-50805011D01*
X101863222Y-50805009D01*
X101892552Y-50769271D01*
X101975814Y-50667814D01*
X102077271Y-50584552D01*
X102113009Y-50555222D01*
X102181602Y-50518558D01*
X102269533Y-50471557D01*
X102326147Y-50454384D01*
X102439373Y-50420037D01*
X102505558Y-50413518D01*
X102571740Y-50407000D01*
X102660260Y-50407000D01*
X102726443Y-50413519D01*
X102726443Y-50413519D01*
G37*
G36*
X64005443Y-47920519D02*
X64071628Y-47927038D01*
X64184854Y-47961385D01*
X64241468Y-47978558D01*
X64310060Y-48015222D01*
X64397992Y-48062223D01*
X64433730Y-48091553D01*
X64535187Y-48174815D01*
X64609206Y-48265009D01*
X64647779Y-48312010D01*
X64647780Y-48312012D01*
X64731444Y-48468534D01*
X64731444Y-48468535D01*
X64782964Y-48638374D01*
X64800360Y-48815001D01*
X64782964Y-48991628D01*
X64748617Y-49104854D01*
X64731444Y-49161468D01*
X64672903Y-49270989D01*
X64647779Y-49317992D01*
X64618449Y-49353730D01*
X64535187Y-49455187D01*
X64433730Y-49538449D01*
X64397992Y-49567779D01*
X64397990Y-49567780D01*
X64241468Y-49651444D01*
X64184854Y-49668617D01*
X64071628Y-49702964D01*
X64005444Y-49709482D01*
X63939261Y-49716001D01*
X63850741Y-49716001D01*
X63784559Y-49709483D01*
X63718374Y-49702964D01*
X63605148Y-49668617D01*
X63548534Y-49651444D01*
X63392012Y-49567780D01*
X63392010Y-49567779D01*
X63356272Y-49538449D01*
X63254815Y-49455187D01*
X63171553Y-49353730D01*
X63142223Y-49317992D01*
X63117099Y-49270989D01*
X63058558Y-49161468D01*
X63041385Y-49104854D01*
X63007038Y-48991628D01*
X62989642Y-48815001D01*
X63007038Y-48638374D01*
X63058558Y-48468535D01*
X63058558Y-48468534D01*
X63142222Y-48312012D01*
X63142223Y-48312010D01*
X63180796Y-48265009D01*
X63254815Y-48174815D01*
X63356272Y-48091553D01*
X63392010Y-48062223D01*
X63479942Y-48015222D01*
X63548534Y-47978558D01*
X63605148Y-47961385D01*
X63718374Y-47927038D01*
X63784559Y-47920519D01*
X63850741Y-47914001D01*
X63939261Y-47914001D01*
X64005443Y-47920519D01*
X64005443Y-47920519D01*
G37*
G36*
X102726442Y-47873518D02*
X102792627Y-47880037D01*
X102905853Y-47914384D01*
X102962467Y-47931557D01*
X103050398Y-47978558D01*
X103118991Y-48015222D01*
X103154729Y-48044552D01*
X103256186Y-48127814D01*
X103339448Y-48229271D01*
X103368778Y-48265009D01*
X103368779Y-48265011D01*
X103452443Y-48421533D01*
X103452443Y-48421534D01*
X103503963Y-48591373D01*
X103521359Y-48768000D01*
X103503963Y-48944627D01*
X103489706Y-48991626D01*
X103452443Y-49114467D01*
X103427320Y-49161468D01*
X103368778Y-49270991D01*
X103339448Y-49306729D01*
X103256186Y-49408186D01*
X103154729Y-49491448D01*
X103118991Y-49520778D01*
X103118989Y-49520779D01*
X102962467Y-49604443D01*
X102905853Y-49621616D01*
X102792627Y-49655963D01*
X102726442Y-49662482D01*
X102660260Y-49669000D01*
X102571740Y-49669000D01*
X102505558Y-49662482D01*
X102439373Y-49655963D01*
X102326147Y-49621616D01*
X102269533Y-49604443D01*
X102113011Y-49520779D01*
X102113009Y-49520778D01*
X102077271Y-49491448D01*
X101975814Y-49408186D01*
X101892552Y-49306729D01*
X101863222Y-49270991D01*
X101804680Y-49161468D01*
X101779557Y-49114467D01*
X101742294Y-48991626D01*
X101728037Y-48944627D01*
X101710641Y-48768000D01*
X101728037Y-48591373D01*
X101779557Y-48421534D01*
X101779557Y-48421533D01*
X101863221Y-48265011D01*
X101863222Y-48265009D01*
X101892552Y-48229271D01*
X101975814Y-48127814D01*
X102077271Y-48044552D01*
X102113009Y-48015222D01*
X102181602Y-47978558D01*
X102269533Y-47931557D01*
X102326147Y-47914384D01*
X102439373Y-47880037D01*
X102505558Y-47873518D01*
X102571740Y-47867000D01*
X102660260Y-47867000D01*
X102726442Y-47873518D01*
X102726442Y-47873518D01*
G37*
G36*
X64005443Y-45380519D02*
X64071628Y-45387038D01*
X64184854Y-45421385D01*
X64241468Y-45438558D01*
X64310060Y-45475222D01*
X64397992Y-45522223D01*
X64433730Y-45551553D01*
X64535187Y-45634815D01*
X64609206Y-45725009D01*
X64647779Y-45772010D01*
X64647780Y-45772012D01*
X64731444Y-45928534D01*
X64731444Y-45928535D01*
X64782964Y-46098374D01*
X64800360Y-46275001D01*
X64782964Y-46451628D01*
X64748617Y-46564854D01*
X64731444Y-46621468D01*
X64672903Y-46730989D01*
X64647779Y-46777992D01*
X64618449Y-46813730D01*
X64535187Y-46915187D01*
X64433730Y-46998449D01*
X64397992Y-47027779D01*
X64397990Y-47027780D01*
X64241468Y-47111444D01*
X64184854Y-47128617D01*
X64071628Y-47162964D01*
X64005444Y-47169482D01*
X63939261Y-47176001D01*
X63850741Y-47176001D01*
X63784559Y-47169483D01*
X63718374Y-47162964D01*
X63605148Y-47128617D01*
X63548534Y-47111444D01*
X63392012Y-47027780D01*
X63392010Y-47027779D01*
X63356272Y-46998449D01*
X63254815Y-46915187D01*
X63171553Y-46813730D01*
X63142223Y-46777992D01*
X63117099Y-46730989D01*
X63058558Y-46621468D01*
X63041385Y-46564854D01*
X63007038Y-46451628D01*
X62989642Y-46275001D01*
X63007038Y-46098374D01*
X63058558Y-45928535D01*
X63058558Y-45928534D01*
X63142222Y-45772012D01*
X63142223Y-45772010D01*
X63180796Y-45725009D01*
X63254815Y-45634815D01*
X63356272Y-45551553D01*
X63392010Y-45522223D01*
X63479942Y-45475222D01*
X63548534Y-45438558D01*
X63605148Y-45421385D01*
X63718374Y-45387038D01*
X63784559Y-45380519D01*
X63850741Y-45374001D01*
X63939261Y-45374001D01*
X64005443Y-45380519D01*
X64005443Y-45380519D01*
G37*
G36*
X102726442Y-45333518D02*
X102792627Y-45340037D01*
X102905853Y-45374384D01*
X102962467Y-45391557D01*
X103050398Y-45438558D01*
X103118991Y-45475222D01*
X103154729Y-45504552D01*
X103256186Y-45587814D01*
X103339448Y-45689271D01*
X103368778Y-45725009D01*
X103368779Y-45725011D01*
X103452443Y-45881533D01*
X103452443Y-45881534D01*
X103503963Y-46051373D01*
X103521359Y-46228000D01*
X103503963Y-46404627D01*
X103489706Y-46451626D01*
X103452443Y-46574467D01*
X103427320Y-46621468D01*
X103368778Y-46730991D01*
X103339448Y-46766729D01*
X103256186Y-46868186D01*
X103154729Y-46951448D01*
X103118991Y-46980778D01*
X103118989Y-46980779D01*
X102962467Y-47064443D01*
X102905853Y-47081616D01*
X102792627Y-47115963D01*
X102726442Y-47122482D01*
X102660260Y-47129000D01*
X102571740Y-47129000D01*
X102505558Y-47122482D01*
X102439373Y-47115963D01*
X102326147Y-47081616D01*
X102269533Y-47064443D01*
X102113011Y-46980779D01*
X102113009Y-46980778D01*
X102077271Y-46951448D01*
X101975814Y-46868186D01*
X101892552Y-46766729D01*
X101863222Y-46730991D01*
X101804680Y-46621468D01*
X101779557Y-46574467D01*
X101742294Y-46451626D01*
X101728037Y-46404627D01*
X101710641Y-46228000D01*
X101728037Y-46051373D01*
X101779557Y-45881534D01*
X101779557Y-45881533D01*
X101863221Y-45725011D01*
X101863222Y-45725009D01*
X101892552Y-45689271D01*
X101975814Y-45587814D01*
X102077271Y-45504552D01*
X102113009Y-45475222D01*
X102181602Y-45438558D01*
X102269533Y-45391557D01*
X102326147Y-45374384D01*
X102439373Y-45340037D01*
X102505557Y-45333519D01*
X102571740Y-45327000D01*
X102660260Y-45327000D01*
X102726442Y-45333518D01*
X102726442Y-45333518D01*
G37*
G36*
X64796001Y-44636001D02*
X62994001Y-44636001D01*
X62994001Y-42834001D01*
X64796001Y-42834001D01*
X64796001Y-44636001D01*
X64796001Y-44636001D01*
G37*
G36*
X103517000Y-44589000D02*
X101715000Y-44589000D01*
X101715000Y-42787000D01*
X103517000Y-42787000D01*
X103517000Y-44589000D01*
X103517000Y-44589000D01*
G37*
M02*
