G04 #@! TF.GenerationSoftware,KiCad,Pcbnew,(5.0.1)-3*
G04 #@! TF.CreationDate,2019-08-21T09:16:30-04:00*
G04 #@! TF.ProjectId,BMS Module,424D53204D6F64756C652E6B69636164,rev?*
G04 #@! TF.SameCoordinates,Original*
G04 #@! TF.FileFunction,Other,Fab,Top*
%FSLAX46Y46*%
G04 Gerber Fmt 4.6, Leading zero omitted, Abs format (unit mm)*
G04 Created by KiCad (PCBNEW (5.0.1)-3) date 8/21/2019 9:16:30 AM*
%MOMM*%
%LPD*%
G01*
G04 APERTURE LIST*
%ADD10C,0.100000*%
%ADD11C,0.150000*%
%ADD12C,0.120000*%
%ADD13C,0.105000*%
%ADD14C,0.075000*%
%ADD15C,0.080000*%
G04 APERTURE END LIST*
D10*
G04 #@! TO.C,J4*
X77580000Y-46850000D02*
X77580000Y-52400000D01*
X84280000Y-48150000D02*
X78280000Y-48150000D01*
X84980000Y-46850000D02*
X77580000Y-46850000D01*
X84980000Y-52400000D02*
X77580000Y-52400000D01*
X84980000Y-46850000D02*
X84980000Y-52400000D01*
X82580000Y-52550000D02*
X82780000Y-52750000D01*
X82380000Y-52750000D02*
X82580000Y-52550000D01*
X82780000Y-52960000D02*
X82380000Y-52960000D01*
X82780000Y-52960000D02*
X82780000Y-52750000D01*
X82380000Y-52960000D02*
X82380000Y-52750000D01*
G04 #@! TO.C,F1*
X77648000Y-57950000D02*
X77648000Y-56350000D01*
X77648000Y-56350000D02*
X80848000Y-56350000D01*
X80848000Y-56350000D02*
X80848000Y-57950000D01*
X80848000Y-57950000D02*
X77648000Y-57950000D01*
G04 #@! TO.C,C2*
X83998000Y-61702000D02*
X83998000Y-59202000D01*
X83998000Y-59202000D02*
X87198000Y-59202000D01*
X87198000Y-59202000D02*
X87198000Y-61702000D01*
X87198000Y-61702000D02*
X83998000Y-61702000D01*
G04 #@! TO.C,C3*
X80848000Y-71608000D02*
X77648000Y-71608000D01*
X80848000Y-69108000D02*
X80848000Y-71608000D01*
X77648000Y-69108000D02*
X80848000Y-69108000D01*
X77648000Y-71608000D02*
X77648000Y-69108000D01*
G04 #@! TO.C,C1*
X71608000Y-68656000D02*
X69108000Y-68656000D01*
X69108000Y-68656000D02*
X69108000Y-65456000D01*
X69108000Y-65456000D02*
X71608000Y-65456000D01*
X71608000Y-65456000D02*
X71608000Y-68656000D01*
G04 #@! TO.C,J1*
X68072000Y-71755000D02*
X68707000Y-71120000D01*
X68072000Y-73660000D02*
X68072000Y-71755000D01*
X70612000Y-73660000D02*
X68072000Y-73660000D01*
X70612000Y-71120000D02*
X70612000Y-73660000D01*
X68707000Y-71120000D02*
X70612000Y-71120000D01*
G04 #@! TO.C,J3*
X68707000Y-48768000D02*
X70612000Y-48768000D01*
X70612000Y-48768000D02*
X70612000Y-51308000D01*
X70612000Y-51308000D02*
X68072000Y-51308000D01*
X68072000Y-51308000D02*
X68072000Y-49403000D01*
X68072000Y-49403000D02*
X68707000Y-48768000D01*
G04 #@! TO.C,J6*
X97282000Y-72263000D02*
X97917000Y-71628000D01*
X97282000Y-74168000D02*
X97282000Y-72263000D01*
X99822000Y-74168000D02*
X97282000Y-74168000D01*
X99822000Y-71628000D02*
X99822000Y-74168000D01*
X97917000Y-71628000D02*
X99822000Y-71628000D01*
G04 #@! TO.C,J7*
X97409000Y-48768000D02*
X99314000Y-48768000D01*
X99314000Y-48768000D02*
X99314000Y-51308000D01*
X99314000Y-51308000D02*
X96774000Y-51308000D01*
X96774000Y-51308000D02*
X96774000Y-49403000D01*
X96774000Y-49403000D02*
X97409000Y-48768000D01*
G04 #@! TO.C,J5*
X100584000Y-49403000D02*
X101219000Y-48768000D01*
X100584000Y-74168000D02*
X100584000Y-49403000D01*
X103124000Y-74168000D02*
X100584000Y-74168000D01*
X103124000Y-48768000D02*
X103124000Y-74168000D01*
X101219000Y-48768000D02*
X103124000Y-48768000D01*
G04 #@! TO.C,J2*
X65151000Y-48768000D02*
X67056000Y-48768000D01*
X67056000Y-48768000D02*
X67056000Y-74168000D01*
X67056000Y-74168000D02*
X64516000Y-74168000D01*
X64516000Y-74168000D02*
X64516000Y-49403000D01*
X64516000Y-49403000D02*
X65151000Y-48768000D01*
G04 #@! TO.C,D1*
X89404000Y-52070000D02*
X89904000Y-52070000D01*
X89404000Y-52470000D02*
X88804000Y-52070000D01*
X89404000Y-51670000D02*
X89404000Y-52470000D01*
X88804000Y-52070000D02*
X89404000Y-51670000D01*
X88804000Y-52070000D02*
X88804000Y-52620000D01*
X88804000Y-52070000D02*
X88804000Y-51520000D01*
X88404000Y-52070000D02*
X88804000Y-52070000D01*
X87754000Y-52970000D02*
X87754000Y-51170000D01*
X90554000Y-52970000D02*
X87754000Y-52970000D01*
X90554000Y-51170000D02*
X90554000Y-52970000D01*
X87754000Y-51170000D02*
X90554000Y-51170000D01*
G04 #@! TO.C,L1*
X84352000Y-54126000D02*
X84352000Y-57126000D01*
X84352000Y-57126000D02*
X87352000Y-57126000D01*
X87352000Y-57126000D02*
X87352000Y-54126000D01*
X87352000Y-54126000D02*
X84352000Y-54126000D01*
D11*
G04 #@! TO.C,U3*
X84844000Y-64032000D02*
X86844000Y-64032000D01*
X86844000Y-64032000D02*
X86844000Y-67032000D01*
X86844000Y-67032000D02*
X83844000Y-67032000D01*
X83844000Y-67032000D02*
X83844000Y-65032000D01*
X83844000Y-65032000D02*
X84844000Y-64032000D01*
D10*
G04 #@! TO.C,U4*
X96338000Y-54308000D02*
X96338000Y-61008000D01*
X92638000Y-61008000D02*
X96338000Y-61008000D01*
X93688000Y-54308000D02*
X96338000Y-54308000D01*
X92638000Y-55358000D02*
X92638000Y-61008000D01*
X92638000Y-55358000D02*
X93688000Y-54308000D01*
G04 #@! TO.C,U5*
X92638000Y-63486000D02*
X93688000Y-62436000D01*
X92638000Y-63486000D02*
X92638000Y-69136000D01*
X93688000Y-62436000D02*
X96338000Y-62436000D01*
X92638000Y-69136000D02*
X96338000Y-69136000D01*
X96338000Y-62436000D02*
X96338000Y-69136000D01*
G04 #@! TO.C,U1*
X73888000Y-54980000D02*
X76988000Y-54980000D01*
X76988000Y-54980000D02*
X76988000Y-56780000D01*
X74538000Y-56780000D02*
X76988000Y-56780000D01*
X73888000Y-54980000D02*
X73888000Y-56130000D01*
X74538000Y-56780000D02*
X73888000Y-56130000D01*
G04 #@! TO.C,U2*
X74052000Y-61584000D02*
X74702000Y-62234000D01*
X74702000Y-63384000D02*
X74702000Y-62234000D01*
X74052000Y-61584000D02*
X71602000Y-61584000D01*
X71602000Y-63384000D02*
X71602000Y-61584000D01*
X74702000Y-63384000D02*
X71602000Y-63384000D01*
G04 #@! TO.C,R3*
X87214000Y-69104000D02*
X87214000Y-71104000D01*
X86014000Y-69104000D02*
X87214000Y-69104000D01*
X86014000Y-71104000D02*
X86014000Y-69104000D01*
X87214000Y-71104000D02*
X86014000Y-71104000D01*
G04 #@! TO.C,R4*
X71028000Y-54880000D02*
X72228000Y-54880000D01*
X72228000Y-54880000D02*
X72228000Y-56880000D01*
X72228000Y-56880000D02*
X71028000Y-56880000D01*
X71028000Y-56880000D02*
X71028000Y-54880000D01*
G04 #@! TO.C,R2*
X83982000Y-71104000D02*
X83982000Y-69104000D01*
X85182000Y-71104000D02*
X83982000Y-71104000D01*
X85182000Y-69104000D02*
X85182000Y-71104000D01*
X83982000Y-69104000D02*
X85182000Y-69104000D01*
G04 #@! TO.C,R1*
X77994000Y-61560000D02*
X77994000Y-60360000D01*
X77994000Y-60360000D02*
X79994000Y-60360000D01*
X79994000Y-60360000D02*
X79994000Y-61560000D01*
X79994000Y-61560000D02*
X77994000Y-61560000D01*
G04 #@! TD*
G04 #@! TO.C,J4*
D11*
X76756190Y-45052380D02*
X76756190Y-45861904D01*
X76803809Y-45957142D01*
X76851428Y-46004761D01*
X76946666Y-46052380D01*
X77137142Y-46052380D01*
X77232380Y-46004761D01*
X77280000Y-45957142D01*
X77327619Y-45861904D01*
X77327619Y-45052380D01*
X77756190Y-46004761D02*
X77899047Y-46052380D01*
X78137142Y-46052380D01*
X78232380Y-46004761D01*
X78280000Y-45957142D01*
X78327619Y-45861904D01*
X78327619Y-45766666D01*
X78280000Y-45671428D01*
X78232380Y-45623809D01*
X78137142Y-45576190D01*
X77946666Y-45528571D01*
X77851428Y-45480952D01*
X77803809Y-45433333D01*
X77756190Y-45338095D01*
X77756190Y-45242857D01*
X77803809Y-45147619D01*
X77851428Y-45100000D01*
X77946666Y-45052380D01*
X78184761Y-45052380D01*
X78327619Y-45100000D01*
X79089523Y-45528571D02*
X79232380Y-45576190D01*
X79280000Y-45623809D01*
X79327619Y-45719047D01*
X79327619Y-45861904D01*
X79280000Y-45957142D01*
X79232380Y-46004761D01*
X79137142Y-46052380D01*
X78756190Y-46052380D01*
X78756190Y-45052380D01*
X79089523Y-45052380D01*
X79184761Y-45100000D01*
X79232380Y-45147619D01*
X79280000Y-45242857D01*
X79280000Y-45338095D01*
X79232380Y-45433333D01*
X79184761Y-45480952D01*
X79089523Y-45528571D01*
X78756190Y-45528571D01*
X79518095Y-46147619D02*
X80280000Y-46147619D01*
X80851428Y-45528571D02*
X80994285Y-45576190D01*
X81041904Y-45623809D01*
X81089523Y-45719047D01*
X81089523Y-45861904D01*
X81041904Y-45957142D01*
X80994285Y-46004761D01*
X80899047Y-46052380D01*
X80518095Y-46052380D01*
X80518095Y-45052380D01*
X80851428Y-45052380D01*
X80946666Y-45100000D01*
X80994285Y-45147619D01*
X81041904Y-45242857D01*
X81041904Y-45338095D01*
X80994285Y-45433333D01*
X80946666Y-45480952D01*
X80851428Y-45528571D01*
X80518095Y-45528571D01*
X81280000Y-46147619D02*
X82041904Y-46147619D01*
X82280000Y-46052380D02*
X82280000Y-45052380D01*
X82613333Y-45766666D01*
X82946666Y-45052380D01*
X82946666Y-46052380D01*
X83422857Y-46052380D02*
X83422857Y-45385714D01*
X83422857Y-45052380D02*
X83375238Y-45100000D01*
X83422857Y-45147619D01*
X83470476Y-45100000D01*
X83422857Y-45052380D01*
X83422857Y-45147619D01*
X84327619Y-46004761D02*
X84232380Y-46052380D01*
X84041904Y-46052380D01*
X83946666Y-46004761D01*
X83899047Y-45957142D01*
X83851428Y-45861904D01*
X83851428Y-45576190D01*
X83899047Y-45480952D01*
X83946666Y-45433333D01*
X84041904Y-45385714D01*
X84232380Y-45385714D01*
X84327619Y-45433333D01*
X84756190Y-46052380D02*
X84756190Y-45385714D01*
X84756190Y-45576190D02*
X84803809Y-45480952D01*
X84851428Y-45433333D01*
X84946666Y-45385714D01*
X85041904Y-45385714D01*
X85518095Y-46052380D02*
X85422857Y-46004761D01*
X85375238Y-45957142D01*
X85327619Y-45861904D01*
X85327619Y-45576190D01*
X85375238Y-45480952D01*
X85422857Y-45433333D01*
X85518095Y-45385714D01*
X85660952Y-45385714D01*
X85756190Y-45433333D01*
X85803809Y-45480952D01*
X85851428Y-45576190D01*
X85851428Y-45861904D01*
X85803809Y-45957142D01*
X85756190Y-46004761D01*
X85660952Y-46052380D01*
X85518095Y-46052380D01*
X80946666Y-49402380D02*
X80946666Y-50116666D01*
X80899047Y-50259523D01*
X80803809Y-50354761D01*
X80660952Y-50402380D01*
X80565714Y-50402380D01*
X81851428Y-49735714D02*
X81851428Y-50402380D01*
X81613333Y-49354761D02*
X81375238Y-50069047D01*
X81994285Y-50069047D01*
G04 #@! TO.C,F1*
X73343238Y-59422380D02*
X73343238Y-58422380D01*
X73676571Y-59136666D01*
X74009904Y-58422380D01*
X74009904Y-59422380D01*
X74819428Y-58898571D02*
X74486095Y-58898571D01*
X74486095Y-59422380D02*
X74486095Y-58422380D01*
X74962285Y-58422380D01*
X75343238Y-59041428D02*
X76105142Y-59041428D01*
X76581333Y-59422380D02*
X76581333Y-58422380D01*
X77152761Y-59422380D01*
X77152761Y-58422380D01*
X77581333Y-59374761D02*
X77724190Y-59422380D01*
X77962285Y-59422380D01*
X78057523Y-59374761D01*
X78105142Y-59327142D01*
X78152761Y-59231904D01*
X78152761Y-59136666D01*
X78105142Y-59041428D01*
X78057523Y-58993809D01*
X77962285Y-58946190D01*
X77771809Y-58898571D01*
X77676571Y-58850952D01*
X77628952Y-58803333D01*
X77581333Y-58708095D01*
X77581333Y-58612857D01*
X77628952Y-58517619D01*
X77676571Y-58470000D01*
X77771809Y-58422380D01*
X78009904Y-58422380D01*
X78152761Y-58470000D01*
X78581333Y-59422380D02*
X78581333Y-58422380D01*
X78914666Y-59136666D01*
X79248000Y-58422380D01*
X79248000Y-59422380D01*
X80057523Y-58898571D02*
X79724190Y-58898571D01*
X79724190Y-59422380D02*
X79724190Y-58422380D01*
X80200380Y-58422380D01*
X81105142Y-59422380D02*
X80533714Y-59422380D01*
X80819428Y-59422380D02*
X80819428Y-58422380D01*
X80724190Y-58565238D01*
X80628952Y-58660476D01*
X80533714Y-58708095D01*
X82009904Y-58422380D02*
X81533714Y-58422380D01*
X81486095Y-58898571D01*
X81533714Y-58850952D01*
X81628952Y-58803333D01*
X81867047Y-58803333D01*
X81962285Y-58850952D01*
X82009904Y-58898571D01*
X82057523Y-58993809D01*
X82057523Y-59231904D01*
X82009904Y-59327142D01*
X81962285Y-59374761D01*
X81867047Y-59422380D01*
X81628952Y-59422380D01*
X81533714Y-59374761D01*
X81486095Y-59327142D01*
X82676571Y-58422380D02*
X82771809Y-58422380D01*
X82867047Y-58470000D01*
X82914666Y-58517619D01*
X82962285Y-58612857D01*
X83009904Y-58803333D01*
X83009904Y-59041428D01*
X82962285Y-59231904D01*
X82914666Y-59327142D01*
X82867047Y-59374761D01*
X82771809Y-59422380D01*
X82676571Y-59422380D01*
X82581333Y-59374761D01*
X82533714Y-59327142D01*
X82486095Y-59231904D01*
X82438476Y-59041428D01*
X82438476Y-58803333D01*
X82486095Y-58612857D01*
X82533714Y-58517619D01*
X82581333Y-58470000D01*
X82676571Y-58422380D01*
X83438476Y-59041428D02*
X84200380Y-59041428D01*
X84628952Y-58517619D02*
X84676571Y-58470000D01*
X84771809Y-58422380D01*
X85009904Y-58422380D01*
X85105142Y-58470000D01*
X85152761Y-58517619D01*
X85200380Y-58612857D01*
X85200380Y-58708095D01*
X85152761Y-58850952D01*
X84581333Y-59422380D01*
X85200380Y-59422380D01*
D12*
X80759333Y-59378857D02*
X80492666Y-59378857D01*
X80492666Y-59797904D02*
X80492666Y-58997904D01*
X80873619Y-58997904D01*
X81597428Y-59797904D02*
X81140285Y-59797904D01*
X81368857Y-59797904D02*
X81368857Y-58997904D01*
X81292666Y-59112190D01*
X81216476Y-59188380D01*
X81140285Y-59226476D01*
G04 #@! TO.C,C2*
D11*
X84859904Y-62517714D02*
X84859904Y-63184380D01*
X84621809Y-62136761D02*
X84383714Y-62851047D01*
X85002761Y-62851047D01*
X85288476Y-62184380D02*
X85955142Y-62184380D01*
X85526571Y-63184380D01*
X86764666Y-62517714D02*
X86764666Y-63184380D01*
X86336095Y-62517714D02*
X86336095Y-63041523D01*
X86383714Y-63136761D01*
X86478952Y-63184380D01*
X86621809Y-63184380D01*
X86717047Y-63136761D01*
X86764666Y-63089142D01*
D12*
X85210666Y-60483714D02*
X85172571Y-60521809D01*
X85058285Y-60559904D01*
X84982095Y-60559904D01*
X84867809Y-60521809D01*
X84791619Y-60445619D01*
X84753523Y-60369428D01*
X84715428Y-60217047D01*
X84715428Y-60102761D01*
X84753523Y-59950380D01*
X84791619Y-59874190D01*
X84867809Y-59798000D01*
X84982095Y-59759904D01*
X85058285Y-59759904D01*
X85172571Y-59798000D01*
X85210666Y-59836095D01*
X85515428Y-59836095D02*
X85553523Y-59798000D01*
X85629714Y-59759904D01*
X85820190Y-59759904D01*
X85896380Y-59798000D01*
X85934476Y-59836095D01*
X85972571Y-59912285D01*
X85972571Y-59988476D01*
X85934476Y-60102761D01*
X85477333Y-60559904D01*
X85972571Y-60559904D01*
G04 #@! TO.C,C3*
D11*
X78509904Y-72423714D02*
X78509904Y-73090380D01*
X78271809Y-72042761D02*
X78033714Y-72757047D01*
X78652761Y-72757047D01*
X78938476Y-72090380D02*
X79605142Y-72090380D01*
X79176571Y-73090380D01*
X80414666Y-72423714D02*
X80414666Y-73090380D01*
X79986095Y-72423714D02*
X79986095Y-72947523D01*
X80033714Y-73042761D01*
X80128952Y-73090380D01*
X80271809Y-73090380D01*
X80367047Y-73042761D01*
X80414666Y-72995142D01*
D12*
X79114666Y-70643714D02*
X79076571Y-70681809D01*
X78962285Y-70719904D01*
X78886095Y-70719904D01*
X78771809Y-70681809D01*
X78695619Y-70605619D01*
X78657523Y-70529428D01*
X78619428Y-70377047D01*
X78619428Y-70262761D01*
X78657523Y-70110380D01*
X78695619Y-70034190D01*
X78771809Y-69958000D01*
X78886095Y-69919904D01*
X78962285Y-69919904D01*
X79076571Y-69958000D01*
X79114666Y-69996095D01*
X79381333Y-69919904D02*
X79876571Y-69919904D01*
X79609904Y-70224666D01*
X79724190Y-70224666D01*
X79800380Y-70262761D01*
X79838476Y-70300857D01*
X79876571Y-70377047D01*
X79876571Y-70567523D01*
X79838476Y-70643714D01*
X79800380Y-70681809D01*
X79724190Y-70719904D01*
X79495619Y-70719904D01*
X79419428Y-70681809D01*
X79381333Y-70643714D01*
G04 #@! TO.C,C1*
D11*
X72423714Y-67794095D02*
X73090380Y-67794095D01*
X72042761Y-68032190D02*
X72757047Y-68270285D01*
X72757047Y-67651238D01*
X72090380Y-67365523D02*
X72090380Y-66698857D01*
X73090380Y-67127428D01*
X72423714Y-65889333D02*
X73090380Y-65889333D01*
X72423714Y-66317904D02*
X72947523Y-66317904D01*
X73042761Y-66270285D01*
X73090380Y-66175047D01*
X73090380Y-66032190D01*
X73042761Y-65936952D01*
X72995142Y-65889333D01*
D12*
X70738713Y-67142334D02*
X70776808Y-67180429D01*
X70814903Y-67294715D01*
X70814903Y-67370905D01*
X70776808Y-67485191D01*
X70700618Y-67561381D01*
X70624427Y-67599477D01*
X70472046Y-67637572D01*
X70357760Y-67637572D01*
X70205379Y-67599477D01*
X70129189Y-67561381D01*
X70052999Y-67485191D01*
X70014903Y-67370905D01*
X70014903Y-67294715D01*
X70052999Y-67180429D01*
X70091094Y-67142334D01*
X70814903Y-66380429D02*
X70814903Y-66837572D01*
X70814903Y-66609001D02*
X70014903Y-66609001D01*
X70129189Y-66685191D01*
X70205379Y-66761381D01*
X70243475Y-66837572D01*
G04 #@! TO.C,J1*
D11*
X63508666Y-75077142D02*
X63461047Y-75124761D01*
X63318190Y-75172380D01*
X63222952Y-75172380D01*
X63080095Y-75124761D01*
X62984857Y-75029523D01*
X62937238Y-74934285D01*
X62889619Y-74743809D01*
X62889619Y-74600952D01*
X62937238Y-74410476D01*
X62984857Y-74315238D01*
X63080095Y-74220000D01*
X63222952Y-74172380D01*
X63318190Y-74172380D01*
X63461047Y-74220000D01*
X63508666Y-74267619D01*
X64080095Y-75172380D02*
X63984857Y-75124761D01*
X63937238Y-75077142D01*
X63889619Y-74981904D01*
X63889619Y-74696190D01*
X63937238Y-74600952D01*
X63984857Y-74553333D01*
X64080095Y-74505714D01*
X64222952Y-74505714D01*
X64318190Y-74553333D01*
X64365809Y-74600952D01*
X64413428Y-74696190D01*
X64413428Y-74981904D01*
X64365809Y-75077142D01*
X64318190Y-75124761D01*
X64222952Y-75172380D01*
X64080095Y-75172380D01*
X64842000Y-74505714D02*
X64842000Y-75172380D01*
X64842000Y-74600952D02*
X64889619Y-74553333D01*
X64984857Y-74505714D01*
X65127714Y-74505714D01*
X65222952Y-74553333D01*
X65270571Y-74648571D01*
X65270571Y-75172380D01*
X65746761Y-74505714D02*
X65746761Y-75172380D01*
X65746761Y-74600952D02*
X65794380Y-74553333D01*
X65889619Y-74505714D01*
X66032476Y-74505714D01*
X66127714Y-74553333D01*
X66175333Y-74648571D01*
X66175333Y-75172380D01*
X66413428Y-75267619D02*
X67175333Y-75267619D01*
X67603904Y-74172380D02*
X67699142Y-74172380D01*
X67794380Y-74220000D01*
X67842000Y-74267619D01*
X67889619Y-74362857D01*
X67937238Y-74553333D01*
X67937238Y-74791428D01*
X67889619Y-74981904D01*
X67842000Y-75077142D01*
X67794380Y-75124761D01*
X67699142Y-75172380D01*
X67603904Y-75172380D01*
X67508666Y-75124761D01*
X67461047Y-75077142D01*
X67413428Y-74981904D01*
X67365809Y-74791428D01*
X67365809Y-74553333D01*
X67413428Y-74362857D01*
X67461047Y-74267619D01*
X67508666Y-74220000D01*
X67603904Y-74172380D01*
X68889619Y-75172380D02*
X68318190Y-75172380D01*
X68603904Y-75172380D02*
X68603904Y-74172380D01*
X68508666Y-74315238D01*
X68413428Y-74410476D01*
X68318190Y-74458095D01*
X69222952Y-75172380D02*
X69746761Y-74505714D01*
X69222952Y-74505714D02*
X69746761Y-75172380D01*
X70318190Y-74172380D02*
X70413428Y-74172380D01*
X70508666Y-74220000D01*
X70556285Y-74267619D01*
X70603904Y-74362857D01*
X70651523Y-74553333D01*
X70651523Y-74791428D01*
X70603904Y-74981904D01*
X70556285Y-75077142D01*
X70508666Y-75124761D01*
X70413428Y-75172380D01*
X70318190Y-75172380D01*
X70222952Y-75124761D01*
X70175333Y-75077142D01*
X70127714Y-74981904D01*
X70080095Y-74791428D01*
X70080095Y-74553333D01*
X70127714Y-74362857D01*
X70175333Y-74267619D01*
X70222952Y-74220000D01*
X70318190Y-74172380D01*
X71603904Y-75172380D02*
X71032476Y-75172380D01*
X71318190Y-75172380D02*
X71318190Y-74172380D01*
X71222952Y-74315238D01*
X71127714Y-74410476D01*
X71032476Y-74458095D01*
X71794380Y-75267619D02*
X72556285Y-75267619D01*
X72794380Y-75172380D02*
X72794380Y-74172380D01*
X73127714Y-74886666D01*
X73461047Y-74172380D01*
X73461047Y-75172380D01*
X74365809Y-75172380D02*
X74365809Y-74648571D01*
X74318190Y-74553333D01*
X74222952Y-74505714D01*
X74032476Y-74505714D01*
X73937238Y-74553333D01*
X74365809Y-75124761D02*
X74270571Y-75172380D01*
X74032476Y-75172380D01*
X73937238Y-75124761D01*
X73889619Y-75029523D01*
X73889619Y-74934285D01*
X73937238Y-74839047D01*
X74032476Y-74791428D01*
X74270571Y-74791428D01*
X74365809Y-74743809D01*
X74984857Y-75172380D02*
X74889619Y-75124761D01*
X74842000Y-75029523D01*
X74842000Y-74172380D01*
X75746761Y-75124761D02*
X75651523Y-75172380D01*
X75461047Y-75172380D01*
X75365809Y-75124761D01*
X75318190Y-75029523D01*
X75318190Y-74648571D01*
X75365809Y-74553333D01*
X75461047Y-74505714D01*
X75651523Y-74505714D01*
X75746761Y-74553333D01*
X75794380Y-74648571D01*
X75794380Y-74743809D01*
X75318190Y-74839047D01*
X68794380Y-72723333D02*
X69508666Y-72723333D01*
X69651523Y-72770952D01*
X69746761Y-72866190D01*
X69794380Y-73009047D01*
X69794380Y-73104285D01*
X69794380Y-71723333D02*
X69794380Y-72294761D01*
X69794380Y-72009047D02*
X68794380Y-72009047D01*
X68937238Y-72104285D01*
X69032476Y-72199523D01*
X69080095Y-72294761D01*
G04 #@! TO.C,J3*
X63508666Y-52725142D02*
X63461047Y-52772761D01*
X63318190Y-52820380D01*
X63222952Y-52820380D01*
X63080095Y-52772761D01*
X62984857Y-52677523D01*
X62937238Y-52582285D01*
X62889619Y-52391809D01*
X62889619Y-52248952D01*
X62937238Y-52058476D01*
X62984857Y-51963238D01*
X63080095Y-51868000D01*
X63222952Y-51820380D01*
X63318190Y-51820380D01*
X63461047Y-51868000D01*
X63508666Y-51915619D01*
X64080095Y-52820380D02*
X63984857Y-52772761D01*
X63937238Y-52725142D01*
X63889619Y-52629904D01*
X63889619Y-52344190D01*
X63937238Y-52248952D01*
X63984857Y-52201333D01*
X64080095Y-52153714D01*
X64222952Y-52153714D01*
X64318190Y-52201333D01*
X64365809Y-52248952D01*
X64413428Y-52344190D01*
X64413428Y-52629904D01*
X64365809Y-52725142D01*
X64318190Y-52772761D01*
X64222952Y-52820380D01*
X64080095Y-52820380D01*
X64842000Y-52153714D02*
X64842000Y-52820380D01*
X64842000Y-52248952D02*
X64889619Y-52201333D01*
X64984857Y-52153714D01*
X65127714Y-52153714D01*
X65222952Y-52201333D01*
X65270571Y-52296571D01*
X65270571Y-52820380D01*
X65746761Y-52153714D02*
X65746761Y-52820380D01*
X65746761Y-52248952D02*
X65794380Y-52201333D01*
X65889619Y-52153714D01*
X66032476Y-52153714D01*
X66127714Y-52201333D01*
X66175333Y-52296571D01*
X66175333Y-52820380D01*
X66413428Y-52915619D02*
X67175333Y-52915619D01*
X67603904Y-51820380D02*
X67699142Y-51820380D01*
X67794380Y-51868000D01*
X67842000Y-51915619D01*
X67889619Y-52010857D01*
X67937238Y-52201333D01*
X67937238Y-52439428D01*
X67889619Y-52629904D01*
X67842000Y-52725142D01*
X67794380Y-52772761D01*
X67699142Y-52820380D01*
X67603904Y-52820380D01*
X67508666Y-52772761D01*
X67461047Y-52725142D01*
X67413428Y-52629904D01*
X67365809Y-52439428D01*
X67365809Y-52201333D01*
X67413428Y-52010857D01*
X67461047Y-51915619D01*
X67508666Y-51868000D01*
X67603904Y-51820380D01*
X68889619Y-52820380D02*
X68318190Y-52820380D01*
X68603904Y-52820380D02*
X68603904Y-51820380D01*
X68508666Y-51963238D01*
X68413428Y-52058476D01*
X68318190Y-52106095D01*
X69222952Y-52820380D02*
X69746761Y-52153714D01*
X69222952Y-52153714D02*
X69746761Y-52820380D01*
X70318190Y-51820380D02*
X70413428Y-51820380D01*
X70508666Y-51868000D01*
X70556285Y-51915619D01*
X70603904Y-52010857D01*
X70651523Y-52201333D01*
X70651523Y-52439428D01*
X70603904Y-52629904D01*
X70556285Y-52725142D01*
X70508666Y-52772761D01*
X70413428Y-52820380D01*
X70318190Y-52820380D01*
X70222952Y-52772761D01*
X70175333Y-52725142D01*
X70127714Y-52629904D01*
X70080095Y-52439428D01*
X70080095Y-52201333D01*
X70127714Y-52010857D01*
X70175333Y-51915619D01*
X70222952Y-51868000D01*
X70318190Y-51820380D01*
X71603904Y-52820380D02*
X71032476Y-52820380D01*
X71318190Y-52820380D02*
X71318190Y-51820380D01*
X71222952Y-51963238D01*
X71127714Y-52058476D01*
X71032476Y-52106095D01*
X71794380Y-52915619D02*
X72556285Y-52915619D01*
X72794380Y-52820380D02*
X72794380Y-51820380D01*
X73127714Y-52534666D01*
X73461047Y-51820380D01*
X73461047Y-52820380D01*
X74365809Y-52820380D02*
X74365809Y-52296571D01*
X74318190Y-52201333D01*
X74222952Y-52153714D01*
X74032476Y-52153714D01*
X73937238Y-52201333D01*
X74365809Y-52772761D02*
X74270571Y-52820380D01*
X74032476Y-52820380D01*
X73937238Y-52772761D01*
X73889619Y-52677523D01*
X73889619Y-52582285D01*
X73937238Y-52487047D01*
X74032476Y-52439428D01*
X74270571Y-52439428D01*
X74365809Y-52391809D01*
X74984857Y-52820380D02*
X74889619Y-52772761D01*
X74842000Y-52677523D01*
X74842000Y-51820380D01*
X75746761Y-52772761D02*
X75651523Y-52820380D01*
X75461047Y-52820380D01*
X75365809Y-52772761D01*
X75318190Y-52677523D01*
X75318190Y-52296571D01*
X75365809Y-52201333D01*
X75461047Y-52153714D01*
X75651523Y-52153714D01*
X75746761Y-52201333D01*
X75794380Y-52296571D01*
X75794380Y-52391809D01*
X75318190Y-52487047D01*
X68794380Y-50371333D02*
X69508666Y-50371333D01*
X69651523Y-50418952D01*
X69746761Y-50514190D01*
X69794380Y-50657047D01*
X69794380Y-50752285D01*
X68794380Y-49990380D02*
X68794380Y-49371333D01*
X69175333Y-49704666D01*
X69175333Y-49561809D01*
X69222952Y-49466571D01*
X69270571Y-49418952D01*
X69365809Y-49371333D01*
X69603904Y-49371333D01*
X69699142Y-49418952D01*
X69746761Y-49466571D01*
X69794380Y-49561809D01*
X69794380Y-49847523D01*
X69746761Y-49942761D01*
X69699142Y-49990380D01*
G04 #@! TO.C,J6*
X92718666Y-75585142D02*
X92671047Y-75632761D01*
X92528190Y-75680380D01*
X92432952Y-75680380D01*
X92290095Y-75632761D01*
X92194857Y-75537523D01*
X92147238Y-75442285D01*
X92099619Y-75251809D01*
X92099619Y-75108952D01*
X92147238Y-74918476D01*
X92194857Y-74823238D01*
X92290095Y-74728000D01*
X92432952Y-74680380D01*
X92528190Y-74680380D01*
X92671047Y-74728000D01*
X92718666Y-74775619D01*
X93290095Y-75680380D02*
X93194857Y-75632761D01*
X93147238Y-75585142D01*
X93099619Y-75489904D01*
X93099619Y-75204190D01*
X93147238Y-75108952D01*
X93194857Y-75061333D01*
X93290095Y-75013714D01*
X93432952Y-75013714D01*
X93528190Y-75061333D01*
X93575809Y-75108952D01*
X93623428Y-75204190D01*
X93623428Y-75489904D01*
X93575809Y-75585142D01*
X93528190Y-75632761D01*
X93432952Y-75680380D01*
X93290095Y-75680380D01*
X94052000Y-75013714D02*
X94052000Y-75680380D01*
X94052000Y-75108952D02*
X94099619Y-75061333D01*
X94194857Y-75013714D01*
X94337714Y-75013714D01*
X94432952Y-75061333D01*
X94480571Y-75156571D01*
X94480571Y-75680380D01*
X94956761Y-75013714D02*
X94956761Y-75680380D01*
X94956761Y-75108952D02*
X95004380Y-75061333D01*
X95099619Y-75013714D01*
X95242476Y-75013714D01*
X95337714Y-75061333D01*
X95385333Y-75156571D01*
X95385333Y-75680380D01*
X95623428Y-75775619D02*
X96385333Y-75775619D01*
X96813904Y-74680380D02*
X96909142Y-74680380D01*
X97004380Y-74728000D01*
X97052000Y-74775619D01*
X97099619Y-74870857D01*
X97147238Y-75061333D01*
X97147238Y-75299428D01*
X97099619Y-75489904D01*
X97052000Y-75585142D01*
X97004380Y-75632761D01*
X96909142Y-75680380D01*
X96813904Y-75680380D01*
X96718666Y-75632761D01*
X96671047Y-75585142D01*
X96623428Y-75489904D01*
X96575809Y-75299428D01*
X96575809Y-75061333D01*
X96623428Y-74870857D01*
X96671047Y-74775619D01*
X96718666Y-74728000D01*
X96813904Y-74680380D01*
X98099619Y-75680380D02*
X97528190Y-75680380D01*
X97813904Y-75680380D02*
X97813904Y-74680380D01*
X97718666Y-74823238D01*
X97623428Y-74918476D01*
X97528190Y-74966095D01*
X98432952Y-75680380D02*
X98956761Y-75013714D01*
X98432952Y-75013714D02*
X98956761Y-75680380D01*
X99528190Y-74680380D02*
X99623428Y-74680380D01*
X99718666Y-74728000D01*
X99766285Y-74775619D01*
X99813904Y-74870857D01*
X99861523Y-75061333D01*
X99861523Y-75299428D01*
X99813904Y-75489904D01*
X99766285Y-75585142D01*
X99718666Y-75632761D01*
X99623428Y-75680380D01*
X99528190Y-75680380D01*
X99432952Y-75632761D01*
X99385333Y-75585142D01*
X99337714Y-75489904D01*
X99290095Y-75299428D01*
X99290095Y-75061333D01*
X99337714Y-74870857D01*
X99385333Y-74775619D01*
X99432952Y-74728000D01*
X99528190Y-74680380D01*
X100813904Y-75680380D02*
X100242476Y-75680380D01*
X100528190Y-75680380D02*
X100528190Y-74680380D01*
X100432952Y-74823238D01*
X100337714Y-74918476D01*
X100242476Y-74966095D01*
X101004380Y-75775619D02*
X101766285Y-75775619D01*
X102004380Y-75680380D02*
X102004380Y-74680380D01*
X102337714Y-75394666D01*
X102671047Y-74680380D01*
X102671047Y-75680380D01*
X103575809Y-75680380D02*
X103575809Y-75156571D01*
X103528190Y-75061333D01*
X103432952Y-75013714D01*
X103242476Y-75013714D01*
X103147238Y-75061333D01*
X103575809Y-75632761D02*
X103480571Y-75680380D01*
X103242476Y-75680380D01*
X103147238Y-75632761D01*
X103099619Y-75537523D01*
X103099619Y-75442285D01*
X103147238Y-75347047D01*
X103242476Y-75299428D01*
X103480571Y-75299428D01*
X103575809Y-75251809D01*
X104194857Y-75680380D02*
X104099619Y-75632761D01*
X104052000Y-75537523D01*
X104052000Y-74680380D01*
X104956761Y-75632761D02*
X104861523Y-75680380D01*
X104671047Y-75680380D01*
X104575809Y-75632761D01*
X104528190Y-75537523D01*
X104528190Y-75156571D01*
X104575809Y-75061333D01*
X104671047Y-75013714D01*
X104861523Y-75013714D01*
X104956761Y-75061333D01*
X105004380Y-75156571D01*
X105004380Y-75251809D01*
X104528190Y-75347047D01*
X98004380Y-73231333D02*
X98718666Y-73231333D01*
X98861523Y-73278952D01*
X98956761Y-73374190D01*
X99004380Y-73517047D01*
X99004380Y-73612285D01*
X98004380Y-72326571D02*
X98004380Y-72517047D01*
X98052000Y-72612285D01*
X98099619Y-72659904D01*
X98242476Y-72755142D01*
X98432952Y-72802761D01*
X98813904Y-72802761D01*
X98909142Y-72755142D01*
X98956761Y-72707523D01*
X99004380Y-72612285D01*
X99004380Y-72421809D01*
X98956761Y-72326571D01*
X98909142Y-72278952D01*
X98813904Y-72231333D01*
X98575809Y-72231333D01*
X98480571Y-72278952D01*
X98432952Y-72326571D01*
X98385333Y-72421809D01*
X98385333Y-72612285D01*
X98432952Y-72707523D01*
X98480571Y-72755142D01*
X98575809Y-72802761D01*
G04 #@! TO.C,J7*
X92210666Y-52725142D02*
X92163047Y-52772761D01*
X92020190Y-52820380D01*
X91924952Y-52820380D01*
X91782095Y-52772761D01*
X91686857Y-52677523D01*
X91639238Y-52582285D01*
X91591619Y-52391809D01*
X91591619Y-52248952D01*
X91639238Y-52058476D01*
X91686857Y-51963238D01*
X91782095Y-51868000D01*
X91924952Y-51820380D01*
X92020190Y-51820380D01*
X92163047Y-51868000D01*
X92210666Y-51915619D01*
X92782095Y-52820380D02*
X92686857Y-52772761D01*
X92639238Y-52725142D01*
X92591619Y-52629904D01*
X92591619Y-52344190D01*
X92639238Y-52248952D01*
X92686857Y-52201333D01*
X92782095Y-52153714D01*
X92924952Y-52153714D01*
X93020190Y-52201333D01*
X93067809Y-52248952D01*
X93115428Y-52344190D01*
X93115428Y-52629904D01*
X93067809Y-52725142D01*
X93020190Y-52772761D01*
X92924952Y-52820380D01*
X92782095Y-52820380D01*
X93544000Y-52153714D02*
X93544000Y-52820380D01*
X93544000Y-52248952D02*
X93591619Y-52201333D01*
X93686857Y-52153714D01*
X93829714Y-52153714D01*
X93924952Y-52201333D01*
X93972571Y-52296571D01*
X93972571Y-52820380D01*
X94448761Y-52153714D02*
X94448761Y-52820380D01*
X94448761Y-52248952D02*
X94496380Y-52201333D01*
X94591619Y-52153714D01*
X94734476Y-52153714D01*
X94829714Y-52201333D01*
X94877333Y-52296571D01*
X94877333Y-52820380D01*
X95115428Y-52915619D02*
X95877333Y-52915619D01*
X96305904Y-51820380D02*
X96401142Y-51820380D01*
X96496380Y-51868000D01*
X96544000Y-51915619D01*
X96591619Y-52010857D01*
X96639238Y-52201333D01*
X96639238Y-52439428D01*
X96591619Y-52629904D01*
X96544000Y-52725142D01*
X96496380Y-52772761D01*
X96401142Y-52820380D01*
X96305904Y-52820380D01*
X96210666Y-52772761D01*
X96163047Y-52725142D01*
X96115428Y-52629904D01*
X96067809Y-52439428D01*
X96067809Y-52201333D01*
X96115428Y-52010857D01*
X96163047Y-51915619D01*
X96210666Y-51868000D01*
X96305904Y-51820380D01*
X97591619Y-52820380D02*
X97020190Y-52820380D01*
X97305904Y-52820380D02*
X97305904Y-51820380D01*
X97210666Y-51963238D01*
X97115428Y-52058476D01*
X97020190Y-52106095D01*
X97924952Y-52820380D02*
X98448761Y-52153714D01*
X97924952Y-52153714D02*
X98448761Y-52820380D01*
X99020190Y-51820380D02*
X99115428Y-51820380D01*
X99210666Y-51868000D01*
X99258285Y-51915619D01*
X99305904Y-52010857D01*
X99353523Y-52201333D01*
X99353523Y-52439428D01*
X99305904Y-52629904D01*
X99258285Y-52725142D01*
X99210666Y-52772761D01*
X99115428Y-52820380D01*
X99020190Y-52820380D01*
X98924952Y-52772761D01*
X98877333Y-52725142D01*
X98829714Y-52629904D01*
X98782095Y-52439428D01*
X98782095Y-52201333D01*
X98829714Y-52010857D01*
X98877333Y-51915619D01*
X98924952Y-51868000D01*
X99020190Y-51820380D01*
X100305904Y-52820380D02*
X99734476Y-52820380D01*
X100020190Y-52820380D02*
X100020190Y-51820380D01*
X99924952Y-51963238D01*
X99829714Y-52058476D01*
X99734476Y-52106095D01*
X100496380Y-52915619D02*
X101258285Y-52915619D01*
X101496380Y-52820380D02*
X101496380Y-51820380D01*
X101829714Y-52534666D01*
X102163047Y-51820380D01*
X102163047Y-52820380D01*
X103067809Y-52820380D02*
X103067809Y-52296571D01*
X103020190Y-52201333D01*
X102924952Y-52153714D01*
X102734476Y-52153714D01*
X102639238Y-52201333D01*
X103067809Y-52772761D02*
X102972571Y-52820380D01*
X102734476Y-52820380D01*
X102639238Y-52772761D01*
X102591619Y-52677523D01*
X102591619Y-52582285D01*
X102639238Y-52487047D01*
X102734476Y-52439428D01*
X102972571Y-52439428D01*
X103067809Y-52391809D01*
X103686857Y-52820380D02*
X103591619Y-52772761D01*
X103544000Y-52677523D01*
X103544000Y-51820380D01*
X104448761Y-52772761D02*
X104353523Y-52820380D01*
X104163047Y-52820380D01*
X104067809Y-52772761D01*
X104020190Y-52677523D01*
X104020190Y-52296571D01*
X104067809Y-52201333D01*
X104163047Y-52153714D01*
X104353523Y-52153714D01*
X104448761Y-52201333D01*
X104496380Y-52296571D01*
X104496380Y-52391809D01*
X104020190Y-52487047D01*
X97496380Y-50371333D02*
X98210666Y-50371333D01*
X98353523Y-50418952D01*
X98448761Y-50514190D01*
X98496380Y-50657047D01*
X98496380Y-50752285D01*
X97496380Y-49990380D02*
X97496380Y-49323714D01*
X98496380Y-49752285D01*
G04 #@! TO.C,J5*
X96020666Y-75585142D02*
X95973047Y-75632761D01*
X95830190Y-75680380D01*
X95734952Y-75680380D01*
X95592095Y-75632761D01*
X95496857Y-75537523D01*
X95449238Y-75442285D01*
X95401619Y-75251809D01*
X95401619Y-75108952D01*
X95449238Y-74918476D01*
X95496857Y-74823238D01*
X95592095Y-74728000D01*
X95734952Y-74680380D01*
X95830190Y-74680380D01*
X95973047Y-74728000D01*
X96020666Y-74775619D01*
X96592095Y-75680380D02*
X96496857Y-75632761D01*
X96449238Y-75585142D01*
X96401619Y-75489904D01*
X96401619Y-75204190D01*
X96449238Y-75108952D01*
X96496857Y-75061333D01*
X96592095Y-75013714D01*
X96734952Y-75013714D01*
X96830190Y-75061333D01*
X96877809Y-75108952D01*
X96925428Y-75204190D01*
X96925428Y-75489904D01*
X96877809Y-75585142D01*
X96830190Y-75632761D01*
X96734952Y-75680380D01*
X96592095Y-75680380D01*
X97354000Y-75013714D02*
X97354000Y-75680380D01*
X97354000Y-75108952D02*
X97401619Y-75061333D01*
X97496857Y-75013714D01*
X97639714Y-75013714D01*
X97734952Y-75061333D01*
X97782571Y-75156571D01*
X97782571Y-75680380D01*
X98258761Y-75013714D02*
X98258761Y-75680380D01*
X98258761Y-75108952D02*
X98306380Y-75061333D01*
X98401619Y-75013714D01*
X98544476Y-75013714D01*
X98639714Y-75061333D01*
X98687333Y-75156571D01*
X98687333Y-75680380D01*
X98925428Y-75775619D02*
X99687333Y-75775619D01*
X100115904Y-74680380D02*
X100211142Y-74680380D01*
X100306380Y-74728000D01*
X100354000Y-74775619D01*
X100401619Y-74870857D01*
X100449238Y-75061333D01*
X100449238Y-75299428D01*
X100401619Y-75489904D01*
X100354000Y-75585142D01*
X100306380Y-75632761D01*
X100211142Y-75680380D01*
X100115904Y-75680380D01*
X100020666Y-75632761D01*
X99973047Y-75585142D01*
X99925428Y-75489904D01*
X99877809Y-75299428D01*
X99877809Y-75061333D01*
X99925428Y-74870857D01*
X99973047Y-74775619D01*
X100020666Y-74728000D01*
X100115904Y-74680380D01*
X101401619Y-75680380D02*
X100830190Y-75680380D01*
X101115904Y-75680380D02*
X101115904Y-74680380D01*
X101020666Y-74823238D01*
X100925428Y-74918476D01*
X100830190Y-74966095D01*
X101734952Y-75680380D02*
X102258761Y-75013714D01*
X101734952Y-75013714D02*
X102258761Y-75680380D01*
X103163523Y-75680380D02*
X102592095Y-75680380D01*
X102877809Y-75680380D02*
X102877809Y-74680380D01*
X102782571Y-74823238D01*
X102687333Y-74918476D01*
X102592095Y-74966095D01*
X103782571Y-74680380D02*
X103877809Y-74680380D01*
X103973047Y-74728000D01*
X104020666Y-74775619D01*
X104068285Y-74870857D01*
X104115904Y-75061333D01*
X104115904Y-75299428D01*
X104068285Y-75489904D01*
X104020666Y-75585142D01*
X103973047Y-75632761D01*
X103877809Y-75680380D01*
X103782571Y-75680380D01*
X103687333Y-75632761D01*
X103639714Y-75585142D01*
X103592095Y-75489904D01*
X103544476Y-75299428D01*
X103544476Y-75061333D01*
X103592095Y-74870857D01*
X103639714Y-74775619D01*
X103687333Y-74728000D01*
X103782571Y-74680380D01*
X104306380Y-75775619D02*
X105068285Y-75775619D01*
X105306380Y-75680380D02*
X105306380Y-74680380D01*
X105639714Y-75394666D01*
X105973047Y-74680380D01*
X105973047Y-75680380D01*
X106877809Y-75680380D02*
X106877809Y-75156571D01*
X106830190Y-75061333D01*
X106734952Y-75013714D01*
X106544476Y-75013714D01*
X106449238Y-75061333D01*
X106877809Y-75632761D02*
X106782571Y-75680380D01*
X106544476Y-75680380D01*
X106449238Y-75632761D01*
X106401619Y-75537523D01*
X106401619Y-75442285D01*
X106449238Y-75347047D01*
X106544476Y-75299428D01*
X106782571Y-75299428D01*
X106877809Y-75251809D01*
X107496857Y-75680380D02*
X107401619Y-75632761D01*
X107354000Y-75537523D01*
X107354000Y-74680380D01*
X108258761Y-75632761D02*
X108163523Y-75680380D01*
X107973047Y-75680380D01*
X107877809Y-75632761D01*
X107830190Y-75537523D01*
X107830190Y-75156571D01*
X107877809Y-75061333D01*
X107973047Y-75013714D01*
X108163523Y-75013714D01*
X108258761Y-75061333D01*
X108306380Y-75156571D01*
X108306380Y-75251809D01*
X107830190Y-75347047D01*
X101306380Y-61801333D02*
X102020666Y-61801333D01*
X102163523Y-61848952D01*
X102258761Y-61944190D01*
X102306380Y-62087047D01*
X102306380Y-62182285D01*
X101306380Y-60848952D02*
X101306380Y-61325142D01*
X101782571Y-61372761D01*
X101734952Y-61325142D01*
X101687333Y-61229904D01*
X101687333Y-60991809D01*
X101734952Y-60896571D01*
X101782571Y-60848952D01*
X101877809Y-60801333D01*
X102115904Y-60801333D01*
X102211142Y-60848952D01*
X102258761Y-60896571D01*
X102306380Y-60991809D01*
X102306380Y-61229904D01*
X102258761Y-61325142D01*
X102211142Y-61372761D01*
G04 #@! TO.C,J2*
X59952666Y-75585142D02*
X59905047Y-75632761D01*
X59762190Y-75680380D01*
X59666952Y-75680380D01*
X59524095Y-75632761D01*
X59428857Y-75537523D01*
X59381238Y-75442285D01*
X59333619Y-75251809D01*
X59333619Y-75108952D01*
X59381238Y-74918476D01*
X59428857Y-74823238D01*
X59524095Y-74728000D01*
X59666952Y-74680380D01*
X59762190Y-74680380D01*
X59905047Y-74728000D01*
X59952666Y-74775619D01*
X60524095Y-75680380D02*
X60428857Y-75632761D01*
X60381238Y-75585142D01*
X60333619Y-75489904D01*
X60333619Y-75204190D01*
X60381238Y-75108952D01*
X60428857Y-75061333D01*
X60524095Y-75013714D01*
X60666952Y-75013714D01*
X60762190Y-75061333D01*
X60809809Y-75108952D01*
X60857428Y-75204190D01*
X60857428Y-75489904D01*
X60809809Y-75585142D01*
X60762190Y-75632761D01*
X60666952Y-75680380D01*
X60524095Y-75680380D01*
X61286000Y-75013714D02*
X61286000Y-75680380D01*
X61286000Y-75108952D02*
X61333619Y-75061333D01*
X61428857Y-75013714D01*
X61571714Y-75013714D01*
X61666952Y-75061333D01*
X61714571Y-75156571D01*
X61714571Y-75680380D01*
X62190761Y-75013714D02*
X62190761Y-75680380D01*
X62190761Y-75108952D02*
X62238380Y-75061333D01*
X62333619Y-75013714D01*
X62476476Y-75013714D01*
X62571714Y-75061333D01*
X62619333Y-75156571D01*
X62619333Y-75680380D01*
X62857428Y-75775619D02*
X63619333Y-75775619D01*
X64047904Y-74680380D02*
X64143142Y-74680380D01*
X64238380Y-74728000D01*
X64286000Y-74775619D01*
X64333619Y-74870857D01*
X64381238Y-75061333D01*
X64381238Y-75299428D01*
X64333619Y-75489904D01*
X64286000Y-75585142D01*
X64238380Y-75632761D01*
X64143142Y-75680380D01*
X64047904Y-75680380D01*
X63952666Y-75632761D01*
X63905047Y-75585142D01*
X63857428Y-75489904D01*
X63809809Y-75299428D01*
X63809809Y-75061333D01*
X63857428Y-74870857D01*
X63905047Y-74775619D01*
X63952666Y-74728000D01*
X64047904Y-74680380D01*
X65333619Y-75680380D02*
X64762190Y-75680380D01*
X65047904Y-75680380D02*
X65047904Y-74680380D01*
X64952666Y-74823238D01*
X64857428Y-74918476D01*
X64762190Y-74966095D01*
X65666952Y-75680380D02*
X66190761Y-75013714D01*
X65666952Y-75013714D02*
X66190761Y-75680380D01*
X67095523Y-75680380D02*
X66524095Y-75680380D01*
X66809809Y-75680380D02*
X66809809Y-74680380D01*
X66714571Y-74823238D01*
X66619333Y-74918476D01*
X66524095Y-74966095D01*
X67714571Y-74680380D02*
X67809809Y-74680380D01*
X67905047Y-74728000D01*
X67952666Y-74775619D01*
X68000285Y-74870857D01*
X68047904Y-75061333D01*
X68047904Y-75299428D01*
X68000285Y-75489904D01*
X67952666Y-75585142D01*
X67905047Y-75632761D01*
X67809809Y-75680380D01*
X67714571Y-75680380D01*
X67619333Y-75632761D01*
X67571714Y-75585142D01*
X67524095Y-75489904D01*
X67476476Y-75299428D01*
X67476476Y-75061333D01*
X67524095Y-74870857D01*
X67571714Y-74775619D01*
X67619333Y-74728000D01*
X67714571Y-74680380D01*
X68238380Y-75775619D02*
X69000285Y-75775619D01*
X69238380Y-75680380D02*
X69238380Y-74680380D01*
X69571714Y-75394666D01*
X69905047Y-74680380D01*
X69905047Y-75680380D01*
X70809809Y-75680380D02*
X70809809Y-75156571D01*
X70762190Y-75061333D01*
X70666952Y-75013714D01*
X70476476Y-75013714D01*
X70381238Y-75061333D01*
X70809809Y-75632761D02*
X70714571Y-75680380D01*
X70476476Y-75680380D01*
X70381238Y-75632761D01*
X70333619Y-75537523D01*
X70333619Y-75442285D01*
X70381238Y-75347047D01*
X70476476Y-75299428D01*
X70714571Y-75299428D01*
X70809809Y-75251809D01*
X71428857Y-75680380D02*
X71333619Y-75632761D01*
X71286000Y-75537523D01*
X71286000Y-74680380D01*
X72190761Y-75632761D02*
X72095523Y-75680380D01*
X71905047Y-75680380D01*
X71809809Y-75632761D01*
X71762190Y-75537523D01*
X71762190Y-75156571D01*
X71809809Y-75061333D01*
X71905047Y-75013714D01*
X72095523Y-75013714D01*
X72190761Y-75061333D01*
X72238380Y-75156571D01*
X72238380Y-75251809D01*
X71762190Y-75347047D01*
X65238380Y-61801333D02*
X65952666Y-61801333D01*
X66095523Y-61848952D01*
X66190761Y-61944190D01*
X66238380Y-62087047D01*
X66238380Y-62182285D01*
X65333619Y-61372761D02*
X65286000Y-61325142D01*
X65238380Y-61229904D01*
X65238380Y-60991809D01*
X65286000Y-60896571D01*
X65333619Y-60848952D01*
X65428857Y-60801333D01*
X65524095Y-60801333D01*
X65666952Y-60848952D01*
X66238380Y-61420380D01*
X66238380Y-60801333D01*
G04 #@! TO.C,D1*
X86034952Y-54098571D02*
X85701619Y-54098571D01*
X85701619Y-54622380D02*
X85701619Y-53622380D01*
X86177809Y-53622380D01*
X86511142Y-54574761D02*
X86654000Y-54622380D01*
X86892095Y-54622380D01*
X86987333Y-54574761D01*
X87034952Y-54527142D01*
X87082571Y-54431904D01*
X87082571Y-54336666D01*
X87034952Y-54241428D01*
X86987333Y-54193809D01*
X86892095Y-54146190D01*
X86701619Y-54098571D01*
X86606380Y-54050952D01*
X86558761Y-54003333D01*
X86511142Y-53908095D01*
X86511142Y-53812857D01*
X86558761Y-53717619D01*
X86606380Y-53670000D01*
X86701619Y-53622380D01*
X86939714Y-53622380D01*
X87082571Y-53670000D01*
X87368285Y-53622380D02*
X87701619Y-54622380D01*
X88034952Y-53622380D01*
X88273047Y-53622380D02*
X88892095Y-53622380D01*
X88558761Y-54003333D01*
X88701619Y-54003333D01*
X88796857Y-54050952D01*
X88844476Y-54098571D01*
X88892095Y-54193809D01*
X88892095Y-54431904D01*
X88844476Y-54527142D01*
X88796857Y-54574761D01*
X88701619Y-54622380D01*
X88415904Y-54622380D01*
X88320666Y-54574761D01*
X88273047Y-54527142D01*
X89749238Y-53955714D02*
X89749238Y-54622380D01*
X89511142Y-53574761D02*
X89273047Y-54289047D01*
X89892095Y-54289047D01*
X90463523Y-53622380D02*
X90558761Y-53622380D01*
X90654000Y-53670000D01*
X90701619Y-53717619D01*
X90749238Y-53812857D01*
X90796857Y-54003333D01*
X90796857Y-54241428D01*
X90749238Y-54431904D01*
X90701619Y-54527142D01*
X90654000Y-54574761D01*
X90558761Y-54622380D01*
X90463523Y-54622380D01*
X90368285Y-54574761D01*
X90320666Y-54527142D01*
X90273047Y-54431904D01*
X90225428Y-54241428D01*
X90225428Y-54003333D01*
X90273047Y-53812857D01*
X90320666Y-53717619D01*
X90368285Y-53670000D01*
X90463523Y-53622380D01*
X91558761Y-54098571D02*
X91225428Y-54098571D01*
X91225428Y-54622380D02*
X91225428Y-53622380D01*
X91701619Y-53622380D01*
X92082571Y-54622380D02*
X92082571Y-53622380D01*
X92463523Y-53622380D01*
X92558761Y-53670000D01*
X92606380Y-53717619D01*
X92654000Y-53812857D01*
X92654000Y-53955714D01*
X92606380Y-54050952D01*
X92558761Y-54098571D01*
X92463523Y-54146190D01*
X92082571Y-54146190D01*
X88415904Y-50522380D02*
X88415904Y-49522380D01*
X88654000Y-49522380D01*
X88796857Y-49570000D01*
X88892095Y-49665238D01*
X88939714Y-49760476D01*
X88987333Y-49950952D01*
X88987333Y-50093809D01*
X88939714Y-50284285D01*
X88892095Y-50379523D01*
X88796857Y-50474761D01*
X88654000Y-50522380D01*
X88415904Y-50522380D01*
X89939714Y-50522380D02*
X89368285Y-50522380D01*
X89654000Y-50522380D02*
X89654000Y-49522380D01*
X89558761Y-49665238D01*
X89463523Y-49760476D01*
X89368285Y-49808095D01*
G04 #@! TO.C,L1*
X76280571Y-58078380D02*
X76899619Y-58078380D01*
X76566285Y-58459333D01*
X76709142Y-58459333D01*
X76804380Y-58506952D01*
X76852000Y-58554571D01*
X76899619Y-58649809D01*
X76899619Y-58887904D01*
X76852000Y-58983142D01*
X76804380Y-59030761D01*
X76709142Y-59078380D01*
X76423428Y-59078380D01*
X76328190Y-59030761D01*
X76280571Y-58983142D01*
X77328190Y-58983142D02*
X77375809Y-59030761D01*
X77328190Y-59078380D01*
X77280571Y-59030761D01*
X77328190Y-58983142D01*
X77328190Y-59078380D01*
X77709142Y-58078380D02*
X78328190Y-58078380D01*
X77994857Y-58459333D01*
X78137714Y-58459333D01*
X78232952Y-58506952D01*
X78280571Y-58554571D01*
X78328190Y-58649809D01*
X78328190Y-58887904D01*
X78280571Y-58983142D01*
X78232952Y-59030761D01*
X78137714Y-59078380D01*
X77852000Y-59078380D01*
X77756761Y-59030761D01*
X77709142Y-58983142D01*
X79185333Y-58411714D02*
X79185333Y-59078380D01*
X78756761Y-58411714D02*
X78756761Y-58935523D01*
X78804380Y-59030761D01*
X78899619Y-59078380D01*
X79042476Y-59078380D01*
X79137714Y-59030761D01*
X79185333Y-58983142D01*
X80709142Y-59459333D02*
X80661523Y-59411714D01*
X80566285Y-59268857D01*
X80518666Y-59173619D01*
X80471047Y-59030761D01*
X80423428Y-58792666D01*
X80423428Y-58602190D01*
X80471047Y-58364095D01*
X80518666Y-58221238D01*
X80566285Y-58126000D01*
X80661523Y-57983142D01*
X80709142Y-57935523D01*
X81566285Y-59078380D02*
X81090095Y-59078380D01*
X81090095Y-58078380D01*
X82566285Y-59173619D02*
X82471047Y-59126000D01*
X82375809Y-59030761D01*
X82232952Y-58887904D01*
X82137714Y-58840285D01*
X82042476Y-58840285D01*
X82090095Y-59078380D02*
X81994857Y-59030761D01*
X81899619Y-58935523D01*
X81852000Y-58745047D01*
X81852000Y-58411714D01*
X81899619Y-58221238D01*
X81994857Y-58126000D01*
X82090095Y-58078380D01*
X82280571Y-58078380D01*
X82375809Y-58126000D01*
X82471047Y-58221238D01*
X82518666Y-58411714D01*
X82518666Y-58745047D01*
X82471047Y-58935523D01*
X82375809Y-59030761D01*
X82280571Y-59078380D01*
X82090095Y-59078380D01*
X82947238Y-59078380D02*
X82947238Y-58078380D01*
X82947238Y-58554571D02*
X83518666Y-58554571D01*
X83518666Y-59078380D02*
X83518666Y-58078380D01*
X83899619Y-58078380D02*
X84518666Y-58078380D01*
X84185333Y-58459333D01*
X84328190Y-58459333D01*
X84423428Y-58506952D01*
X84471047Y-58554571D01*
X84518666Y-58649809D01*
X84518666Y-58887904D01*
X84471047Y-58983142D01*
X84423428Y-59030761D01*
X84328190Y-59078380D01*
X84042476Y-59078380D01*
X83947238Y-59030761D01*
X83899619Y-58983142D01*
X84947238Y-59078380D02*
X84947238Y-58078380D01*
X85518666Y-59078380D01*
X85518666Y-58078380D01*
X85994857Y-59078380D02*
X85994857Y-58078380D01*
X86375809Y-58078380D01*
X86471047Y-58126000D01*
X86518666Y-58173619D01*
X86566285Y-58268857D01*
X86566285Y-58411714D01*
X86518666Y-58506952D01*
X86471047Y-58554571D01*
X86375809Y-58602190D01*
X85994857Y-58602190D01*
X86994857Y-59078380D02*
X86994857Y-58078380D01*
X87566285Y-59078380D01*
X87566285Y-58078380D01*
X87947238Y-58078380D02*
X88566285Y-58078380D01*
X88232952Y-58459333D01*
X88375809Y-58459333D01*
X88471047Y-58506952D01*
X88518666Y-58554571D01*
X88566285Y-58649809D01*
X88566285Y-58887904D01*
X88518666Y-58983142D01*
X88471047Y-59030761D01*
X88375809Y-59078380D01*
X88090095Y-59078380D01*
X87994857Y-59030761D01*
X87947238Y-58983142D01*
X89566285Y-59078380D02*
X89232952Y-58602190D01*
X88994857Y-59078380D02*
X88994857Y-58078380D01*
X89375809Y-58078380D01*
X89471047Y-58126000D01*
X89518666Y-58173619D01*
X89566285Y-58268857D01*
X89566285Y-58411714D01*
X89518666Y-58506952D01*
X89471047Y-58554571D01*
X89375809Y-58602190D01*
X88994857Y-58602190D01*
X89899619Y-58078380D02*
X90518666Y-58078380D01*
X90185333Y-58459333D01*
X90328190Y-58459333D01*
X90423428Y-58506952D01*
X90471047Y-58554571D01*
X90518666Y-58649809D01*
X90518666Y-58887904D01*
X90471047Y-58983142D01*
X90423428Y-59030761D01*
X90328190Y-59078380D01*
X90042476Y-59078380D01*
X89947238Y-59030761D01*
X89899619Y-58983142D01*
X90947238Y-59078380D02*
X90947238Y-58078380D01*
X91280571Y-58792666D01*
X91613904Y-58078380D01*
X91613904Y-59078380D01*
X92090095Y-59078380D02*
X92090095Y-58078380D01*
X92423428Y-58792666D01*
X92756761Y-58078380D01*
X92756761Y-59078380D01*
X93804380Y-59078380D02*
X93471047Y-58602190D01*
X93232952Y-59078380D02*
X93232952Y-58078380D01*
X93613904Y-58078380D01*
X93709142Y-58126000D01*
X93756761Y-58173619D01*
X93804380Y-58268857D01*
X93804380Y-58411714D01*
X93756761Y-58506952D01*
X93709142Y-58554571D01*
X93613904Y-58602190D01*
X93232952Y-58602190D01*
X94232952Y-58554571D02*
X94566285Y-58554571D01*
X94709142Y-59078380D02*
X94232952Y-59078380D01*
X94232952Y-58078380D01*
X94709142Y-58078380D01*
X95042476Y-59459333D02*
X95090095Y-59411714D01*
X95185333Y-59268857D01*
X95232952Y-59173619D01*
X95280571Y-59030761D01*
X95328190Y-58792666D01*
X95328190Y-58602190D01*
X95280571Y-58364095D01*
X95232952Y-58221238D01*
X95185333Y-58126000D01*
X95090095Y-57983142D01*
X95042476Y-57935523D01*
D13*
X85735333Y-55942666D02*
X85402000Y-55942666D01*
X85402000Y-55242666D01*
X86335333Y-55942666D02*
X85935333Y-55942666D01*
X86135333Y-55942666D02*
X86135333Y-55242666D01*
X86068666Y-55342666D01*
X86002000Y-55409333D01*
X85935333Y-55442666D01*
G04 #@! TO.C,U3*
D11*
X82105904Y-68584380D02*
X82105904Y-67584380D01*
X82439238Y-68298666D01*
X82772571Y-67584380D01*
X82772571Y-68584380D01*
X83820190Y-68489142D02*
X83772571Y-68536761D01*
X83629714Y-68584380D01*
X83534476Y-68584380D01*
X83391619Y-68536761D01*
X83296380Y-68441523D01*
X83248761Y-68346285D01*
X83201142Y-68155809D01*
X83201142Y-68012952D01*
X83248761Y-67822476D01*
X83296380Y-67727238D01*
X83391619Y-67632000D01*
X83534476Y-67584380D01*
X83629714Y-67584380D01*
X83772571Y-67632000D01*
X83820190Y-67679619D01*
X84248761Y-68584380D02*
X84248761Y-67584380D01*
X84629714Y-67584380D01*
X84724952Y-67632000D01*
X84772571Y-67679619D01*
X84820190Y-67774857D01*
X84820190Y-67917714D01*
X84772571Y-68012952D01*
X84724952Y-68060571D01*
X84629714Y-68108190D01*
X84248761Y-68108190D01*
X85772571Y-68584380D02*
X85201142Y-68584380D01*
X85486857Y-68584380D02*
X85486857Y-67584380D01*
X85391619Y-67727238D01*
X85296380Y-67822476D01*
X85201142Y-67870095D01*
X86629714Y-67584380D02*
X86439238Y-67584380D01*
X86344000Y-67632000D01*
X86296380Y-67679619D01*
X86201142Y-67822476D01*
X86153523Y-68012952D01*
X86153523Y-68393904D01*
X86201142Y-68489142D01*
X86248761Y-68536761D01*
X86344000Y-68584380D01*
X86534476Y-68584380D01*
X86629714Y-68536761D01*
X86677333Y-68489142D01*
X86724952Y-68393904D01*
X86724952Y-68155809D01*
X86677333Y-68060571D01*
X86629714Y-68012952D01*
X86534476Y-67965333D01*
X86344000Y-67965333D01*
X86248761Y-68012952D01*
X86201142Y-68060571D01*
X86153523Y-68155809D01*
X87629714Y-67584380D02*
X87153523Y-67584380D01*
X87105904Y-68060571D01*
X87153523Y-68012952D01*
X87248761Y-67965333D01*
X87486857Y-67965333D01*
X87582095Y-68012952D01*
X87629714Y-68060571D01*
X87677333Y-68155809D01*
X87677333Y-68393904D01*
X87629714Y-68489142D01*
X87582095Y-68536761D01*
X87486857Y-68584380D01*
X87248761Y-68584380D01*
X87153523Y-68536761D01*
X87105904Y-68489142D01*
X88296380Y-67584380D02*
X88391619Y-67584380D01*
X88486857Y-67632000D01*
X88534476Y-67679619D01*
X88582095Y-67774857D01*
X88629714Y-67965333D01*
X88629714Y-68203428D01*
X88582095Y-68393904D01*
X88534476Y-68489142D01*
X88486857Y-68536761D01*
X88391619Y-68584380D01*
X88296380Y-68584380D01*
X88201142Y-68536761D01*
X88153523Y-68489142D01*
X88105904Y-68393904D01*
X88058285Y-68203428D01*
X88058285Y-67965333D01*
X88105904Y-67774857D01*
X88153523Y-67679619D01*
X88201142Y-67632000D01*
X88296380Y-67584380D01*
X84886857Y-65203428D02*
X84886857Y-65689142D01*
X84915428Y-65746285D01*
X84944000Y-65774857D01*
X85001142Y-65803428D01*
X85115428Y-65803428D01*
X85172571Y-65774857D01*
X85201142Y-65746285D01*
X85229714Y-65689142D01*
X85229714Y-65203428D01*
X85458285Y-65203428D02*
X85829714Y-65203428D01*
X85629714Y-65432000D01*
X85715428Y-65432000D01*
X85772571Y-65460571D01*
X85801142Y-65489142D01*
X85829714Y-65546285D01*
X85829714Y-65689142D01*
X85801142Y-65746285D01*
X85772571Y-65774857D01*
X85715428Y-65803428D01*
X85544000Y-65803428D01*
X85486857Y-65774857D01*
X85458285Y-65746285D01*
G04 #@! TO.C,U4*
X90511809Y-62562761D02*
X90654666Y-62610380D01*
X90892761Y-62610380D01*
X90988000Y-62562761D01*
X91035619Y-62515142D01*
X91083238Y-62419904D01*
X91083238Y-62324666D01*
X91035619Y-62229428D01*
X90988000Y-62181809D01*
X90892761Y-62134190D01*
X90702285Y-62086571D01*
X90607047Y-62038952D01*
X90559428Y-61991333D01*
X90511809Y-61896095D01*
X90511809Y-61800857D01*
X90559428Y-61705619D01*
X90607047Y-61658000D01*
X90702285Y-61610380D01*
X90940380Y-61610380D01*
X91083238Y-61658000D01*
X91368952Y-61610380D02*
X91940380Y-61610380D01*
X91654666Y-62610380D02*
X91654666Y-61610380D01*
X92273714Y-62610380D02*
X92273714Y-61610380D01*
X92845142Y-62610380D01*
X92845142Y-61610380D01*
X93226095Y-61610380D02*
X93845142Y-61610380D01*
X93511809Y-61991333D01*
X93654666Y-61991333D01*
X93749904Y-62038952D01*
X93797523Y-62086571D01*
X93845142Y-62181809D01*
X93845142Y-62419904D01*
X93797523Y-62515142D01*
X93749904Y-62562761D01*
X93654666Y-62610380D01*
X93368952Y-62610380D01*
X93273714Y-62562761D01*
X93226095Y-62515142D01*
X94273714Y-62610380D02*
X94273714Y-61610380D01*
X94845142Y-62610380D01*
X94845142Y-61610380D01*
X95654666Y-62086571D02*
X95321333Y-62086571D01*
X95321333Y-62610380D02*
X95321333Y-61610380D01*
X95797523Y-61610380D01*
X96368952Y-61610380D02*
X96464190Y-61610380D01*
X96559428Y-61658000D01*
X96607047Y-61705619D01*
X96654666Y-61800857D01*
X96702285Y-61991333D01*
X96702285Y-62229428D01*
X96654666Y-62419904D01*
X96607047Y-62515142D01*
X96559428Y-62562761D01*
X96464190Y-62610380D01*
X96368952Y-62610380D01*
X96273714Y-62562761D01*
X96226095Y-62515142D01*
X96178476Y-62419904D01*
X96130857Y-62229428D01*
X96130857Y-61991333D01*
X96178476Y-61800857D01*
X96226095Y-61705619D01*
X96273714Y-61658000D01*
X96368952Y-61610380D01*
X97559428Y-61610380D02*
X97368952Y-61610380D01*
X97273714Y-61658000D01*
X97226095Y-61705619D01*
X97130857Y-61848476D01*
X97083238Y-62038952D01*
X97083238Y-62419904D01*
X97130857Y-62515142D01*
X97178476Y-62562761D01*
X97273714Y-62610380D01*
X97464190Y-62610380D01*
X97559428Y-62562761D01*
X97607047Y-62515142D01*
X97654666Y-62419904D01*
X97654666Y-62181809D01*
X97607047Y-62086571D01*
X97559428Y-62038952D01*
X97464190Y-61991333D01*
X97273714Y-61991333D01*
X97178476Y-62038952D01*
X97130857Y-62086571D01*
X97083238Y-62181809D01*
X98559428Y-62610380D02*
X98083238Y-62610380D01*
X98083238Y-61610380D01*
D12*
X94049904Y-58267523D02*
X94697523Y-58267523D01*
X94773714Y-58229428D01*
X94811809Y-58191333D01*
X94849904Y-58115142D01*
X94849904Y-57962761D01*
X94811809Y-57886571D01*
X94773714Y-57848476D01*
X94697523Y-57810380D01*
X94049904Y-57810380D01*
X94316571Y-57086571D02*
X94849904Y-57086571D01*
X94011809Y-57277047D02*
X94583238Y-57467523D01*
X94583238Y-56972285D01*
G04 #@! TO.C,U5*
D11*
X90511809Y-70690761D02*
X90654666Y-70738380D01*
X90892761Y-70738380D01*
X90988000Y-70690761D01*
X91035619Y-70643142D01*
X91083238Y-70547904D01*
X91083238Y-70452666D01*
X91035619Y-70357428D01*
X90988000Y-70309809D01*
X90892761Y-70262190D01*
X90702285Y-70214571D01*
X90607047Y-70166952D01*
X90559428Y-70119333D01*
X90511809Y-70024095D01*
X90511809Y-69928857D01*
X90559428Y-69833619D01*
X90607047Y-69786000D01*
X90702285Y-69738380D01*
X90940380Y-69738380D01*
X91083238Y-69786000D01*
X91368952Y-69738380D02*
X91940380Y-69738380D01*
X91654666Y-70738380D02*
X91654666Y-69738380D01*
X92273714Y-70738380D02*
X92273714Y-69738380D01*
X92845142Y-70738380D01*
X92845142Y-69738380D01*
X93226095Y-69738380D02*
X93845142Y-69738380D01*
X93511809Y-70119333D01*
X93654666Y-70119333D01*
X93749904Y-70166952D01*
X93797523Y-70214571D01*
X93845142Y-70309809D01*
X93845142Y-70547904D01*
X93797523Y-70643142D01*
X93749904Y-70690761D01*
X93654666Y-70738380D01*
X93368952Y-70738380D01*
X93273714Y-70690761D01*
X93226095Y-70643142D01*
X94273714Y-70738380D02*
X94273714Y-69738380D01*
X94845142Y-70738380D01*
X94845142Y-69738380D01*
X95654666Y-70214571D02*
X95321333Y-70214571D01*
X95321333Y-70738380D02*
X95321333Y-69738380D01*
X95797523Y-69738380D01*
X96368952Y-69738380D02*
X96464190Y-69738380D01*
X96559428Y-69786000D01*
X96607047Y-69833619D01*
X96654666Y-69928857D01*
X96702285Y-70119333D01*
X96702285Y-70357428D01*
X96654666Y-70547904D01*
X96607047Y-70643142D01*
X96559428Y-70690761D01*
X96464190Y-70738380D01*
X96368952Y-70738380D01*
X96273714Y-70690761D01*
X96226095Y-70643142D01*
X96178476Y-70547904D01*
X96130857Y-70357428D01*
X96130857Y-70119333D01*
X96178476Y-69928857D01*
X96226095Y-69833619D01*
X96273714Y-69786000D01*
X96368952Y-69738380D01*
X97559428Y-69738380D02*
X97368952Y-69738380D01*
X97273714Y-69786000D01*
X97226095Y-69833619D01*
X97130857Y-69976476D01*
X97083238Y-70166952D01*
X97083238Y-70547904D01*
X97130857Y-70643142D01*
X97178476Y-70690761D01*
X97273714Y-70738380D01*
X97464190Y-70738380D01*
X97559428Y-70690761D01*
X97607047Y-70643142D01*
X97654666Y-70547904D01*
X97654666Y-70309809D01*
X97607047Y-70214571D01*
X97559428Y-70166952D01*
X97464190Y-70119333D01*
X97273714Y-70119333D01*
X97178476Y-70166952D01*
X97130857Y-70214571D01*
X97083238Y-70309809D01*
X98559428Y-70738380D02*
X98083238Y-70738380D01*
X98083238Y-69738380D01*
D12*
X94049904Y-66395523D02*
X94697523Y-66395523D01*
X94773714Y-66357428D01*
X94811809Y-66319333D01*
X94849904Y-66243142D01*
X94849904Y-66090761D01*
X94811809Y-66014571D01*
X94773714Y-65976476D01*
X94697523Y-65938380D01*
X94049904Y-65938380D01*
X94049904Y-65176476D02*
X94049904Y-65557428D01*
X94430857Y-65595523D01*
X94392761Y-65557428D01*
X94354666Y-65481238D01*
X94354666Y-65290761D01*
X94392761Y-65214571D01*
X94430857Y-65176476D01*
X94507047Y-65138380D01*
X94697523Y-65138380D01*
X94773714Y-65176476D01*
X94811809Y-65214571D01*
X94849904Y-65290761D01*
X94849904Y-65481238D01*
X94811809Y-65557428D01*
X94773714Y-65595523D01*
G04 #@! TO.C,U1*
D11*
X78790380Y-63784761D02*
X77790380Y-63784761D01*
X78504666Y-63451428D01*
X77790380Y-63118095D01*
X78790380Y-63118095D01*
X78695142Y-62070476D02*
X78742761Y-62118095D01*
X78790380Y-62260952D01*
X78790380Y-62356190D01*
X78742761Y-62499047D01*
X78647523Y-62594285D01*
X78552285Y-62641904D01*
X78361809Y-62689523D01*
X78218952Y-62689523D01*
X78028476Y-62641904D01*
X77933238Y-62594285D01*
X77838000Y-62499047D01*
X77790380Y-62356190D01*
X77790380Y-62260952D01*
X77838000Y-62118095D01*
X77885619Y-62070476D01*
X78790380Y-61641904D02*
X77790380Y-61641904D01*
X77790380Y-61260952D01*
X77838000Y-61165714D01*
X77885619Y-61118095D01*
X77980857Y-61070476D01*
X78123714Y-61070476D01*
X78218952Y-61118095D01*
X78266571Y-61165714D01*
X78314190Y-61260952D01*
X78314190Y-61641904D01*
X77790380Y-60737142D02*
X77790380Y-60070476D01*
X78790380Y-60499047D01*
X77790380Y-59784761D02*
X77790380Y-59165714D01*
X78171333Y-59499047D01*
X78171333Y-59356190D01*
X78218952Y-59260952D01*
X78266571Y-59213333D01*
X78361809Y-59165714D01*
X78599904Y-59165714D01*
X78695142Y-59213333D01*
X78742761Y-59260952D01*
X78790380Y-59356190D01*
X78790380Y-59641904D01*
X78742761Y-59737142D01*
X78695142Y-59784761D01*
X78218952Y-58594285D02*
X78171333Y-58689523D01*
X78123714Y-58737142D01*
X78028476Y-58784761D01*
X77980857Y-58784761D01*
X77885619Y-58737142D01*
X77838000Y-58689523D01*
X77790380Y-58594285D01*
X77790380Y-58403809D01*
X77838000Y-58308571D01*
X77885619Y-58260952D01*
X77980857Y-58213333D01*
X78028476Y-58213333D01*
X78123714Y-58260952D01*
X78171333Y-58308571D01*
X78218952Y-58403809D01*
X78218952Y-58594285D01*
X78266571Y-58689523D01*
X78314190Y-58737142D01*
X78409428Y-58784761D01*
X78599904Y-58784761D01*
X78695142Y-58737142D01*
X78742761Y-58689523D01*
X78790380Y-58594285D01*
X78790380Y-58403809D01*
X78742761Y-58308571D01*
X78695142Y-58260952D01*
X78599904Y-58213333D01*
X78409428Y-58213333D01*
X78314190Y-58260952D01*
X78266571Y-58308571D01*
X78218952Y-58403809D01*
X78790380Y-57260952D02*
X78790380Y-57832380D01*
X78790380Y-57546666D02*
X77790380Y-57546666D01*
X77933238Y-57641904D01*
X78028476Y-57737142D01*
X78076095Y-57832380D01*
X78790380Y-56308571D02*
X78790380Y-56880000D01*
X78790380Y-56594285D02*
X77790380Y-56594285D01*
X77933238Y-56689523D01*
X78028476Y-56784761D01*
X78076095Y-56880000D01*
X77790380Y-56022857D02*
X77790380Y-55451428D01*
X78790380Y-55737142D02*
X77790380Y-55737142D01*
X78409428Y-55118095D02*
X78409428Y-54356190D01*
X78123714Y-53451428D02*
X78790380Y-53451428D01*
X77742761Y-53689523D02*
X78457047Y-53927619D01*
X78457047Y-53308571D01*
X77885619Y-52975238D02*
X77838000Y-52927619D01*
X77790380Y-52832380D01*
X77790380Y-52594285D01*
X77838000Y-52499047D01*
X77885619Y-52451428D01*
X77980857Y-52403809D01*
X78076095Y-52403809D01*
X78218952Y-52451428D01*
X78790380Y-53022857D01*
X78790380Y-52403809D01*
X77790380Y-51784761D02*
X77790380Y-51689523D01*
X77838000Y-51594285D01*
X77885619Y-51546666D01*
X77980857Y-51499047D01*
X78171333Y-51451428D01*
X78409428Y-51451428D01*
X78599904Y-51499047D01*
X78695142Y-51546666D01*
X78742761Y-51594285D01*
X78790380Y-51689523D01*
X78790380Y-51784761D01*
X78742761Y-51880000D01*
X78695142Y-51927619D01*
X78599904Y-51975238D01*
X78409428Y-52022857D01*
X78171333Y-52022857D01*
X77980857Y-51975238D01*
X77885619Y-51927619D01*
X77838000Y-51880000D01*
X77790380Y-51784761D01*
X78790380Y-51022857D02*
X77790380Y-51022857D01*
X78409428Y-50546666D02*
X78409428Y-49784761D01*
X77790380Y-49118095D02*
X77790380Y-48927619D01*
X77838000Y-48832380D01*
X77933238Y-48737142D01*
X78123714Y-48689523D01*
X78457047Y-48689523D01*
X78647523Y-48737142D01*
X78742761Y-48832380D01*
X78790380Y-48927619D01*
X78790380Y-49118095D01*
X78742761Y-49213333D01*
X78647523Y-49308571D01*
X78457047Y-49356190D01*
X78123714Y-49356190D01*
X77933238Y-49308571D01*
X77838000Y-49213333D01*
X77790380Y-49118095D01*
X77790380Y-48403809D02*
X77790380Y-47832380D01*
X78790380Y-48118095D02*
X77790380Y-48118095D01*
D14*
X75057047Y-55606190D02*
X75057047Y-56010952D01*
X75080857Y-56058571D01*
X75104666Y-56082380D01*
X75152285Y-56106190D01*
X75247523Y-56106190D01*
X75295142Y-56082380D01*
X75318952Y-56058571D01*
X75342761Y-56010952D01*
X75342761Y-55606190D01*
X75842761Y-56106190D02*
X75557047Y-56106190D01*
X75699904Y-56106190D02*
X75699904Y-55606190D01*
X75652285Y-55677619D01*
X75604666Y-55725238D01*
X75557047Y-55749047D01*
G04 #@! TO.C,U2*
D11*
X70704380Y-65626857D02*
X69704380Y-65626857D01*
X70418666Y-65293523D01*
X69704380Y-64960190D01*
X70704380Y-64960190D01*
X70418666Y-64531619D02*
X70418666Y-64055428D01*
X70704380Y-64626857D02*
X69704380Y-64293523D01*
X70704380Y-63960190D01*
X69704380Y-63722095D02*
X70704380Y-63055428D01*
X69704380Y-63055428D02*
X70704380Y-63722095D01*
X70704380Y-62626857D02*
X70704380Y-62436380D01*
X70656761Y-62341142D01*
X70609142Y-62293523D01*
X70466285Y-62198285D01*
X70275809Y-62150666D01*
X69894857Y-62150666D01*
X69799619Y-62198285D01*
X69752000Y-62245904D01*
X69704380Y-62341142D01*
X69704380Y-62531619D01*
X69752000Y-62626857D01*
X69799619Y-62674476D01*
X69894857Y-62722095D01*
X70132952Y-62722095D01*
X70228190Y-62674476D01*
X70275809Y-62626857D01*
X70323428Y-62531619D01*
X70323428Y-62341142D01*
X70275809Y-62245904D01*
X70228190Y-62198285D01*
X70132952Y-62150666D01*
X69704380Y-61531619D02*
X69704380Y-61436380D01*
X69752000Y-61341142D01*
X69799619Y-61293523D01*
X69894857Y-61245904D01*
X70085333Y-61198285D01*
X70323428Y-61198285D01*
X70513904Y-61245904D01*
X70609142Y-61293523D01*
X70656761Y-61341142D01*
X70704380Y-61436380D01*
X70704380Y-61531619D01*
X70656761Y-61626857D01*
X70609142Y-61674476D01*
X70513904Y-61722095D01*
X70323428Y-61769714D01*
X70085333Y-61769714D01*
X69894857Y-61722095D01*
X69799619Y-61674476D01*
X69752000Y-61626857D01*
X69704380Y-61531619D01*
X69704380Y-60341142D02*
X69704380Y-60531619D01*
X69752000Y-60626857D01*
X69799619Y-60674476D01*
X69942476Y-60769714D01*
X70132952Y-60817333D01*
X70513904Y-60817333D01*
X70609142Y-60769714D01*
X70656761Y-60722095D01*
X70704380Y-60626857D01*
X70704380Y-60436380D01*
X70656761Y-60341142D01*
X70609142Y-60293523D01*
X70513904Y-60245904D01*
X70275809Y-60245904D01*
X70180571Y-60293523D01*
X70132952Y-60341142D01*
X70085333Y-60436380D01*
X70085333Y-60626857D01*
X70132952Y-60722095D01*
X70180571Y-60769714D01*
X70275809Y-60817333D01*
X69704380Y-59341142D02*
X69704380Y-59817333D01*
X70180571Y-59864952D01*
X70132952Y-59817333D01*
X70085333Y-59722095D01*
X70085333Y-59484000D01*
X70132952Y-59388761D01*
X70180571Y-59341142D01*
X70275809Y-59293523D01*
X70513904Y-59293523D01*
X70609142Y-59341142D01*
X70656761Y-59388761D01*
X70704380Y-59484000D01*
X70704380Y-59722095D01*
X70656761Y-59817333D01*
X70609142Y-59864952D01*
D14*
X72771047Y-62210190D02*
X72771047Y-62614952D01*
X72794857Y-62662571D01*
X72818666Y-62686380D01*
X72866285Y-62710190D01*
X72961523Y-62710190D01*
X73009142Y-62686380D01*
X73032952Y-62662571D01*
X73056761Y-62614952D01*
X73056761Y-62210190D01*
X73271047Y-62257809D02*
X73294857Y-62234000D01*
X73342476Y-62210190D01*
X73461523Y-62210190D01*
X73509142Y-62234000D01*
X73532952Y-62257809D01*
X73556761Y-62305428D01*
X73556761Y-62353047D01*
X73532952Y-62424476D01*
X73247238Y-62710190D01*
X73556761Y-62710190D01*
G04 #@! TO.C,R3*
D11*
X88716380Y-70223047D02*
X88716380Y-70794476D01*
X88716380Y-70508761D02*
X87716380Y-70508761D01*
X87859238Y-70604000D01*
X87954476Y-70699238D01*
X88002095Y-70794476D01*
X88716380Y-69794476D02*
X87716380Y-69794476D01*
X88335428Y-69699238D02*
X88716380Y-69413523D01*
X88049714Y-69413523D02*
X88430666Y-69794476D01*
D15*
X86840190Y-70187333D02*
X86602095Y-70354000D01*
X86840190Y-70473047D02*
X86340190Y-70473047D01*
X86340190Y-70282571D01*
X86364000Y-70234952D01*
X86387809Y-70211142D01*
X86435428Y-70187333D01*
X86506857Y-70187333D01*
X86554476Y-70211142D01*
X86578285Y-70234952D01*
X86602095Y-70282571D01*
X86602095Y-70473047D01*
X86340190Y-70020666D02*
X86340190Y-69711142D01*
X86530666Y-69877809D01*
X86530666Y-69806380D01*
X86554476Y-69758761D01*
X86578285Y-69734952D01*
X86625904Y-69711142D01*
X86744952Y-69711142D01*
X86792571Y-69734952D01*
X86816380Y-69758761D01*
X86840190Y-69806380D01*
X86840190Y-69949238D01*
X86816380Y-69996857D01*
X86792571Y-70020666D01*
G04 #@! TO.C,R4*
D11*
X69525619Y-56570476D02*
X69478000Y-56522857D01*
X69430380Y-56427619D01*
X69430380Y-56189523D01*
X69478000Y-56094285D01*
X69525619Y-56046666D01*
X69620857Y-55999047D01*
X69716095Y-55999047D01*
X69858952Y-56046666D01*
X70430380Y-56618095D01*
X70430380Y-55999047D01*
X70430380Y-55570476D02*
X69430380Y-55570476D01*
X70049428Y-55475238D02*
X70430380Y-55189523D01*
X69763714Y-55189523D02*
X70144666Y-55570476D01*
D15*
X71854190Y-55963333D02*
X71616095Y-56130000D01*
X71854190Y-56249047D02*
X71354190Y-56249047D01*
X71354190Y-56058571D01*
X71378000Y-56010952D01*
X71401809Y-55987142D01*
X71449428Y-55963333D01*
X71520857Y-55963333D01*
X71568476Y-55987142D01*
X71592285Y-56010952D01*
X71616095Y-56058571D01*
X71616095Y-56249047D01*
X71520857Y-55534761D02*
X71854190Y-55534761D01*
X71330380Y-55653809D02*
X71687523Y-55772857D01*
X71687523Y-55463333D01*
G04 #@! TO.C,R2*
D11*
X82384380Y-71556380D02*
X82384380Y-70937333D01*
X82765333Y-71270666D01*
X82765333Y-71127809D01*
X82812952Y-71032571D01*
X82860571Y-70984952D01*
X82955809Y-70937333D01*
X83193904Y-70937333D01*
X83289142Y-70984952D01*
X83336761Y-71032571D01*
X83384380Y-71127809D01*
X83384380Y-71413523D01*
X83336761Y-71508761D01*
X83289142Y-71556380D01*
X83289142Y-70508761D02*
X83336761Y-70461142D01*
X83384380Y-70508761D01*
X83336761Y-70556380D01*
X83289142Y-70508761D01*
X83384380Y-70508761D01*
X82384380Y-70127809D02*
X82384380Y-69508761D01*
X82765333Y-69842095D01*
X82765333Y-69699238D01*
X82812952Y-69604000D01*
X82860571Y-69556380D01*
X82955809Y-69508761D01*
X83193904Y-69508761D01*
X83289142Y-69556380D01*
X83336761Y-69604000D01*
X83384380Y-69699238D01*
X83384380Y-69984952D01*
X83336761Y-70080190D01*
X83289142Y-70127809D01*
X83384380Y-69080190D02*
X82384380Y-69080190D01*
X83003428Y-68984952D02*
X83384380Y-68699238D01*
X82717714Y-68699238D02*
X83098666Y-69080190D01*
D15*
X84808190Y-70187333D02*
X84570095Y-70354000D01*
X84808190Y-70473047D02*
X84308190Y-70473047D01*
X84308190Y-70282571D01*
X84332000Y-70234952D01*
X84355809Y-70211142D01*
X84403428Y-70187333D01*
X84474857Y-70187333D01*
X84522476Y-70211142D01*
X84546285Y-70234952D01*
X84570095Y-70282571D01*
X84570095Y-70473047D01*
X84355809Y-69996857D02*
X84332000Y-69973047D01*
X84308190Y-69925428D01*
X84308190Y-69806380D01*
X84332000Y-69758761D01*
X84355809Y-69734952D01*
X84403428Y-69711142D01*
X84451047Y-69711142D01*
X84522476Y-69734952D01*
X84808190Y-70020666D01*
X84808190Y-69711142D01*
G04 #@! TO.C,R1*
D11*
X78803523Y-63062380D02*
X78232095Y-63062380D01*
X78517809Y-63062380D02*
X78517809Y-62062380D01*
X78422571Y-62205238D01*
X78327333Y-62300476D01*
X78232095Y-62348095D01*
X79422571Y-62062380D02*
X79517809Y-62062380D01*
X79613047Y-62110000D01*
X79660666Y-62157619D01*
X79708285Y-62252857D01*
X79755904Y-62443333D01*
X79755904Y-62681428D01*
X79708285Y-62871904D01*
X79660666Y-62967142D01*
X79613047Y-63014761D01*
X79517809Y-63062380D01*
X79422571Y-63062380D01*
X79327333Y-63014761D01*
X79279714Y-62967142D01*
X79232095Y-62871904D01*
X79184476Y-62681428D01*
X79184476Y-62443333D01*
X79232095Y-62252857D01*
X79279714Y-62157619D01*
X79327333Y-62110000D01*
X79422571Y-62062380D01*
D15*
X78910666Y-61186190D02*
X78744000Y-60948095D01*
X78624952Y-61186190D02*
X78624952Y-60686190D01*
X78815428Y-60686190D01*
X78863047Y-60710000D01*
X78886857Y-60733809D01*
X78910666Y-60781428D01*
X78910666Y-60852857D01*
X78886857Y-60900476D01*
X78863047Y-60924285D01*
X78815428Y-60948095D01*
X78624952Y-60948095D01*
X79386857Y-61186190D02*
X79101142Y-61186190D01*
X79244000Y-61186190D02*
X79244000Y-60686190D01*
X79196380Y-60757619D01*
X79148761Y-60805238D01*
X79101142Y-60829047D01*
G04 #@! TD*
M02*
