G04 #@! TF.GenerationSoftware,KiCad,Pcbnew,(5.0.1)-3*
G04 #@! TF.CreationDate,2019-08-21T09:16:30-04:00*
G04 #@! TF.ProjectId,BMS Module,424D53204D6F64756C652E6B69636164,rev?*
G04 #@! TF.SameCoordinates,Original*
G04 #@! TF.FileFunction,Soldermask,Top*
G04 #@! TF.FilePolarity,Negative*
%FSLAX46Y46*%
G04 Gerber Fmt 4.6, Leading zero omitted, Abs format (unit mm)*
G04 Created by KiCad (PCBNEW (5.0.1)-3) date 8/21/2019 9:16:30 AM*
%MOMM*%
%LPD*%
G01*
G04 APERTURE LIST*
%ADD10C,0.100000*%
G04 APERTURE END LIST*
D10*
G36*
X101964443Y-72003519D02*
X102030627Y-72010037D01*
X102143853Y-72044384D01*
X102200467Y-72061557D01*
X102339087Y-72135652D01*
X102356991Y-72145222D01*
X102392729Y-72174552D01*
X102494186Y-72257814D01*
X102577448Y-72359271D01*
X102606778Y-72395009D01*
X102606779Y-72395011D01*
X102690443Y-72551533D01*
X102690443Y-72551534D01*
X102741963Y-72721373D01*
X102759359Y-72898000D01*
X102741963Y-73074627D01*
X102707616Y-73187853D01*
X102690443Y-73244467D01*
X102665570Y-73291000D01*
X102606778Y-73400991D01*
X102577448Y-73436729D01*
X102494186Y-73538186D01*
X102392729Y-73621448D01*
X102356991Y-73650778D01*
X102356989Y-73650779D01*
X102200467Y-73734443D01*
X102143853Y-73751616D01*
X102030627Y-73785963D01*
X101964443Y-73792481D01*
X101898260Y-73799000D01*
X101809740Y-73799000D01*
X101743557Y-73792481D01*
X101677373Y-73785963D01*
X101564147Y-73751616D01*
X101507533Y-73734443D01*
X101351011Y-73650779D01*
X101351009Y-73650778D01*
X101315271Y-73621448D01*
X101213814Y-73538186D01*
X101130552Y-73436729D01*
X101101222Y-73400991D01*
X101042430Y-73291000D01*
X101017557Y-73244467D01*
X101000384Y-73187853D01*
X100966037Y-73074627D01*
X100948641Y-72898000D01*
X100966037Y-72721373D01*
X101017557Y-72551534D01*
X101017557Y-72551533D01*
X101101221Y-72395011D01*
X101101222Y-72395009D01*
X101130552Y-72359271D01*
X101213814Y-72257814D01*
X101315271Y-72174552D01*
X101351009Y-72145222D01*
X101368913Y-72135652D01*
X101507533Y-72061557D01*
X101564147Y-72044384D01*
X101677373Y-72010037D01*
X101743557Y-72003519D01*
X101809740Y-71997000D01*
X101898260Y-71997000D01*
X101964443Y-72003519D01*
X101964443Y-72003519D01*
G37*
G36*
X99453000Y-73799000D02*
X97651000Y-73799000D01*
X97651000Y-71997000D01*
X99453000Y-71997000D01*
X99453000Y-73799000D01*
X99453000Y-73799000D01*
G37*
G36*
X65896443Y-72003519D02*
X65962627Y-72010037D01*
X66075853Y-72044384D01*
X66132467Y-72061557D01*
X66271087Y-72135652D01*
X66288991Y-72145222D01*
X66324729Y-72174552D01*
X66426186Y-72257814D01*
X66509448Y-72359271D01*
X66538778Y-72395009D01*
X66538779Y-72395011D01*
X66622443Y-72551533D01*
X66622443Y-72551534D01*
X66673963Y-72721373D01*
X66691359Y-72898000D01*
X66673963Y-73074627D01*
X66639616Y-73187853D01*
X66622443Y-73244467D01*
X66597570Y-73291000D01*
X66538778Y-73400991D01*
X66509448Y-73436729D01*
X66426186Y-73538186D01*
X66324729Y-73621448D01*
X66288991Y-73650778D01*
X66288989Y-73650779D01*
X66132467Y-73734443D01*
X66075853Y-73751616D01*
X65962627Y-73785963D01*
X65896443Y-73792481D01*
X65830260Y-73799000D01*
X65741740Y-73799000D01*
X65675557Y-73792481D01*
X65609373Y-73785963D01*
X65496147Y-73751616D01*
X65439533Y-73734443D01*
X65283011Y-73650779D01*
X65283009Y-73650778D01*
X65247271Y-73621448D01*
X65145814Y-73538186D01*
X65062552Y-73436729D01*
X65033222Y-73400991D01*
X64974430Y-73291000D01*
X64949557Y-73244467D01*
X64932384Y-73187853D01*
X64898037Y-73074627D01*
X64880641Y-72898000D01*
X64898037Y-72721373D01*
X64949557Y-72551534D01*
X64949557Y-72551533D01*
X65033221Y-72395011D01*
X65033222Y-72395009D01*
X65062552Y-72359271D01*
X65145814Y-72257814D01*
X65247271Y-72174552D01*
X65283009Y-72145222D01*
X65300913Y-72135652D01*
X65439533Y-72061557D01*
X65496147Y-72044384D01*
X65609373Y-72010037D01*
X65675557Y-72003519D01*
X65741740Y-71997000D01*
X65830260Y-71997000D01*
X65896443Y-72003519D01*
X65896443Y-72003519D01*
G37*
G36*
X70243000Y-73291000D02*
X68441000Y-73291000D01*
X68441000Y-71489000D01*
X70243000Y-71489000D01*
X70243000Y-73291000D01*
X70243000Y-73291000D01*
G37*
G36*
X78366604Y-68986347D02*
X78403145Y-68997432D01*
X78436820Y-69015431D01*
X78466341Y-69039659D01*
X78490569Y-69069180D01*
X78508568Y-69102855D01*
X78519653Y-69139396D01*
X78524000Y-69183538D01*
X78524000Y-71532462D01*
X78519653Y-71576604D01*
X78508568Y-71613145D01*
X78490569Y-71646820D01*
X78466341Y-71676341D01*
X78436820Y-71700569D01*
X78403145Y-71718568D01*
X78366604Y-71729653D01*
X78322462Y-71734000D01*
X77373538Y-71734000D01*
X77329396Y-71729653D01*
X77292855Y-71718568D01*
X77259180Y-71700569D01*
X77229659Y-71676341D01*
X77205431Y-71646820D01*
X77187432Y-71613145D01*
X77176347Y-71576604D01*
X77172000Y-71532462D01*
X77172000Y-69183538D01*
X77176347Y-69139396D01*
X77187432Y-69102855D01*
X77205431Y-69069180D01*
X77229659Y-69039659D01*
X77259180Y-69015431D01*
X77292855Y-68997432D01*
X77329396Y-68986347D01*
X77373538Y-68982000D01*
X78322462Y-68982000D01*
X78366604Y-68986347D01*
X78366604Y-68986347D01*
G37*
G36*
X81166604Y-68986347D02*
X81203145Y-68997432D01*
X81236820Y-69015431D01*
X81266341Y-69039659D01*
X81290569Y-69069180D01*
X81308568Y-69102855D01*
X81319653Y-69139396D01*
X81324000Y-69183538D01*
X81324000Y-71532462D01*
X81319653Y-71576604D01*
X81308568Y-71613145D01*
X81290569Y-71646820D01*
X81266341Y-71676341D01*
X81236820Y-71700569D01*
X81203145Y-71718568D01*
X81166604Y-71729653D01*
X81122462Y-71734000D01*
X80173538Y-71734000D01*
X80129396Y-71729653D01*
X80092855Y-71718568D01*
X80059180Y-71700569D01*
X80029659Y-71676341D01*
X80005431Y-71646820D01*
X79987432Y-71613145D01*
X79976347Y-71576604D01*
X79972000Y-71532462D01*
X79972000Y-69183538D01*
X79976347Y-69139396D01*
X79987432Y-69102855D01*
X80005431Y-69069180D01*
X80029659Y-69039659D01*
X80059180Y-69015431D01*
X80092855Y-68997432D01*
X80129396Y-68986347D01*
X80173538Y-68982000D01*
X81122462Y-68982000D01*
X81166604Y-68986347D01*
X81166604Y-68986347D01*
G37*
G36*
X87198466Y-70507565D02*
X87237137Y-70519296D01*
X87272779Y-70538348D01*
X87304017Y-70563983D01*
X87329652Y-70595221D01*
X87348704Y-70630863D01*
X87360435Y-70669534D01*
X87365000Y-70715888D01*
X87365000Y-71367112D01*
X87360435Y-71413466D01*
X87348704Y-71452137D01*
X87329652Y-71487779D01*
X87304017Y-71519017D01*
X87272779Y-71544652D01*
X87237137Y-71563704D01*
X87198466Y-71575435D01*
X87152112Y-71580000D01*
X86075888Y-71580000D01*
X86029534Y-71575435D01*
X85990863Y-71563704D01*
X85955221Y-71544652D01*
X85923983Y-71519017D01*
X85898348Y-71487779D01*
X85879296Y-71452137D01*
X85867565Y-71413466D01*
X85863000Y-71367112D01*
X85863000Y-70715888D01*
X85867565Y-70669534D01*
X85879296Y-70630863D01*
X85898348Y-70595221D01*
X85923983Y-70563983D01*
X85955221Y-70538348D01*
X85990863Y-70519296D01*
X86029534Y-70507565D01*
X86075888Y-70503000D01*
X87152112Y-70503000D01*
X87198466Y-70507565D01*
X87198466Y-70507565D01*
G37*
G36*
X85166466Y-70507565D02*
X85205137Y-70519296D01*
X85240779Y-70538348D01*
X85272017Y-70563983D01*
X85297652Y-70595221D01*
X85316704Y-70630863D01*
X85328435Y-70669534D01*
X85333000Y-70715888D01*
X85333000Y-71367112D01*
X85328435Y-71413466D01*
X85316704Y-71452137D01*
X85297652Y-71487779D01*
X85272017Y-71519017D01*
X85240779Y-71544652D01*
X85205137Y-71563704D01*
X85166466Y-71575435D01*
X85120112Y-71580000D01*
X84043888Y-71580000D01*
X83997534Y-71575435D01*
X83958863Y-71563704D01*
X83923221Y-71544652D01*
X83891983Y-71519017D01*
X83866348Y-71487779D01*
X83847296Y-71452137D01*
X83835565Y-71413466D01*
X83831000Y-71367112D01*
X83831000Y-70715888D01*
X83835565Y-70669534D01*
X83847296Y-70630863D01*
X83866348Y-70595221D01*
X83891983Y-70563983D01*
X83923221Y-70538348D01*
X83958863Y-70519296D01*
X83997534Y-70507565D01*
X84043888Y-70503000D01*
X85120112Y-70503000D01*
X85166466Y-70507565D01*
X85166466Y-70507565D01*
G37*
G36*
X101964442Y-69463518D02*
X102030627Y-69470037D01*
X102143853Y-69504384D01*
X102200467Y-69521557D01*
X102232703Y-69538788D01*
X102356991Y-69605222D01*
X102366199Y-69612779D01*
X102494186Y-69717814D01*
X102577448Y-69819271D01*
X102606778Y-69855009D01*
X102606779Y-69855011D01*
X102690443Y-70011533D01*
X102690443Y-70011534D01*
X102741963Y-70181373D01*
X102759359Y-70358000D01*
X102741963Y-70534627D01*
X102712770Y-70630863D01*
X102690443Y-70704467D01*
X102616348Y-70843087D01*
X102606778Y-70860991D01*
X102577448Y-70896729D01*
X102494186Y-70998186D01*
X102392729Y-71081448D01*
X102356991Y-71110778D01*
X102356989Y-71110779D01*
X102200467Y-71194443D01*
X102143853Y-71211616D01*
X102030627Y-71245963D01*
X101964442Y-71252482D01*
X101898260Y-71259000D01*
X101809740Y-71259000D01*
X101743558Y-71252482D01*
X101677373Y-71245963D01*
X101564147Y-71211616D01*
X101507533Y-71194443D01*
X101351011Y-71110779D01*
X101351009Y-71110778D01*
X101315271Y-71081448D01*
X101213814Y-70998186D01*
X101130552Y-70896729D01*
X101101222Y-70860991D01*
X101091652Y-70843087D01*
X101017557Y-70704467D01*
X100995230Y-70630863D01*
X100966037Y-70534627D01*
X100948641Y-70358000D01*
X100966037Y-70181373D01*
X101017557Y-70011534D01*
X101017557Y-70011533D01*
X101101221Y-69855011D01*
X101101222Y-69855009D01*
X101130552Y-69819271D01*
X101213814Y-69717814D01*
X101341801Y-69612779D01*
X101351009Y-69605222D01*
X101475297Y-69538788D01*
X101507533Y-69521557D01*
X101564147Y-69504384D01*
X101677373Y-69470037D01*
X101743558Y-69463518D01*
X101809740Y-69457000D01*
X101898260Y-69457000D01*
X101964442Y-69463518D01*
X101964442Y-69463518D01*
G37*
G36*
X65896442Y-69463518D02*
X65962627Y-69470037D01*
X66075853Y-69504384D01*
X66132467Y-69521557D01*
X66164703Y-69538788D01*
X66288991Y-69605222D01*
X66298199Y-69612779D01*
X66426186Y-69717814D01*
X66509448Y-69819271D01*
X66538778Y-69855009D01*
X66538779Y-69855011D01*
X66622443Y-70011533D01*
X66622443Y-70011534D01*
X66673963Y-70181373D01*
X66691359Y-70358000D01*
X66673963Y-70534627D01*
X66644770Y-70630863D01*
X66622443Y-70704467D01*
X66548348Y-70843087D01*
X66538778Y-70860991D01*
X66509448Y-70896729D01*
X66426186Y-70998186D01*
X66324729Y-71081448D01*
X66288991Y-71110778D01*
X66288989Y-71110779D01*
X66132467Y-71194443D01*
X66075853Y-71211616D01*
X65962627Y-71245963D01*
X65896442Y-71252482D01*
X65830260Y-71259000D01*
X65741740Y-71259000D01*
X65675558Y-71252482D01*
X65609373Y-71245963D01*
X65496147Y-71211616D01*
X65439533Y-71194443D01*
X65283011Y-71110779D01*
X65283009Y-71110778D01*
X65247271Y-71081448D01*
X65145814Y-70998186D01*
X65062552Y-70896729D01*
X65033222Y-70860991D01*
X65023652Y-70843087D01*
X64949557Y-70704467D01*
X64927230Y-70630863D01*
X64898037Y-70534627D01*
X64880641Y-70358000D01*
X64898037Y-70181373D01*
X64949557Y-70011534D01*
X64949557Y-70011533D01*
X65033221Y-69855011D01*
X65033222Y-69855009D01*
X65062552Y-69819271D01*
X65145814Y-69717814D01*
X65273801Y-69612779D01*
X65283009Y-69605222D01*
X65407297Y-69538788D01*
X65439533Y-69521557D01*
X65496147Y-69504384D01*
X65609373Y-69470037D01*
X65675558Y-69463518D01*
X65741740Y-69457000D01*
X65830260Y-69457000D01*
X65896442Y-69463518D01*
X65896442Y-69463518D01*
G37*
G36*
X85166466Y-68632565D02*
X85205137Y-68644296D01*
X85240779Y-68663348D01*
X85272017Y-68688983D01*
X85297652Y-68720221D01*
X85316704Y-68755863D01*
X85328435Y-68794534D01*
X85333000Y-68840888D01*
X85333000Y-69492112D01*
X85328435Y-69538466D01*
X85316704Y-69577137D01*
X85297652Y-69612779D01*
X85272017Y-69644017D01*
X85240779Y-69669652D01*
X85205137Y-69688704D01*
X85166466Y-69700435D01*
X85120112Y-69705000D01*
X84043888Y-69705000D01*
X83997534Y-69700435D01*
X83958863Y-69688704D01*
X83923221Y-69669652D01*
X83891983Y-69644017D01*
X83866348Y-69612779D01*
X83847296Y-69577137D01*
X83835565Y-69538466D01*
X83831000Y-69492112D01*
X83831000Y-68840888D01*
X83835565Y-68794534D01*
X83847296Y-68755863D01*
X83866348Y-68720221D01*
X83891983Y-68688983D01*
X83923221Y-68663348D01*
X83958863Y-68644296D01*
X83997534Y-68632565D01*
X84043888Y-68628000D01*
X85120112Y-68628000D01*
X85166466Y-68632565D01*
X85166466Y-68632565D01*
G37*
G36*
X87198466Y-68632565D02*
X87237137Y-68644296D01*
X87272779Y-68663348D01*
X87304017Y-68688983D01*
X87329652Y-68720221D01*
X87348704Y-68755863D01*
X87360435Y-68794534D01*
X87365000Y-68840888D01*
X87365000Y-69492112D01*
X87360435Y-69538466D01*
X87348704Y-69577137D01*
X87329652Y-69612779D01*
X87304017Y-69644017D01*
X87272779Y-69669652D01*
X87237137Y-69688704D01*
X87198466Y-69700435D01*
X87152112Y-69705000D01*
X86075888Y-69705000D01*
X86029534Y-69700435D01*
X85990863Y-69688704D01*
X85955221Y-69669652D01*
X85923983Y-69644017D01*
X85898348Y-69612779D01*
X85879296Y-69577137D01*
X85867565Y-69538466D01*
X85863000Y-69492112D01*
X85863000Y-68840888D01*
X85867565Y-68794534D01*
X85879296Y-68755863D01*
X85898348Y-68720221D01*
X85923983Y-68688983D01*
X85955221Y-68663348D01*
X85990863Y-68644296D01*
X86029534Y-68632565D01*
X86075888Y-68628000D01*
X87152112Y-68628000D01*
X87198466Y-68632565D01*
X87198466Y-68632565D01*
G37*
G36*
X71576604Y-67784347D02*
X71613145Y-67795432D01*
X71646820Y-67813431D01*
X71676341Y-67837659D01*
X71700569Y-67867180D01*
X71718568Y-67900855D01*
X71729653Y-67937396D01*
X71734000Y-67981538D01*
X71734000Y-68930462D01*
X71729653Y-68974604D01*
X71718568Y-69011145D01*
X71700569Y-69044820D01*
X71676341Y-69074341D01*
X71646820Y-69098569D01*
X71613145Y-69116568D01*
X71576604Y-69127653D01*
X71532462Y-69132000D01*
X69183538Y-69132000D01*
X69139396Y-69127653D01*
X69102855Y-69116568D01*
X69069180Y-69098569D01*
X69039659Y-69074341D01*
X69015431Y-69044820D01*
X68997432Y-69011145D01*
X68986347Y-68974604D01*
X68982000Y-68930462D01*
X68982000Y-67981538D01*
X68986347Y-67937396D01*
X68997432Y-67900855D01*
X69015431Y-67867180D01*
X69039659Y-67837659D01*
X69069180Y-67813431D01*
X69102855Y-67795432D01*
X69139396Y-67784347D01*
X69183538Y-67780000D01*
X71532462Y-67780000D01*
X71576604Y-67784347D01*
X71576604Y-67784347D01*
G37*
G36*
X92389000Y-68887000D02*
X90287000Y-68887000D01*
X90287000Y-67285000D01*
X92389000Y-67285000D01*
X92389000Y-68887000D01*
X92389000Y-68887000D01*
G37*
G36*
X65896443Y-66923519D02*
X65962627Y-66930037D01*
X66075853Y-66964384D01*
X66132467Y-66981557D01*
X66271087Y-67055652D01*
X66288991Y-67065222D01*
X66324729Y-67094552D01*
X66426186Y-67177814D01*
X66509448Y-67279271D01*
X66538778Y-67315009D01*
X66538779Y-67315011D01*
X66622443Y-67471533D01*
X66622443Y-67471534D01*
X66673963Y-67641373D01*
X66691359Y-67818000D01*
X66673963Y-67994627D01*
X66657044Y-68050400D01*
X66622443Y-68164467D01*
X66548348Y-68303087D01*
X66538778Y-68320991D01*
X66509448Y-68356729D01*
X66426186Y-68458186D01*
X66324729Y-68541448D01*
X66288991Y-68570778D01*
X66288989Y-68570779D01*
X66132467Y-68654443D01*
X66075853Y-68671616D01*
X65962627Y-68705963D01*
X65896443Y-68712481D01*
X65830260Y-68719000D01*
X65741740Y-68719000D01*
X65675557Y-68712481D01*
X65609373Y-68705963D01*
X65496147Y-68671616D01*
X65439533Y-68654443D01*
X65283011Y-68570779D01*
X65283009Y-68570778D01*
X65247271Y-68541448D01*
X65145814Y-68458186D01*
X65062552Y-68356729D01*
X65033222Y-68320991D01*
X65023652Y-68303087D01*
X64949557Y-68164467D01*
X64914956Y-68050400D01*
X64898037Y-67994627D01*
X64880641Y-67818000D01*
X64898037Y-67641373D01*
X64949557Y-67471534D01*
X64949557Y-67471533D01*
X65033221Y-67315011D01*
X65033222Y-67315009D01*
X65062552Y-67279271D01*
X65145814Y-67177814D01*
X65247271Y-67094552D01*
X65283009Y-67065222D01*
X65300913Y-67055652D01*
X65439533Y-66981557D01*
X65496147Y-66964384D01*
X65609373Y-66930037D01*
X65675557Y-66923519D01*
X65741740Y-66917000D01*
X65830260Y-66917000D01*
X65896443Y-66923519D01*
X65896443Y-66923519D01*
G37*
G36*
X101964443Y-66923519D02*
X102030627Y-66930037D01*
X102143853Y-66964384D01*
X102200467Y-66981557D01*
X102339087Y-67055652D01*
X102356991Y-67065222D01*
X102392729Y-67094552D01*
X102494186Y-67177814D01*
X102577448Y-67279271D01*
X102606778Y-67315009D01*
X102606779Y-67315011D01*
X102690443Y-67471533D01*
X102690443Y-67471534D01*
X102741963Y-67641373D01*
X102759359Y-67818000D01*
X102741963Y-67994627D01*
X102725044Y-68050400D01*
X102690443Y-68164467D01*
X102616348Y-68303087D01*
X102606778Y-68320991D01*
X102577448Y-68356729D01*
X102494186Y-68458186D01*
X102392729Y-68541448D01*
X102356991Y-68570778D01*
X102356989Y-68570779D01*
X102200467Y-68654443D01*
X102143853Y-68671616D01*
X102030627Y-68705963D01*
X101964443Y-68712481D01*
X101898260Y-68719000D01*
X101809740Y-68719000D01*
X101743557Y-68712481D01*
X101677373Y-68705963D01*
X101564147Y-68671616D01*
X101507533Y-68654443D01*
X101351011Y-68570779D01*
X101351009Y-68570778D01*
X101315271Y-68541448D01*
X101213814Y-68458186D01*
X101130552Y-68356729D01*
X101101222Y-68320991D01*
X101091652Y-68303087D01*
X101017557Y-68164467D01*
X100982956Y-68050400D01*
X100966037Y-67994627D01*
X100948641Y-67818000D01*
X100966037Y-67641373D01*
X101017557Y-67471534D01*
X101017557Y-67471533D01*
X101101221Y-67315011D01*
X101101222Y-67315009D01*
X101130552Y-67279271D01*
X101213814Y-67177814D01*
X101315271Y-67094552D01*
X101351009Y-67065222D01*
X101368913Y-67055652D01*
X101507533Y-66981557D01*
X101564147Y-66964384D01*
X101677373Y-66930037D01*
X101743557Y-66923519D01*
X101809740Y-66917000D01*
X101898260Y-66917000D01*
X101964443Y-66923519D01*
X101964443Y-66923519D01*
G37*
G36*
X98689000Y-67737000D02*
X96587000Y-67737000D01*
X96587000Y-63835000D01*
X98689000Y-63835000D01*
X98689000Y-67737000D01*
X98689000Y-67737000D01*
G37*
G36*
X83920000Y-66783000D02*
X82368000Y-66783000D01*
X82368000Y-64281000D01*
X83920000Y-64281000D01*
X83920000Y-66783000D01*
X83920000Y-66783000D01*
G37*
G36*
X88320000Y-66783000D02*
X86768000Y-66783000D01*
X86768000Y-64281000D01*
X88320000Y-64281000D01*
X88320000Y-66783000D01*
X88320000Y-66783000D01*
G37*
G36*
X92389000Y-66587000D02*
X90287000Y-66587000D01*
X90287000Y-64985000D01*
X92389000Y-64985000D01*
X92389000Y-66587000D01*
X92389000Y-66587000D01*
G37*
G36*
X71576604Y-64984347D02*
X71613145Y-64995432D01*
X71646820Y-65013431D01*
X71676341Y-65037659D01*
X71700569Y-65067180D01*
X71718568Y-65100855D01*
X71729653Y-65137396D01*
X71734000Y-65181538D01*
X71734000Y-66130462D01*
X71729653Y-66174604D01*
X71718568Y-66211145D01*
X71700569Y-66244820D01*
X71676341Y-66274341D01*
X71646820Y-66298569D01*
X71613145Y-66316568D01*
X71576604Y-66327653D01*
X71532462Y-66332000D01*
X69183538Y-66332000D01*
X69139396Y-66327653D01*
X69102855Y-66316568D01*
X69069180Y-66298569D01*
X69039659Y-66274341D01*
X69015431Y-66244820D01*
X68997432Y-66211145D01*
X68986347Y-66174604D01*
X68982000Y-66130462D01*
X68982000Y-65181538D01*
X68986347Y-65137396D01*
X68997432Y-65100855D01*
X69015431Y-65067180D01*
X69039659Y-65037659D01*
X69069180Y-65013431D01*
X69102855Y-64995432D01*
X69139396Y-64984347D01*
X69183538Y-64980000D01*
X71532462Y-64980000D01*
X71576604Y-64984347D01*
X71576604Y-64984347D01*
G37*
G36*
X65896443Y-64383519D02*
X65962627Y-64390037D01*
X66075853Y-64424384D01*
X66132467Y-64441557D01*
X66271087Y-64515652D01*
X66288991Y-64525222D01*
X66324729Y-64554552D01*
X66426186Y-64637814D01*
X66509448Y-64739271D01*
X66538778Y-64775009D01*
X66538779Y-64775011D01*
X66622443Y-64931533D01*
X66622443Y-64931534D01*
X66673963Y-65101373D01*
X66691359Y-65278000D01*
X66673963Y-65454627D01*
X66665356Y-65483000D01*
X66622443Y-65624467D01*
X66548348Y-65763087D01*
X66538778Y-65780991D01*
X66509448Y-65816729D01*
X66426186Y-65918186D01*
X66324729Y-66001448D01*
X66288991Y-66030778D01*
X66288989Y-66030779D01*
X66132467Y-66114443D01*
X66079658Y-66130462D01*
X65962627Y-66165963D01*
X65896442Y-66172482D01*
X65830260Y-66179000D01*
X65741740Y-66179000D01*
X65675558Y-66172482D01*
X65609373Y-66165963D01*
X65492342Y-66130462D01*
X65439533Y-66114443D01*
X65283011Y-66030779D01*
X65283009Y-66030778D01*
X65247271Y-66001448D01*
X65145814Y-65918186D01*
X65062552Y-65816729D01*
X65033222Y-65780991D01*
X65023652Y-65763087D01*
X64949557Y-65624467D01*
X64906644Y-65483000D01*
X64898037Y-65454627D01*
X64880641Y-65278000D01*
X64898037Y-65101373D01*
X64949557Y-64931534D01*
X64949557Y-64931533D01*
X65033221Y-64775011D01*
X65033222Y-64775009D01*
X65062552Y-64739271D01*
X65145814Y-64637814D01*
X65247271Y-64554552D01*
X65283009Y-64525222D01*
X65300913Y-64515652D01*
X65439533Y-64441557D01*
X65496147Y-64424384D01*
X65609373Y-64390037D01*
X65675557Y-64383519D01*
X65741740Y-64377000D01*
X65830260Y-64377000D01*
X65896443Y-64383519D01*
X65896443Y-64383519D01*
G37*
G36*
X101964443Y-64383519D02*
X102030627Y-64390037D01*
X102143853Y-64424384D01*
X102200467Y-64441557D01*
X102339087Y-64515652D01*
X102356991Y-64525222D01*
X102392729Y-64554552D01*
X102494186Y-64637814D01*
X102577448Y-64739271D01*
X102606778Y-64775009D01*
X102606779Y-64775011D01*
X102690443Y-64931533D01*
X102690443Y-64931534D01*
X102741963Y-65101373D01*
X102759359Y-65278000D01*
X102741963Y-65454627D01*
X102733356Y-65483000D01*
X102690443Y-65624467D01*
X102616348Y-65763087D01*
X102606778Y-65780991D01*
X102577448Y-65816729D01*
X102494186Y-65918186D01*
X102392729Y-66001448D01*
X102356991Y-66030778D01*
X102356989Y-66030779D01*
X102200467Y-66114443D01*
X102147658Y-66130462D01*
X102030627Y-66165963D01*
X101964442Y-66172482D01*
X101898260Y-66179000D01*
X101809740Y-66179000D01*
X101743558Y-66172482D01*
X101677373Y-66165963D01*
X101560342Y-66130462D01*
X101507533Y-66114443D01*
X101351011Y-66030779D01*
X101351009Y-66030778D01*
X101315271Y-66001448D01*
X101213814Y-65918186D01*
X101130552Y-65816729D01*
X101101222Y-65780991D01*
X101091652Y-65763087D01*
X101017557Y-65624467D01*
X100974644Y-65483000D01*
X100966037Y-65454627D01*
X100948641Y-65278000D01*
X100966037Y-65101373D01*
X101017557Y-64931534D01*
X101017557Y-64931533D01*
X101101221Y-64775011D01*
X101101222Y-64775009D01*
X101130552Y-64739271D01*
X101213814Y-64637814D01*
X101315271Y-64554552D01*
X101351009Y-64525222D01*
X101368913Y-64515652D01*
X101507533Y-64441557D01*
X101564147Y-64424384D01*
X101677373Y-64390037D01*
X101743557Y-64383519D01*
X101809740Y-64377000D01*
X101898260Y-64377000D01*
X101964443Y-64383519D01*
X101964443Y-64383519D01*
G37*
G36*
X92389000Y-64287000D02*
X90287000Y-64287000D01*
X90287000Y-62685000D01*
X92389000Y-62685000D01*
X92389000Y-64287000D01*
X92389000Y-64287000D01*
G37*
G36*
X72578000Y-64165000D02*
X71826000Y-64165000D01*
X71826000Y-63003000D01*
X72578000Y-63003000D01*
X72578000Y-64165000D01*
X72578000Y-64165000D01*
G37*
G36*
X74478000Y-64165000D02*
X73726000Y-64165000D01*
X73726000Y-63003000D01*
X74478000Y-63003000D01*
X74478000Y-64165000D01*
X74478000Y-64165000D01*
G37*
G36*
X65896443Y-61843519D02*
X65962627Y-61850037D01*
X66075853Y-61884384D01*
X66132467Y-61901557D01*
X66251159Y-61965000D01*
X66288991Y-61985222D01*
X66324729Y-62014552D01*
X66426186Y-62097814D01*
X66509448Y-62199271D01*
X66538778Y-62235009D01*
X66538779Y-62235011D01*
X66622443Y-62391533D01*
X66622443Y-62391534D01*
X66673963Y-62561373D01*
X66691359Y-62738000D01*
X66673963Y-62914627D01*
X66647155Y-63003000D01*
X66622443Y-63084467D01*
X66548348Y-63223087D01*
X66538778Y-63240991D01*
X66509448Y-63276729D01*
X66426186Y-63378186D01*
X66324729Y-63461448D01*
X66288991Y-63490778D01*
X66288989Y-63490779D01*
X66132467Y-63574443D01*
X66075853Y-63591616D01*
X65962627Y-63625963D01*
X65896443Y-63632481D01*
X65830260Y-63639000D01*
X65741740Y-63639000D01*
X65675557Y-63632481D01*
X65609373Y-63625963D01*
X65496147Y-63591616D01*
X65439533Y-63574443D01*
X65283011Y-63490779D01*
X65283009Y-63490778D01*
X65247271Y-63461448D01*
X65145814Y-63378186D01*
X65062552Y-63276729D01*
X65033222Y-63240991D01*
X65023652Y-63223087D01*
X64949557Y-63084467D01*
X64924845Y-63003000D01*
X64898037Y-62914627D01*
X64880641Y-62738000D01*
X64898037Y-62561373D01*
X64949557Y-62391534D01*
X64949557Y-62391533D01*
X65033221Y-62235011D01*
X65033222Y-62235009D01*
X65062552Y-62199271D01*
X65145814Y-62097814D01*
X65247271Y-62014552D01*
X65283009Y-61985222D01*
X65320841Y-61965000D01*
X65439533Y-61901557D01*
X65496147Y-61884384D01*
X65609373Y-61850037D01*
X65675557Y-61843519D01*
X65741740Y-61837000D01*
X65830260Y-61837000D01*
X65896443Y-61843519D01*
X65896443Y-61843519D01*
G37*
G36*
X101964443Y-61843519D02*
X102030627Y-61850037D01*
X102143853Y-61884384D01*
X102200467Y-61901557D01*
X102319159Y-61965000D01*
X102356991Y-61985222D01*
X102392729Y-62014552D01*
X102494186Y-62097814D01*
X102577448Y-62199271D01*
X102606778Y-62235009D01*
X102606779Y-62235011D01*
X102690443Y-62391533D01*
X102690443Y-62391534D01*
X102741963Y-62561373D01*
X102759359Y-62738000D01*
X102741963Y-62914627D01*
X102715155Y-63003000D01*
X102690443Y-63084467D01*
X102616348Y-63223087D01*
X102606778Y-63240991D01*
X102577448Y-63276729D01*
X102494186Y-63378186D01*
X102392729Y-63461448D01*
X102356991Y-63490778D01*
X102356989Y-63490779D01*
X102200467Y-63574443D01*
X102143853Y-63591616D01*
X102030627Y-63625963D01*
X101964443Y-63632481D01*
X101898260Y-63639000D01*
X101809740Y-63639000D01*
X101743557Y-63632481D01*
X101677373Y-63625963D01*
X101564147Y-63591616D01*
X101507533Y-63574443D01*
X101351011Y-63490779D01*
X101351009Y-63490778D01*
X101315271Y-63461448D01*
X101213814Y-63378186D01*
X101130552Y-63276729D01*
X101101222Y-63240991D01*
X101091652Y-63223087D01*
X101017557Y-63084467D01*
X100992845Y-63003000D01*
X100966037Y-62914627D01*
X100948641Y-62738000D01*
X100966037Y-62561373D01*
X101017557Y-62391534D01*
X101017557Y-62391533D01*
X101101221Y-62235011D01*
X101101222Y-62235009D01*
X101130552Y-62199271D01*
X101213814Y-62097814D01*
X101315271Y-62014552D01*
X101351009Y-61985222D01*
X101388841Y-61965000D01*
X101507533Y-61901557D01*
X101564147Y-61884384D01*
X101677373Y-61850037D01*
X101743557Y-61843519D01*
X101809740Y-61837000D01*
X101898260Y-61837000D01*
X101964443Y-61843519D01*
X101964443Y-61843519D01*
G37*
G36*
X74478000Y-61965000D02*
X71826000Y-61965000D01*
X71826000Y-60803000D01*
X74478000Y-60803000D01*
X74478000Y-61965000D01*
X74478000Y-61965000D01*
G37*
G36*
X84716604Y-59080347D02*
X84753145Y-59091432D01*
X84786820Y-59109431D01*
X84816341Y-59133659D01*
X84840569Y-59163180D01*
X84858568Y-59196855D01*
X84869653Y-59233396D01*
X84874000Y-59277538D01*
X84874000Y-61626462D01*
X84869653Y-61670604D01*
X84858568Y-61707145D01*
X84840569Y-61740820D01*
X84816341Y-61770341D01*
X84786820Y-61794569D01*
X84753145Y-61812568D01*
X84716604Y-61823653D01*
X84672462Y-61828000D01*
X83723538Y-61828000D01*
X83679396Y-61823653D01*
X83642855Y-61812568D01*
X83609180Y-61794569D01*
X83579659Y-61770341D01*
X83555431Y-61740820D01*
X83537432Y-61707145D01*
X83526347Y-61670604D01*
X83522000Y-61626462D01*
X83522000Y-59277538D01*
X83526347Y-59233396D01*
X83537432Y-59196855D01*
X83555431Y-59163180D01*
X83579659Y-59133659D01*
X83609180Y-59109431D01*
X83642855Y-59091432D01*
X83679396Y-59080347D01*
X83723538Y-59076000D01*
X84672462Y-59076000D01*
X84716604Y-59080347D01*
X84716604Y-59080347D01*
G37*
G36*
X87516604Y-59080347D02*
X87553145Y-59091432D01*
X87586820Y-59109431D01*
X87616341Y-59133659D01*
X87640569Y-59163180D01*
X87658568Y-59196855D01*
X87669653Y-59233396D01*
X87674000Y-59277538D01*
X87674000Y-61626462D01*
X87669653Y-61670604D01*
X87658568Y-61707145D01*
X87640569Y-61740820D01*
X87616341Y-61770341D01*
X87586820Y-61794569D01*
X87553145Y-61812568D01*
X87516604Y-61823653D01*
X87472462Y-61828000D01*
X86523538Y-61828000D01*
X86479396Y-61823653D01*
X86442855Y-61812568D01*
X86409180Y-61794569D01*
X86379659Y-61770341D01*
X86355431Y-61740820D01*
X86337432Y-61707145D01*
X86326347Y-61670604D01*
X86322000Y-61626462D01*
X86322000Y-59277538D01*
X86326347Y-59233396D01*
X86337432Y-59196855D01*
X86355431Y-59163180D01*
X86379659Y-59133659D01*
X86409180Y-59109431D01*
X86442855Y-59091432D01*
X86479396Y-59080347D01*
X86523538Y-59076000D01*
X87472462Y-59076000D01*
X87516604Y-59080347D01*
X87516604Y-59080347D01*
G37*
G36*
X78428466Y-60213565D02*
X78467137Y-60225296D01*
X78502779Y-60244348D01*
X78534017Y-60269983D01*
X78559652Y-60301221D01*
X78578704Y-60336863D01*
X78590435Y-60375534D01*
X78595000Y-60421888D01*
X78595000Y-61498112D01*
X78590435Y-61544466D01*
X78578704Y-61583137D01*
X78559652Y-61618779D01*
X78534017Y-61650017D01*
X78502779Y-61675652D01*
X78467137Y-61694704D01*
X78428466Y-61706435D01*
X78382112Y-61711000D01*
X77730888Y-61711000D01*
X77684534Y-61706435D01*
X77645863Y-61694704D01*
X77610221Y-61675652D01*
X77578983Y-61650017D01*
X77553348Y-61618779D01*
X77534296Y-61583137D01*
X77522565Y-61544466D01*
X77518000Y-61498112D01*
X77518000Y-60421888D01*
X77522565Y-60375534D01*
X77534296Y-60336863D01*
X77553348Y-60301221D01*
X77578983Y-60269983D01*
X77610221Y-60244348D01*
X77645863Y-60225296D01*
X77684534Y-60213565D01*
X77730888Y-60209000D01*
X78382112Y-60209000D01*
X78428466Y-60213565D01*
X78428466Y-60213565D01*
G37*
G36*
X80303466Y-60213565D02*
X80342137Y-60225296D01*
X80377779Y-60244348D01*
X80409017Y-60269983D01*
X80434652Y-60301221D01*
X80453704Y-60336863D01*
X80465435Y-60375534D01*
X80470000Y-60421888D01*
X80470000Y-61498112D01*
X80465435Y-61544466D01*
X80453704Y-61583137D01*
X80434652Y-61618779D01*
X80409017Y-61650017D01*
X80377779Y-61675652D01*
X80342137Y-61694704D01*
X80303466Y-61706435D01*
X80257112Y-61711000D01*
X79605888Y-61711000D01*
X79559534Y-61706435D01*
X79520863Y-61694704D01*
X79485221Y-61675652D01*
X79453983Y-61650017D01*
X79428348Y-61618779D01*
X79409296Y-61583137D01*
X79397565Y-61544466D01*
X79393000Y-61498112D01*
X79393000Y-60421888D01*
X79397565Y-60375534D01*
X79409296Y-60336863D01*
X79428348Y-60301221D01*
X79453983Y-60269983D01*
X79485221Y-60244348D01*
X79520863Y-60225296D01*
X79559534Y-60213565D01*
X79605888Y-60209000D01*
X80257112Y-60209000D01*
X80303466Y-60213565D01*
X80303466Y-60213565D01*
G37*
G36*
X101964442Y-59303518D02*
X102030627Y-59310037D01*
X102143853Y-59344384D01*
X102200467Y-59361557D01*
X102339087Y-59435652D01*
X102356991Y-59445222D01*
X102392729Y-59474552D01*
X102494186Y-59557814D01*
X102577448Y-59659271D01*
X102606778Y-59695009D01*
X102606779Y-59695011D01*
X102690443Y-59851533D01*
X102690443Y-59851534D01*
X102741963Y-60021373D01*
X102759359Y-60198000D01*
X102741963Y-60374627D01*
X102710529Y-60478250D01*
X102690443Y-60544467D01*
X102616348Y-60683087D01*
X102606778Y-60700991D01*
X102577448Y-60736729D01*
X102494186Y-60838186D01*
X102392729Y-60921448D01*
X102356991Y-60950778D01*
X102356989Y-60950779D01*
X102200467Y-61034443D01*
X102143853Y-61051616D01*
X102030627Y-61085963D01*
X101964442Y-61092482D01*
X101898260Y-61099000D01*
X101809740Y-61099000D01*
X101743558Y-61092482D01*
X101677373Y-61085963D01*
X101564147Y-61051616D01*
X101507533Y-61034443D01*
X101351011Y-60950779D01*
X101351009Y-60950778D01*
X101315271Y-60921448D01*
X101213814Y-60838186D01*
X101130552Y-60736729D01*
X101101222Y-60700991D01*
X101091652Y-60683087D01*
X101017557Y-60544467D01*
X100997471Y-60478250D01*
X100966037Y-60374627D01*
X100948641Y-60198000D01*
X100966037Y-60021373D01*
X101017557Y-59851534D01*
X101017557Y-59851533D01*
X101101221Y-59695011D01*
X101101222Y-59695009D01*
X101130552Y-59659271D01*
X101213814Y-59557814D01*
X101315271Y-59474552D01*
X101351009Y-59445222D01*
X101368913Y-59435652D01*
X101507533Y-59361557D01*
X101564147Y-59344384D01*
X101677373Y-59310037D01*
X101743558Y-59303518D01*
X101809740Y-59297000D01*
X101898260Y-59297000D01*
X101964442Y-59303518D01*
X101964442Y-59303518D01*
G37*
G36*
X65896442Y-59303518D02*
X65962627Y-59310037D01*
X66075853Y-59344384D01*
X66132467Y-59361557D01*
X66271087Y-59435652D01*
X66288991Y-59445222D01*
X66324729Y-59474552D01*
X66426186Y-59557814D01*
X66509448Y-59659271D01*
X66538778Y-59695009D01*
X66538779Y-59695011D01*
X66622443Y-59851533D01*
X66622443Y-59851534D01*
X66673963Y-60021373D01*
X66691359Y-60198000D01*
X66673963Y-60374627D01*
X66642529Y-60478250D01*
X66622443Y-60544467D01*
X66548348Y-60683087D01*
X66538778Y-60700991D01*
X66509448Y-60736729D01*
X66426186Y-60838186D01*
X66324729Y-60921448D01*
X66288991Y-60950778D01*
X66288989Y-60950779D01*
X66132467Y-61034443D01*
X66075853Y-61051616D01*
X65962627Y-61085963D01*
X65896442Y-61092482D01*
X65830260Y-61099000D01*
X65741740Y-61099000D01*
X65675558Y-61092482D01*
X65609373Y-61085963D01*
X65496147Y-61051616D01*
X65439533Y-61034443D01*
X65283011Y-60950779D01*
X65283009Y-60950778D01*
X65247271Y-60921448D01*
X65145814Y-60838186D01*
X65062552Y-60736729D01*
X65033222Y-60700991D01*
X65023652Y-60683087D01*
X64949557Y-60544467D01*
X64929471Y-60478250D01*
X64898037Y-60374627D01*
X64880641Y-60198000D01*
X64898037Y-60021373D01*
X64949557Y-59851534D01*
X64949557Y-59851533D01*
X65033221Y-59695011D01*
X65033222Y-59695009D01*
X65062552Y-59659271D01*
X65145814Y-59557814D01*
X65247271Y-59474552D01*
X65283009Y-59445222D01*
X65300913Y-59435652D01*
X65439533Y-59361557D01*
X65496147Y-59344384D01*
X65609373Y-59310037D01*
X65675558Y-59303518D01*
X65741740Y-59297000D01*
X65830260Y-59297000D01*
X65896442Y-59303518D01*
X65896442Y-59303518D01*
G37*
G36*
X92389000Y-60759000D02*
X90287000Y-60759000D01*
X90287000Y-59157000D01*
X92389000Y-59157000D01*
X92389000Y-60759000D01*
X92389000Y-60759000D01*
G37*
G36*
X98689000Y-59609000D02*
X96587000Y-59609000D01*
X96587000Y-55707000D01*
X98689000Y-55707000D01*
X98689000Y-59609000D01*
X98689000Y-59609000D01*
G37*
G36*
X65896443Y-56763519D02*
X65962627Y-56770037D01*
X66075853Y-56804384D01*
X66132467Y-56821557D01*
X66198775Y-56857000D01*
X66288991Y-56905222D01*
X66324729Y-56934552D01*
X66426186Y-57017814D01*
X66482759Y-57086750D01*
X66538778Y-57155009D01*
X66538779Y-57155011D01*
X66622443Y-57311533D01*
X66622443Y-57311534D01*
X66673963Y-57481373D01*
X66691359Y-57658000D01*
X66673963Y-57834627D01*
X66648489Y-57918604D01*
X66622443Y-58004467D01*
X66586531Y-58071653D01*
X66538778Y-58160991D01*
X66509448Y-58196729D01*
X66426186Y-58298186D01*
X66324729Y-58381448D01*
X66288991Y-58410778D01*
X66288989Y-58410779D01*
X66132467Y-58494443D01*
X66075853Y-58511616D01*
X65962627Y-58545963D01*
X65896443Y-58552481D01*
X65830260Y-58559000D01*
X65741740Y-58559000D01*
X65675557Y-58552481D01*
X65609373Y-58545963D01*
X65496147Y-58511616D01*
X65439533Y-58494443D01*
X65283011Y-58410779D01*
X65283009Y-58410778D01*
X65247271Y-58381448D01*
X65145814Y-58298186D01*
X65062552Y-58196729D01*
X65033222Y-58160991D01*
X64985469Y-58071653D01*
X64949557Y-58004467D01*
X64923511Y-57918604D01*
X64898037Y-57834627D01*
X64880641Y-57658000D01*
X64898037Y-57481373D01*
X64949557Y-57311534D01*
X64949557Y-57311533D01*
X65033221Y-57155011D01*
X65033222Y-57155009D01*
X65089241Y-57086750D01*
X65145814Y-57017814D01*
X65247271Y-56934552D01*
X65283009Y-56905222D01*
X65373225Y-56857000D01*
X65439533Y-56821557D01*
X65496147Y-56804384D01*
X65609373Y-56770037D01*
X65675557Y-56763519D01*
X65741740Y-56757000D01*
X65830260Y-56757000D01*
X65896443Y-56763519D01*
X65896443Y-56763519D01*
G37*
G36*
X101964443Y-56763519D02*
X102030627Y-56770037D01*
X102143853Y-56804384D01*
X102200467Y-56821557D01*
X102266775Y-56857000D01*
X102356991Y-56905222D01*
X102392729Y-56934552D01*
X102494186Y-57017814D01*
X102550759Y-57086750D01*
X102606778Y-57155009D01*
X102606779Y-57155011D01*
X102690443Y-57311533D01*
X102690443Y-57311534D01*
X102741963Y-57481373D01*
X102759359Y-57658000D01*
X102741963Y-57834627D01*
X102716489Y-57918604D01*
X102690443Y-58004467D01*
X102654531Y-58071653D01*
X102606778Y-58160991D01*
X102577448Y-58196729D01*
X102494186Y-58298186D01*
X102392729Y-58381448D01*
X102356991Y-58410778D01*
X102356989Y-58410779D01*
X102200467Y-58494443D01*
X102143853Y-58511616D01*
X102030627Y-58545963D01*
X101964443Y-58552481D01*
X101898260Y-58559000D01*
X101809740Y-58559000D01*
X101743557Y-58552481D01*
X101677373Y-58545963D01*
X101564147Y-58511616D01*
X101507533Y-58494443D01*
X101351011Y-58410779D01*
X101351009Y-58410778D01*
X101315271Y-58381448D01*
X101213814Y-58298186D01*
X101130552Y-58196729D01*
X101101222Y-58160991D01*
X101053469Y-58071653D01*
X101017557Y-58004467D01*
X100991511Y-57918604D01*
X100966037Y-57834627D01*
X100948641Y-57658000D01*
X100966037Y-57481373D01*
X101017557Y-57311534D01*
X101017557Y-57311533D01*
X101101221Y-57155011D01*
X101101222Y-57155009D01*
X101157241Y-57086750D01*
X101213814Y-57017814D01*
X101315271Y-56934552D01*
X101351009Y-56905222D01*
X101441225Y-56857000D01*
X101507533Y-56821557D01*
X101564147Y-56804384D01*
X101677373Y-56770037D01*
X101743557Y-56763519D01*
X101809740Y-56757000D01*
X101898260Y-56757000D01*
X101964443Y-56763519D01*
X101964443Y-56763519D01*
G37*
G36*
X92389000Y-58459000D02*
X90287000Y-58459000D01*
X90287000Y-56857000D01*
X92389000Y-56857000D01*
X92389000Y-58459000D01*
X92389000Y-58459000D01*
G37*
G36*
X81166604Y-56228347D02*
X81203145Y-56239432D01*
X81236820Y-56257431D01*
X81266341Y-56281659D01*
X81290569Y-56311180D01*
X81308568Y-56344855D01*
X81319653Y-56381396D01*
X81324000Y-56425538D01*
X81324000Y-57874462D01*
X81319653Y-57918604D01*
X81308568Y-57955145D01*
X81290569Y-57988820D01*
X81266341Y-58018341D01*
X81236820Y-58042569D01*
X81203145Y-58060568D01*
X81166604Y-58071653D01*
X81122462Y-58076000D01*
X80173538Y-58076000D01*
X80129396Y-58071653D01*
X80092855Y-58060568D01*
X80059180Y-58042569D01*
X80029659Y-58018341D01*
X80005431Y-57988820D01*
X79987432Y-57955145D01*
X79976347Y-57918604D01*
X79972000Y-57874462D01*
X79972000Y-56425538D01*
X79976347Y-56381396D01*
X79987432Y-56344855D01*
X80005431Y-56311180D01*
X80029659Y-56281659D01*
X80059180Y-56257431D01*
X80092855Y-56239432D01*
X80129396Y-56228347D01*
X80173538Y-56224000D01*
X81122462Y-56224000D01*
X81166604Y-56228347D01*
X81166604Y-56228347D01*
G37*
G36*
X78366604Y-56228347D02*
X78403145Y-56239432D01*
X78436820Y-56257431D01*
X78466341Y-56281659D01*
X78490569Y-56311180D01*
X78508568Y-56344855D01*
X78519653Y-56381396D01*
X78524000Y-56425538D01*
X78524000Y-57874462D01*
X78519653Y-57918604D01*
X78508568Y-57955145D01*
X78490569Y-57988820D01*
X78466341Y-58018341D01*
X78436820Y-58042569D01*
X78403145Y-58060568D01*
X78366604Y-58071653D01*
X78322462Y-58076000D01*
X77373538Y-58076000D01*
X77329396Y-58071653D01*
X77292855Y-58060568D01*
X77259180Y-58042569D01*
X77229659Y-58018341D01*
X77205431Y-57988820D01*
X77187432Y-57955145D01*
X77176347Y-57918604D01*
X77172000Y-57874462D01*
X77172000Y-56425538D01*
X77176347Y-56381396D01*
X77187432Y-56344855D01*
X77205431Y-56311180D01*
X77229659Y-56281659D01*
X77259180Y-56257431D01*
X77292855Y-56239432D01*
X77329396Y-56228347D01*
X77373538Y-56224000D01*
X78322462Y-56224000D01*
X78366604Y-56228347D01*
X78366604Y-56228347D01*
G37*
G36*
X76764000Y-57561000D02*
X74112000Y-57561000D01*
X74112000Y-56399000D01*
X76764000Y-56399000D01*
X76764000Y-57561000D01*
X76764000Y-57561000D01*
G37*
G36*
X72212466Y-56283565D02*
X72251137Y-56295296D01*
X72286779Y-56314348D01*
X72318017Y-56339983D01*
X72343652Y-56371221D01*
X72362704Y-56406863D01*
X72374435Y-56445534D01*
X72379000Y-56491888D01*
X72379000Y-57143112D01*
X72374435Y-57189466D01*
X72362704Y-57228137D01*
X72343652Y-57263779D01*
X72318017Y-57295017D01*
X72286779Y-57320652D01*
X72251137Y-57339704D01*
X72212466Y-57351435D01*
X72166112Y-57356000D01*
X71089888Y-57356000D01*
X71043534Y-57351435D01*
X71004863Y-57339704D01*
X70969221Y-57320652D01*
X70937983Y-57295017D01*
X70912348Y-57263779D01*
X70893296Y-57228137D01*
X70881565Y-57189466D01*
X70877000Y-57143112D01*
X70877000Y-56491888D01*
X70881565Y-56445534D01*
X70893296Y-56406863D01*
X70912348Y-56371221D01*
X70937983Y-56339983D01*
X70969221Y-56314348D01*
X71004863Y-56295296D01*
X71043534Y-56283565D01*
X71089888Y-56279000D01*
X72166112Y-56279000D01*
X72212466Y-56283565D01*
X72212466Y-56283565D01*
G37*
G36*
X85203000Y-57027000D02*
X84301000Y-57027000D01*
X84301000Y-54225000D01*
X85203000Y-54225000D01*
X85203000Y-57027000D01*
X85203000Y-57027000D01*
G37*
G36*
X87403000Y-57027000D02*
X86501000Y-57027000D01*
X86501000Y-54225000D01*
X87403000Y-54225000D01*
X87403000Y-57027000D01*
X87403000Y-57027000D01*
G37*
G36*
X92389000Y-56159000D02*
X90287000Y-56159000D01*
X90287000Y-54557000D01*
X92389000Y-54557000D01*
X92389000Y-56159000D01*
X92389000Y-56159000D01*
G37*
G36*
X101964442Y-54223518D02*
X102030627Y-54230037D01*
X102143853Y-54264384D01*
X102200467Y-54281557D01*
X102339087Y-54355652D01*
X102356991Y-54365222D01*
X102392729Y-54394552D01*
X102494186Y-54477814D01*
X102559171Y-54557000D01*
X102606778Y-54615009D01*
X102606779Y-54615011D01*
X102690443Y-54771533D01*
X102690443Y-54771534D01*
X102741963Y-54941373D01*
X102759359Y-55118000D01*
X102741963Y-55294627D01*
X102735847Y-55314788D01*
X102690443Y-55464467D01*
X102616348Y-55603087D01*
X102606778Y-55620991D01*
X102577448Y-55656729D01*
X102494186Y-55758186D01*
X102392729Y-55841448D01*
X102356991Y-55870778D01*
X102356989Y-55870779D01*
X102200467Y-55954443D01*
X102143853Y-55971616D01*
X102030627Y-56005963D01*
X101964443Y-56012481D01*
X101898260Y-56019000D01*
X101809740Y-56019000D01*
X101743557Y-56012481D01*
X101677373Y-56005963D01*
X101564147Y-55971616D01*
X101507533Y-55954443D01*
X101351011Y-55870779D01*
X101351009Y-55870778D01*
X101315271Y-55841448D01*
X101213814Y-55758186D01*
X101130552Y-55656729D01*
X101101222Y-55620991D01*
X101091652Y-55603087D01*
X101017557Y-55464467D01*
X100972153Y-55314788D01*
X100966037Y-55294627D01*
X100948641Y-55118000D01*
X100966037Y-54941373D01*
X101017557Y-54771534D01*
X101017557Y-54771533D01*
X101101221Y-54615011D01*
X101101222Y-54615009D01*
X101148829Y-54557000D01*
X101213814Y-54477814D01*
X101315271Y-54394552D01*
X101351009Y-54365222D01*
X101368913Y-54355652D01*
X101507533Y-54281557D01*
X101564147Y-54264384D01*
X101677373Y-54230037D01*
X101743558Y-54223518D01*
X101809740Y-54217000D01*
X101898260Y-54217000D01*
X101964442Y-54223518D01*
X101964442Y-54223518D01*
G37*
G36*
X65896442Y-54223518D02*
X65962627Y-54230037D01*
X66075853Y-54264384D01*
X66132467Y-54281557D01*
X66271087Y-54355652D01*
X66288991Y-54365222D01*
X66324729Y-54394552D01*
X66426186Y-54477814D01*
X66491171Y-54557000D01*
X66538778Y-54615009D01*
X66538779Y-54615011D01*
X66622443Y-54771533D01*
X66622443Y-54771534D01*
X66673963Y-54941373D01*
X66691359Y-55118000D01*
X66673963Y-55294627D01*
X66667847Y-55314788D01*
X66622443Y-55464467D01*
X66548348Y-55603087D01*
X66538778Y-55620991D01*
X66509448Y-55656729D01*
X66426186Y-55758186D01*
X66324729Y-55841448D01*
X66288991Y-55870778D01*
X66288989Y-55870779D01*
X66132467Y-55954443D01*
X66075853Y-55971616D01*
X65962627Y-56005963D01*
X65896443Y-56012481D01*
X65830260Y-56019000D01*
X65741740Y-56019000D01*
X65675557Y-56012481D01*
X65609373Y-56005963D01*
X65496147Y-55971616D01*
X65439533Y-55954443D01*
X65283011Y-55870779D01*
X65283009Y-55870778D01*
X65247271Y-55841448D01*
X65145814Y-55758186D01*
X65062552Y-55656729D01*
X65033222Y-55620991D01*
X65023652Y-55603087D01*
X64949557Y-55464467D01*
X64904153Y-55314788D01*
X64898037Y-55294627D01*
X64880641Y-55118000D01*
X64898037Y-54941373D01*
X64949557Y-54771534D01*
X64949557Y-54771533D01*
X65033221Y-54615011D01*
X65033222Y-54615009D01*
X65080829Y-54557000D01*
X65145814Y-54477814D01*
X65247271Y-54394552D01*
X65283009Y-54365222D01*
X65300913Y-54355652D01*
X65439533Y-54281557D01*
X65496147Y-54264384D01*
X65609373Y-54230037D01*
X65675558Y-54223518D01*
X65741740Y-54217000D01*
X65830260Y-54217000D01*
X65896442Y-54223518D01*
X65896442Y-54223518D01*
G37*
G36*
X72212466Y-54408565D02*
X72251137Y-54420296D01*
X72286779Y-54439348D01*
X72318017Y-54464983D01*
X72343652Y-54496221D01*
X72362704Y-54531863D01*
X72374435Y-54570534D01*
X72379000Y-54616888D01*
X72379000Y-55268112D01*
X72374435Y-55314466D01*
X72362704Y-55353137D01*
X72343652Y-55388779D01*
X72318017Y-55420017D01*
X72286779Y-55445652D01*
X72251137Y-55464704D01*
X72212466Y-55476435D01*
X72166112Y-55481000D01*
X71089888Y-55481000D01*
X71043534Y-55476435D01*
X71004863Y-55464704D01*
X70969221Y-55445652D01*
X70937983Y-55420017D01*
X70912348Y-55388779D01*
X70893296Y-55353137D01*
X70881565Y-55314466D01*
X70877000Y-55268112D01*
X70877000Y-54616888D01*
X70881565Y-54570534D01*
X70893296Y-54531863D01*
X70912348Y-54496221D01*
X70937983Y-54464983D01*
X70969221Y-54439348D01*
X71004863Y-54420296D01*
X71043534Y-54408565D01*
X71089888Y-54404000D01*
X72166112Y-54404000D01*
X72212466Y-54408565D01*
X72212466Y-54408565D01*
G37*
G36*
X74864000Y-55361000D02*
X74112000Y-55361000D01*
X74112000Y-54199000D01*
X74864000Y-54199000D01*
X74864000Y-55361000D01*
X74864000Y-55361000D01*
G37*
G36*
X76764000Y-55361000D02*
X76012000Y-55361000D01*
X76012000Y-54199000D01*
X76764000Y-54199000D01*
X76764000Y-55361000D01*
X76764000Y-55361000D01*
G37*
G36*
X65896442Y-51683518D02*
X65962627Y-51690037D01*
X66075853Y-51724384D01*
X66132467Y-51741557D01*
X66271087Y-51815652D01*
X66288991Y-51825222D01*
X66324729Y-51854552D01*
X66426186Y-51937814D01*
X66509448Y-52039271D01*
X66538778Y-52075009D01*
X66538779Y-52075011D01*
X66622443Y-52231533D01*
X66622443Y-52231534D01*
X66673963Y-52401373D01*
X66691359Y-52578000D01*
X66673963Y-52754627D01*
X66639616Y-52867853D01*
X66622443Y-52924467D01*
X66548348Y-53063087D01*
X66538778Y-53080991D01*
X66509448Y-53116729D01*
X66426186Y-53218186D01*
X66324729Y-53301448D01*
X66288991Y-53330778D01*
X66288989Y-53330779D01*
X66132467Y-53414443D01*
X66075853Y-53431616D01*
X65962627Y-53465963D01*
X65896443Y-53472481D01*
X65830260Y-53479000D01*
X65741740Y-53479000D01*
X65675557Y-53472481D01*
X65609373Y-53465963D01*
X65496147Y-53431616D01*
X65439533Y-53414443D01*
X65283011Y-53330779D01*
X65283009Y-53330778D01*
X65247271Y-53301448D01*
X65145814Y-53218186D01*
X65062552Y-53116729D01*
X65033222Y-53080991D01*
X65023652Y-53063087D01*
X64949557Y-52924467D01*
X64932384Y-52867853D01*
X64898037Y-52754627D01*
X64880641Y-52578000D01*
X64898037Y-52401373D01*
X64949557Y-52231534D01*
X64949557Y-52231533D01*
X65033221Y-52075011D01*
X65033222Y-52075009D01*
X65062552Y-52039271D01*
X65145814Y-51937814D01*
X65247271Y-51854552D01*
X65283009Y-51825222D01*
X65300913Y-51815652D01*
X65439533Y-51741557D01*
X65496147Y-51724384D01*
X65609373Y-51690037D01*
X65675558Y-51683518D01*
X65741740Y-51677000D01*
X65830260Y-51677000D01*
X65896442Y-51683518D01*
X65896442Y-51683518D01*
G37*
G36*
X101964442Y-51683518D02*
X102030627Y-51690037D01*
X102143853Y-51724384D01*
X102200467Y-51741557D01*
X102339087Y-51815652D01*
X102356991Y-51825222D01*
X102392729Y-51854552D01*
X102494186Y-51937814D01*
X102577448Y-52039271D01*
X102606778Y-52075009D01*
X102606779Y-52075011D01*
X102690443Y-52231533D01*
X102690443Y-52231534D01*
X102741963Y-52401373D01*
X102759359Y-52578000D01*
X102741963Y-52754627D01*
X102707616Y-52867853D01*
X102690443Y-52924467D01*
X102616348Y-53063087D01*
X102606778Y-53080991D01*
X102577448Y-53116729D01*
X102494186Y-53218186D01*
X102392729Y-53301448D01*
X102356991Y-53330778D01*
X102356989Y-53330779D01*
X102200467Y-53414443D01*
X102143853Y-53431616D01*
X102030627Y-53465963D01*
X101964443Y-53472481D01*
X101898260Y-53479000D01*
X101809740Y-53479000D01*
X101743557Y-53472481D01*
X101677373Y-53465963D01*
X101564147Y-53431616D01*
X101507533Y-53414443D01*
X101351011Y-53330779D01*
X101351009Y-53330778D01*
X101315271Y-53301448D01*
X101213814Y-53218186D01*
X101130552Y-53116729D01*
X101101222Y-53080991D01*
X101091652Y-53063087D01*
X101017557Y-52924467D01*
X101000384Y-52867853D01*
X100966037Y-52754627D01*
X100948641Y-52578000D01*
X100966037Y-52401373D01*
X101017557Y-52231534D01*
X101017557Y-52231533D01*
X101101221Y-52075011D01*
X101101222Y-52075009D01*
X101130552Y-52039271D01*
X101213814Y-51937814D01*
X101315271Y-51854552D01*
X101351009Y-51825222D01*
X101368913Y-51815652D01*
X101507533Y-51741557D01*
X101564147Y-51724384D01*
X101677373Y-51690037D01*
X101743558Y-51683518D01*
X101809740Y-51677000D01*
X101898260Y-51677000D01*
X101964442Y-51683518D01*
X101964442Y-51683518D01*
G37*
G36*
X79586000Y-51374000D02*
X79588402Y-51398386D01*
X79595515Y-51421835D01*
X79607066Y-51443446D01*
X79622612Y-51462388D01*
X79641554Y-51477934D01*
X79663165Y-51489485D01*
X79686614Y-51496598D01*
X79711000Y-51499000D01*
X82849000Y-51499000D01*
X82873386Y-51496598D01*
X82896835Y-51489485D01*
X82918446Y-51477934D01*
X82937388Y-51462388D01*
X82952934Y-51443446D01*
X82964485Y-51421835D01*
X82971598Y-51398386D01*
X82974000Y-51374000D01*
X82974000Y-51054000D01*
X84226000Y-51054000D01*
X84226000Y-52606000D01*
X82956000Y-52606000D01*
X82931614Y-52608402D01*
X82908165Y-52615515D01*
X82886554Y-52627066D01*
X82867612Y-52642612D01*
X82852066Y-52661554D01*
X82840515Y-52683165D01*
X82833402Y-52706614D01*
X82831000Y-52731000D01*
X82831000Y-53001000D01*
X79729000Y-53001000D01*
X79729000Y-52731000D01*
X79726598Y-52706614D01*
X79719485Y-52683165D01*
X79707934Y-52661554D01*
X79692388Y-52642612D01*
X79673446Y-52627066D01*
X79651835Y-52615515D01*
X79628386Y-52608402D01*
X79604000Y-52606000D01*
X78334000Y-52606000D01*
X78334000Y-51054000D01*
X79586000Y-51054000D01*
X79586000Y-51374000D01*
X79586000Y-51374000D01*
G37*
G36*
X88005000Y-52721000D02*
X87003000Y-52721000D01*
X87003000Y-51419000D01*
X88005000Y-51419000D01*
X88005000Y-52721000D01*
X88005000Y-52721000D01*
G37*
G36*
X91305000Y-52721000D02*
X90303000Y-52721000D01*
X90303000Y-51419000D01*
X91305000Y-51419000D01*
X91305000Y-52721000D01*
X91305000Y-52721000D01*
G37*
G36*
X98945000Y-50939000D02*
X97143000Y-50939000D01*
X97143000Y-49137000D01*
X98945000Y-49137000D01*
X98945000Y-50939000D01*
X98945000Y-50939000D01*
G37*
G36*
X70243000Y-50939000D02*
X68441000Y-50939000D01*
X68441000Y-49137000D01*
X70243000Y-49137000D01*
X70243000Y-50939000D01*
X70243000Y-50939000D01*
G37*
G36*
X66687000Y-50939000D02*
X64885000Y-50939000D01*
X64885000Y-49137000D01*
X66687000Y-49137000D01*
X66687000Y-50939000D01*
X66687000Y-50939000D01*
G37*
G36*
X102755000Y-50939000D02*
X100953000Y-50939000D01*
X100953000Y-49137000D01*
X102755000Y-49137000D01*
X102755000Y-50939000D01*
X102755000Y-50939000D01*
G37*
G36*
X77817916Y-48607334D02*
X77926492Y-48640271D01*
X78026557Y-48693756D01*
X78114264Y-48765736D01*
X78186244Y-48853443D01*
X78239729Y-48953508D01*
X78272666Y-49062084D01*
X78281000Y-49146702D01*
X78281000Y-50053298D01*
X78272666Y-50137916D01*
X78239729Y-50246492D01*
X78186244Y-50346557D01*
X78114264Y-50434264D01*
X78026556Y-50506244D01*
X77926491Y-50559729D01*
X77817915Y-50592666D01*
X77705000Y-50603787D01*
X77592084Y-50592666D01*
X77483508Y-50559729D01*
X77383443Y-50506244D01*
X77295736Y-50434264D01*
X77223756Y-50346556D01*
X77170271Y-50246491D01*
X77137334Y-50137915D01*
X77129000Y-50053297D01*
X77129000Y-49146702D01*
X77137335Y-49062084D01*
X77170272Y-48953508D01*
X77223757Y-48853443D01*
X77295737Y-48765736D01*
X77383444Y-48693756D01*
X77483509Y-48640271D01*
X77592085Y-48607334D01*
X77705000Y-48596213D01*
X77817916Y-48607334D01*
X77817916Y-48607334D01*
G37*
G36*
X84967915Y-48607334D02*
X85076491Y-48640271D01*
X85176556Y-48693756D01*
X85264264Y-48765736D01*
X85336244Y-48853443D01*
X85389729Y-48953508D01*
X85422666Y-49062084D01*
X85431000Y-49146702D01*
X85431000Y-50053298D01*
X85422666Y-50137916D01*
X85389729Y-50246492D01*
X85336244Y-50346557D01*
X85264264Y-50434264D01*
X85176557Y-50506244D01*
X85076492Y-50559729D01*
X84967916Y-50592666D01*
X84855000Y-50603787D01*
X84742085Y-50592666D01*
X84633509Y-50559729D01*
X84533444Y-50506244D01*
X84445737Y-50434264D01*
X84373757Y-50346557D01*
X84320272Y-50246492D01*
X84287335Y-50137916D01*
X84279000Y-50053298D01*
X84279000Y-49146703D01*
X84287334Y-49062085D01*
X84320271Y-48953509D01*
X84373756Y-48853444D01*
X84445736Y-48765736D01*
X84533443Y-48693756D01*
X84633508Y-48640271D01*
X84742084Y-48607334D01*
X84855000Y-48596213D01*
X84967915Y-48607334D01*
X84967915Y-48607334D01*
G37*
G36*
X81081000Y-50601000D02*
X79229000Y-50601000D01*
X79229000Y-48599000D01*
X81081000Y-48599000D01*
X81081000Y-50601000D01*
X81081000Y-50601000D01*
G37*
G36*
X83331000Y-50601000D02*
X81479000Y-50601000D01*
X81479000Y-48599000D01*
X83331000Y-48599000D01*
X83331000Y-50601000D01*
X83331000Y-50601000D01*
G37*
M02*
