M48
;DRILL file {KiCad (5.0.1)-3} date 8/21/2019 9:16:33 AM
;FORMAT={-:-/ absolute / inch / decimal}
FMAT,2
INCH,TZ
T1C0.0157
T2C0.0177
T3C0.0394
%
G90
G05
M72
T1
X2.69Y-2.35
X2.72Y-2.09
X2.73Y-2.35
X2.76Y-2.09
X2.76Y-2.75
X2.77Y-2.35
X2.77Y-2.53
X2.8Y-2.09
X2.8Y-2.42
X2.82Y-2.28
X2.91Y-2.63
X2.91Y-2.67
X2.91Y-2.71
X2.97Y-2.29
X3.12Y-2.29
X3.1492Y-2.1007
X3.15Y-2.5319
X3.21Y-2.57
X3.22Y-2.77
X3.23Y-2.46
X3.33Y-2.54
X3.33Y-2.6213
X3.33Y-2.84
X3.37Y-2.39
X3.38Y-2.54
X3.41Y-2.68
X3.44Y-1.99
X3.52Y-2.18
X3.53Y-2.34
X3.53Y-2.38
X3.53Y-2.66
X3.53Y-2.71
X3.66Y-2.34
X3.66Y-2.38
X3.66Y-2.66
X3.66Y-2.71
X3.76Y-2.05
X3.76Y-2.09
X3.76Y-2.13
X3.76Y-2.39
X3.76Y-2.43
X3.76Y-2.47
X3.85Y-2.39
X3.85Y-2.43
X3.85Y-2.47
T3
X3.86Y-1.97
X4.01Y-1.97
X4.01Y-2.07
X4.01Y-2.17
X4.01Y-2.27
X4.01Y-2.37
X4.01Y-2.47
X4.01Y-2.57
X4.01Y-2.67
X4.01Y-2.77
X4.01Y-2.87
X3.88Y-2.87
X2.73Y-1.97
X2.59Y-1.97
X2.59Y-2.07
X2.59Y-2.17
X2.59Y-2.27
X2.59Y-2.37
X2.59Y-2.47
X2.59Y-2.57
X2.59Y-2.67
X2.59Y-2.77
X2.59Y-2.87
X2.73Y-2.85
T2
X3.0593Y-1.9685G85X3.0593Y-1.937
G05
X3.3407Y-1.937G85X3.3407Y-1.9685
G05
T0
M30
