G04 #@! TF.GenerationSoftware,KiCad,Pcbnew,(5.0.1)-3*
G04 #@! TF.CreationDate,2019-08-21T09:16:30-04:00*
G04 #@! TF.ProjectId,BMS Module,424D53204D6F64756C652E6B69636164,rev?*
G04 #@! TF.SameCoordinates,Original*
G04 #@! TF.FileFunction,Legend,Top*
G04 #@! TF.FilePolarity,Positive*
%FSLAX46Y46*%
G04 Gerber Fmt 4.6, Leading zero omitted, Abs format (unit mm)*
G04 Created by KiCad (PCBNEW (5.0.1)-3) date 8/21/2019 9:16:30 AM*
%MOMM*%
%LPD*%
G01*
G04 APERTURE LIST*
%ADD10C,0.300000*%
%ADD11C,0.200000*%
%ADD12C,0.120000*%
%ADD13C,0.150000*%
G04 APERTURE END LIST*
D10*
X72517142Y-48526000D02*
X72374285Y-48454571D01*
X72160000Y-48454571D01*
X71945714Y-48526000D01*
X71802857Y-48668857D01*
X71731428Y-48811714D01*
X71660000Y-49097428D01*
X71660000Y-49311714D01*
X71731428Y-49597428D01*
X71802857Y-49740285D01*
X71945714Y-49883142D01*
X72160000Y-49954571D01*
X72302857Y-49954571D01*
X72517142Y-49883142D01*
X72588571Y-49811714D01*
X72588571Y-49311714D01*
X72302857Y-49311714D01*
X73231428Y-49954571D02*
X73231428Y-48454571D01*
X74088571Y-49954571D01*
X74088571Y-48454571D01*
X74802857Y-49954571D02*
X74802857Y-48454571D01*
X75160000Y-48454571D01*
X75374285Y-48526000D01*
X75517142Y-48668857D01*
X75588571Y-48811714D01*
X75660000Y-49097428D01*
X75660000Y-49311714D01*
X75588571Y-49597428D01*
X75517142Y-49740285D01*
X75374285Y-49883142D01*
X75160000Y-49954571D01*
X74802857Y-49954571D01*
X72132285Y-72790857D02*
X72346571Y-72862285D01*
X72418000Y-72933714D01*
X72489428Y-73076571D01*
X72489428Y-73290857D01*
X72418000Y-73433714D01*
X72346571Y-73505142D01*
X72203714Y-73576571D01*
X71632285Y-73576571D01*
X71632285Y-72076571D01*
X72132285Y-72076571D01*
X72275142Y-72148000D01*
X72346571Y-72219428D01*
X72418000Y-72362285D01*
X72418000Y-72505142D01*
X72346571Y-72648000D01*
X72275142Y-72719428D01*
X72132285Y-72790857D01*
X71632285Y-72790857D01*
X73060857Y-73148000D02*
X73775142Y-73148000D01*
X72918000Y-73576571D02*
X73418000Y-72076571D01*
X73918000Y-73576571D01*
X74203714Y-72076571D02*
X75060857Y-72076571D01*
X74632285Y-73576571D02*
X74632285Y-72076571D01*
X75560857Y-73005142D02*
X76703714Y-73005142D01*
X76132285Y-73576571D02*
X76132285Y-72433714D01*
D11*
X71120000Y-51562000D02*
X71120000Y-46736000D01*
X67310000Y-51562000D02*
X71120000Y-51562000D01*
X67310000Y-61468000D02*
X67310000Y-51562000D01*
X67310000Y-61468000D02*
X62992000Y-61468000D01*
X67310000Y-70612000D02*
X67310000Y-61468000D01*
X70866000Y-70612000D02*
X67310000Y-70612000D01*
X70866000Y-75184000D02*
X70866000Y-70612000D01*
D10*
X94456285Y-72076571D02*
X93742000Y-72076571D01*
X93670571Y-72790857D01*
X93742000Y-72719428D01*
X93884857Y-72648000D01*
X94242000Y-72648000D01*
X94384857Y-72719428D01*
X94456285Y-72790857D01*
X94527714Y-72933714D01*
X94527714Y-73290857D01*
X94456285Y-73433714D01*
X94384857Y-73505142D01*
X94242000Y-73576571D01*
X93884857Y-73576571D01*
X93742000Y-73505142D01*
X93670571Y-73433714D01*
X94956285Y-72076571D02*
X95456285Y-73576571D01*
X95956285Y-72076571D01*
X93091142Y-48526000D02*
X92948285Y-48454571D01*
X92734000Y-48454571D01*
X92519714Y-48526000D01*
X92376857Y-48668857D01*
X92305428Y-48811714D01*
X92234000Y-49097428D01*
X92234000Y-49311714D01*
X92305428Y-49597428D01*
X92376857Y-49740285D01*
X92519714Y-49883142D01*
X92734000Y-49954571D01*
X92876857Y-49954571D01*
X93091142Y-49883142D01*
X93162571Y-49811714D01*
X93162571Y-49311714D01*
X92876857Y-49311714D01*
X93805428Y-49954571D02*
X93805428Y-48454571D01*
X94662571Y-49954571D01*
X94662571Y-48454571D01*
X95376857Y-49954571D02*
X95376857Y-48454571D01*
X95734000Y-48454571D01*
X95948285Y-48526000D01*
X96091142Y-48668857D01*
X96162571Y-48811714D01*
X96234000Y-49097428D01*
X96234000Y-49311714D01*
X96162571Y-49597428D01*
X96091142Y-49740285D01*
X95948285Y-49883142D01*
X95734000Y-49954571D01*
X95376857Y-49954571D01*
D11*
X96774000Y-51308000D02*
X96774000Y-46736000D01*
X99568000Y-51308000D02*
X96774000Y-51308000D01*
X99568000Y-61468000D02*
X99568000Y-51308000D01*
X96774000Y-69342000D02*
X96774000Y-74930000D01*
X99568000Y-69342000D02*
X96774000Y-69342000D01*
X99568000Y-61468000D02*
X99568000Y-69342000D01*
X102870000Y-61468000D02*
X99568000Y-61468000D01*
D12*
G04 #@! TO.C,J4*
X85090000Y-52510000D02*
X84430000Y-52510000D01*
X85090000Y-50780000D02*
X85090000Y-52510000D01*
X77470000Y-48210000D02*
X77470000Y-48420000D01*
X85090000Y-48210000D02*
X85090000Y-48420000D01*
X77470000Y-50780000D02*
X77470000Y-52510000D01*
X77470000Y-52510000D02*
X78120000Y-52510000D01*
X83040000Y-53210000D02*
X82590000Y-53210000D01*
X83040000Y-53210000D02*
X83040000Y-52820000D01*
G04 #@! TO.C,F1*
X78645936Y-56240000D02*
X79850064Y-56240000D01*
X78645936Y-58060000D02*
X79850064Y-58060000D01*
G04 #@! TO.C,C2*
X84995936Y-59092000D02*
X86200064Y-59092000D01*
X84995936Y-61812000D02*
X86200064Y-61812000D01*
G04 #@! TO.C,C3*
X78645936Y-71718000D02*
X79850064Y-71718000D01*
X78645936Y-68998000D02*
X79850064Y-68998000D01*
G04 #@! TO.C,C1*
X68998000Y-67658064D02*
X68998000Y-66453936D01*
X71718000Y-67658064D02*
X71718000Y-66453936D01*
G04 #@! TO.C,J1*
X68012000Y-71060000D02*
X69342000Y-71060000D01*
X68012000Y-72390000D02*
X68012000Y-71060000D01*
X68012000Y-73660000D02*
X70672000Y-73660000D01*
X70672000Y-73660000D02*
X70672000Y-73720000D01*
X68012000Y-73660000D02*
X68012000Y-73720000D01*
X68012000Y-73720000D02*
X70672000Y-73720000D01*
G04 #@! TO.C,J3*
X68012000Y-51368000D02*
X70672000Y-51368000D01*
X68012000Y-51308000D02*
X68012000Y-51368000D01*
X70672000Y-51308000D02*
X70672000Y-51368000D01*
X68012000Y-51308000D02*
X70672000Y-51308000D01*
X68012000Y-50038000D02*
X68012000Y-48708000D01*
X68012000Y-48708000D02*
X69342000Y-48708000D01*
G04 #@! TO.C,J6*
X97222000Y-71568000D02*
X98552000Y-71568000D01*
X97222000Y-72898000D02*
X97222000Y-71568000D01*
X97222000Y-74168000D02*
X99882000Y-74168000D01*
X99882000Y-74168000D02*
X99882000Y-74228000D01*
X97222000Y-74168000D02*
X97222000Y-74228000D01*
X97222000Y-74228000D02*
X99882000Y-74228000D01*
G04 #@! TO.C,J7*
X96714000Y-51368000D02*
X99374000Y-51368000D01*
X96714000Y-51308000D02*
X96714000Y-51368000D01*
X99374000Y-51308000D02*
X99374000Y-51368000D01*
X96714000Y-51308000D02*
X99374000Y-51308000D01*
X96714000Y-50038000D02*
X96714000Y-48708000D01*
X96714000Y-48708000D02*
X98044000Y-48708000D01*
G04 #@! TO.C,J5*
X100524000Y-48708000D02*
X101854000Y-48708000D01*
X100524000Y-50038000D02*
X100524000Y-48708000D01*
X100524000Y-51308000D02*
X103184000Y-51308000D01*
X103184000Y-51308000D02*
X103184000Y-74228000D01*
X100524000Y-51308000D02*
X100524000Y-74228000D01*
X100524000Y-74228000D02*
X103184000Y-74228000D01*
G04 #@! TO.C,J2*
X64456000Y-74228000D02*
X67116000Y-74228000D01*
X64456000Y-51308000D02*
X64456000Y-74228000D01*
X67116000Y-51308000D02*
X67116000Y-74228000D01*
X64456000Y-51308000D02*
X67116000Y-51308000D01*
X64456000Y-50038000D02*
X64456000Y-48708000D01*
X64456000Y-48708000D02*
X65786000Y-48708000D01*
G04 #@! TO.C,D1*
X86904000Y-51070000D02*
X86904000Y-53070000D01*
X86904000Y-53070000D02*
X90804000Y-53070000D01*
X86904000Y-51070000D02*
X90804000Y-51070000D01*
G04 #@! TO.C,L1*
X84352000Y-54026000D02*
X87352000Y-54026000D01*
X84352000Y-57226000D02*
X87352000Y-57226000D01*
D13*
G04 #@! TO.C,U3*
X83669000Y-63857000D02*
X83669000Y-64032000D01*
X87019000Y-63857000D02*
X87019000Y-64107000D01*
X87019000Y-67207000D02*
X87019000Y-66957000D01*
X83669000Y-67207000D02*
X83669000Y-66957000D01*
X83669000Y-63857000D02*
X87019000Y-63857000D01*
X83669000Y-67207000D02*
X87019000Y-67207000D01*
X83669000Y-64032000D02*
X82419000Y-64032000D01*
D12*
G04 #@! TO.C,U4*
X90388000Y-54248000D02*
X96398000Y-54248000D01*
X92638000Y-61068000D02*
X96398000Y-61068000D01*
X96398000Y-54248000D02*
X96398000Y-55508000D01*
X96398000Y-61068000D02*
X96398000Y-59808000D01*
G04 #@! TO.C,U5*
X96398000Y-69196000D02*
X96398000Y-67936000D01*
X96398000Y-62376000D02*
X96398000Y-63636000D01*
X92638000Y-69196000D02*
X96398000Y-69196000D01*
X90388000Y-62376000D02*
X96398000Y-62376000D01*
G04 #@! TO.C,U1*
X73828000Y-54980000D02*
X73828000Y-57430000D01*
X77048000Y-56780000D02*
X77048000Y-54980000D01*
G04 #@! TO.C,U2*
X71542000Y-61584000D02*
X71542000Y-63384000D01*
X74762000Y-63384000D02*
X74762000Y-60934000D01*
G04 #@! TO.C,R3*
X87324000Y-70362578D02*
X87324000Y-69845422D01*
X85904000Y-70362578D02*
X85904000Y-69845422D01*
G04 #@! TO.C,R4*
X72338000Y-55621422D02*
X72338000Y-56138578D01*
X70918000Y-55621422D02*
X70918000Y-56138578D01*
G04 #@! TO.C,R2*
X83872000Y-69845422D02*
X83872000Y-70362578D01*
X85292000Y-69845422D02*
X85292000Y-70362578D01*
G04 #@! TO.C,R1*
X78735422Y-60250000D02*
X79252578Y-60250000D01*
X78735422Y-61670000D02*
X79252578Y-61670000D01*
G04 #@! TO.C,J4*
D13*
X80946666Y-53552380D02*
X80946666Y-54266666D01*
X80899047Y-54409523D01*
X80803809Y-54504761D01*
X80660952Y-54552380D01*
X80565714Y-54552380D01*
X81851428Y-53885714D02*
X81851428Y-54552380D01*
X81613333Y-53504761D02*
X81375238Y-54219047D01*
X81994285Y-54219047D01*
G04 #@! TO.C,F1*
X78914666Y-55258571D02*
X78581333Y-55258571D01*
X78581333Y-55782380D02*
X78581333Y-54782380D01*
X79057523Y-54782380D01*
X79962285Y-55782380D02*
X79390857Y-55782380D01*
X79676571Y-55782380D02*
X79676571Y-54782380D01*
X79581333Y-54925238D01*
X79486095Y-55020476D01*
X79390857Y-55068095D01*
G04 #@! TO.C,C2*
X85431333Y-58529142D02*
X85383714Y-58576761D01*
X85240857Y-58624380D01*
X85145619Y-58624380D01*
X85002761Y-58576761D01*
X84907523Y-58481523D01*
X84859904Y-58386285D01*
X84812285Y-58195809D01*
X84812285Y-58052952D01*
X84859904Y-57862476D01*
X84907523Y-57767238D01*
X85002761Y-57672000D01*
X85145619Y-57624380D01*
X85240857Y-57624380D01*
X85383714Y-57672000D01*
X85431333Y-57719619D01*
X85812285Y-57719619D02*
X85859904Y-57672000D01*
X85955142Y-57624380D01*
X86193238Y-57624380D01*
X86288476Y-57672000D01*
X86336095Y-57719619D01*
X86383714Y-57814857D01*
X86383714Y-57910095D01*
X86336095Y-58052952D01*
X85764666Y-58624380D01*
X86383714Y-58624380D01*
G04 #@! TO.C,C3*
X79081333Y-68435142D02*
X79033714Y-68482761D01*
X78890857Y-68530380D01*
X78795619Y-68530380D01*
X78652761Y-68482761D01*
X78557523Y-68387523D01*
X78509904Y-68292285D01*
X78462285Y-68101809D01*
X78462285Y-67958952D01*
X78509904Y-67768476D01*
X78557523Y-67673238D01*
X78652761Y-67578000D01*
X78795619Y-67530380D01*
X78890857Y-67530380D01*
X79033714Y-67578000D01*
X79081333Y-67625619D01*
X79414666Y-67530380D02*
X80033714Y-67530380D01*
X79700380Y-67911333D01*
X79843238Y-67911333D01*
X79938476Y-67958952D01*
X79986095Y-68006571D01*
X80033714Y-68101809D01*
X80033714Y-68339904D01*
X79986095Y-68435142D01*
X79938476Y-68482761D01*
X79843238Y-68530380D01*
X79557523Y-68530380D01*
X79462285Y-68482761D01*
X79414666Y-68435142D01*
G04 #@! TO.C,C1*
X70191333Y-64365142D02*
X70143714Y-64412761D01*
X70000857Y-64460380D01*
X69905619Y-64460380D01*
X69762761Y-64412761D01*
X69667523Y-64317523D01*
X69619904Y-64222285D01*
X69572285Y-64031809D01*
X69572285Y-63888952D01*
X69619904Y-63698476D01*
X69667523Y-63603238D01*
X69762761Y-63508000D01*
X69905619Y-63460380D01*
X70000857Y-63460380D01*
X70143714Y-63508000D01*
X70191333Y-63555619D01*
X71143714Y-64460380D02*
X70572285Y-64460380D01*
X70858000Y-64460380D02*
X70858000Y-63460380D01*
X70762761Y-63603238D01*
X70667523Y-63698476D01*
X70572285Y-63746095D01*
G04 #@! TO.C,J1*
X69008666Y-69512380D02*
X69008666Y-70226666D01*
X68961047Y-70369523D01*
X68865809Y-70464761D01*
X68722952Y-70512380D01*
X68627714Y-70512380D01*
X70008666Y-70512380D02*
X69437238Y-70512380D01*
X69722952Y-70512380D02*
X69722952Y-69512380D01*
X69627714Y-69655238D01*
X69532476Y-69750476D01*
X69437238Y-69798095D01*
G04 #@! TO.C,J3*
X69008666Y-52538380D02*
X69008666Y-53252666D01*
X68961047Y-53395523D01*
X68865809Y-53490761D01*
X68722952Y-53538380D01*
X68627714Y-53538380D01*
X69389619Y-52538380D02*
X70008666Y-52538380D01*
X69675333Y-52919333D01*
X69818190Y-52919333D01*
X69913428Y-52966952D01*
X69961047Y-53014571D01*
X70008666Y-53109809D01*
X70008666Y-53347904D01*
X69961047Y-53443142D01*
X69913428Y-53490761D01*
X69818190Y-53538380D01*
X69532476Y-53538380D01*
X69437238Y-53490761D01*
X69389619Y-53443142D01*
G04 #@! TO.C,J6*
X98218666Y-70020380D02*
X98218666Y-70734666D01*
X98171047Y-70877523D01*
X98075809Y-70972761D01*
X97932952Y-71020380D01*
X97837714Y-71020380D01*
X99123428Y-70020380D02*
X98932952Y-70020380D01*
X98837714Y-70068000D01*
X98790095Y-70115619D01*
X98694857Y-70258476D01*
X98647238Y-70448952D01*
X98647238Y-70829904D01*
X98694857Y-70925142D01*
X98742476Y-70972761D01*
X98837714Y-71020380D01*
X99028190Y-71020380D01*
X99123428Y-70972761D01*
X99171047Y-70925142D01*
X99218666Y-70829904D01*
X99218666Y-70591809D01*
X99171047Y-70496571D01*
X99123428Y-70448952D01*
X99028190Y-70401333D01*
X98837714Y-70401333D01*
X98742476Y-70448952D01*
X98694857Y-70496571D01*
X98647238Y-70591809D01*
G04 #@! TO.C,J7*
X97710666Y-52030380D02*
X97710666Y-52744666D01*
X97663047Y-52887523D01*
X97567809Y-52982761D01*
X97424952Y-53030380D01*
X97329714Y-53030380D01*
X98091619Y-52030380D02*
X98758285Y-52030380D01*
X98329714Y-53030380D01*
G04 #@! TO.C,J5*
X99488666Y-54316380D02*
X99488666Y-55030666D01*
X99441047Y-55173523D01*
X99345809Y-55268761D01*
X99202952Y-55316380D01*
X99107714Y-55316380D01*
X100441047Y-54316380D02*
X99964857Y-54316380D01*
X99917238Y-54792571D01*
X99964857Y-54744952D01*
X100060095Y-54697333D01*
X100298190Y-54697333D01*
X100393428Y-54744952D01*
X100441047Y-54792571D01*
X100488666Y-54887809D01*
X100488666Y-55125904D01*
X100441047Y-55221142D01*
X100393428Y-55268761D01*
X100298190Y-55316380D01*
X100060095Y-55316380D01*
X99964857Y-55268761D01*
X99917238Y-55221142D01*
G04 #@! TO.C,J2*
X67992666Y-54316380D02*
X67992666Y-55030666D01*
X67945047Y-55173523D01*
X67849809Y-55268761D01*
X67706952Y-55316380D01*
X67611714Y-55316380D01*
X68421238Y-54411619D02*
X68468857Y-54364000D01*
X68564095Y-54316380D01*
X68802190Y-54316380D01*
X68897428Y-54364000D01*
X68945047Y-54411619D01*
X68992666Y-54506857D01*
X68992666Y-54602095D01*
X68945047Y-54744952D01*
X68373619Y-55316380D01*
X68992666Y-55316380D01*
G04 #@! TO.C,D1*
X88415904Y-50522380D02*
X88415904Y-49522380D01*
X88654000Y-49522380D01*
X88796857Y-49570000D01*
X88892095Y-49665238D01*
X88939714Y-49760476D01*
X88987333Y-49950952D01*
X88987333Y-50093809D01*
X88939714Y-50284285D01*
X88892095Y-50379523D01*
X88796857Y-50474761D01*
X88654000Y-50522380D01*
X88415904Y-50522380D01*
X89939714Y-50522380D02*
X89368285Y-50522380D01*
X89654000Y-50522380D02*
X89654000Y-49522380D01*
X89558761Y-49665238D01*
X89463523Y-49760476D01*
X89368285Y-49808095D01*
G04 #@! TO.C,L1*
X88733333Y-56078380D02*
X88257142Y-56078380D01*
X88257142Y-55078380D01*
X89590476Y-56078380D02*
X89019047Y-56078380D01*
X89304761Y-56078380D02*
X89304761Y-55078380D01*
X89209523Y-55221238D01*
X89114285Y-55316476D01*
X89019047Y-55364095D01*
G04 #@! TO.C,U3*
X84582095Y-62384380D02*
X84582095Y-63193904D01*
X84629714Y-63289142D01*
X84677333Y-63336761D01*
X84772571Y-63384380D01*
X84963047Y-63384380D01*
X85058285Y-63336761D01*
X85105904Y-63289142D01*
X85153523Y-63193904D01*
X85153523Y-62384380D01*
X85534476Y-62384380D02*
X86153523Y-62384380D01*
X85820190Y-62765333D01*
X85963047Y-62765333D01*
X86058285Y-62812952D01*
X86105904Y-62860571D01*
X86153523Y-62955809D01*
X86153523Y-63193904D01*
X86105904Y-63289142D01*
X86058285Y-63336761D01*
X85963047Y-63384380D01*
X85677333Y-63384380D01*
X85582095Y-63336761D01*
X85534476Y-63289142D01*
G04 #@! TO.C,U4*
X97028095Y-54316380D02*
X97028095Y-55125904D01*
X97075714Y-55221142D01*
X97123333Y-55268761D01*
X97218571Y-55316380D01*
X97409047Y-55316380D01*
X97504285Y-55268761D01*
X97551904Y-55221142D01*
X97599523Y-55125904D01*
X97599523Y-54316380D01*
X98504285Y-54649714D02*
X98504285Y-55316380D01*
X98266190Y-54268761D02*
X98028095Y-54983047D01*
X98647142Y-54983047D01*
G04 #@! TO.C,U5*
X96774095Y-62444380D02*
X96774095Y-63253904D01*
X96821714Y-63349142D01*
X96869333Y-63396761D01*
X96964571Y-63444380D01*
X97155047Y-63444380D01*
X97250285Y-63396761D01*
X97297904Y-63349142D01*
X97345523Y-63253904D01*
X97345523Y-62444380D01*
X98297904Y-62444380D02*
X97821714Y-62444380D01*
X97774095Y-62920571D01*
X97821714Y-62872952D01*
X97916952Y-62825333D01*
X98155047Y-62825333D01*
X98250285Y-62872952D01*
X98297904Y-62920571D01*
X98345523Y-63015809D01*
X98345523Y-63253904D01*
X98297904Y-63349142D01*
X98250285Y-63396761D01*
X98155047Y-63444380D01*
X97916952Y-63444380D01*
X97821714Y-63396761D01*
X97774095Y-63349142D01*
G04 #@! TO.C,U1*
X74676095Y-52284380D02*
X74676095Y-53093904D01*
X74723714Y-53189142D01*
X74771333Y-53236761D01*
X74866571Y-53284380D01*
X75057047Y-53284380D01*
X75152285Y-53236761D01*
X75199904Y-53189142D01*
X75247523Y-53093904D01*
X75247523Y-52284380D01*
X76247523Y-53284380D02*
X75676095Y-53284380D01*
X75961809Y-53284380D02*
X75961809Y-52284380D01*
X75866571Y-52427238D01*
X75771333Y-52522476D01*
X75676095Y-52570095D01*
G04 #@! TO.C,U2*
X72604380Y-60197904D02*
X73413904Y-60197904D01*
X73509142Y-60150285D01*
X73556761Y-60102666D01*
X73604380Y-60007428D01*
X73604380Y-59816952D01*
X73556761Y-59721714D01*
X73509142Y-59674095D01*
X73413904Y-59626476D01*
X72604380Y-59626476D01*
X72699619Y-59197904D02*
X72652000Y-59150285D01*
X72604380Y-59055047D01*
X72604380Y-58816952D01*
X72652000Y-58721714D01*
X72699619Y-58674095D01*
X72794857Y-58626476D01*
X72890095Y-58626476D01*
X73032952Y-58674095D01*
X73604380Y-59245523D01*
X73604380Y-58626476D01*
G04 #@! TO.C,R3*
X88844380Y-70270666D02*
X88368190Y-70604000D01*
X88844380Y-70842095D02*
X87844380Y-70842095D01*
X87844380Y-70461142D01*
X87892000Y-70365904D01*
X87939619Y-70318285D01*
X88034857Y-70270666D01*
X88177714Y-70270666D01*
X88272952Y-70318285D01*
X88320571Y-70365904D01*
X88368190Y-70461142D01*
X88368190Y-70842095D01*
X87844380Y-69937333D02*
X87844380Y-69318285D01*
X88225333Y-69651619D01*
X88225333Y-69508761D01*
X88272952Y-69413523D01*
X88320571Y-69365904D01*
X88415809Y-69318285D01*
X88653904Y-69318285D01*
X88749142Y-69365904D01*
X88796761Y-69413523D01*
X88844380Y-69508761D01*
X88844380Y-69794476D01*
X88796761Y-69889714D01*
X88749142Y-69937333D01*
G04 #@! TO.C,R4*
X71461333Y-53538380D02*
X71128000Y-53062190D01*
X70889904Y-53538380D02*
X70889904Y-52538380D01*
X71270857Y-52538380D01*
X71366095Y-52586000D01*
X71413714Y-52633619D01*
X71461333Y-52728857D01*
X71461333Y-52871714D01*
X71413714Y-52966952D01*
X71366095Y-53014571D01*
X71270857Y-53062190D01*
X70889904Y-53062190D01*
X72318476Y-52871714D02*
X72318476Y-53538380D01*
X72080380Y-52490761D02*
X71842285Y-53205047D01*
X72461333Y-53205047D01*
G04 #@! TO.C,R2*
X83510380Y-70270666D02*
X83034190Y-70604000D01*
X83510380Y-70842095D02*
X82510380Y-70842095D01*
X82510380Y-70461142D01*
X82558000Y-70365904D01*
X82605619Y-70318285D01*
X82700857Y-70270666D01*
X82843714Y-70270666D01*
X82938952Y-70318285D01*
X82986571Y-70365904D01*
X83034190Y-70461142D01*
X83034190Y-70842095D01*
X82605619Y-69889714D02*
X82558000Y-69842095D01*
X82510380Y-69746857D01*
X82510380Y-69508761D01*
X82558000Y-69413523D01*
X82605619Y-69365904D01*
X82700857Y-69318285D01*
X82796095Y-69318285D01*
X82938952Y-69365904D01*
X83510380Y-69937333D01*
X83510380Y-69318285D01*
G04 #@! TO.C,R1*
X78827333Y-59762380D02*
X78494000Y-59286190D01*
X78255904Y-59762380D02*
X78255904Y-58762380D01*
X78636857Y-58762380D01*
X78732095Y-58810000D01*
X78779714Y-58857619D01*
X78827333Y-58952857D01*
X78827333Y-59095714D01*
X78779714Y-59190952D01*
X78732095Y-59238571D01*
X78636857Y-59286190D01*
X78255904Y-59286190D01*
X79779714Y-59762380D02*
X79208285Y-59762380D01*
X79494000Y-59762380D02*
X79494000Y-58762380D01*
X79398761Y-58905238D01*
X79303523Y-59000476D01*
X79208285Y-59048095D01*
G04 #@! TD*
M02*
