G04 #@! TF.GenerationSoftware,KiCad,Pcbnew,(5.0.1)-3*
G04 #@! TF.CreationDate,2019-08-21T09:16:29-04:00*
G04 #@! TF.ProjectId,BMS Module,424D53204D6F64756C652E6B69636164,rev?*
G04 #@! TF.SameCoordinates,Original*
G04 #@! TF.FileFunction,Paste,Top*
G04 #@! TF.FilePolarity,Positive*
%FSLAX46Y46*%
G04 Gerber Fmt 4.6, Leading zero omitted, Abs format (unit mm)*
G04 Created by KiCad (PCBNEW (5.0.1)-3) date 8/21/2019 9:16:29 AM*
%MOMM*%
%LPD*%
G01*
G04 APERTURE LIST*
%ADD10R,1.750000X1.900000*%
%ADD11R,0.400000X1.400000*%
%ADD12R,1.150000X1.450000*%
%ADD13C,0.100000*%
%ADD14C,1.250000*%
%ADD15R,0.900000X1.200000*%
%ADD16R,0.800000X2.700000*%
%ADD17R,1.450000X0.450000*%
%ADD18R,2.000000X1.500000*%
%ADD19R,2.000000X3.800000*%
%ADD20R,0.650000X1.060000*%
%ADD21C,0.975000*%
G04 APERTURE END LIST*
D10*
G04 #@! TO.C,J4*
X80155000Y-49600000D03*
D11*
X81930000Y-52250000D03*
X82580000Y-52250000D03*
X79980000Y-52250000D03*
X80630000Y-52250000D03*
X81280000Y-52250000D03*
D10*
X82405000Y-49600000D03*
D12*
X78960000Y-51830000D03*
X83600000Y-51830000D03*
G04 #@! TD*
D13*
G04 #@! TO.C,F1*
G36*
X78247504Y-56276204D02*
X78271773Y-56279804D01*
X78295571Y-56285765D01*
X78318671Y-56294030D01*
X78340849Y-56304520D01*
X78361893Y-56317133D01*
X78381598Y-56331747D01*
X78399777Y-56348223D01*
X78416253Y-56366402D01*
X78430867Y-56386107D01*
X78443480Y-56407151D01*
X78453970Y-56429329D01*
X78462235Y-56452429D01*
X78468196Y-56476227D01*
X78471796Y-56500496D01*
X78473000Y-56525000D01*
X78473000Y-57775000D01*
X78471796Y-57799504D01*
X78468196Y-57823773D01*
X78462235Y-57847571D01*
X78453970Y-57870671D01*
X78443480Y-57892849D01*
X78430867Y-57913893D01*
X78416253Y-57933598D01*
X78399777Y-57951777D01*
X78381598Y-57968253D01*
X78361893Y-57982867D01*
X78340849Y-57995480D01*
X78318671Y-58005970D01*
X78295571Y-58014235D01*
X78271773Y-58020196D01*
X78247504Y-58023796D01*
X78223000Y-58025000D01*
X77473000Y-58025000D01*
X77448496Y-58023796D01*
X77424227Y-58020196D01*
X77400429Y-58014235D01*
X77377329Y-58005970D01*
X77355151Y-57995480D01*
X77334107Y-57982867D01*
X77314402Y-57968253D01*
X77296223Y-57951777D01*
X77279747Y-57933598D01*
X77265133Y-57913893D01*
X77252520Y-57892849D01*
X77242030Y-57870671D01*
X77233765Y-57847571D01*
X77227804Y-57823773D01*
X77224204Y-57799504D01*
X77223000Y-57775000D01*
X77223000Y-56525000D01*
X77224204Y-56500496D01*
X77227804Y-56476227D01*
X77233765Y-56452429D01*
X77242030Y-56429329D01*
X77252520Y-56407151D01*
X77265133Y-56386107D01*
X77279747Y-56366402D01*
X77296223Y-56348223D01*
X77314402Y-56331747D01*
X77334107Y-56317133D01*
X77355151Y-56304520D01*
X77377329Y-56294030D01*
X77400429Y-56285765D01*
X77424227Y-56279804D01*
X77448496Y-56276204D01*
X77473000Y-56275000D01*
X78223000Y-56275000D01*
X78247504Y-56276204D01*
X78247504Y-56276204D01*
G37*
D14*
X77848000Y-57150000D03*
D13*
G36*
X81047504Y-56276204D02*
X81071773Y-56279804D01*
X81095571Y-56285765D01*
X81118671Y-56294030D01*
X81140849Y-56304520D01*
X81161893Y-56317133D01*
X81181598Y-56331747D01*
X81199777Y-56348223D01*
X81216253Y-56366402D01*
X81230867Y-56386107D01*
X81243480Y-56407151D01*
X81253970Y-56429329D01*
X81262235Y-56452429D01*
X81268196Y-56476227D01*
X81271796Y-56500496D01*
X81273000Y-56525000D01*
X81273000Y-57775000D01*
X81271796Y-57799504D01*
X81268196Y-57823773D01*
X81262235Y-57847571D01*
X81253970Y-57870671D01*
X81243480Y-57892849D01*
X81230867Y-57913893D01*
X81216253Y-57933598D01*
X81199777Y-57951777D01*
X81181598Y-57968253D01*
X81161893Y-57982867D01*
X81140849Y-57995480D01*
X81118671Y-58005970D01*
X81095571Y-58014235D01*
X81071773Y-58020196D01*
X81047504Y-58023796D01*
X81023000Y-58025000D01*
X80273000Y-58025000D01*
X80248496Y-58023796D01*
X80224227Y-58020196D01*
X80200429Y-58014235D01*
X80177329Y-58005970D01*
X80155151Y-57995480D01*
X80134107Y-57982867D01*
X80114402Y-57968253D01*
X80096223Y-57951777D01*
X80079747Y-57933598D01*
X80065133Y-57913893D01*
X80052520Y-57892849D01*
X80042030Y-57870671D01*
X80033765Y-57847571D01*
X80027804Y-57823773D01*
X80024204Y-57799504D01*
X80023000Y-57775000D01*
X80023000Y-56525000D01*
X80024204Y-56500496D01*
X80027804Y-56476227D01*
X80033765Y-56452429D01*
X80042030Y-56429329D01*
X80052520Y-56407151D01*
X80065133Y-56386107D01*
X80079747Y-56366402D01*
X80096223Y-56348223D01*
X80114402Y-56331747D01*
X80134107Y-56317133D01*
X80155151Y-56304520D01*
X80177329Y-56294030D01*
X80200429Y-56285765D01*
X80224227Y-56279804D01*
X80248496Y-56276204D01*
X80273000Y-56275000D01*
X81023000Y-56275000D01*
X81047504Y-56276204D01*
X81047504Y-56276204D01*
G37*
D14*
X80648000Y-57150000D03*
G04 #@! TD*
D13*
G04 #@! TO.C,C2*
G36*
X84597504Y-59128204D02*
X84621773Y-59131804D01*
X84645571Y-59137765D01*
X84668671Y-59146030D01*
X84690849Y-59156520D01*
X84711893Y-59169133D01*
X84731598Y-59183747D01*
X84749777Y-59200223D01*
X84766253Y-59218402D01*
X84780867Y-59238107D01*
X84793480Y-59259151D01*
X84803970Y-59281329D01*
X84812235Y-59304429D01*
X84818196Y-59328227D01*
X84821796Y-59352496D01*
X84823000Y-59377000D01*
X84823000Y-61527000D01*
X84821796Y-61551504D01*
X84818196Y-61575773D01*
X84812235Y-61599571D01*
X84803970Y-61622671D01*
X84793480Y-61644849D01*
X84780867Y-61665893D01*
X84766253Y-61685598D01*
X84749777Y-61703777D01*
X84731598Y-61720253D01*
X84711893Y-61734867D01*
X84690849Y-61747480D01*
X84668671Y-61757970D01*
X84645571Y-61766235D01*
X84621773Y-61772196D01*
X84597504Y-61775796D01*
X84573000Y-61777000D01*
X83823000Y-61777000D01*
X83798496Y-61775796D01*
X83774227Y-61772196D01*
X83750429Y-61766235D01*
X83727329Y-61757970D01*
X83705151Y-61747480D01*
X83684107Y-61734867D01*
X83664402Y-61720253D01*
X83646223Y-61703777D01*
X83629747Y-61685598D01*
X83615133Y-61665893D01*
X83602520Y-61644849D01*
X83592030Y-61622671D01*
X83583765Y-61599571D01*
X83577804Y-61575773D01*
X83574204Y-61551504D01*
X83573000Y-61527000D01*
X83573000Y-59377000D01*
X83574204Y-59352496D01*
X83577804Y-59328227D01*
X83583765Y-59304429D01*
X83592030Y-59281329D01*
X83602520Y-59259151D01*
X83615133Y-59238107D01*
X83629747Y-59218402D01*
X83646223Y-59200223D01*
X83664402Y-59183747D01*
X83684107Y-59169133D01*
X83705151Y-59156520D01*
X83727329Y-59146030D01*
X83750429Y-59137765D01*
X83774227Y-59131804D01*
X83798496Y-59128204D01*
X83823000Y-59127000D01*
X84573000Y-59127000D01*
X84597504Y-59128204D01*
X84597504Y-59128204D01*
G37*
D14*
X84198000Y-60452000D03*
D13*
G36*
X87397504Y-59128204D02*
X87421773Y-59131804D01*
X87445571Y-59137765D01*
X87468671Y-59146030D01*
X87490849Y-59156520D01*
X87511893Y-59169133D01*
X87531598Y-59183747D01*
X87549777Y-59200223D01*
X87566253Y-59218402D01*
X87580867Y-59238107D01*
X87593480Y-59259151D01*
X87603970Y-59281329D01*
X87612235Y-59304429D01*
X87618196Y-59328227D01*
X87621796Y-59352496D01*
X87623000Y-59377000D01*
X87623000Y-61527000D01*
X87621796Y-61551504D01*
X87618196Y-61575773D01*
X87612235Y-61599571D01*
X87603970Y-61622671D01*
X87593480Y-61644849D01*
X87580867Y-61665893D01*
X87566253Y-61685598D01*
X87549777Y-61703777D01*
X87531598Y-61720253D01*
X87511893Y-61734867D01*
X87490849Y-61747480D01*
X87468671Y-61757970D01*
X87445571Y-61766235D01*
X87421773Y-61772196D01*
X87397504Y-61775796D01*
X87373000Y-61777000D01*
X86623000Y-61777000D01*
X86598496Y-61775796D01*
X86574227Y-61772196D01*
X86550429Y-61766235D01*
X86527329Y-61757970D01*
X86505151Y-61747480D01*
X86484107Y-61734867D01*
X86464402Y-61720253D01*
X86446223Y-61703777D01*
X86429747Y-61685598D01*
X86415133Y-61665893D01*
X86402520Y-61644849D01*
X86392030Y-61622671D01*
X86383765Y-61599571D01*
X86377804Y-61575773D01*
X86374204Y-61551504D01*
X86373000Y-61527000D01*
X86373000Y-59377000D01*
X86374204Y-59352496D01*
X86377804Y-59328227D01*
X86383765Y-59304429D01*
X86392030Y-59281329D01*
X86402520Y-59259151D01*
X86415133Y-59238107D01*
X86429747Y-59218402D01*
X86446223Y-59200223D01*
X86464402Y-59183747D01*
X86484107Y-59169133D01*
X86505151Y-59156520D01*
X86527329Y-59146030D01*
X86550429Y-59137765D01*
X86574227Y-59131804D01*
X86598496Y-59128204D01*
X86623000Y-59127000D01*
X87373000Y-59127000D01*
X87397504Y-59128204D01*
X87397504Y-59128204D01*
G37*
D14*
X86998000Y-60452000D03*
G04 #@! TD*
D13*
G04 #@! TO.C,C3*
G36*
X81047504Y-69034204D02*
X81071773Y-69037804D01*
X81095571Y-69043765D01*
X81118671Y-69052030D01*
X81140849Y-69062520D01*
X81161893Y-69075133D01*
X81181598Y-69089747D01*
X81199777Y-69106223D01*
X81216253Y-69124402D01*
X81230867Y-69144107D01*
X81243480Y-69165151D01*
X81253970Y-69187329D01*
X81262235Y-69210429D01*
X81268196Y-69234227D01*
X81271796Y-69258496D01*
X81273000Y-69283000D01*
X81273000Y-71433000D01*
X81271796Y-71457504D01*
X81268196Y-71481773D01*
X81262235Y-71505571D01*
X81253970Y-71528671D01*
X81243480Y-71550849D01*
X81230867Y-71571893D01*
X81216253Y-71591598D01*
X81199777Y-71609777D01*
X81181598Y-71626253D01*
X81161893Y-71640867D01*
X81140849Y-71653480D01*
X81118671Y-71663970D01*
X81095571Y-71672235D01*
X81071773Y-71678196D01*
X81047504Y-71681796D01*
X81023000Y-71683000D01*
X80273000Y-71683000D01*
X80248496Y-71681796D01*
X80224227Y-71678196D01*
X80200429Y-71672235D01*
X80177329Y-71663970D01*
X80155151Y-71653480D01*
X80134107Y-71640867D01*
X80114402Y-71626253D01*
X80096223Y-71609777D01*
X80079747Y-71591598D01*
X80065133Y-71571893D01*
X80052520Y-71550849D01*
X80042030Y-71528671D01*
X80033765Y-71505571D01*
X80027804Y-71481773D01*
X80024204Y-71457504D01*
X80023000Y-71433000D01*
X80023000Y-69283000D01*
X80024204Y-69258496D01*
X80027804Y-69234227D01*
X80033765Y-69210429D01*
X80042030Y-69187329D01*
X80052520Y-69165151D01*
X80065133Y-69144107D01*
X80079747Y-69124402D01*
X80096223Y-69106223D01*
X80114402Y-69089747D01*
X80134107Y-69075133D01*
X80155151Y-69062520D01*
X80177329Y-69052030D01*
X80200429Y-69043765D01*
X80224227Y-69037804D01*
X80248496Y-69034204D01*
X80273000Y-69033000D01*
X81023000Y-69033000D01*
X81047504Y-69034204D01*
X81047504Y-69034204D01*
G37*
D14*
X80648000Y-70358000D03*
D13*
G36*
X78247504Y-69034204D02*
X78271773Y-69037804D01*
X78295571Y-69043765D01*
X78318671Y-69052030D01*
X78340849Y-69062520D01*
X78361893Y-69075133D01*
X78381598Y-69089747D01*
X78399777Y-69106223D01*
X78416253Y-69124402D01*
X78430867Y-69144107D01*
X78443480Y-69165151D01*
X78453970Y-69187329D01*
X78462235Y-69210429D01*
X78468196Y-69234227D01*
X78471796Y-69258496D01*
X78473000Y-69283000D01*
X78473000Y-71433000D01*
X78471796Y-71457504D01*
X78468196Y-71481773D01*
X78462235Y-71505571D01*
X78453970Y-71528671D01*
X78443480Y-71550849D01*
X78430867Y-71571893D01*
X78416253Y-71591598D01*
X78399777Y-71609777D01*
X78381598Y-71626253D01*
X78361893Y-71640867D01*
X78340849Y-71653480D01*
X78318671Y-71663970D01*
X78295571Y-71672235D01*
X78271773Y-71678196D01*
X78247504Y-71681796D01*
X78223000Y-71683000D01*
X77473000Y-71683000D01*
X77448496Y-71681796D01*
X77424227Y-71678196D01*
X77400429Y-71672235D01*
X77377329Y-71663970D01*
X77355151Y-71653480D01*
X77334107Y-71640867D01*
X77314402Y-71626253D01*
X77296223Y-71609777D01*
X77279747Y-71591598D01*
X77265133Y-71571893D01*
X77252520Y-71550849D01*
X77242030Y-71528671D01*
X77233765Y-71505571D01*
X77227804Y-71481773D01*
X77224204Y-71457504D01*
X77223000Y-71433000D01*
X77223000Y-69283000D01*
X77224204Y-69258496D01*
X77227804Y-69234227D01*
X77233765Y-69210429D01*
X77242030Y-69187329D01*
X77252520Y-69165151D01*
X77265133Y-69144107D01*
X77279747Y-69124402D01*
X77296223Y-69106223D01*
X77314402Y-69089747D01*
X77334107Y-69075133D01*
X77355151Y-69062520D01*
X77377329Y-69052030D01*
X77400429Y-69043765D01*
X77424227Y-69037804D01*
X77448496Y-69034204D01*
X77473000Y-69033000D01*
X78223000Y-69033000D01*
X78247504Y-69034204D01*
X78247504Y-69034204D01*
G37*
D14*
X77848000Y-70358000D03*
G04 #@! TD*
D13*
G04 #@! TO.C,C1*
G36*
X71457504Y-67832204D02*
X71481773Y-67835804D01*
X71505571Y-67841765D01*
X71528671Y-67850030D01*
X71550849Y-67860520D01*
X71571893Y-67873133D01*
X71591598Y-67887747D01*
X71609777Y-67904223D01*
X71626253Y-67922402D01*
X71640867Y-67942107D01*
X71653480Y-67963151D01*
X71663970Y-67985329D01*
X71672235Y-68008429D01*
X71678196Y-68032227D01*
X71681796Y-68056496D01*
X71683000Y-68081000D01*
X71683000Y-68831000D01*
X71681796Y-68855504D01*
X71678196Y-68879773D01*
X71672235Y-68903571D01*
X71663970Y-68926671D01*
X71653480Y-68948849D01*
X71640867Y-68969893D01*
X71626253Y-68989598D01*
X71609777Y-69007777D01*
X71591598Y-69024253D01*
X71571893Y-69038867D01*
X71550849Y-69051480D01*
X71528671Y-69061970D01*
X71505571Y-69070235D01*
X71481773Y-69076196D01*
X71457504Y-69079796D01*
X71433000Y-69081000D01*
X69283000Y-69081000D01*
X69258496Y-69079796D01*
X69234227Y-69076196D01*
X69210429Y-69070235D01*
X69187329Y-69061970D01*
X69165151Y-69051480D01*
X69144107Y-69038867D01*
X69124402Y-69024253D01*
X69106223Y-69007777D01*
X69089747Y-68989598D01*
X69075133Y-68969893D01*
X69062520Y-68948849D01*
X69052030Y-68926671D01*
X69043765Y-68903571D01*
X69037804Y-68879773D01*
X69034204Y-68855504D01*
X69033000Y-68831000D01*
X69033000Y-68081000D01*
X69034204Y-68056496D01*
X69037804Y-68032227D01*
X69043765Y-68008429D01*
X69052030Y-67985329D01*
X69062520Y-67963151D01*
X69075133Y-67942107D01*
X69089747Y-67922402D01*
X69106223Y-67904223D01*
X69124402Y-67887747D01*
X69144107Y-67873133D01*
X69165151Y-67860520D01*
X69187329Y-67850030D01*
X69210429Y-67841765D01*
X69234227Y-67835804D01*
X69258496Y-67832204D01*
X69283000Y-67831000D01*
X71433000Y-67831000D01*
X71457504Y-67832204D01*
X71457504Y-67832204D01*
G37*
D14*
X70358000Y-68456000D03*
D13*
G36*
X71457504Y-65032204D02*
X71481773Y-65035804D01*
X71505571Y-65041765D01*
X71528671Y-65050030D01*
X71550849Y-65060520D01*
X71571893Y-65073133D01*
X71591598Y-65087747D01*
X71609777Y-65104223D01*
X71626253Y-65122402D01*
X71640867Y-65142107D01*
X71653480Y-65163151D01*
X71663970Y-65185329D01*
X71672235Y-65208429D01*
X71678196Y-65232227D01*
X71681796Y-65256496D01*
X71683000Y-65281000D01*
X71683000Y-66031000D01*
X71681796Y-66055504D01*
X71678196Y-66079773D01*
X71672235Y-66103571D01*
X71663970Y-66126671D01*
X71653480Y-66148849D01*
X71640867Y-66169893D01*
X71626253Y-66189598D01*
X71609777Y-66207777D01*
X71591598Y-66224253D01*
X71571893Y-66238867D01*
X71550849Y-66251480D01*
X71528671Y-66261970D01*
X71505571Y-66270235D01*
X71481773Y-66276196D01*
X71457504Y-66279796D01*
X71433000Y-66281000D01*
X69283000Y-66281000D01*
X69258496Y-66279796D01*
X69234227Y-66276196D01*
X69210429Y-66270235D01*
X69187329Y-66261970D01*
X69165151Y-66251480D01*
X69144107Y-66238867D01*
X69124402Y-66224253D01*
X69106223Y-66207777D01*
X69089747Y-66189598D01*
X69075133Y-66169893D01*
X69062520Y-66148849D01*
X69052030Y-66126671D01*
X69043765Y-66103571D01*
X69037804Y-66079773D01*
X69034204Y-66055504D01*
X69033000Y-66031000D01*
X69033000Y-65281000D01*
X69034204Y-65256496D01*
X69037804Y-65232227D01*
X69043765Y-65208429D01*
X69052030Y-65185329D01*
X69062520Y-65163151D01*
X69075133Y-65142107D01*
X69089747Y-65122402D01*
X69106223Y-65104223D01*
X69124402Y-65087747D01*
X69144107Y-65073133D01*
X69165151Y-65060520D01*
X69187329Y-65050030D01*
X69210429Y-65041765D01*
X69234227Y-65035804D01*
X69258496Y-65032204D01*
X69283000Y-65031000D01*
X71433000Y-65031000D01*
X71457504Y-65032204D01*
X71457504Y-65032204D01*
G37*
D14*
X70358000Y-65656000D03*
G04 #@! TD*
D15*
G04 #@! TO.C,D1*
X87504000Y-52070000D03*
X90804000Y-52070000D03*
G04 #@! TD*
D16*
G04 #@! TO.C,L1*
X84752000Y-55626000D03*
X86952000Y-55626000D03*
G04 #@! TD*
D17*
G04 #@! TO.C,U3*
X83144000Y-64557000D03*
X83144000Y-65207000D03*
X83144000Y-65857000D03*
X83144000Y-66507000D03*
X87544000Y-66507000D03*
X87544000Y-65857000D03*
X87544000Y-65207000D03*
X87544000Y-64557000D03*
G04 #@! TD*
D18*
G04 #@! TO.C,U4*
X91338000Y-55358000D03*
X91338000Y-59958000D03*
X91338000Y-57658000D03*
D19*
X97638000Y-57658000D03*
G04 #@! TD*
G04 #@! TO.C,U5*
X97638000Y-65786000D03*
D18*
X91338000Y-65786000D03*
X91338000Y-68086000D03*
X91338000Y-63486000D03*
G04 #@! TD*
D20*
G04 #@! TO.C,U1*
X74488000Y-54780000D03*
X76388000Y-54780000D03*
X76388000Y-56980000D03*
X75438000Y-56980000D03*
X74488000Y-56980000D03*
G04 #@! TD*
G04 #@! TO.C,U2*
X74102000Y-61384000D03*
X73152000Y-61384000D03*
X72202000Y-61384000D03*
X72202000Y-63584000D03*
X74102000Y-63584000D03*
G04 #@! TD*
D13*
G04 #@! TO.C,R3*
G36*
X87094142Y-68680174D02*
X87117803Y-68683684D01*
X87141007Y-68689496D01*
X87163529Y-68697554D01*
X87185153Y-68707782D01*
X87205670Y-68720079D01*
X87224883Y-68734329D01*
X87242607Y-68750393D01*
X87258671Y-68768117D01*
X87272921Y-68787330D01*
X87285218Y-68807847D01*
X87295446Y-68829471D01*
X87303504Y-68851993D01*
X87309316Y-68875197D01*
X87312826Y-68898858D01*
X87314000Y-68922750D01*
X87314000Y-69410250D01*
X87312826Y-69434142D01*
X87309316Y-69457803D01*
X87303504Y-69481007D01*
X87295446Y-69503529D01*
X87285218Y-69525153D01*
X87272921Y-69545670D01*
X87258671Y-69564883D01*
X87242607Y-69582607D01*
X87224883Y-69598671D01*
X87205670Y-69612921D01*
X87185153Y-69625218D01*
X87163529Y-69635446D01*
X87141007Y-69643504D01*
X87117803Y-69649316D01*
X87094142Y-69652826D01*
X87070250Y-69654000D01*
X86157750Y-69654000D01*
X86133858Y-69652826D01*
X86110197Y-69649316D01*
X86086993Y-69643504D01*
X86064471Y-69635446D01*
X86042847Y-69625218D01*
X86022330Y-69612921D01*
X86003117Y-69598671D01*
X85985393Y-69582607D01*
X85969329Y-69564883D01*
X85955079Y-69545670D01*
X85942782Y-69525153D01*
X85932554Y-69503529D01*
X85924496Y-69481007D01*
X85918684Y-69457803D01*
X85915174Y-69434142D01*
X85914000Y-69410250D01*
X85914000Y-68922750D01*
X85915174Y-68898858D01*
X85918684Y-68875197D01*
X85924496Y-68851993D01*
X85932554Y-68829471D01*
X85942782Y-68807847D01*
X85955079Y-68787330D01*
X85969329Y-68768117D01*
X85985393Y-68750393D01*
X86003117Y-68734329D01*
X86022330Y-68720079D01*
X86042847Y-68707782D01*
X86064471Y-68697554D01*
X86086993Y-68689496D01*
X86110197Y-68683684D01*
X86133858Y-68680174D01*
X86157750Y-68679000D01*
X87070250Y-68679000D01*
X87094142Y-68680174D01*
X87094142Y-68680174D01*
G37*
D21*
X86614000Y-69166500D03*
D13*
G36*
X87094142Y-70555174D02*
X87117803Y-70558684D01*
X87141007Y-70564496D01*
X87163529Y-70572554D01*
X87185153Y-70582782D01*
X87205670Y-70595079D01*
X87224883Y-70609329D01*
X87242607Y-70625393D01*
X87258671Y-70643117D01*
X87272921Y-70662330D01*
X87285218Y-70682847D01*
X87295446Y-70704471D01*
X87303504Y-70726993D01*
X87309316Y-70750197D01*
X87312826Y-70773858D01*
X87314000Y-70797750D01*
X87314000Y-71285250D01*
X87312826Y-71309142D01*
X87309316Y-71332803D01*
X87303504Y-71356007D01*
X87295446Y-71378529D01*
X87285218Y-71400153D01*
X87272921Y-71420670D01*
X87258671Y-71439883D01*
X87242607Y-71457607D01*
X87224883Y-71473671D01*
X87205670Y-71487921D01*
X87185153Y-71500218D01*
X87163529Y-71510446D01*
X87141007Y-71518504D01*
X87117803Y-71524316D01*
X87094142Y-71527826D01*
X87070250Y-71529000D01*
X86157750Y-71529000D01*
X86133858Y-71527826D01*
X86110197Y-71524316D01*
X86086993Y-71518504D01*
X86064471Y-71510446D01*
X86042847Y-71500218D01*
X86022330Y-71487921D01*
X86003117Y-71473671D01*
X85985393Y-71457607D01*
X85969329Y-71439883D01*
X85955079Y-71420670D01*
X85942782Y-71400153D01*
X85932554Y-71378529D01*
X85924496Y-71356007D01*
X85918684Y-71332803D01*
X85915174Y-71309142D01*
X85914000Y-71285250D01*
X85914000Y-70797750D01*
X85915174Y-70773858D01*
X85918684Y-70750197D01*
X85924496Y-70726993D01*
X85932554Y-70704471D01*
X85942782Y-70682847D01*
X85955079Y-70662330D01*
X85969329Y-70643117D01*
X85985393Y-70625393D01*
X86003117Y-70609329D01*
X86022330Y-70595079D01*
X86042847Y-70582782D01*
X86064471Y-70572554D01*
X86086993Y-70564496D01*
X86110197Y-70558684D01*
X86133858Y-70555174D01*
X86157750Y-70554000D01*
X87070250Y-70554000D01*
X87094142Y-70555174D01*
X87094142Y-70555174D01*
G37*
D21*
X86614000Y-71041500D03*
G04 #@! TD*
D13*
G04 #@! TO.C,R4*
G36*
X72108142Y-54456174D02*
X72131803Y-54459684D01*
X72155007Y-54465496D01*
X72177529Y-54473554D01*
X72199153Y-54483782D01*
X72219670Y-54496079D01*
X72238883Y-54510329D01*
X72256607Y-54526393D01*
X72272671Y-54544117D01*
X72286921Y-54563330D01*
X72299218Y-54583847D01*
X72309446Y-54605471D01*
X72317504Y-54627993D01*
X72323316Y-54651197D01*
X72326826Y-54674858D01*
X72328000Y-54698750D01*
X72328000Y-55186250D01*
X72326826Y-55210142D01*
X72323316Y-55233803D01*
X72317504Y-55257007D01*
X72309446Y-55279529D01*
X72299218Y-55301153D01*
X72286921Y-55321670D01*
X72272671Y-55340883D01*
X72256607Y-55358607D01*
X72238883Y-55374671D01*
X72219670Y-55388921D01*
X72199153Y-55401218D01*
X72177529Y-55411446D01*
X72155007Y-55419504D01*
X72131803Y-55425316D01*
X72108142Y-55428826D01*
X72084250Y-55430000D01*
X71171750Y-55430000D01*
X71147858Y-55428826D01*
X71124197Y-55425316D01*
X71100993Y-55419504D01*
X71078471Y-55411446D01*
X71056847Y-55401218D01*
X71036330Y-55388921D01*
X71017117Y-55374671D01*
X70999393Y-55358607D01*
X70983329Y-55340883D01*
X70969079Y-55321670D01*
X70956782Y-55301153D01*
X70946554Y-55279529D01*
X70938496Y-55257007D01*
X70932684Y-55233803D01*
X70929174Y-55210142D01*
X70928000Y-55186250D01*
X70928000Y-54698750D01*
X70929174Y-54674858D01*
X70932684Y-54651197D01*
X70938496Y-54627993D01*
X70946554Y-54605471D01*
X70956782Y-54583847D01*
X70969079Y-54563330D01*
X70983329Y-54544117D01*
X70999393Y-54526393D01*
X71017117Y-54510329D01*
X71036330Y-54496079D01*
X71056847Y-54483782D01*
X71078471Y-54473554D01*
X71100993Y-54465496D01*
X71124197Y-54459684D01*
X71147858Y-54456174D01*
X71171750Y-54455000D01*
X72084250Y-54455000D01*
X72108142Y-54456174D01*
X72108142Y-54456174D01*
G37*
D21*
X71628000Y-54942500D03*
D13*
G36*
X72108142Y-56331174D02*
X72131803Y-56334684D01*
X72155007Y-56340496D01*
X72177529Y-56348554D01*
X72199153Y-56358782D01*
X72219670Y-56371079D01*
X72238883Y-56385329D01*
X72256607Y-56401393D01*
X72272671Y-56419117D01*
X72286921Y-56438330D01*
X72299218Y-56458847D01*
X72309446Y-56480471D01*
X72317504Y-56502993D01*
X72323316Y-56526197D01*
X72326826Y-56549858D01*
X72328000Y-56573750D01*
X72328000Y-57061250D01*
X72326826Y-57085142D01*
X72323316Y-57108803D01*
X72317504Y-57132007D01*
X72309446Y-57154529D01*
X72299218Y-57176153D01*
X72286921Y-57196670D01*
X72272671Y-57215883D01*
X72256607Y-57233607D01*
X72238883Y-57249671D01*
X72219670Y-57263921D01*
X72199153Y-57276218D01*
X72177529Y-57286446D01*
X72155007Y-57294504D01*
X72131803Y-57300316D01*
X72108142Y-57303826D01*
X72084250Y-57305000D01*
X71171750Y-57305000D01*
X71147858Y-57303826D01*
X71124197Y-57300316D01*
X71100993Y-57294504D01*
X71078471Y-57286446D01*
X71056847Y-57276218D01*
X71036330Y-57263921D01*
X71017117Y-57249671D01*
X70999393Y-57233607D01*
X70983329Y-57215883D01*
X70969079Y-57196670D01*
X70956782Y-57176153D01*
X70946554Y-57154529D01*
X70938496Y-57132007D01*
X70932684Y-57108803D01*
X70929174Y-57085142D01*
X70928000Y-57061250D01*
X70928000Y-56573750D01*
X70929174Y-56549858D01*
X70932684Y-56526197D01*
X70938496Y-56502993D01*
X70946554Y-56480471D01*
X70956782Y-56458847D01*
X70969079Y-56438330D01*
X70983329Y-56419117D01*
X70999393Y-56401393D01*
X71017117Y-56385329D01*
X71036330Y-56371079D01*
X71056847Y-56358782D01*
X71078471Y-56348554D01*
X71100993Y-56340496D01*
X71124197Y-56334684D01*
X71147858Y-56331174D01*
X71171750Y-56330000D01*
X72084250Y-56330000D01*
X72108142Y-56331174D01*
X72108142Y-56331174D01*
G37*
D21*
X71628000Y-56817500D03*
G04 #@! TD*
D13*
G04 #@! TO.C,R2*
G36*
X85062142Y-70555174D02*
X85085803Y-70558684D01*
X85109007Y-70564496D01*
X85131529Y-70572554D01*
X85153153Y-70582782D01*
X85173670Y-70595079D01*
X85192883Y-70609329D01*
X85210607Y-70625393D01*
X85226671Y-70643117D01*
X85240921Y-70662330D01*
X85253218Y-70682847D01*
X85263446Y-70704471D01*
X85271504Y-70726993D01*
X85277316Y-70750197D01*
X85280826Y-70773858D01*
X85282000Y-70797750D01*
X85282000Y-71285250D01*
X85280826Y-71309142D01*
X85277316Y-71332803D01*
X85271504Y-71356007D01*
X85263446Y-71378529D01*
X85253218Y-71400153D01*
X85240921Y-71420670D01*
X85226671Y-71439883D01*
X85210607Y-71457607D01*
X85192883Y-71473671D01*
X85173670Y-71487921D01*
X85153153Y-71500218D01*
X85131529Y-71510446D01*
X85109007Y-71518504D01*
X85085803Y-71524316D01*
X85062142Y-71527826D01*
X85038250Y-71529000D01*
X84125750Y-71529000D01*
X84101858Y-71527826D01*
X84078197Y-71524316D01*
X84054993Y-71518504D01*
X84032471Y-71510446D01*
X84010847Y-71500218D01*
X83990330Y-71487921D01*
X83971117Y-71473671D01*
X83953393Y-71457607D01*
X83937329Y-71439883D01*
X83923079Y-71420670D01*
X83910782Y-71400153D01*
X83900554Y-71378529D01*
X83892496Y-71356007D01*
X83886684Y-71332803D01*
X83883174Y-71309142D01*
X83882000Y-71285250D01*
X83882000Y-70797750D01*
X83883174Y-70773858D01*
X83886684Y-70750197D01*
X83892496Y-70726993D01*
X83900554Y-70704471D01*
X83910782Y-70682847D01*
X83923079Y-70662330D01*
X83937329Y-70643117D01*
X83953393Y-70625393D01*
X83971117Y-70609329D01*
X83990330Y-70595079D01*
X84010847Y-70582782D01*
X84032471Y-70572554D01*
X84054993Y-70564496D01*
X84078197Y-70558684D01*
X84101858Y-70555174D01*
X84125750Y-70554000D01*
X85038250Y-70554000D01*
X85062142Y-70555174D01*
X85062142Y-70555174D01*
G37*
D21*
X84582000Y-71041500D03*
D13*
G36*
X85062142Y-68680174D02*
X85085803Y-68683684D01*
X85109007Y-68689496D01*
X85131529Y-68697554D01*
X85153153Y-68707782D01*
X85173670Y-68720079D01*
X85192883Y-68734329D01*
X85210607Y-68750393D01*
X85226671Y-68768117D01*
X85240921Y-68787330D01*
X85253218Y-68807847D01*
X85263446Y-68829471D01*
X85271504Y-68851993D01*
X85277316Y-68875197D01*
X85280826Y-68898858D01*
X85282000Y-68922750D01*
X85282000Y-69410250D01*
X85280826Y-69434142D01*
X85277316Y-69457803D01*
X85271504Y-69481007D01*
X85263446Y-69503529D01*
X85253218Y-69525153D01*
X85240921Y-69545670D01*
X85226671Y-69564883D01*
X85210607Y-69582607D01*
X85192883Y-69598671D01*
X85173670Y-69612921D01*
X85153153Y-69625218D01*
X85131529Y-69635446D01*
X85109007Y-69643504D01*
X85085803Y-69649316D01*
X85062142Y-69652826D01*
X85038250Y-69654000D01*
X84125750Y-69654000D01*
X84101858Y-69652826D01*
X84078197Y-69649316D01*
X84054993Y-69643504D01*
X84032471Y-69635446D01*
X84010847Y-69625218D01*
X83990330Y-69612921D01*
X83971117Y-69598671D01*
X83953393Y-69582607D01*
X83937329Y-69564883D01*
X83923079Y-69545670D01*
X83910782Y-69525153D01*
X83900554Y-69503529D01*
X83892496Y-69481007D01*
X83886684Y-69457803D01*
X83883174Y-69434142D01*
X83882000Y-69410250D01*
X83882000Y-68922750D01*
X83883174Y-68898858D01*
X83886684Y-68875197D01*
X83892496Y-68851993D01*
X83900554Y-68829471D01*
X83910782Y-68807847D01*
X83923079Y-68787330D01*
X83937329Y-68768117D01*
X83953393Y-68750393D01*
X83971117Y-68734329D01*
X83990330Y-68720079D01*
X84010847Y-68707782D01*
X84032471Y-68697554D01*
X84054993Y-68689496D01*
X84078197Y-68683684D01*
X84101858Y-68680174D01*
X84125750Y-68679000D01*
X85038250Y-68679000D01*
X85062142Y-68680174D01*
X85062142Y-68680174D01*
G37*
D21*
X84582000Y-69166500D03*
G04 #@! TD*
D13*
G04 #@! TO.C,R1*
G36*
X78324142Y-60261174D02*
X78347803Y-60264684D01*
X78371007Y-60270496D01*
X78393529Y-60278554D01*
X78415153Y-60288782D01*
X78435670Y-60301079D01*
X78454883Y-60315329D01*
X78472607Y-60331393D01*
X78488671Y-60349117D01*
X78502921Y-60368330D01*
X78515218Y-60388847D01*
X78525446Y-60410471D01*
X78533504Y-60432993D01*
X78539316Y-60456197D01*
X78542826Y-60479858D01*
X78544000Y-60503750D01*
X78544000Y-61416250D01*
X78542826Y-61440142D01*
X78539316Y-61463803D01*
X78533504Y-61487007D01*
X78525446Y-61509529D01*
X78515218Y-61531153D01*
X78502921Y-61551670D01*
X78488671Y-61570883D01*
X78472607Y-61588607D01*
X78454883Y-61604671D01*
X78435670Y-61618921D01*
X78415153Y-61631218D01*
X78393529Y-61641446D01*
X78371007Y-61649504D01*
X78347803Y-61655316D01*
X78324142Y-61658826D01*
X78300250Y-61660000D01*
X77812750Y-61660000D01*
X77788858Y-61658826D01*
X77765197Y-61655316D01*
X77741993Y-61649504D01*
X77719471Y-61641446D01*
X77697847Y-61631218D01*
X77677330Y-61618921D01*
X77658117Y-61604671D01*
X77640393Y-61588607D01*
X77624329Y-61570883D01*
X77610079Y-61551670D01*
X77597782Y-61531153D01*
X77587554Y-61509529D01*
X77579496Y-61487007D01*
X77573684Y-61463803D01*
X77570174Y-61440142D01*
X77569000Y-61416250D01*
X77569000Y-60503750D01*
X77570174Y-60479858D01*
X77573684Y-60456197D01*
X77579496Y-60432993D01*
X77587554Y-60410471D01*
X77597782Y-60388847D01*
X77610079Y-60368330D01*
X77624329Y-60349117D01*
X77640393Y-60331393D01*
X77658117Y-60315329D01*
X77677330Y-60301079D01*
X77697847Y-60288782D01*
X77719471Y-60278554D01*
X77741993Y-60270496D01*
X77765197Y-60264684D01*
X77788858Y-60261174D01*
X77812750Y-60260000D01*
X78300250Y-60260000D01*
X78324142Y-60261174D01*
X78324142Y-60261174D01*
G37*
D21*
X78056500Y-60960000D03*
D13*
G36*
X80199142Y-60261174D02*
X80222803Y-60264684D01*
X80246007Y-60270496D01*
X80268529Y-60278554D01*
X80290153Y-60288782D01*
X80310670Y-60301079D01*
X80329883Y-60315329D01*
X80347607Y-60331393D01*
X80363671Y-60349117D01*
X80377921Y-60368330D01*
X80390218Y-60388847D01*
X80400446Y-60410471D01*
X80408504Y-60432993D01*
X80414316Y-60456197D01*
X80417826Y-60479858D01*
X80419000Y-60503750D01*
X80419000Y-61416250D01*
X80417826Y-61440142D01*
X80414316Y-61463803D01*
X80408504Y-61487007D01*
X80400446Y-61509529D01*
X80390218Y-61531153D01*
X80377921Y-61551670D01*
X80363671Y-61570883D01*
X80347607Y-61588607D01*
X80329883Y-61604671D01*
X80310670Y-61618921D01*
X80290153Y-61631218D01*
X80268529Y-61641446D01*
X80246007Y-61649504D01*
X80222803Y-61655316D01*
X80199142Y-61658826D01*
X80175250Y-61660000D01*
X79687750Y-61660000D01*
X79663858Y-61658826D01*
X79640197Y-61655316D01*
X79616993Y-61649504D01*
X79594471Y-61641446D01*
X79572847Y-61631218D01*
X79552330Y-61618921D01*
X79533117Y-61604671D01*
X79515393Y-61588607D01*
X79499329Y-61570883D01*
X79485079Y-61551670D01*
X79472782Y-61531153D01*
X79462554Y-61509529D01*
X79454496Y-61487007D01*
X79448684Y-61463803D01*
X79445174Y-61440142D01*
X79444000Y-61416250D01*
X79444000Y-60503750D01*
X79445174Y-60479858D01*
X79448684Y-60456197D01*
X79454496Y-60432993D01*
X79462554Y-60410471D01*
X79472782Y-60388847D01*
X79485079Y-60368330D01*
X79499329Y-60349117D01*
X79515393Y-60331393D01*
X79533117Y-60315329D01*
X79552330Y-60301079D01*
X79572847Y-60288782D01*
X79594471Y-60278554D01*
X79616993Y-60270496D01*
X79640197Y-60264684D01*
X79663858Y-60261174D01*
X79687750Y-60260000D01*
X80175250Y-60260000D01*
X80199142Y-60261174D01*
X80199142Y-60261174D01*
G37*
D21*
X79931500Y-60960000D03*
G04 #@! TD*
M02*
