G04 #@! TF.GenerationSoftware,KiCad,Pcbnew,(5.0.1)-3*
G04 #@! TF.CreationDate,2019-08-21T09:16:30-04:00*
G04 #@! TF.ProjectId,BMS Module,424D53204D6F64756C652E6B69636164,rev?*
G04 #@! TF.SameCoordinates,Original*
G04 #@! TF.FileFunction,Other,User*
%FSLAX46Y46*%
G04 Gerber Fmt 4.6, Leading zero omitted, Abs format (unit mm)*
G04 Created by KiCad (PCBNEW (5.0.1)-3) date 8/21/2019 9:16:30 AM*
%MOMM*%
%LPD*%
G01*
G04 APERTURE LIST*
%ADD10C,0.050000*%
G04 APERTURE END LIST*
D10*
G04 #@! TO.C,J4*
X85880000Y-46350000D02*
X76680000Y-46350000D01*
X76680000Y-53450000D02*
X76680000Y-46350000D01*
X85880000Y-53450000D02*
X76680000Y-53450000D01*
X85880000Y-46350000D02*
X85880000Y-53450000D01*
G04 #@! TO.C,F1*
X76968000Y-58270000D02*
X76968000Y-56030000D01*
X76968000Y-56030000D02*
X81528000Y-56030000D01*
X81528000Y-56030000D02*
X81528000Y-58270000D01*
X81528000Y-58270000D02*
X76968000Y-58270000D01*
G04 #@! TO.C,C2*
X83318000Y-62032000D02*
X83318000Y-58872000D01*
X83318000Y-58872000D02*
X87878000Y-58872000D01*
X87878000Y-58872000D02*
X87878000Y-62032000D01*
X87878000Y-62032000D02*
X83318000Y-62032000D01*
G04 #@! TO.C,C3*
X81528000Y-71938000D02*
X76968000Y-71938000D01*
X81528000Y-68778000D02*
X81528000Y-71938000D01*
X76968000Y-68778000D02*
X81528000Y-68778000D01*
X76968000Y-71938000D02*
X76968000Y-68778000D01*
G04 #@! TO.C,C1*
X71938000Y-69336000D02*
X68778000Y-69336000D01*
X68778000Y-69336000D02*
X68778000Y-64776000D01*
X68778000Y-64776000D02*
X71938000Y-64776000D01*
X71938000Y-64776000D02*
X71938000Y-69336000D01*
G04 #@! TO.C,J1*
X71142000Y-70590000D02*
X67542000Y-70590000D01*
X71142000Y-74190000D02*
X71142000Y-70590000D01*
X67542000Y-74190000D02*
X71142000Y-74190000D01*
X67542000Y-70590000D02*
X67542000Y-74190000D01*
G04 #@! TO.C,J3*
X67542000Y-48238000D02*
X67542000Y-51838000D01*
X67542000Y-51838000D02*
X71142000Y-51838000D01*
X71142000Y-51838000D02*
X71142000Y-48238000D01*
X71142000Y-48238000D02*
X67542000Y-48238000D01*
G04 #@! TO.C,J6*
X100352000Y-71098000D02*
X96752000Y-71098000D01*
X100352000Y-74698000D02*
X100352000Y-71098000D01*
X96752000Y-74698000D02*
X100352000Y-74698000D01*
X96752000Y-71098000D02*
X96752000Y-74698000D01*
G04 #@! TO.C,J7*
X96244000Y-48238000D02*
X96244000Y-51838000D01*
X96244000Y-51838000D02*
X99844000Y-51838000D01*
X99844000Y-51838000D02*
X99844000Y-48238000D01*
X99844000Y-48238000D02*
X96244000Y-48238000D01*
G04 #@! TO.C,J5*
X103654000Y-48238000D02*
X100054000Y-48238000D01*
X103654000Y-74688000D02*
X103654000Y-48238000D01*
X100054000Y-74688000D02*
X103654000Y-74688000D01*
X100054000Y-48238000D02*
X100054000Y-74688000D01*
G04 #@! TO.C,J2*
X63986000Y-48238000D02*
X63986000Y-74688000D01*
X63986000Y-74688000D02*
X67586000Y-74688000D01*
X67586000Y-74688000D02*
X67586000Y-48238000D01*
X67586000Y-48238000D02*
X63986000Y-48238000D01*
G04 #@! TO.C,D1*
X86804000Y-50920000D02*
X91504000Y-50920000D01*
X91504000Y-50920000D02*
X91504000Y-53220000D01*
X91504000Y-53220000D02*
X86804000Y-53220000D01*
X86804000Y-50920000D02*
X86804000Y-53220000D01*
G04 #@! TO.C,L1*
X84052000Y-53826000D02*
X84052000Y-57426000D01*
X84052000Y-57426000D02*
X87652000Y-57426000D01*
X87652000Y-57426000D02*
X87652000Y-53826000D01*
X87652000Y-53826000D02*
X84052000Y-53826000D01*
G04 #@! TO.C,U3*
X82144000Y-63682000D02*
X82144000Y-67382000D01*
X88544000Y-63682000D02*
X88544000Y-67382000D01*
X82144000Y-63682000D02*
X88544000Y-63682000D01*
X82144000Y-67382000D02*
X88544000Y-67382000D01*
G04 #@! TO.C,U4*
X90088000Y-54058000D02*
X90088000Y-61258000D01*
X90088000Y-61258000D02*
X98888000Y-61258000D01*
X98888000Y-61258000D02*
X98888000Y-54058000D01*
X98888000Y-54058000D02*
X90088000Y-54058000D01*
G04 #@! TO.C,U5*
X98888000Y-62186000D02*
X90088000Y-62186000D01*
X98888000Y-69386000D02*
X98888000Y-62186000D01*
X90088000Y-69386000D02*
X98888000Y-69386000D01*
X90088000Y-62186000D02*
X90088000Y-69386000D01*
G04 #@! TO.C,U1*
X77238000Y-57780000D02*
X73638000Y-57780000D01*
X77238000Y-53980000D02*
X77238000Y-57780000D01*
X73638000Y-53980000D02*
X77238000Y-53980000D01*
X73638000Y-57780000D02*
X73638000Y-53980000D01*
G04 #@! TO.C,U2*
X74952000Y-60584000D02*
X74952000Y-64384000D01*
X74952000Y-64384000D02*
X71352000Y-64384000D01*
X71352000Y-64384000D02*
X71352000Y-60584000D01*
X71352000Y-60584000D02*
X74952000Y-60584000D01*
G04 #@! TO.C,R3*
X87564000Y-68424000D02*
X87564000Y-71784000D01*
X85664000Y-68424000D02*
X87564000Y-68424000D01*
X85664000Y-71784000D02*
X85664000Y-68424000D01*
X87564000Y-71784000D02*
X85664000Y-71784000D01*
G04 #@! TO.C,R4*
X70678000Y-54200000D02*
X72578000Y-54200000D01*
X72578000Y-54200000D02*
X72578000Y-57560000D01*
X72578000Y-57560000D02*
X70678000Y-57560000D01*
X70678000Y-57560000D02*
X70678000Y-54200000D01*
G04 #@! TO.C,R2*
X83632000Y-71784000D02*
X83632000Y-68424000D01*
X85532000Y-71784000D02*
X83632000Y-71784000D01*
X85532000Y-68424000D02*
X85532000Y-71784000D01*
X83632000Y-68424000D02*
X85532000Y-68424000D01*
G04 #@! TO.C,R1*
X77314000Y-61910000D02*
X77314000Y-60010000D01*
X77314000Y-60010000D02*
X80674000Y-60010000D01*
X80674000Y-60010000D02*
X80674000Y-61910000D01*
X80674000Y-61910000D02*
X77314000Y-61910000D01*
G04 #@! TD*
M02*
